G04 #@! TF.GenerationSoftware,KiCad,Pcbnew,(5.1.0)-1*
G04 #@! TF.CreationDate,2019-04-19T18:14:24+02:00*
G04 #@! TF.ProjectId,pcb_main,7063625f-6d61-4696-9e2e-6b696361645f,rev?*
G04 #@! TF.SameCoordinates,Original*
G04 #@! TF.FileFunction,Legend,Bot*
G04 #@! TF.FilePolarity,Positive*
%FSLAX46Y46*%
G04 Gerber Fmt 4.6, Leading zero omitted, Abs format (unit mm)*
G04 Created by KiCad (PCBNEW (5.1.0)-1) date 2019-04-19 18:14:24*
%MOMM*%
%LPD*%
G04 APERTURE LIST*
%ADD10C,0.120000*%
%ADD11C,0.150000*%
G04 APERTURE END LIST*
D10*
X108570000Y-131650000D02*
G75*
G03X108570000Y-131650000I-8570000J0D01*
G01*
X108570000Y-142570000D02*
X108570000Y-131650000D01*
X108570000Y-142570000D02*
X91430000Y-142570000D01*
X91430000Y-142570000D02*
X91430000Y-131650000D01*
X158570000Y-131650000D02*
G75*
G03X158570000Y-131650000I-8570000J0D01*
G01*
X158570000Y-142570000D02*
X158570000Y-131650000D01*
X158570000Y-142570000D02*
X141430000Y-142570000D01*
X141430000Y-142570000D02*
X141430000Y-131650000D01*
X183570000Y-131650000D02*
G75*
G03X183570000Y-131650000I-8570000J0D01*
G01*
X183570000Y-142570000D02*
X183570000Y-131650000D01*
X183570000Y-142570000D02*
X166430000Y-142570000D01*
X166430000Y-142570000D02*
X166430000Y-131650000D01*
X133570000Y-131650000D02*
G75*
G03X133570000Y-131650000I-8570000J0D01*
G01*
X133570000Y-142570000D02*
X133570000Y-131650000D01*
X133570000Y-142570000D02*
X116430000Y-142570000D01*
X116430000Y-142570000D02*
X116430000Y-131650000D01*
X208570000Y-131650000D02*
G75*
G03X208570000Y-131650000I-8570000J0D01*
G01*
X208570000Y-142570000D02*
X208570000Y-131650000D01*
X208570000Y-142570000D02*
X191430000Y-142570000D01*
X191430000Y-142570000D02*
X191430000Y-131650000D01*
X233570000Y-131650000D02*
G75*
G03X233570000Y-131650000I-8570000J0D01*
G01*
X233570000Y-142570000D02*
X233570000Y-131650000D01*
X233570000Y-142570000D02*
X216430000Y-142570000D01*
X216430000Y-142570000D02*
X216430000Y-131650000D01*
X193430000Y-146480000D02*
X192400000Y-146480000D01*
X193430000Y-146480000D02*
X193430000Y-147500000D01*
X181540000Y-146730000D02*
X181540000Y-159670000D01*
X193180000Y-146730000D02*
X193180000Y-159670000D01*
X193180000Y-159670000D02*
X181540000Y-159670000D01*
X193180000Y-146730000D02*
X181540000Y-146730000D01*
X143430000Y-146480000D02*
X142400000Y-146480000D01*
X143430000Y-146480000D02*
X143430000Y-147500000D01*
X131540000Y-146730000D02*
X131540000Y-159670000D01*
X143180000Y-146730000D02*
X143180000Y-159670000D01*
X143180000Y-159670000D02*
X131540000Y-159670000D01*
X143180000Y-146730000D02*
X131540000Y-146730000D01*
D11*
X107000000Y-138842857D02*
X106952380Y-138747619D01*
X106952380Y-138604761D01*
X107000000Y-138461904D01*
X107095238Y-138366666D01*
X107190476Y-138319047D01*
X107380952Y-138271428D01*
X107523809Y-138271428D01*
X107714285Y-138319047D01*
X107809523Y-138366666D01*
X107904761Y-138461904D01*
X107952380Y-138604761D01*
X107952380Y-138700000D01*
X107904761Y-138842857D01*
X107857142Y-138890476D01*
X107523809Y-138890476D01*
X107523809Y-138700000D01*
X107952380Y-139747619D02*
X107428571Y-139747619D01*
X107333333Y-139700000D01*
X107285714Y-139604761D01*
X107285714Y-139414285D01*
X107333333Y-139319047D01*
X107904761Y-139747619D02*
X107952380Y-139652380D01*
X107952380Y-139414285D01*
X107904761Y-139319047D01*
X107809523Y-139271428D01*
X107714285Y-139271428D01*
X107619047Y-139319047D01*
X107571428Y-139414285D01*
X107571428Y-139652380D01*
X107523809Y-139747619D01*
X107952380Y-140223809D02*
X107285714Y-140223809D01*
X106952380Y-140223809D02*
X107000000Y-140176190D01*
X107047619Y-140223809D01*
X107000000Y-140271428D01*
X106952380Y-140223809D01*
X107047619Y-140223809D01*
X107285714Y-140700000D02*
X107952380Y-140700000D01*
X107380952Y-140700000D02*
X107333333Y-140747619D01*
X107285714Y-140842857D01*
X107285714Y-140985714D01*
X107333333Y-141080952D01*
X107428571Y-141128571D01*
X107952380Y-141128571D01*
X107952380Y-142128571D02*
X107952380Y-141557142D01*
X107952380Y-141842857D02*
X106952380Y-141842857D01*
X107095238Y-141747619D01*
X107190476Y-141652380D01*
X107238095Y-141557142D01*
X157904761Y-137104761D02*
X157952380Y-137247619D01*
X157952380Y-137485714D01*
X157904761Y-137580952D01*
X157857142Y-137628571D01*
X157761904Y-137676190D01*
X157666666Y-137676190D01*
X157571428Y-137628571D01*
X157523809Y-137580952D01*
X157476190Y-137485714D01*
X157428571Y-137295238D01*
X157380952Y-137200000D01*
X157333333Y-137152380D01*
X157238095Y-137104761D01*
X157142857Y-137104761D01*
X157047619Y-137152380D01*
X157000000Y-137200000D01*
X156952380Y-137295238D01*
X156952380Y-137533333D01*
X157000000Y-137676190D01*
X157285714Y-138009523D02*
X157952380Y-138200000D01*
X157476190Y-138390476D01*
X157952380Y-138580952D01*
X157285714Y-138771428D01*
X157904761Y-139533333D02*
X157952380Y-139438095D01*
X157952380Y-139247619D01*
X157904761Y-139152380D01*
X157809523Y-139104761D01*
X157428571Y-139104761D01*
X157333333Y-139152380D01*
X157285714Y-139247619D01*
X157285714Y-139438095D01*
X157333333Y-139533333D01*
X157428571Y-139580952D01*
X157523809Y-139580952D01*
X157619047Y-139104761D01*
X157904761Y-140390476D02*
X157952380Y-140295238D01*
X157952380Y-140104761D01*
X157904761Y-140009523D01*
X157809523Y-139961904D01*
X157428571Y-139961904D01*
X157333333Y-140009523D01*
X157285714Y-140104761D01*
X157285714Y-140295238D01*
X157333333Y-140390476D01*
X157428571Y-140438095D01*
X157523809Y-140438095D01*
X157619047Y-139961904D01*
X157285714Y-140866666D02*
X158285714Y-140866666D01*
X157333333Y-140866666D02*
X157285714Y-140961904D01*
X157285714Y-141152380D01*
X157333333Y-141247619D01*
X157380952Y-141295238D01*
X157476190Y-141342857D01*
X157761904Y-141342857D01*
X157857142Y-141295238D01*
X157904761Y-141247619D01*
X157952380Y-141152380D01*
X157952380Y-140961904D01*
X157904761Y-140866666D01*
X157952380Y-142295238D02*
X157952380Y-141723809D01*
X157952380Y-142009523D02*
X156952380Y-142009523D01*
X157095238Y-141914285D01*
X157190476Y-141819047D01*
X157238095Y-141723809D01*
X182952380Y-139200000D02*
X181952380Y-139200000D01*
X182666666Y-139533333D01*
X181952380Y-139866666D01*
X182952380Y-139866666D01*
X182952380Y-140342857D02*
X182285714Y-140342857D01*
X181952380Y-140342857D02*
X182000000Y-140295238D01*
X182047619Y-140342857D01*
X182000000Y-140390476D01*
X181952380Y-140342857D01*
X182047619Y-140342857D01*
X182952380Y-141247619D02*
X181952380Y-141247619D01*
X182904761Y-141247619D02*
X182952380Y-141152380D01*
X182952380Y-140961904D01*
X182904761Y-140866666D01*
X182857142Y-140819047D01*
X182761904Y-140771428D01*
X182476190Y-140771428D01*
X182380952Y-140819047D01*
X182333333Y-140866666D01*
X182285714Y-140961904D01*
X182285714Y-141152380D01*
X182333333Y-141247619D01*
X182952380Y-142247619D02*
X182952380Y-141676190D01*
X182952380Y-141961904D02*
X181952380Y-141961904D01*
X182095238Y-141866666D01*
X182190476Y-141771428D01*
X182238095Y-141676190D01*
X131952380Y-137057142D02*
X131952380Y-137628571D01*
X132952380Y-137342857D02*
X131952380Y-137342857D01*
X132952380Y-137961904D02*
X132285714Y-137961904D01*
X132476190Y-137961904D02*
X132380952Y-138009523D01*
X132333333Y-138057142D01*
X132285714Y-138152380D01*
X132285714Y-138247619D01*
X132904761Y-138961904D02*
X132952380Y-138866666D01*
X132952380Y-138676190D01*
X132904761Y-138580952D01*
X132809523Y-138533333D01*
X132428571Y-138533333D01*
X132333333Y-138580952D01*
X132285714Y-138676190D01*
X132285714Y-138866666D01*
X132333333Y-138961904D01*
X132428571Y-139009523D01*
X132523809Y-139009523D01*
X132619047Y-138533333D01*
X132952380Y-139438095D02*
X131952380Y-139438095D01*
X132333333Y-139438095D02*
X132285714Y-139533333D01*
X132285714Y-139723809D01*
X132333333Y-139819047D01*
X132380952Y-139866666D01*
X132476190Y-139914285D01*
X132761904Y-139914285D01*
X132857142Y-139866666D01*
X132904761Y-139819047D01*
X132952380Y-139723809D01*
X132952380Y-139533333D01*
X132904761Y-139438095D01*
X132952380Y-140485714D02*
X132904761Y-140390476D01*
X132809523Y-140342857D01*
X131952380Y-140342857D01*
X132904761Y-141247619D02*
X132952380Y-141152380D01*
X132952380Y-140961904D01*
X132904761Y-140866666D01*
X132809523Y-140819047D01*
X132428571Y-140819047D01*
X132333333Y-140866666D01*
X132285714Y-140961904D01*
X132285714Y-141152380D01*
X132333333Y-141247619D01*
X132428571Y-141295238D01*
X132523809Y-141295238D01*
X132619047Y-140819047D01*
X132952380Y-142247619D02*
X132952380Y-141676190D01*
X132952380Y-141961904D02*
X131952380Y-141961904D01*
X132095238Y-141866666D01*
X132190476Y-141771428D01*
X132238095Y-141676190D01*
X207428571Y-138533333D02*
X207476190Y-138676190D01*
X207523809Y-138723809D01*
X207619047Y-138771428D01*
X207761904Y-138771428D01*
X207857142Y-138723809D01*
X207904761Y-138676190D01*
X207952380Y-138580952D01*
X207952380Y-138200000D01*
X206952380Y-138200000D01*
X206952380Y-138533333D01*
X207000000Y-138628571D01*
X207047619Y-138676190D01*
X207142857Y-138723809D01*
X207238095Y-138723809D01*
X207333333Y-138676190D01*
X207380952Y-138628571D01*
X207428571Y-138533333D01*
X207428571Y-138200000D01*
X207952380Y-139628571D02*
X207428571Y-139628571D01*
X207333333Y-139580952D01*
X207285714Y-139485714D01*
X207285714Y-139295238D01*
X207333333Y-139200000D01*
X207904761Y-139628571D02*
X207952380Y-139533333D01*
X207952380Y-139295238D01*
X207904761Y-139200000D01*
X207809523Y-139152380D01*
X207714285Y-139152380D01*
X207619047Y-139200000D01*
X207571428Y-139295238D01*
X207571428Y-139533333D01*
X207523809Y-139628571D01*
X207904761Y-140057142D02*
X207952380Y-140152380D01*
X207952380Y-140342857D01*
X207904761Y-140438095D01*
X207809523Y-140485714D01*
X207761904Y-140485714D01*
X207666666Y-140438095D01*
X207619047Y-140342857D01*
X207619047Y-140200000D01*
X207571428Y-140104761D01*
X207476190Y-140057142D01*
X207428571Y-140057142D01*
X207333333Y-140104761D01*
X207285714Y-140200000D01*
X207285714Y-140342857D01*
X207333333Y-140438095D01*
X207904761Y-140866666D02*
X207952380Y-140961904D01*
X207952380Y-141152380D01*
X207904761Y-141247619D01*
X207809523Y-141295238D01*
X207761904Y-141295238D01*
X207666666Y-141247619D01*
X207619047Y-141152380D01*
X207619047Y-141009523D01*
X207571428Y-140914285D01*
X207476190Y-140866666D01*
X207428571Y-140866666D01*
X207333333Y-140914285D01*
X207285714Y-141009523D01*
X207285714Y-141152380D01*
X207333333Y-141247619D01*
X207952380Y-142247619D02*
X207952380Y-141676190D01*
X207952380Y-141961904D02*
X206952380Y-141961904D01*
X207095238Y-141866666D01*
X207190476Y-141771428D01*
X207238095Y-141676190D01*
X232252380Y-136328571D02*
X233252380Y-136661904D01*
X232252380Y-136995238D01*
X233252380Y-137471428D02*
X233204761Y-137376190D01*
X233157142Y-137328571D01*
X233061904Y-137280952D01*
X232776190Y-137280952D01*
X232680952Y-137328571D01*
X232633333Y-137376190D01*
X232585714Y-137471428D01*
X232585714Y-137614285D01*
X232633333Y-137709523D01*
X232680952Y-137757142D01*
X232776190Y-137804761D01*
X233061904Y-137804761D01*
X233157142Y-137757142D01*
X233204761Y-137709523D01*
X233252380Y-137614285D01*
X233252380Y-137471428D01*
X233252380Y-138376190D02*
X233204761Y-138280952D01*
X233109523Y-138233333D01*
X232252380Y-138233333D01*
X232585714Y-139185714D02*
X233252380Y-139185714D01*
X232585714Y-138757142D02*
X233109523Y-138757142D01*
X233204761Y-138804761D01*
X233252380Y-138900000D01*
X233252380Y-139042857D01*
X233204761Y-139138095D01*
X233157142Y-139185714D01*
X233252380Y-139661904D02*
X232585714Y-139661904D01*
X232680952Y-139661904D02*
X232633333Y-139709523D01*
X232585714Y-139804761D01*
X232585714Y-139947619D01*
X232633333Y-140042857D01*
X232728571Y-140090476D01*
X233252380Y-140090476D01*
X232728571Y-140090476D02*
X232633333Y-140138095D01*
X232585714Y-140233333D01*
X232585714Y-140376190D01*
X232633333Y-140471428D01*
X232728571Y-140519047D01*
X233252380Y-140519047D01*
X233204761Y-141376190D02*
X233252380Y-141280952D01*
X233252380Y-141090476D01*
X233204761Y-140995238D01*
X233109523Y-140947619D01*
X232728571Y-140947619D01*
X232633333Y-140995238D01*
X232585714Y-141090476D01*
X232585714Y-141280952D01*
X232633333Y-141376190D01*
X232728571Y-141423809D01*
X232823809Y-141423809D01*
X232919047Y-140947619D01*
X233252380Y-142376190D02*
X233252380Y-141804761D01*
X233252380Y-142090476D02*
X232252380Y-142090476D01*
X232395238Y-141995238D01*
X232490476Y-141900000D01*
X232538095Y-141804761D01*
X193233333Y-146154761D02*
X193090476Y-146202380D01*
X192852380Y-146202380D01*
X192757142Y-146154761D01*
X192709523Y-146107142D01*
X192661904Y-146011904D01*
X192661904Y-145916666D01*
X192709523Y-145821428D01*
X192757142Y-145773809D01*
X192852380Y-145726190D01*
X193042857Y-145678571D01*
X193138095Y-145630952D01*
X193185714Y-145583333D01*
X193233333Y-145488095D01*
X193233333Y-145392857D01*
X193185714Y-145297619D01*
X193138095Y-145250000D01*
X193042857Y-145202380D01*
X192804761Y-145202380D01*
X192661904Y-145250000D01*
X192328571Y-145202380D02*
X192090476Y-146202380D01*
X191900000Y-145488095D01*
X191709523Y-146202380D01*
X191471428Y-145202380D01*
X191138095Y-145297619D02*
X191090476Y-145250000D01*
X190995238Y-145202380D01*
X190757142Y-145202380D01*
X190661904Y-145250000D01*
X190614285Y-145297619D01*
X190566666Y-145392857D01*
X190566666Y-145488095D01*
X190614285Y-145630952D01*
X191185714Y-146202380D01*
X190566666Y-146202380D01*
X141233333Y-146364761D02*
X141090476Y-146412380D01*
X140852380Y-146412380D01*
X140757142Y-146364761D01*
X140709523Y-146317142D01*
X140661904Y-146221904D01*
X140661904Y-146126666D01*
X140709523Y-146031428D01*
X140757142Y-145983809D01*
X140852380Y-145936190D01*
X141042857Y-145888571D01*
X141138095Y-145840952D01*
X141185714Y-145793333D01*
X141233333Y-145698095D01*
X141233333Y-145602857D01*
X141185714Y-145507619D01*
X141138095Y-145460000D01*
X141042857Y-145412380D01*
X140804761Y-145412380D01*
X140661904Y-145460000D01*
X140328571Y-145412380D02*
X140090476Y-146412380D01*
X139900000Y-145698095D01*
X139709523Y-146412380D01*
X139471428Y-145412380D01*
X138566666Y-146412380D02*
X139138095Y-146412380D01*
X138852380Y-146412380D02*
X138852380Y-145412380D01*
X138947619Y-145555238D01*
X139042857Y-145650476D01*
X139138095Y-145698095D01*
M02*
