G04 #@! TF.GenerationSoftware,KiCad,Pcbnew,(5.1.0)-1*
G04 #@! TF.CreationDate,2019-04-22T23:53:45+02:00*
G04 #@! TF.ProjectId,pcb_main,7063625f-6d61-4696-9e2e-6b696361645f,RC1*
G04 #@! TF.SameCoordinates,Original*
G04 #@! TF.FileFunction,Legend,Top*
G04 #@! TF.FilePolarity,Positive*
%FSLAX46Y46*%
G04 Gerber Fmt 4.6, Leading zero omitted, Abs format (unit mm)*
G04 Created by KiCad (PCBNEW (5.1.0)-1) date 2019-04-22 23:53:45*
%MOMM*%
%LPD*%
G04 APERTURE LIST*
%ADD10C,0.100000*%
%ADD11C,0.150000*%
%ADD12C,0.200000*%
%ADD13C,0.120000*%
G04 APERTURE END LIST*
D10*
X147522380Y-153150952D02*
X146522380Y-153150952D01*
X147522380Y-152674761D02*
X146522380Y-152674761D01*
X147522380Y-152103333D01*
X146522380Y-152103333D01*
X147617619Y-151865237D02*
X147617619Y-151103333D01*
X146998571Y-150865237D02*
X146998571Y-150531904D01*
X147522380Y-150389047D02*
X147522380Y-150865237D01*
X146522380Y-150865237D01*
X146522380Y-150389047D01*
X146998571Y-149627142D02*
X146998571Y-149960475D01*
X147522380Y-149960475D02*
X146522380Y-149960475D01*
X146522380Y-149484285D01*
X146998571Y-148769999D02*
X146998571Y-149103333D01*
X147522380Y-149103333D02*
X146522380Y-149103333D01*
X146522380Y-148627142D01*
X146998571Y-148246190D02*
X146998571Y-147912856D01*
X147522380Y-147769999D02*
X147522380Y-148246190D01*
X146522380Y-148246190D01*
X146522380Y-147769999D01*
X147427142Y-146769999D02*
X147474761Y-146817618D01*
X147522380Y-146960475D01*
X147522380Y-147055713D01*
X147474761Y-147198571D01*
X147379523Y-147293809D01*
X147284285Y-147341428D01*
X147093809Y-147389047D01*
X146950952Y-147389047D01*
X146760476Y-147341428D01*
X146665238Y-147293809D01*
X146570000Y-147198571D01*
X146522380Y-147055713D01*
X146522380Y-146960475D01*
X146570000Y-146817618D01*
X146617619Y-146769999D01*
X146522380Y-146484285D02*
X146522380Y-145912856D01*
X147522380Y-146198571D02*
X146522380Y-146198571D01*
X83767619Y-139886666D02*
X84243809Y-139886666D01*
X83672380Y-140172380D02*
X84005714Y-139172380D01*
X84339047Y-140172380D01*
X84434285Y-140267619D02*
X85196190Y-140267619D01*
X85291428Y-139172380D02*
X85624761Y-140172380D01*
X85958095Y-139172380D01*
X86815238Y-140172380D02*
X86243809Y-140172380D01*
X86529523Y-140172380D02*
X86529523Y-139172380D01*
X86434285Y-139315238D01*
X86339047Y-139410476D01*
X86243809Y-139458095D01*
X87196190Y-139886666D02*
X87672380Y-139886666D01*
X87100952Y-140172380D02*
X87434285Y-139172380D01*
X87767619Y-140172380D01*
X83815238Y-142252380D02*
X83815238Y-141252380D01*
X84386666Y-142252380D01*
X84386666Y-141252380D01*
X84862857Y-142157142D02*
X84910476Y-142204761D01*
X84862857Y-142252380D01*
X84815238Y-142204761D01*
X84862857Y-142157142D01*
X84862857Y-142252380D01*
X85910476Y-142157142D02*
X85862857Y-142204761D01*
X85720000Y-142252380D01*
X85624762Y-142252380D01*
X85481904Y-142204761D01*
X85386666Y-142109523D01*
X85339047Y-142014285D01*
X85291428Y-141823809D01*
X85291428Y-141680952D01*
X85339047Y-141490476D01*
X85386666Y-141395238D01*
X85481904Y-141300000D01*
X85624762Y-141252380D01*
X85720000Y-141252380D01*
X85862857Y-141300000D01*
X85910476Y-141347619D01*
X86339047Y-142157142D02*
X86386666Y-142204761D01*
X86339047Y-142252380D01*
X86291428Y-142204761D01*
X86339047Y-142157142D01*
X86339047Y-142252380D01*
X83815237Y-145112380D02*
X83815237Y-144112380D01*
X84386666Y-145112380D02*
X83958095Y-144540952D01*
X84386666Y-144112380D02*
X83815237Y-144683809D01*
X84577142Y-145207619D02*
X85339047Y-145207619D01*
X85434285Y-144112380D02*
X85767618Y-145112380D01*
X86100952Y-144112380D01*
X86958095Y-145112380D02*
X86386666Y-145112380D01*
X86672380Y-145112380D02*
X86672380Y-144112380D01*
X86577142Y-144255238D01*
X86481904Y-144350476D01*
X86386666Y-144398095D01*
X87719999Y-144588571D02*
X87862857Y-144636190D01*
X87910476Y-144683809D01*
X87958095Y-144779047D01*
X87958095Y-144921904D01*
X87910476Y-145017142D01*
X87862857Y-145064761D01*
X87767618Y-145112380D01*
X87386666Y-145112380D01*
X87386666Y-144112380D01*
X87719999Y-144112380D01*
X87815237Y-144160000D01*
X87862857Y-144207619D01*
X87910476Y-144302857D01*
X87910476Y-144398095D01*
X87862857Y-144493333D01*
X87815237Y-144540952D01*
X87719999Y-144588571D01*
X87386666Y-144588571D01*
X84339047Y-146430000D02*
X84243809Y-146382380D01*
X84100952Y-146382380D01*
X83958095Y-146430000D01*
X83862857Y-146525238D01*
X83815237Y-146620476D01*
X83767618Y-146810952D01*
X83767618Y-146953809D01*
X83815237Y-147144285D01*
X83862857Y-147239523D01*
X83958095Y-147334761D01*
X84100952Y-147382380D01*
X84196190Y-147382380D01*
X84339047Y-147334761D01*
X84386666Y-147287142D01*
X84386666Y-146953809D01*
X84196190Y-146953809D01*
X84577142Y-147477619D02*
X85339047Y-147477619D01*
X85434285Y-146382380D02*
X85767618Y-147382380D01*
X86100952Y-146382380D01*
X86958095Y-147382380D02*
X86386666Y-147382380D01*
X86672380Y-147382380D02*
X86672380Y-146382380D01*
X86577142Y-146525238D01*
X86481904Y-146620476D01*
X86386666Y-146668095D01*
X87719999Y-146858571D02*
X87862857Y-146906190D01*
X87910476Y-146953809D01*
X87958095Y-147049047D01*
X87958095Y-147191904D01*
X87910476Y-147287142D01*
X87862857Y-147334761D01*
X87767618Y-147382380D01*
X87386666Y-147382380D01*
X87386666Y-146382380D01*
X87719999Y-146382380D01*
X87815237Y-146430000D01*
X87862857Y-146477619D01*
X87910476Y-146572857D01*
X87910476Y-146668095D01*
X87862857Y-146763333D01*
X87815237Y-146810952D01*
X87719999Y-146858571D01*
X87386666Y-146858571D01*
X84148571Y-149438571D02*
X84291428Y-149486190D01*
X84339047Y-149533809D01*
X84386666Y-149629047D01*
X84386666Y-149771904D01*
X84339047Y-149867142D01*
X84291428Y-149914761D01*
X84196190Y-149962380D01*
X83815238Y-149962380D01*
X83815238Y-148962380D01*
X84148571Y-148962380D01*
X84243809Y-149010000D01*
X84291428Y-149057619D01*
X84339047Y-149152857D01*
X84339047Y-149248095D01*
X84291428Y-149343333D01*
X84243809Y-149390952D01*
X84148571Y-149438571D01*
X83815238Y-149438571D01*
X85005714Y-148962380D02*
X85196190Y-148962380D01*
X85291428Y-149010000D01*
X85386666Y-149105238D01*
X85434285Y-149295714D01*
X85434285Y-149629047D01*
X85386666Y-149819523D01*
X85291428Y-149914761D01*
X85196190Y-149962380D01*
X85005714Y-149962380D01*
X84910476Y-149914761D01*
X84815238Y-149819523D01*
X84767619Y-149629047D01*
X84767619Y-149295714D01*
X84815238Y-149105238D01*
X84910476Y-149010000D01*
X85005714Y-148962380D01*
X86053333Y-148962380D02*
X86243809Y-148962380D01*
X86339047Y-149010000D01*
X86434285Y-149105238D01*
X86481905Y-149295714D01*
X86481905Y-149629047D01*
X86434285Y-149819523D01*
X86339047Y-149914761D01*
X86243809Y-149962380D01*
X86053333Y-149962380D01*
X85958095Y-149914761D01*
X85862857Y-149819523D01*
X85815238Y-149629047D01*
X85815238Y-149295714D01*
X85862857Y-149105238D01*
X85958095Y-149010000D01*
X86053333Y-148962380D01*
X86862857Y-149914761D02*
X87005714Y-149962380D01*
X87243809Y-149962380D01*
X87339047Y-149914761D01*
X87386666Y-149867142D01*
X87434285Y-149771904D01*
X87434285Y-149676666D01*
X87386666Y-149581428D01*
X87339047Y-149533809D01*
X87243809Y-149486190D01*
X87053333Y-149438571D01*
X86958095Y-149390952D01*
X86910476Y-149343333D01*
X86862857Y-149248095D01*
X86862857Y-149152857D01*
X86910476Y-149057619D01*
X86958095Y-149010000D01*
X87053333Y-148962380D01*
X87291428Y-148962380D01*
X87434285Y-149010000D01*
X87720000Y-148962380D02*
X88291428Y-148962380D01*
X88005714Y-149962380D02*
X88005714Y-148962380D01*
X83815238Y-152612380D02*
X83815238Y-151612380D01*
X84291428Y-152612380D02*
X84291428Y-151612380D01*
X84862857Y-152612380D01*
X84862857Y-151612380D01*
X159322380Y-152960476D02*
X159322380Y-152770000D01*
X159370000Y-152674761D01*
X159465238Y-152579523D01*
X159655714Y-152531904D01*
X159989047Y-152531904D01*
X160179523Y-152579523D01*
X160274761Y-152674761D01*
X160322380Y-152770000D01*
X160322380Y-152960476D01*
X160274761Y-153055714D01*
X160179523Y-153150952D01*
X159989047Y-153198571D01*
X159655714Y-153198571D01*
X159465238Y-153150952D01*
X159370000Y-153055714D01*
X159322380Y-152960476D01*
X159322380Y-152103333D02*
X160131904Y-152103333D01*
X160227142Y-152055714D01*
X160274761Y-152008095D01*
X160322380Y-151912857D01*
X160322380Y-151722380D01*
X160274761Y-151627142D01*
X160227142Y-151579523D01*
X160131904Y-151531904D01*
X159322380Y-151531904D01*
X159322380Y-151198571D02*
X159322380Y-150627142D01*
X160322380Y-150912857D02*
X159322380Y-150912857D01*
X160417619Y-150531904D02*
X160417619Y-149770000D01*
X159322380Y-149246190D02*
X160036666Y-149246190D01*
X160179523Y-149293809D01*
X160274761Y-149389047D01*
X160322380Y-149531904D01*
X160322380Y-149627142D01*
X160036666Y-148817619D02*
X160036666Y-148341428D01*
X160322380Y-148912857D02*
X159322380Y-148579523D01*
X160322380Y-148246190D01*
X160227142Y-147341428D02*
X160274761Y-147389047D01*
X160322380Y-147531904D01*
X160322380Y-147627142D01*
X160274761Y-147770000D01*
X160179523Y-147865238D01*
X160084285Y-147912857D01*
X159893809Y-147960476D01*
X159750952Y-147960476D01*
X159560476Y-147912857D01*
X159465238Y-147865238D01*
X159370000Y-147770000D01*
X159322380Y-147627142D01*
X159322380Y-147531904D01*
X159370000Y-147389047D01*
X159417619Y-147341428D01*
X160322380Y-146912857D02*
X159322380Y-146912857D01*
X160322380Y-146341428D02*
X159750952Y-146770000D01*
X159322380Y-146341428D02*
X159893809Y-146912857D01*
X156722380Y-152960475D02*
X156722380Y-152769999D01*
X156770000Y-152674761D01*
X156865238Y-152579523D01*
X157055714Y-152531904D01*
X157389047Y-152531904D01*
X157579523Y-152579523D01*
X157674761Y-152674761D01*
X157722380Y-152769999D01*
X157722380Y-152960475D01*
X157674761Y-153055713D01*
X157579523Y-153150951D01*
X157389047Y-153198570D01*
X157055714Y-153198570D01*
X156865238Y-153150951D01*
X156770000Y-153055713D01*
X156722380Y-152960475D01*
X156722380Y-152103332D02*
X157531904Y-152103332D01*
X157627142Y-152055713D01*
X157674761Y-152008094D01*
X157722380Y-151912856D01*
X157722380Y-151722380D01*
X157674761Y-151627142D01*
X157627142Y-151579523D01*
X157531904Y-151531904D01*
X156722380Y-151531904D01*
X156722380Y-151198570D02*
X156722380Y-150627142D01*
X157722380Y-150912856D02*
X156722380Y-150912856D01*
X157817619Y-150531904D02*
X157817619Y-149769999D01*
X157198571Y-149531904D02*
X157198571Y-149198570D01*
X157722380Y-149055713D02*
X157722380Y-149531904D01*
X156722380Y-149531904D01*
X156722380Y-149055713D01*
X157198571Y-148293808D02*
X157198571Y-148627142D01*
X157722380Y-148627142D02*
X156722380Y-148627142D01*
X156722380Y-148150951D01*
X157198571Y-147436666D02*
X157198571Y-147769999D01*
X157722380Y-147769999D02*
X156722380Y-147769999D01*
X156722380Y-147293808D01*
X157198571Y-146912856D02*
X157198571Y-146579523D01*
X157722380Y-146436666D02*
X157722380Y-146912856D01*
X156722380Y-146912856D01*
X156722380Y-146436666D01*
X157627142Y-145436666D02*
X157674761Y-145484285D01*
X157722380Y-145627142D01*
X157722380Y-145722380D01*
X157674761Y-145865237D01*
X157579523Y-145960475D01*
X157484285Y-146008094D01*
X157293809Y-146055713D01*
X157150952Y-146055713D01*
X156960476Y-146008094D01*
X156865238Y-145960475D01*
X156770000Y-145865237D01*
X156722380Y-145722380D01*
X156722380Y-145627142D01*
X156770000Y-145484285D01*
X156817619Y-145436666D01*
X156722380Y-145150951D02*
X156722380Y-144579523D01*
X157722380Y-144865237D02*
X156722380Y-144865237D01*
X155222380Y-152674761D02*
X155222380Y-153150951D01*
X154222380Y-153150951D01*
X154698571Y-152341427D02*
X154698571Y-152008094D01*
X155222380Y-151865237D02*
X155222380Y-152341427D01*
X154222380Y-152341427D01*
X154222380Y-151865237D01*
X155222380Y-151436665D02*
X154222380Y-151436665D01*
X154222380Y-151198570D01*
X154270000Y-151055713D01*
X154365238Y-150960475D01*
X154460476Y-150912856D01*
X154650952Y-150865237D01*
X154793809Y-150865237D01*
X154984285Y-150912856D01*
X155079523Y-150960475D01*
X155174761Y-151055713D01*
X155222380Y-151198570D01*
X155222380Y-151436665D01*
X151770000Y-152641904D02*
X151722380Y-152737142D01*
X151722380Y-152880000D01*
X151770000Y-153022857D01*
X151865238Y-153118095D01*
X151960476Y-153165714D01*
X152150952Y-153213333D01*
X152293809Y-153213333D01*
X152484285Y-153165714D01*
X152579523Y-153118095D01*
X152674761Y-153022857D01*
X152722380Y-152880000D01*
X152722380Y-152784761D01*
X152674761Y-152641904D01*
X152627142Y-152594285D01*
X152293809Y-152594285D01*
X152293809Y-152784761D01*
X152722380Y-152165714D02*
X151722380Y-152165714D01*
X152722380Y-151594285D01*
X151722380Y-151594285D01*
X152722380Y-151118095D02*
X151722380Y-151118095D01*
X151722380Y-150880000D01*
X151770000Y-150737142D01*
X151865238Y-150641904D01*
X151960476Y-150594285D01*
X152150952Y-150546666D01*
X152293809Y-150546666D01*
X152484285Y-150594285D01*
X152579523Y-150641904D01*
X152674761Y-150737142D01*
X152722380Y-150880000D01*
X152722380Y-151118095D01*
X150022380Y-153150951D02*
X149022380Y-153150951D01*
X150022380Y-152674761D02*
X149022380Y-152674761D01*
X150022380Y-152103332D01*
X149022380Y-152103332D01*
X150117619Y-151865237D02*
X150117619Y-151103332D01*
X149022380Y-150579523D02*
X149736666Y-150579523D01*
X149879523Y-150627142D01*
X149974761Y-150722380D01*
X150022380Y-150865237D01*
X150022380Y-150960475D01*
X149736666Y-150150951D02*
X149736666Y-149674761D01*
X150022380Y-150246189D02*
X149022380Y-149912856D01*
X150022380Y-149579523D01*
X149927142Y-148674761D02*
X149974761Y-148722380D01*
X150022380Y-148865237D01*
X150022380Y-148960475D01*
X149974761Y-149103332D01*
X149879523Y-149198570D01*
X149784285Y-149246189D01*
X149593809Y-149293808D01*
X149450952Y-149293808D01*
X149260476Y-149246189D01*
X149165238Y-149198570D01*
X149070000Y-149103332D01*
X149022380Y-148960475D01*
X149022380Y-148865237D01*
X149070000Y-148722380D01*
X149117619Y-148674761D01*
X150022380Y-148246189D02*
X149022380Y-148246189D01*
X150022380Y-147674761D02*
X149450952Y-148103332D01*
X149022380Y-147674761D02*
X149593809Y-148246189D01*
D11*
X80685714Y-158547619D02*
X80733333Y-158500000D01*
X80828571Y-158452380D01*
X81066666Y-158452380D01*
X81161904Y-158500000D01*
X81209523Y-158547619D01*
X81257142Y-158642857D01*
X81257142Y-158738095D01*
X81209523Y-158880952D01*
X80638095Y-159452380D01*
X81257142Y-159452380D01*
X81876190Y-158452380D02*
X81971428Y-158452380D01*
X82066666Y-158500000D01*
X82114285Y-158547619D01*
X82161904Y-158642857D01*
X82209523Y-158833333D01*
X82209523Y-159071428D01*
X82161904Y-159261904D01*
X82114285Y-159357142D01*
X82066666Y-159404761D01*
X81971428Y-159452380D01*
X81876190Y-159452380D01*
X81780952Y-159404761D01*
X81733333Y-159357142D01*
X81685714Y-159261904D01*
X81638095Y-159071428D01*
X81638095Y-158833333D01*
X81685714Y-158642857D01*
X81733333Y-158547619D01*
X81780952Y-158500000D01*
X81876190Y-158452380D01*
X83161904Y-159452380D02*
X82590476Y-159452380D01*
X82876190Y-159452380D02*
X82876190Y-158452380D01*
X82780952Y-158595238D01*
X82685714Y-158690476D01*
X82590476Y-158738095D01*
X83638095Y-159452380D02*
X83828571Y-159452380D01*
X83923809Y-159404761D01*
X83971428Y-159357142D01*
X84066666Y-159214285D01*
X84114285Y-159023809D01*
X84114285Y-158642857D01*
X84066666Y-158547619D01*
X84019047Y-158500000D01*
X83923809Y-158452380D01*
X83733333Y-158452380D01*
X83638095Y-158500000D01*
X83590476Y-158547619D01*
X83542857Y-158642857D01*
X83542857Y-158880952D01*
X83590476Y-158976190D01*
X83638095Y-159023809D01*
X83733333Y-159071428D01*
X83923809Y-159071428D01*
X84019047Y-159023809D01*
X84066666Y-158976190D01*
X84114285Y-158880952D01*
X85304761Y-159071428D02*
X86066666Y-159071428D01*
X87161904Y-158452380D02*
X87495238Y-159452380D01*
X87828571Y-158452380D01*
X88685714Y-159452380D02*
X88114285Y-159452380D01*
X88400000Y-159452380D02*
X88400000Y-158452380D01*
X88304761Y-158595238D01*
X88209523Y-158690476D01*
X88114285Y-158738095D01*
X89114285Y-159357142D02*
X89161904Y-159404761D01*
X89114285Y-159452380D01*
X89066666Y-159404761D01*
X89114285Y-159357142D01*
X89114285Y-159452380D01*
X89780952Y-158452380D02*
X89876190Y-158452380D01*
X89971428Y-158500000D01*
X90019047Y-158547619D01*
X90066666Y-158642857D01*
X90114285Y-158833333D01*
X90114285Y-159071428D01*
X90066666Y-159261904D01*
X90019047Y-159357142D01*
X89971428Y-159404761D01*
X89876190Y-159452380D01*
X89780952Y-159452380D01*
X89685714Y-159404761D01*
X89638095Y-159357142D01*
X89590476Y-159261904D01*
X89542857Y-159071428D01*
X89542857Y-158833333D01*
X89590476Y-158642857D01*
X89638095Y-158547619D01*
X89685714Y-158500000D01*
X89780952Y-158452380D01*
D12*
X162492857Y-123825000D02*
X162350000Y-123753571D01*
X162135714Y-123753571D01*
X161921428Y-123825000D01*
X161778571Y-123967857D01*
X161707142Y-124110714D01*
X161635714Y-124396428D01*
X161635714Y-124610714D01*
X161707142Y-124896428D01*
X161778571Y-125039285D01*
X161921428Y-125182142D01*
X162135714Y-125253571D01*
X162278571Y-125253571D01*
X162492857Y-125182142D01*
X162564285Y-125110714D01*
X162564285Y-124610714D01*
X162278571Y-124610714D01*
X163921428Y-123753571D02*
X163207142Y-123753571D01*
X163135714Y-124467857D01*
X163207142Y-124396428D01*
X163350000Y-124325000D01*
X163707142Y-124325000D01*
X163850000Y-124396428D01*
X163921428Y-124467857D01*
X163992857Y-124610714D01*
X163992857Y-124967857D01*
X163921428Y-125110714D01*
X163850000Y-125182142D01*
X163707142Y-125253571D01*
X163350000Y-125253571D01*
X163207142Y-125182142D01*
X163135714Y-125110714D01*
X165778571Y-125253571D02*
X165778571Y-123753571D01*
X166350000Y-123753571D01*
X166492857Y-123825000D01*
X166564285Y-123896428D01*
X166635714Y-124039285D01*
X166635714Y-124253571D01*
X166564285Y-124396428D01*
X166492857Y-124467857D01*
X166350000Y-124539285D01*
X165778571Y-124539285D01*
X167278571Y-125253571D02*
X167278571Y-124253571D01*
X167278571Y-124539285D02*
X167350000Y-124396428D01*
X167421428Y-124325000D01*
X167564285Y-124253571D01*
X167707142Y-124253571D01*
X168778571Y-125182142D02*
X168635714Y-125253571D01*
X168350000Y-125253571D01*
X168207142Y-125182142D01*
X168135714Y-125039285D01*
X168135714Y-124467857D01*
X168207142Y-124325000D01*
X168350000Y-124253571D01*
X168635714Y-124253571D01*
X168778571Y-124325000D01*
X168850000Y-124467857D01*
X168850000Y-124610714D01*
X168135714Y-124753571D01*
X170135714Y-125253571D02*
X170135714Y-124467857D01*
X170064285Y-124325000D01*
X169921428Y-124253571D01*
X169635714Y-124253571D01*
X169492857Y-124325000D01*
X170135714Y-125182142D02*
X169992857Y-125253571D01*
X169635714Y-125253571D01*
X169492857Y-125182142D01*
X169421428Y-125039285D01*
X169421428Y-124896428D01*
X169492857Y-124753571D01*
X169635714Y-124682142D01*
X169992857Y-124682142D01*
X170135714Y-124610714D01*
X170850000Y-125253571D02*
X170850000Y-124253571D01*
X170850000Y-124396428D02*
X170921428Y-124325000D01*
X171064285Y-124253571D01*
X171278571Y-124253571D01*
X171421428Y-124325000D01*
X171492857Y-124467857D01*
X171492857Y-125253571D01*
X171492857Y-124467857D02*
X171564285Y-124325000D01*
X171707142Y-124253571D01*
X171921428Y-124253571D01*
X172064285Y-124325000D01*
X172135714Y-124467857D01*
X172135714Y-125253571D01*
X172850000Y-124253571D02*
X172850000Y-125753571D01*
X172850000Y-124325000D02*
X172992857Y-124253571D01*
X173278571Y-124253571D01*
X173421428Y-124325000D01*
X173492857Y-124396428D01*
X173564285Y-124539285D01*
X173564285Y-124967857D01*
X173492857Y-125110714D01*
X173421428Y-125182142D01*
X173278571Y-125253571D01*
X172992857Y-125253571D01*
X172850000Y-125182142D01*
X155028571Y-126703571D02*
X155314285Y-127703571D01*
X155600000Y-126989285D01*
X155885714Y-127703571D01*
X156171428Y-126703571D01*
X156742857Y-127703571D02*
X156742857Y-126703571D01*
X156742857Y-126203571D02*
X156671428Y-126275000D01*
X156742857Y-126346428D01*
X156814285Y-126275000D01*
X156742857Y-126203571D01*
X156742857Y-126346428D01*
X157242857Y-126703571D02*
X157814285Y-126703571D01*
X157457142Y-126203571D02*
X157457142Y-127489285D01*
X157528571Y-127632142D01*
X157671428Y-127703571D01*
X157814285Y-127703571D01*
X158314285Y-127703571D02*
X158314285Y-126203571D01*
X158957142Y-127703571D02*
X158957142Y-126917857D01*
X158885714Y-126775000D01*
X158742857Y-126703571D01*
X158528571Y-126703571D01*
X158385714Y-126775000D01*
X158314285Y-126846428D01*
X160814285Y-127703571D02*
X160814285Y-126203571D01*
X161385714Y-126203571D01*
X161528571Y-126275000D01*
X161600000Y-126346428D01*
X161671428Y-126489285D01*
X161671428Y-126703571D01*
X161600000Y-126846428D01*
X161528571Y-126917857D01*
X161385714Y-126989285D01*
X160814285Y-126989285D01*
X162314285Y-127703571D02*
X162314285Y-126703571D01*
X162314285Y-126203571D02*
X162242857Y-126275000D01*
X162314285Y-126346428D01*
X162385714Y-126275000D01*
X162314285Y-126203571D01*
X162314285Y-126346428D01*
X162957142Y-127632142D02*
X163100000Y-127703571D01*
X163385714Y-127703571D01*
X163528571Y-127632142D01*
X163600000Y-127489285D01*
X163600000Y-127417857D01*
X163528571Y-127275000D01*
X163385714Y-127203571D01*
X163171428Y-127203571D01*
X163028571Y-127132142D01*
X162957142Y-126989285D01*
X162957142Y-126917857D01*
X163028571Y-126775000D01*
X163171428Y-126703571D01*
X163385714Y-126703571D01*
X163528571Y-126775000D01*
X164028571Y-126703571D02*
X164600000Y-126703571D01*
X164242857Y-126203571D02*
X164242857Y-127489285D01*
X164314285Y-127632142D01*
X164457142Y-127703571D01*
X164600000Y-127703571D01*
X165314285Y-127703571D02*
X165171428Y-127632142D01*
X165100000Y-127560714D01*
X165028571Y-127417857D01*
X165028571Y-126989285D01*
X165100000Y-126846428D01*
X165171428Y-126775000D01*
X165314285Y-126703571D01*
X165528571Y-126703571D01*
X165671428Y-126775000D01*
X165742857Y-126846428D01*
X165814285Y-126989285D01*
X165814285Y-127417857D01*
X165742857Y-127560714D01*
X165671428Y-127632142D01*
X165528571Y-127703571D01*
X165314285Y-127703571D01*
X166457142Y-127703571D02*
X166457142Y-126703571D01*
X166457142Y-126989285D02*
X166528571Y-126846428D01*
X166600000Y-126775000D01*
X166742857Y-126703571D01*
X166885714Y-126703571D01*
X167171428Y-126703571D02*
X167742857Y-126703571D01*
X167385714Y-126203571D02*
X167385714Y-127489285D01*
X167457142Y-127632142D01*
X167600000Y-127703571D01*
X167742857Y-127703571D01*
X168242857Y-127703571D02*
X168242857Y-126703571D01*
X168242857Y-126203571D02*
X168171428Y-126275000D01*
X168242857Y-126346428D01*
X168314285Y-126275000D01*
X168242857Y-126203571D01*
X168242857Y-126346428D01*
X169171428Y-127703571D02*
X169028571Y-127632142D01*
X168957142Y-127560714D01*
X168885714Y-127417857D01*
X168885714Y-126989285D01*
X168957142Y-126846428D01*
X169028571Y-126775000D01*
X169171428Y-126703571D01*
X169385714Y-126703571D01*
X169528571Y-126775000D01*
X169600000Y-126846428D01*
X169671428Y-126989285D01*
X169671428Y-127417857D01*
X169600000Y-127560714D01*
X169528571Y-127632142D01*
X169385714Y-127703571D01*
X169171428Y-127703571D01*
X170314285Y-126703571D02*
X170314285Y-127703571D01*
X170314285Y-126846428D02*
X170385714Y-126775000D01*
X170528571Y-126703571D01*
X170742857Y-126703571D01*
X170885714Y-126775000D01*
X170957142Y-126917857D01*
X170957142Y-127703571D01*
X172742857Y-127632142D02*
X172957142Y-127703571D01*
X173314285Y-127703571D01*
X173457142Y-127632142D01*
X173528571Y-127560714D01*
X173599999Y-127417857D01*
X173599999Y-127275000D01*
X173528571Y-127132142D01*
X173457142Y-127060714D01*
X173314285Y-126989285D01*
X173028571Y-126917857D01*
X172885714Y-126846428D01*
X172814285Y-126775000D01*
X172742857Y-126632142D01*
X172742857Y-126489285D01*
X172814285Y-126346428D01*
X172885714Y-126275000D01*
X173028571Y-126203571D01*
X173385714Y-126203571D01*
X173599999Y-126275000D01*
X174099999Y-126703571D02*
X174457142Y-127703571D01*
X174814285Y-126703571D02*
X174457142Y-127703571D01*
X174314285Y-128060714D01*
X174242857Y-128132142D01*
X174099999Y-128203571D01*
X175314285Y-127632142D02*
X175457142Y-127703571D01*
X175742857Y-127703571D01*
X175885714Y-127632142D01*
X175957142Y-127489285D01*
X175957142Y-127417857D01*
X175885714Y-127275000D01*
X175742857Y-127203571D01*
X175528571Y-127203571D01*
X175385714Y-127132142D01*
X175314285Y-126989285D01*
X175314285Y-126917857D01*
X175385714Y-126775000D01*
X175528571Y-126703571D01*
X175742857Y-126703571D01*
X175885714Y-126775000D01*
X176385714Y-126703571D02*
X176957142Y-126703571D01*
X176599999Y-126203571D02*
X176599999Y-127489285D01*
X176671428Y-127632142D01*
X176814285Y-127703571D01*
X176957142Y-127703571D01*
X178028571Y-127632142D02*
X177885714Y-127703571D01*
X177599999Y-127703571D01*
X177457142Y-127632142D01*
X177385714Y-127489285D01*
X177385714Y-126917857D01*
X177457142Y-126775000D01*
X177599999Y-126703571D01*
X177885714Y-126703571D01*
X178028571Y-126775000D01*
X178099999Y-126917857D01*
X178099999Y-127060714D01*
X177385714Y-127203571D01*
X178742857Y-127703571D02*
X178742857Y-126703571D01*
X178742857Y-126846428D02*
X178814285Y-126775000D01*
X178957142Y-126703571D01*
X179171428Y-126703571D01*
X179314285Y-126775000D01*
X179385714Y-126917857D01*
X179385714Y-127703571D01*
X179385714Y-126917857D02*
X179457142Y-126775000D01*
X179599999Y-126703571D01*
X179814285Y-126703571D01*
X179957142Y-126775000D01*
X180028571Y-126917857D01*
X180028571Y-127703571D01*
D10*
X242752380Y-151638095D02*
X242276190Y-151971428D01*
X242752380Y-152209523D02*
X241752380Y-152209523D01*
X241752380Y-151828571D01*
X241800000Y-151733333D01*
X241847619Y-151685714D01*
X241942857Y-151638095D01*
X242085714Y-151638095D01*
X242180952Y-151685714D01*
X242228571Y-151733333D01*
X242276190Y-151828571D01*
X242276190Y-152209523D01*
X242704761Y-150828571D02*
X242752380Y-150923809D01*
X242752380Y-151114285D01*
X242704761Y-151209523D01*
X242609523Y-151257142D01*
X242228571Y-151257142D01*
X242133333Y-151209523D01*
X242085714Y-151114285D01*
X242085714Y-150923809D01*
X242133333Y-150828571D01*
X242228571Y-150780952D01*
X242323809Y-150780952D01*
X242419047Y-151257142D01*
X242085714Y-150352380D02*
X243085714Y-150352380D01*
X242133333Y-150352380D02*
X242085714Y-150257142D01*
X242085714Y-150066666D01*
X242133333Y-149971428D01*
X242180952Y-149923809D01*
X242276190Y-149876190D01*
X242561904Y-149876190D01*
X242657142Y-149923809D01*
X242704761Y-149971428D01*
X242752380Y-150066666D01*
X242752380Y-150257142D01*
X242704761Y-150352380D01*
X242752380Y-149304761D02*
X242704761Y-149400000D01*
X242609523Y-149447619D01*
X241752380Y-149447619D01*
X242752380Y-148495238D02*
X242228571Y-148495238D01*
X242133333Y-148542857D01*
X242085714Y-148638095D01*
X242085714Y-148828571D01*
X242133333Y-148923809D01*
X242704761Y-148495238D02*
X242752380Y-148590476D01*
X242752380Y-148828571D01*
X242704761Y-148923809D01*
X242609523Y-148971428D01*
X242514285Y-148971428D01*
X242419047Y-148923809D01*
X242371428Y-148828571D01*
X242371428Y-148590476D01*
X242323809Y-148495238D01*
X242704761Y-147590476D02*
X242752380Y-147685714D01*
X242752380Y-147876190D01*
X242704761Y-147971428D01*
X242657142Y-148019047D01*
X242561904Y-148066666D01*
X242276190Y-148066666D01*
X242180952Y-148019047D01*
X242133333Y-147971428D01*
X242085714Y-147876190D01*
X242085714Y-147685714D01*
X242133333Y-147590476D01*
X242704761Y-146780952D02*
X242752380Y-146876190D01*
X242752380Y-147066666D01*
X242704761Y-147161904D01*
X242609523Y-147209523D01*
X242228571Y-147209523D01*
X242133333Y-147161904D01*
X242085714Y-147066666D01*
X242085714Y-146876190D01*
X242133333Y-146780952D01*
X242228571Y-146733333D01*
X242323809Y-146733333D01*
X242419047Y-147209523D01*
X242752380Y-144971428D02*
X242276190Y-145304761D01*
X242752380Y-145542857D02*
X241752380Y-145542857D01*
X241752380Y-145161904D01*
X241800000Y-145066666D01*
X241847619Y-145019047D01*
X241942857Y-144971428D01*
X242085714Y-144971428D01*
X242180952Y-145019047D01*
X242228571Y-145066666D01*
X242276190Y-145161904D01*
X242276190Y-145542857D01*
X242752380Y-144495238D02*
X242752380Y-144304761D01*
X242704761Y-144209523D01*
X242657142Y-144161904D01*
X242514285Y-144066666D01*
X242323809Y-144019047D01*
X241942857Y-144019047D01*
X241847619Y-144066666D01*
X241800000Y-144114285D01*
X241752380Y-144209523D01*
X241752380Y-144400000D01*
X241800000Y-144495238D01*
X241847619Y-144542857D01*
X241942857Y-144590476D01*
X242180952Y-144590476D01*
X242276190Y-144542857D01*
X242323809Y-144495238D01*
X242371428Y-144400000D01*
X242371428Y-144209523D01*
X242323809Y-144114285D01*
X242276190Y-144066666D01*
X242180952Y-144019047D01*
X242704761Y-143542857D02*
X242752380Y-143542857D01*
X242847619Y-143590476D01*
X242895238Y-143638095D01*
X242752380Y-141780952D02*
X242276190Y-142114285D01*
X242752380Y-142352380D02*
X241752380Y-142352380D01*
X241752380Y-141971428D01*
X241800000Y-141876190D01*
X241847619Y-141828571D01*
X241942857Y-141780952D01*
X242085714Y-141780952D01*
X242180952Y-141828571D01*
X242228571Y-141876190D01*
X242276190Y-141971428D01*
X242276190Y-142352380D01*
X242752380Y-140828571D02*
X242752380Y-141400000D01*
X242752380Y-141114285D02*
X241752380Y-141114285D01*
X241895238Y-141209523D01*
X241990476Y-141304761D01*
X242038095Y-141400000D01*
X241752380Y-140209523D02*
X241752380Y-140114285D01*
X241800000Y-140019047D01*
X241847619Y-139971428D01*
X241942857Y-139923809D01*
X242133333Y-139876190D01*
X242371428Y-139876190D01*
X242561904Y-139923809D01*
X242657142Y-139971428D01*
X242704761Y-140019047D01*
X242752380Y-140114285D01*
X242752380Y-140209523D01*
X242704761Y-140304761D01*
X242657142Y-140352380D01*
X242561904Y-140400000D01*
X242371428Y-140447619D01*
X242133333Y-140447619D01*
X241942857Y-140400000D01*
X241847619Y-140352380D01*
X241800000Y-140304761D01*
X241752380Y-140209523D01*
X242704761Y-139400000D02*
X242752380Y-139400000D01*
X242847619Y-139447619D01*
X242895238Y-139495238D01*
X242752380Y-137780952D02*
X242228571Y-137780952D01*
X242133333Y-137828571D01*
X242085714Y-137923809D01*
X242085714Y-138114285D01*
X242133333Y-138209523D01*
X242704761Y-137780952D02*
X242752380Y-137876190D01*
X242752380Y-138114285D01*
X242704761Y-138209523D01*
X242609523Y-138257142D01*
X242514285Y-138257142D01*
X242419047Y-138209523D01*
X242371428Y-138114285D01*
X242371428Y-137876190D01*
X242323809Y-137780952D01*
X242085714Y-137304761D02*
X242752380Y-137304761D01*
X242180952Y-137304761D02*
X242133333Y-137257142D01*
X242085714Y-137161904D01*
X242085714Y-137019047D01*
X242133333Y-136923809D01*
X242228571Y-136876190D01*
X242752380Y-136876190D01*
X242752380Y-135971428D02*
X241752380Y-135971428D01*
X242704761Y-135971428D02*
X242752380Y-136066666D01*
X242752380Y-136257142D01*
X242704761Y-136352380D01*
X242657142Y-136400000D01*
X242561904Y-136447619D01*
X242276190Y-136447619D01*
X242180952Y-136400000D01*
X242133333Y-136352380D01*
X242085714Y-136257142D01*
X242085714Y-136066666D01*
X242133333Y-135971428D01*
X242085714Y-134304761D02*
X242895238Y-134304761D01*
X242990476Y-134352380D01*
X243038095Y-134400000D01*
X243085714Y-134495238D01*
X243085714Y-134638095D01*
X243038095Y-134733333D01*
X242704761Y-134304761D02*
X242752380Y-134400000D01*
X242752380Y-134590476D01*
X242704761Y-134685714D01*
X242657142Y-134733333D01*
X242561904Y-134780952D01*
X242276190Y-134780952D01*
X242180952Y-134733333D01*
X242133333Y-134685714D01*
X242085714Y-134590476D01*
X242085714Y-134400000D01*
X242133333Y-134304761D01*
X242085714Y-133828571D02*
X242752380Y-133828571D01*
X242180952Y-133828571D02*
X242133333Y-133780952D01*
X242085714Y-133685714D01*
X242085714Y-133542857D01*
X242133333Y-133447619D01*
X242228571Y-133400000D01*
X242752380Y-133400000D01*
X242752380Y-132495238D02*
X241752380Y-132495238D01*
X242704761Y-132495238D02*
X242752380Y-132590476D01*
X242752380Y-132780952D01*
X242704761Y-132876190D01*
X242657142Y-132923809D01*
X242561904Y-132971428D01*
X242276190Y-132971428D01*
X242180952Y-132923809D01*
X242133333Y-132876190D01*
X242085714Y-132780952D01*
X242085714Y-132590476D01*
X242133333Y-132495238D01*
X242847619Y-132257142D02*
X242847619Y-131495238D01*
X242752380Y-131114285D02*
X242704761Y-131209523D01*
X242609523Y-131257142D01*
X241752380Y-131257142D01*
X242752380Y-130733333D02*
X242085714Y-130733333D01*
X241752380Y-130733333D02*
X241800000Y-130780952D01*
X241847619Y-130733333D01*
X241800000Y-130685714D01*
X241752380Y-130733333D01*
X241847619Y-130733333D01*
X242085714Y-130400000D02*
X242085714Y-130019047D01*
X242752380Y-130257142D02*
X241895238Y-130257142D01*
X241800000Y-130209523D01*
X241752380Y-130114285D01*
X241752380Y-130019047D01*
X242085714Y-129828571D02*
X242085714Y-129447619D01*
X241752380Y-129685714D02*
X242609523Y-129685714D01*
X242704761Y-129638095D01*
X242752380Y-129542857D01*
X242752380Y-129447619D01*
X242752380Y-128352380D02*
X241752380Y-128352380D01*
X242133333Y-128352380D02*
X242085714Y-128257142D01*
X242085714Y-128066666D01*
X242133333Y-127971428D01*
X242180952Y-127923809D01*
X242276190Y-127876190D01*
X242561904Y-127876190D01*
X242657142Y-127923809D01*
X242704761Y-127971428D01*
X242752380Y-128066666D01*
X242752380Y-128257142D01*
X242704761Y-128352380D01*
X242085714Y-127542857D02*
X242752380Y-127304761D01*
X242085714Y-127066666D02*
X242752380Y-127304761D01*
X242990476Y-127400000D01*
X243038095Y-127447619D01*
X243085714Y-127542857D01*
X242085714Y-126019047D02*
X242752380Y-125828571D01*
X242276190Y-125638095D01*
X242752380Y-125447619D01*
X242085714Y-125257142D01*
X242752380Y-124876190D02*
X242085714Y-124876190D01*
X241752380Y-124876190D02*
X241800000Y-124923809D01*
X241847619Y-124876190D01*
X241800000Y-124828571D01*
X241752380Y-124876190D01*
X241847619Y-124876190D01*
X242752380Y-124400000D02*
X242085714Y-124400000D01*
X242276190Y-124400000D02*
X242180952Y-124352380D01*
X242133333Y-124304761D01*
X242085714Y-124209523D01*
X242085714Y-124114285D01*
X242704761Y-123400000D02*
X242752380Y-123495238D01*
X242752380Y-123685714D01*
X242704761Y-123780952D01*
X242609523Y-123828571D01*
X242228571Y-123828571D01*
X242133333Y-123780952D01*
X242085714Y-123685714D01*
X242085714Y-123495238D01*
X242133333Y-123400000D01*
X242228571Y-123352380D01*
X242323809Y-123352380D01*
X242419047Y-123828571D01*
X242704761Y-122971428D02*
X242752380Y-122876190D01*
X242752380Y-122685714D01*
X242704761Y-122590476D01*
X242609523Y-122542857D01*
X242561904Y-122542857D01*
X242466666Y-122590476D01*
X242419047Y-122685714D01*
X242419047Y-122828571D01*
X242371428Y-122923809D01*
X242276190Y-122971428D01*
X242228571Y-122971428D01*
X242133333Y-122923809D01*
X242085714Y-122828571D01*
X242085714Y-122685714D01*
X242133333Y-122590476D01*
X244352380Y-150090476D02*
X243828571Y-150090476D01*
X243733333Y-150138095D01*
X243685714Y-150233333D01*
X243685714Y-150423809D01*
X243733333Y-150519047D01*
X244304761Y-150090476D02*
X244352380Y-150185714D01*
X244352380Y-150423809D01*
X244304761Y-150519047D01*
X244209523Y-150566666D01*
X244114285Y-150566666D01*
X244019047Y-150519047D01*
X243971428Y-150423809D01*
X243971428Y-150185714D01*
X243923809Y-150090476D01*
X243685714Y-149614285D02*
X244352380Y-149614285D01*
X243780952Y-149614285D02*
X243733333Y-149566666D01*
X243685714Y-149471428D01*
X243685714Y-149328571D01*
X243733333Y-149233333D01*
X243828571Y-149185714D01*
X244352380Y-149185714D01*
X244352380Y-148280952D02*
X243352380Y-148280952D01*
X244304761Y-148280952D02*
X244352380Y-148376190D01*
X244352380Y-148566666D01*
X244304761Y-148661904D01*
X244257142Y-148709523D01*
X244161904Y-148757142D01*
X243876190Y-148757142D01*
X243780952Y-148709523D01*
X243733333Y-148661904D01*
X243685714Y-148566666D01*
X243685714Y-148376190D01*
X243733333Y-148280952D01*
X244352380Y-146900000D02*
X244304761Y-146995238D01*
X244257142Y-147042857D01*
X244161904Y-147090476D01*
X243876190Y-147090476D01*
X243780952Y-147042857D01*
X243733333Y-146995238D01*
X243685714Y-146900000D01*
X243685714Y-146757142D01*
X243733333Y-146661904D01*
X243780952Y-146614285D01*
X243876190Y-146566666D01*
X244161904Y-146566666D01*
X244257142Y-146614285D01*
X244304761Y-146661904D01*
X244352380Y-146757142D01*
X244352380Y-146900000D01*
X243685714Y-146138095D02*
X244685714Y-146138095D01*
X243733333Y-146138095D02*
X243685714Y-146042857D01*
X243685714Y-145852380D01*
X243733333Y-145757142D01*
X243780952Y-145709523D01*
X243876190Y-145661904D01*
X244161904Y-145661904D01*
X244257142Y-145709523D01*
X244304761Y-145757142D01*
X244352380Y-145852380D01*
X244352380Y-146042857D01*
X244304761Y-146138095D01*
X244304761Y-144852380D02*
X244352380Y-144947619D01*
X244352380Y-145138095D01*
X244304761Y-145233333D01*
X244209523Y-145280952D01*
X243828571Y-145280952D01*
X243733333Y-145233333D01*
X243685714Y-145138095D01*
X243685714Y-144947619D01*
X243733333Y-144852380D01*
X243828571Y-144804761D01*
X243923809Y-144804761D01*
X244019047Y-145280952D01*
X243685714Y-144376190D02*
X244352380Y-144376190D01*
X243780952Y-144376190D02*
X243733333Y-144328571D01*
X243685714Y-144233333D01*
X243685714Y-144090476D01*
X243733333Y-143995238D01*
X243828571Y-143947619D01*
X244352380Y-143947619D01*
X243352380Y-142423809D02*
X244066666Y-142423809D01*
X244209523Y-142471428D01*
X244304761Y-142566666D01*
X244352380Y-142709523D01*
X244352380Y-142804761D01*
X243780952Y-141804761D02*
X243733333Y-141900000D01*
X243685714Y-141947619D01*
X243590476Y-141995238D01*
X243542857Y-141995238D01*
X243447619Y-141947619D01*
X243400000Y-141900000D01*
X243352380Y-141804761D01*
X243352380Y-141614285D01*
X243400000Y-141519047D01*
X243447619Y-141471428D01*
X243542857Y-141423809D01*
X243590476Y-141423809D01*
X243685714Y-141471428D01*
X243733333Y-141519047D01*
X243780952Y-141614285D01*
X243780952Y-141804761D01*
X243828571Y-141900000D01*
X243876190Y-141947619D01*
X243971428Y-141995238D01*
X244161904Y-141995238D01*
X244257142Y-141947619D01*
X244304761Y-141900000D01*
X244352380Y-141804761D01*
X244352380Y-141614285D01*
X244304761Y-141519047D01*
X244257142Y-141471428D01*
X244161904Y-141423809D01*
X243971428Y-141423809D01*
X243876190Y-141471428D01*
X243828571Y-141519047D01*
X243780952Y-141614285D01*
X243685714Y-140376190D02*
X243685714Y-139995238D01*
X244352380Y-140233333D02*
X243495238Y-140233333D01*
X243400000Y-140185714D01*
X243352380Y-140090476D01*
X243352380Y-139995238D01*
X244352380Y-139519047D02*
X244304761Y-139614285D01*
X244257142Y-139661904D01*
X244161904Y-139709523D01*
X243876190Y-139709523D01*
X243780952Y-139661904D01*
X243733333Y-139614285D01*
X243685714Y-139519047D01*
X243685714Y-139376190D01*
X243733333Y-139280952D01*
X243780952Y-139233333D01*
X243876190Y-139185714D01*
X244161904Y-139185714D01*
X244257142Y-139233333D01*
X244304761Y-139280952D01*
X244352380Y-139376190D01*
X244352380Y-139519047D01*
X244352380Y-138757142D02*
X243685714Y-138757142D01*
X243876190Y-138757142D02*
X243780952Y-138709523D01*
X243733333Y-138661904D01*
X243685714Y-138566666D01*
X243685714Y-138471428D01*
X244352380Y-136947619D02*
X243828571Y-136947619D01*
X243733333Y-136995238D01*
X243685714Y-137090476D01*
X243685714Y-137280952D01*
X243733333Y-137376190D01*
X244304761Y-136947619D02*
X244352380Y-137042857D01*
X244352380Y-137280952D01*
X244304761Y-137376190D01*
X244209523Y-137423809D01*
X244114285Y-137423809D01*
X244019047Y-137376190D01*
X243971428Y-137280952D01*
X243971428Y-137042857D01*
X243923809Y-136947619D01*
X244304761Y-136519047D02*
X244352380Y-136423809D01*
X244352380Y-136233333D01*
X244304761Y-136138095D01*
X244209523Y-136090476D01*
X244161904Y-136090476D01*
X244066666Y-136138095D01*
X244019047Y-136233333D01*
X244019047Y-136376190D01*
X243971428Y-136471428D01*
X243876190Y-136519047D01*
X243828571Y-136519047D01*
X243733333Y-136471428D01*
X243685714Y-136376190D01*
X243685714Y-136233333D01*
X243733333Y-136138095D01*
X243685714Y-135757142D02*
X244352380Y-135519047D01*
X243685714Y-135280952D02*
X244352380Y-135519047D01*
X244590476Y-135614285D01*
X244638095Y-135661904D01*
X244685714Y-135757142D01*
X244352380Y-134900000D02*
X243685714Y-134900000D01*
X243780952Y-134900000D02*
X243733333Y-134852380D01*
X243685714Y-134757142D01*
X243685714Y-134614285D01*
X243733333Y-134519047D01*
X243828571Y-134471428D01*
X244352380Y-134471428D01*
X243828571Y-134471428D02*
X243733333Y-134423809D01*
X243685714Y-134328571D01*
X243685714Y-134185714D01*
X243733333Y-134090476D01*
X243828571Y-134042857D01*
X244352380Y-134042857D01*
X244304761Y-133185714D02*
X244352380Y-133280952D01*
X244352380Y-133471428D01*
X244304761Y-133566666D01*
X244209523Y-133614285D01*
X243828571Y-133614285D01*
X243733333Y-133566666D01*
X243685714Y-133471428D01*
X243685714Y-133280952D01*
X243733333Y-133185714D01*
X243828571Y-133138095D01*
X243923809Y-133138095D01*
X244019047Y-133614285D01*
X243685714Y-132852380D02*
X243685714Y-132471428D01*
X243352380Y-132709523D02*
X244209523Y-132709523D01*
X244304761Y-132661904D01*
X244352380Y-132566666D01*
X244352380Y-132471428D01*
X244352380Y-132138095D02*
X243685714Y-132138095D01*
X243876190Y-132138095D02*
X243780952Y-132090476D01*
X243733333Y-132042857D01*
X243685714Y-131947619D01*
X243685714Y-131852380D01*
X244352380Y-131519047D02*
X243685714Y-131519047D01*
X243352380Y-131519047D02*
X243400000Y-131566666D01*
X243447619Y-131519047D01*
X243400000Y-131471428D01*
X243352380Y-131519047D01*
X243447619Y-131519047D01*
X244304761Y-130614285D02*
X244352380Y-130709523D01*
X244352380Y-130900000D01*
X244304761Y-130995238D01*
X244257142Y-131042857D01*
X244161904Y-131090476D01*
X243876190Y-131090476D01*
X243780952Y-131042857D01*
X243733333Y-130995238D01*
X243685714Y-130900000D01*
X243685714Y-130709523D01*
X243733333Y-130614285D01*
X244352380Y-129757142D02*
X243828571Y-129757142D01*
X243733333Y-129804761D01*
X243685714Y-129900000D01*
X243685714Y-130090476D01*
X243733333Y-130185714D01*
X244304761Y-129757142D02*
X244352380Y-129852380D01*
X244352380Y-130090476D01*
X244304761Y-130185714D01*
X244209523Y-130233333D01*
X244114285Y-130233333D01*
X244019047Y-130185714D01*
X243971428Y-130090476D01*
X243971428Y-129852380D01*
X243923809Y-129757142D01*
X244352380Y-129138095D02*
X244304761Y-129233333D01*
X244209523Y-129280952D01*
X243352380Y-129280952D01*
X244352380Y-127852380D02*
X244304761Y-127947619D01*
X244257142Y-127995238D01*
X244161904Y-128042857D01*
X243876190Y-128042857D01*
X243780952Y-127995238D01*
X243733333Y-127947619D01*
X243685714Y-127852380D01*
X243685714Y-127709523D01*
X243733333Y-127614285D01*
X243780952Y-127566666D01*
X243876190Y-127519047D01*
X244161904Y-127519047D01*
X244257142Y-127566666D01*
X244304761Y-127614285D01*
X244352380Y-127709523D01*
X244352380Y-127852380D01*
X243685714Y-126661904D02*
X244352380Y-126661904D01*
X243685714Y-127090476D02*
X244209523Y-127090476D01*
X244304761Y-127042857D01*
X244352380Y-126947619D01*
X244352380Y-126804761D01*
X244304761Y-126709523D01*
X244257142Y-126661904D01*
X243685714Y-126185714D02*
X244685714Y-126185714D01*
X243733333Y-126185714D02*
X243685714Y-126090476D01*
X243685714Y-125900000D01*
X243733333Y-125804761D01*
X243780952Y-125757142D01*
X243876190Y-125709523D01*
X244161904Y-125709523D01*
X244257142Y-125757142D01*
X244304761Y-125804761D01*
X244352380Y-125900000D01*
X244352380Y-126090476D01*
X244304761Y-126185714D01*
X243685714Y-124852380D02*
X244352380Y-124852380D01*
X243685714Y-125280952D02*
X244209523Y-125280952D01*
X244304761Y-125233333D01*
X244352380Y-125138095D01*
X244352380Y-124995238D01*
X244304761Y-124900000D01*
X244257142Y-124852380D01*
X243685714Y-124519047D02*
X243685714Y-124138095D01*
X243352380Y-124376190D02*
X244209523Y-124376190D01*
X244304761Y-124328571D01*
X244352380Y-124233333D01*
X244352380Y-124138095D01*
D11*
X208607142Y-144535714D02*
X208607142Y-145345238D01*
X208559523Y-145440476D01*
X208511904Y-145488095D01*
X208416666Y-145535714D01*
X208273809Y-145535714D01*
X208178571Y-145488095D01*
X208607142Y-145154761D02*
X208511904Y-145202380D01*
X208321428Y-145202380D01*
X208226190Y-145154761D01*
X208178571Y-145107142D01*
X208130952Y-145011904D01*
X208130952Y-144726190D01*
X208178571Y-144630952D01*
X208226190Y-144583333D01*
X208321428Y-144535714D01*
X208511904Y-144535714D01*
X208607142Y-144583333D01*
X209083333Y-144535714D02*
X209083333Y-145202380D01*
X209083333Y-144630952D02*
X209130952Y-144583333D01*
X209226190Y-144535714D01*
X209369047Y-144535714D01*
X209464285Y-144583333D01*
X209511904Y-144678571D01*
X209511904Y-145202380D01*
X210416666Y-145202380D02*
X210416666Y-144202380D01*
X210416666Y-145154761D02*
X210321428Y-145202380D01*
X210130952Y-145202380D01*
X210035714Y-145154761D01*
X209988095Y-145107142D01*
X209940476Y-145011904D01*
X209940476Y-144726190D01*
X209988095Y-144630952D01*
X210035714Y-144583333D01*
X210130952Y-144535714D01*
X210321428Y-144535714D01*
X210416666Y-144583333D01*
X210654761Y-145297619D02*
X211416666Y-145297619D01*
X211797619Y-145202380D02*
X211702380Y-145154761D01*
X211654761Y-145059523D01*
X211654761Y-144202380D01*
X212178571Y-145202380D02*
X212178571Y-144535714D01*
X212178571Y-144202380D02*
X212130952Y-144250000D01*
X212178571Y-144297619D01*
X212226190Y-144250000D01*
X212178571Y-144202380D01*
X212178571Y-144297619D01*
X212511904Y-144535714D02*
X212892857Y-144535714D01*
X212654761Y-145202380D02*
X212654761Y-144345238D01*
X212702380Y-144250000D01*
X212797619Y-144202380D01*
X212892857Y-144202380D01*
X213083333Y-144535714D02*
X213464285Y-144535714D01*
X213226190Y-144202380D02*
X213226190Y-145059523D01*
X213273809Y-145154761D01*
X213369047Y-145202380D01*
X213464285Y-145202380D01*
X214000000Y-143500000D02*
X214000000Y-145750000D01*
D13*
X125100000Y-102000000D02*
X125100000Y-139000000D01*
X80100000Y-102000000D02*
X125100000Y-102000000D01*
X80100000Y-139000000D02*
X80100000Y-102000000D01*
X125100000Y-139000000D02*
X80100000Y-139000000D01*
X180450000Y-101600000D02*
X180450000Y-104100000D01*
X182450000Y-101600000D02*
X180450000Y-101600000D01*
X194260000Y-122640000D02*
X194260000Y-125860000D01*
X185750000Y-125880000D02*
X194230000Y-125880000D01*
X185750000Y-122640000D02*
X185750000Y-125860000D01*
X184160000Y-99000000D02*
X184160000Y-102000000D01*
X184160000Y-99000000D02*
X195860000Y-99000000D01*
X195860000Y-99000000D02*
X195860000Y-102000000D01*
X180860000Y-122610000D02*
X199150000Y-122610000D01*
X199150000Y-122610000D02*
X199150000Y-120160000D01*
X180860000Y-122610000D02*
X180860000Y-120160000D01*
X180850000Y-104250000D02*
X180850000Y-102000000D01*
X180850000Y-110900000D02*
X180850000Y-107750000D01*
X180860000Y-117200000D02*
X180850000Y-110900000D01*
X199150000Y-110890000D02*
X199150000Y-117240000D01*
X199150000Y-107460000D02*
X199150000Y-110890000D01*
X199150000Y-102000000D02*
X199150000Y-104550000D01*
X180850000Y-102000000D02*
X199150000Y-102000000D01*
X136950000Y-101600000D02*
X136950000Y-104100000D01*
X138950000Y-101600000D02*
X136950000Y-101600000D01*
X150760000Y-122640000D02*
X150760000Y-125860000D01*
X142250000Y-125880000D02*
X150730000Y-125880000D01*
X142250000Y-122640000D02*
X142250000Y-125860000D01*
X140660000Y-99000000D02*
X140660000Y-102000000D01*
X140660000Y-99000000D02*
X152360000Y-99000000D01*
X152360000Y-99000000D02*
X152360000Y-102000000D01*
X137360000Y-122610000D02*
X155650000Y-122610000D01*
X155650000Y-122610000D02*
X155650000Y-120160000D01*
X137360000Y-122610000D02*
X137360000Y-120160000D01*
X137350000Y-104250000D02*
X137350000Y-102000000D01*
X137350000Y-110900000D02*
X137350000Y-107750000D01*
X137360000Y-117200000D02*
X137350000Y-110900000D01*
X155650000Y-110890000D02*
X155650000Y-117240000D01*
X155650000Y-107460000D02*
X155650000Y-110890000D01*
X155650000Y-102000000D02*
X155650000Y-104550000D01*
X137350000Y-102000000D02*
X155650000Y-102000000D01*
X223350000Y-102000000D02*
X241650000Y-102000000D01*
X241650000Y-102000000D02*
X241650000Y-104550000D01*
X241650000Y-107460000D02*
X241650000Y-110890000D01*
X241650000Y-113810000D02*
X241650000Y-117240000D01*
X223360000Y-117240000D02*
X223360000Y-113810000D01*
X223350000Y-110900000D02*
X223350000Y-107750000D01*
X223350000Y-104250000D02*
X223350000Y-102000000D01*
X223360000Y-122610000D02*
X223360000Y-120160000D01*
X241650000Y-122610000D02*
X241650000Y-120160000D01*
X223360000Y-122610000D02*
X241650000Y-122610000D01*
X238360000Y-99000000D02*
X238360000Y-102000000D01*
X226660000Y-99000000D02*
X238360000Y-99000000D01*
X226660000Y-99000000D02*
X226660000Y-102000000D01*
X228250000Y-122640000D02*
X228250000Y-125860000D01*
X228250000Y-125880000D02*
X236730000Y-125880000D01*
X236760000Y-122640000D02*
X236760000Y-125860000D01*
X224950000Y-101600000D02*
X222950000Y-101600000D01*
X222950000Y-101600000D02*
X222950000Y-104100000D01*
X114694000Y-143474759D02*
X114064000Y-143474759D01*
X114379000Y-143159759D02*
X114379000Y-143789759D01*
X112942000Y-149901000D02*
X112138000Y-149901000D01*
X113173000Y-149861000D02*
X111907000Y-149861000D01*
X113342000Y-149821000D02*
X111738000Y-149821000D01*
X113480000Y-149781000D02*
X111600000Y-149781000D01*
X113599000Y-149741000D02*
X111481000Y-149741000D01*
X113705000Y-149701000D02*
X111375000Y-149701000D01*
X113802000Y-149661000D02*
X111278000Y-149661000D01*
X113890000Y-149621000D02*
X111190000Y-149621000D01*
X113972000Y-149581000D02*
X111108000Y-149581000D01*
X114049000Y-149541000D02*
X111031000Y-149541000D01*
X114121000Y-149501000D02*
X110959000Y-149501000D01*
X114190000Y-149461000D02*
X110890000Y-149461000D01*
X114254000Y-149421000D02*
X110826000Y-149421000D01*
X114316000Y-149381000D02*
X110764000Y-149381000D01*
X114374000Y-149341000D02*
X110706000Y-149341000D01*
X114430000Y-149301000D02*
X110650000Y-149301000D01*
X114484000Y-149261000D02*
X110596000Y-149261000D01*
X114535000Y-149221000D02*
X110545000Y-149221000D01*
X114584000Y-149181000D02*
X110496000Y-149181000D01*
X114632000Y-149141000D02*
X110448000Y-149141000D01*
X114677000Y-149101000D02*
X110403000Y-149101000D01*
X114722000Y-149061000D02*
X110358000Y-149061000D01*
X114764000Y-149021000D02*
X110316000Y-149021000D01*
X114805000Y-148981000D02*
X110275000Y-148981000D01*
X111500000Y-148941000D02*
X110235000Y-148941000D01*
X114845000Y-148941000D02*
X113580000Y-148941000D01*
X111500000Y-148901000D02*
X110197000Y-148901000D01*
X114883000Y-148901000D02*
X113580000Y-148901000D01*
X111500000Y-148861000D02*
X110160000Y-148861000D01*
X114920000Y-148861000D02*
X113580000Y-148861000D01*
X111500000Y-148821000D02*
X110124000Y-148821000D01*
X114956000Y-148821000D02*
X113580000Y-148821000D01*
X111500000Y-148781000D02*
X110090000Y-148781000D01*
X114990000Y-148781000D02*
X113580000Y-148781000D01*
X111500000Y-148741000D02*
X110056000Y-148741000D01*
X115024000Y-148741000D02*
X113580000Y-148741000D01*
X111500000Y-148701000D02*
X110024000Y-148701000D01*
X115056000Y-148701000D02*
X113580000Y-148701000D01*
X111500000Y-148661000D02*
X109992000Y-148661000D01*
X115088000Y-148661000D02*
X113580000Y-148661000D01*
X111500000Y-148621000D02*
X109962000Y-148621000D01*
X115118000Y-148621000D02*
X113580000Y-148621000D01*
X111500000Y-148581000D02*
X109933000Y-148581000D01*
X115147000Y-148581000D02*
X113580000Y-148581000D01*
X111500000Y-148541000D02*
X109904000Y-148541000D01*
X115176000Y-148541000D02*
X113580000Y-148541000D01*
X111500000Y-148501000D02*
X109876000Y-148501000D01*
X115204000Y-148501000D02*
X113580000Y-148501000D01*
X111500000Y-148461000D02*
X109850000Y-148461000D01*
X115230000Y-148461000D02*
X113580000Y-148461000D01*
X111500000Y-148421000D02*
X109824000Y-148421000D01*
X115256000Y-148421000D02*
X113580000Y-148421000D01*
X111500000Y-148381000D02*
X109798000Y-148381000D01*
X115282000Y-148381000D02*
X113580000Y-148381000D01*
X111500000Y-148341000D02*
X109774000Y-148341000D01*
X115306000Y-148341000D02*
X113580000Y-148341000D01*
X111500000Y-148301000D02*
X109750000Y-148301000D01*
X115330000Y-148301000D02*
X113580000Y-148301000D01*
X111500000Y-148261000D02*
X109728000Y-148261000D01*
X115352000Y-148261000D02*
X113580000Y-148261000D01*
X111500000Y-148221000D02*
X109706000Y-148221000D01*
X115374000Y-148221000D02*
X113580000Y-148221000D01*
X111500000Y-148181000D02*
X109684000Y-148181000D01*
X115396000Y-148181000D02*
X113580000Y-148181000D01*
X111500000Y-148141000D02*
X109664000Y-148141000D01*
X115416000Y-148141000D02*
X113580000Y-148141000D01*
X111500000Y-148101000D02*
X109644000Y-148101000D01*
X115436000Y-148101000D02*
X113580000Y-148101000D01*
X111500000Y-148061000D02*
X109624000Y-148061000D01*
X115456000Y-148061000D02*
X113580000Y-148061000D01*
X111500000Y-148021000D02*
X109606000Y-148021000D01*
X115474000Y-148021000D02*
X113580000Y-148021000D01*
X111500000Y-147981000D02*
X109588000Y-147981000D01*
X115492000Y-147981000D02*
X113580000Y-147981000D01*
X111500000Y-147941000D02*
X109570000Y-147941000D01*
X115510000Y-147941000D02*
X113580000Y-147941000D01*
X111500000Y-147901000D02*
X109554000Y-147901000D01*
X115526000Y-147901000D02*
X113580000Y-147901000D01*
X111500000Y-147861000D02*
X109538000Y-147861000D01*
X115542000Y-147861000D02*
X113580000Y-147861000D01*
X111500000Y-147821000D02*
X109522000Y-147821000D01*
X115558000Y-147821000D02*
X113580000Y-147821000D01*
X111500000Y-147781000D02*
X109507000Y-147781000D01*
X115573000Y-147781000D02*
X113580000Y-147781000D01*
X111500000Y-147741000D02*
X109493000Y-147741000D01*
X115587000Y-147741000D02*
X113580000Y-147741000D01*
X111500000Y-147701000D02*
X109479000Y-147701000D01*
X115601000Y-147701000D02*
X113580000Y-147701000D01*
X111500000Y-147661000D02*
X109466000Y-147661000D01*
X115614000Y-147661000D02*
X113580000Y-147661000D01*
X111500000Y-147621000D02*
X109454000Y-147621000D01*
X115626000Y-147621000D02*
X113580000Y-147621000D01*
X111500000Y-147581000D02*
X109442000Y-147581000D01*
X115638000Y-147581000D02*
X113580000Y-147581000D01*
X111500000Y-147541000D02*
X109430000Y-147541000D01*
X115650000Y-147541000D02*
X113580000Y-147541000D01*
X111500000Y-147501000D02*
X109419000Y-147501000D01*
X115661000Y-147501000D02*
X113580000Y-147501000D01*
X111500000Y-147461000D02*
X109409000Y-147461000D01*
X115671000Y-147461000D02*
X113580000Y-147461000D01*
X111500000Y-147421000D02*
X109399000Y-147421000D01*
X115681000Y-147421000D02*
X113580000Y-147421000D01*
X111500000Y-147381000D02*
X109390000Y-147381000D01*
X115690000Y-147381000D02*
X113580000Y-147381000D01*
X111500000Y-147340000D02*
X109381000Y-147340000D01*
X115699000Y-147340000D02*
X113580000Y-147340000D01*
X111500000Y-147300000D02*
X109373000Y-147300000D01*
X115707000Y-147300000D02*
X113580000Y-147300000D01*
X111500000Y-147260000D02*
X109365000Y-147260000D01*
X115715000Y-147260000D02*
X113580000Y-147260000D01*
X111500000Y-147220000D02*
X109358000Y-147220000D01*
X115722000Y-147220000D02*
X113580000Y-147220000D01*
X111500000Y-147180000D02*
X109351000Y-147180000D01*
X115729000Y-147180000D02*
X113580000Y-147180000D01*
X111500000Y-147140000D02*
X109345000Y-147140000D01*
X115735000Y-147140000D02*
X113580000Y-147140000D01*
X111500000Y-147100000D02*
X109339000Y-147100000D01*
X115741000Y-147100000D02*
X113580000Y-147100000D01*
X111500000Y-147060000D02*
X109334000Y-147060000D01*
X115746000Y-147060000D02*
X113580000Y-147060000D01*
X111500000Y-147020000D02*
X109329000Y-147020000D01*
X115751000Y-147020000D02*
X113580000Y-147020000D01*
X111500000Y-146980000D02*
X109325000Y-146980000D01*
X115755000Y-146980000D02*
X113580000Y-146980000D01*
X111500000Y-146940000D02*
X109322000Y-146940000D01*
X115758000Y-146940000D02*
X113580000Y-146940000D01*
X111500000Y-146900000D02*
X109318000Y-146900000D01*
X115762000Y-146900000D02*
X113580000Y-146900000D01*
X115764000Y-146860000D02*
X109316000Y-146860000D01*
X115767000Y-146820000D02*
X109313000Y-146820000D01*
X115768000Y-146780000D02*
X109312000Y-146780000D01*
X115770000Y-146740000D02*
X109310000Y-146740000D01*
X115770000Y-146700000D02*
X109310000Y-146700000D01*
X115770000Y-146660000D02*
X109310000Y-146660000D01*
X115810000Y-146660000D02*
G75*
G03X115810000Y-146660000I-3270000J0D01*
G01*
X132610000Y-120240000D02*
X132610000Y-120370000D01*
X132610000Y-120370000D02*
X127170000Y-120370000D01*
X127170000Y-120370000D02*
X127170000Y-120240000D01*
X132610000Y-117560000D02*
X132610000Y-117430000D01*
X132610000Y-117430000D02*
X127170000Y-117430000D01*
X127170000Y-117430000D02*
X127170000Y-117560000D01*
X131710000Y-120370000D02*
X131710000Y-117430000D01*
X131590000Y-120370000D02*
X131590000Y-117430000D01*
X131830000Y-120370000D02*
X131830000Y-117430000D01*
X134150000Y-114700000D02*
X135200000Y-114700000D01*
X135200000Y-113650000D02*
X135200000Y-114700000D01*
X125800000Y-108600000D02*
X125800000Y-99800000D01*
X125800000Y-99800000D02*
X135000000Y-99800000D01*
X128500000Y-114500000D02*
X125800000Y-114500000D01*
X125800000Y-114500000D02*
X125800000Y-112600000D01*
X135000000Y-99800000D02*
X135000000Y-114500000D01*
X135000000Y-114500000D02*
X132400000Y-114500000D01*
X128980000Y-158420000D02*
X121240000Y-158420000D01*
X128980000Y-153180000D02*
X121240000Y-153180000D01*
X128980000Y-158420000D02*
X128980000Y-157056000D01*
X128980000Y-154544000D02*
X128980000Y-153180000D01*
X121240000Y-158420000D02*
X121240000Y-157056000D01*
X121240000Y-154544000D02*
X121240000Y-153180000D01*
X228850000Y-143200000D02*
X228850000Y-145200000D01*
X226050000Y-143200000D02*
X228850000Y-143200000D01*
X226050000Y-145200000D02*
X226050000Y-143200000D01*
X228850000Y-145200000D02*
X226050000Y-145200000D01*
X98960000Y-155060000D02*
X98630000Y-155060000D01*
X98630000Y-155060000D02*
X98630000Y-148520000D01*
X98630000Y-148520000D02*
X98960000Y-148520000D01*
X101040000Y-155060000D02*
X101370000Y-155060000D01*
X101370000Y-155060000D02*
X101370000Y-148520000D01*
X101370000Y-148520000D02*
X101040000Y-148520000D01*
X121840000Y-146560000D02*
X121840000Y-146230000D01*
X121840000Y-146230000D02*
X128380000Y-146230000D01*
X128380000Y-146230000D02*
X128380000Y-146560000D01*
X121840000Y-148640000D02*
X121840000Y-148970000D01*
X121840000Y-148970000D02*
X128380000Y-148970000D01*
X128380000Y-148970000D02*
X128380000Y-148640000D01*
X186460000Y-137280000D02*
X186130000Y-137280000D01*
X186130000Y-137280000D02*
X186130000Y-130740000D01*
X186130000Y-130740000D02*
X186460000Y-130740000D01*
X188540000Y-137280000D02*
X188870000Y-137280000D01*
X188870000Y-137280000D02*
X188870000Y-130740000D01*
X188870000Y-130740000D02*
X188540000Y-130740000D01*
X128380000Y-152270000D02*
X128380000Y-151940000D01*
X121840000Y-152270000D02*
X128380000Y-152270000D01*
X121840000Y-151940000D02*
X121840000Y-152270000D01*
X128380000Y-149530000D02*
X128380000Y-149860000D01*
X121840000Y-149530000D02*
X128380000Y-149530000D01*
X121840000Y-149860000D02*
X121840000Y-149530000D01*
X227490000Y-153370000D02*
X227490000Y-150630000D01*
X227490000Y-150630000D02*
X220950000Y-150630000D01*
X220950000Y-150630000D02*
X220950000Y-153370000D01*
X220950000Y-153370000D02*
X227490000Y-153370000D01*
X228260000Y-152000000D02*
X227490000Y-152000000D01*
X220180000Y-152000000D02*
X220950000Y-152000000D01*
X234630000Y-137280000D02*
X234960000Y-137280000D01*
X234630000Y-130740000D02*
X234630000Y-137280000D01*
X234960000Y-130740000D02*
X234630000Y-130740000D01*
X237370000Y-137280000D02*
X237040000Y-137280000D01*
X237370000Y-130740000D02*
X237370000Y-137280000D01*
X237040000Y-130740000D02*
X237370000Y-130740000D01*
X215140000Y-130740000D02*
X215470000Y-130740000D01*
X215470000Y-130740000D02*
X215470000Y-137280000D01*
X215470000Y-137280000D02*
X215140000Y-137280000D01*
X213060000Y-130740000D02*
X212730000Y-130740000D01*
X212730000Y-130740000D02*
X212730000Y-137280000D01*
X212730000Y-137280000D02*
X213060000Y-137280000D01*
X179270000Y-113270000D02*
X178000000Y-113270000D01*
X179270000Y-112000000D02*
X179270000Y-113270000D01*
X176957071Y-106540000D02*
X176560000Y-106540000D01*
X176957071Y-107300000D02*
X176560000Y-107300000D01*
X167900000Y-106540000D02*
X173900000Y-106540000D01*
X167900000Y-107300000D02*
X167900000Y-106540000D01*
X173900000Y-107300000D02*
X167900000Y-107300000D01*
X176560000Y-108190000D02*
X173900000Y-108190000D01*
X176957071Y-109080000D02*
X176560000Y-109080000D01*
X176957071Y-109840000D02*
X176560000Y-109840000D01*
X167900000Y-109080000D02*
X173900000Y-109080000D01*
X167900000Y-109840000D02*
X167900000Y-109080000D01*
X173900000Y-109840000D02*
X167900000Y-109840000D01*
X176560000Y-110730000D02*
X173900000Y-110730000D01*
X176890000Y-111620000D02*
X176560000Y-111620000D01*
X176890000Y-112380000D02*
X176560000Y-112380000D01*
X173900000Y-111720000D02*
X167900000Y-111720000D01*
X173900000Y-111840000D02*
X167900000Y-111840000D01*
X173900000Y-111960000D02*
X167900000Y-111960000D01*
X173900000Y-112080000D02*
X167900000Y-112080000D01*
X173900000Y-112200000D02*
X167900000Y-112200000D01*
X173900000Y-112320000D02*
X167900000Y-112320000D01*
X167900000Y-111620000D02*
X173900000Y-111620000D01*
X167900000Y-112380000D02*
X167900000Y-111620000D01*
X173900000Y-112380000D02*
X167900000Y-112380000D01*
X173900000Y-113330000D02*
X176560000Y-113330000D01*
X173900000Y-105590000D02*
X173900000Y-113330000D01*
X176560000Y-105590000D02*
X173900000Y-105590000D01*
X176560000Y-113330000D02*
X176560000Y-105590000D01*
X210560000Y-113330000D02*
X210560000Y-105590000D01*
X210560000Y-105590000D02*
X207900000Y-105590000D01*
X207900000Y-105590000D02*
X207900000Y-113330000D01*
X207900000Y-113330000D02*
X210560000Y-113330000D01*
X207900000Y-112380000D02*
X201900000Y-112380000D01*
X201900000Y-112380000D02*
X201900000Y-111620000D01*
X201900000Y-111620000D02*
X207900000Y-111620000D01*
X207900000Y-112320000D02*
X201900000Y-112320000D01*
X207900000Y-112200000D02*
X201900000Y-112200000D01*
X207900000Y-112080000D02*
X201900000Y-112080000D01*
X207900000Y-111960000D02*
X201900000Y-111960000D01*
X207900000Y-111840000D02*
X201900000Y-111840000D01*
X207900000Y-111720000D02*
X201900000Y-111720000D01*
X210890000Y-112380000D02*
X210560000Y-112380000D01*
X210890000Y-111620000D02*
X210560000Y-111620000D01*
X210560000Y-110730000D02*
X207900000Y-110730000D01*
X207900000Y-109840000D02*
X201900000Y-109840000D01*
X201900000Y-109840000D02*
X201900000Y-109080000D01*
X201900000Y-109080000D02*
X207900000Y-109080000D01*
X210957071Y-109840000D02*
X210560000Y-109840000D01*
X210957071Y-109080000D02*
X210560000Y-109080000D01*
X210560000Y-108190000D02*
X207900000Y-108190000D01*
X207900000Y-107300000D02*
X201900000Y-107300000D01*
X201900000Y-107300000D02*
X201900000Y-106540000D01*
X201900000Y-106540000D02*
X207900000Y-106540000D01*
X210957071Y-107300000D02*
X210560000Y-107300000D01*
X210957071Y-106540000D02*
X210560000Y-106540000D01*
X213270000Y-112000000D02*
X213270000Y-113270000D01*
X213270000Y-113270000D02*
X212000000Y-113270000D01*
X80560000Y-153330000D02*
X80560000Y-137970000D01*
X80560000Y-137970000D02*
X77900000Y-137970000D01*
X77900000Y-137970000D02*
X77900000Y-153330000D01*
X77900000Y-153330000D02*
X80560000Y-153330000D01*
X77900000Y-152380000D02*
X71900000Y-152380000D01*
X71900000Y-152380000D02*
X71900000Y-151620000D01*
X71900000Y-151620000D02*
X77900000Y-151620000D01*
X77900000Y-152320000D02*
X71900000Y-152320000D01*
X77900000Y-152200000D02*
X71900000Y-152200000D01*
X77900000Y-152080000D02*
X71900000Y-152080000D01*
X77900000Y-151960000D02*
X71900000Y-151960000D01*
X77900000Y-151840000D02*
X71900000Y-151840000D01*
X77900000Y-151720000D02*
X71900000Y-151720000D01*
X80890000Y-152380000D02*
X80560000Y-152380000D01*
X80890000Y-151620000D02*
X80560000Y-151620000D01*
X80560000Y-150730000D02*
X77900000Y-150730000D01*
X77900000Y-149840000D02*
X71900000Y-149840000D01*
X71900000Y-149840000D02*
X71900000Y-149080000D01*
X71900000Y-149080000D02*
X77900000Y-149080000D01*
X80957071Y-149840000D02*
X80560000Y-149840000D01*
X80957071Y-149080000D02*
X80560000Y-149080000D01*
X80560000Y-148190000D02*
X77900000Y-148190000D01*
X77900000Y-147300000D02*
X71900000Y-147300000D01*
X71900000Y-147300000D02*
X71900000Y-146540000D01*
X71900000Y-146540000D02*
X77900000Y-146540000D01*
X80957071Y-147300000D02*
X80560000Y-147300000D01*
X80957071Y-146540000D02*
X80560000Y-146540000D01*
X80560000Y-145650000D02*
X77900000Y-145650000D01*
X77900000Y-144760000D02*
X71900000Y-144760000D01*
X71900000Y-144760000D02*
X71900000Y-144000000D01*
X71900000Y-144000000D02*
X77900000Y-144000000D01*
X80957071Y-144760000D02*
X80560000Y-144760000D01*
X80957071Y-144000000D02*
X80560000Y-144000000D01*
X80560000Y-143110000D02*
X77900000Y-143110000D01*
X77900000Y-142220000D02*
X71900000Y-142220000D01*
X71900000Y-142220000D02*
X71900000Y-141460000D01*
X71900000Y-141460000D02*
X77900000Y-141460000D01*
X80957071Y-142220000D02*
X80560000Y-142220000D01*
X80957071Y-141460000D02*
X80560000Y-141460000D01*
X80560000Y-140570000D02*
X77900000Y-140570000D01*
X77900000Y-139680000D02*
X71900000Y-139680000D01*
X71900000Y-139680000D02*
X71900000Y-138920000D01*
X71900000Y-138920000D02*
X77900000Y-138920000D01*
X80957071Y-139680000D02*
X80560000Y-139680000D01*
X80957071Y-138920000D02*
X80560000Y-138920000D01*
X83270000Y-152000000D02*
X83270000Y-153270000D01*
X83270000Y-153270000D02*
X82000000Y-153270000D01*
X210560000Y-158330000D02*
X210560000Y-150590000D01*
X210560000Y-150590000D02*
X207900000Y-150590000D01*
X207900000Y-150590000D02*
X207900000Y-158330000D01*
X207900000Y-158330000D02*
X210560000Y-158330000D01*
X207900000Y-157380000D02*
X201900000Y-157380000D01*
X201900000Y-157380000D02*
X201900000Y-156620000D01*
X201900000Y-156620000D02*
X207900000Y-156620000D01*
X207900000Y-157320000D02*
X201900000Y-157320000D01*
X207900000Y-157200000D02*
X201900000Y-157200000D01*
X207900000Y-157080000D02*
X201900000Y-157080000D01*
X207900000Y-156960000D02*
X201900000Y-156960000D01*
X207900000Y-156840000D02*
X201900000Y-156840000D01*
X207900000Y-156720000D02*
X201900000Y-156720000D01*
X210890000Y-157380000D02*
X210560000Y-157380000D01*
X210890000Y-156620000D02*
X210560000Y-156620000D01*
X210560000Y-155730000D02*
X207900000Y-155730000D01*
X207900000Y-154840000D02*
X201900000Y-154840000D01*
X201900000Y-154840000D02*
X201900000Y-154080000D01*
X201900000Y-154080000D02*
X207900000Y-154080000D01*
X210957071Y-154840000D02*
X210560000Y-154840000D01*
X210957071Y-154080000D02*
X210560000Y-154080000D01*
X210560000Y-153190000D02*
X207900000Y-153190000D01*
X207900000Y-152300000D02*
X201900000Y-152300000D01*
X201900000Y-152300000D02*
X201900000Y-151540000D01*
X201900000Y-151540000D02*
X207900000Y-151540000D01*
X210957071Y-152300000D02*
X210560000Y-152300000D01*
X210957071Y-151540000D02*
X210560000Y-151540000D01*
X213270000Y-157000000D02*
X213270000Y-158270000D01*
X213270000Y-158270000D02*
X212000000Y-158270000D01*
X179270000Y-158270000D02*
X178000000Y-158270000D01*
X179270000Y-157000000D02*
X179270000Y-158270000D01*
X176957071Y-151540000D02*
X176560000Y-151540000D01*
X176957071Y-152300000D02*
X176560000Y-152300000D01*
X167900000Y-151540000D02*
X173900000Y-151540000D01*
X167900000Y-152300000D02*
X167900000Y-151540000D01*
X173900000Y-152300000D02*
X167900000Y-152300000D01*
X176560000Y-153190000D02*
X173900000Y-153190000D01*
X176957071Y-154080000D02*
X176560000Y-154080000D01*
X176957071Y-154840000D02*
X176560000Y-154840000D01*
X167900000Y-154080000D02*
X173900000Y-154080000D01*
X167900000Y-154840000D02*
X167900000Y-154080000D01*
X173900000Y-154840000D02*
X167900000Y-154840000D01*
X176560000Y-155730000D02*
X173900000Y-155730000D01*
X176890000Y-156620000D02*
X176560000Y-156620000D01*
X176890000Y-157380000D02*
X176560000Y-157380000D01*
X173900000Y-156720000D02*
X167900000Y-156720000D01*
X173900000Y-156840000D02*
X167900000Y-156840000D01*
X173900000Y-156960000D02*
X167900000Y-156960000D01*
X173900000Y-157080000D02*
X167900000Y-157080000D01*
X173900000Y-157200000D02*
X167900000Y-157200000D01*
X173900000Y-157320000D02*
X167900000Y-157320000D01*
X167900000Y-156620000D02*
X173900000Y-156620000D01*
X167900000Y-157380000D02*
X167900000Y-156620000D01*
X173900000Y-157380000D02*
X167900000Y-157380000D01*
X173900000Y-158330000D02*
X176560000Y-158330000D01*
X173900000Y-150590000D02*
X173900000Y-158330000D01*
X176560000Y-150590000D02*
X173900000Y-150590000D01*
X176560000Y-158330000D02*
X176560000Y-150590000D01*
X113280000Y-113580000D02*
X116520000Y-113580000D01*
X113280000Y-121020000D02*
X116520000Y-121020000D01*
X116520000Y-121020000D02*
X116520000Y-113580000D01*
X113280000Y-121020000D02*
X113280000Y-113580000D01*
X115125000Y-112279646D02*
X116125000Y-112279646D01*
X115625000Y-112779646D02*
X115625000Y-111779646D01*
X117901000Y-102219000D02*
X119099000Y-102219000D01*
X117638000Y-102259000D02*
X119362000Y-102259000D01*
X117438000Y-102299000D02*
X119562000Y-102299000D01*
X117270000Y-102339000D02*
X119730000Y-102339000D01*
X117122000Y-102379000D02*
X119878000Y-102379000D01*
X116990000Y-102419000D02*
X120010000Y-102419000D01*
X116870000Y-102459000D02*
X120130000Y-102459000D01*
X116758000Y-102499000D02*
X120242000Y-102499000D01*
X116654000Y-102539000D02*
X120346000Y-102539000D01*
X116556000Y-102579000D02*
X120444000Y-102579000D01*
X116463000Y-102619000D02*
X120537000Y-102619000D01*
X116375000Y-102659000D02*
X120625000Y-102659000D01*
X116291000Y-102699000D02*
X120709000Y-102699000D01*
X116211000Y-102739000D02*
X120789000Y-102739000D01*
X116135000Y-102779000D02*
X120865000Y-102779000D01*
X116061000Y-102819000D02*
X120939000Y-102819000D01*
X115990000Y-102859000D02*
X121010000Y-102859000D01*
X115921000Y-102899000D02*
X121079000Y-102899000D01*
X115855000Y-102939000D02*
X121145000Y-102939000D01*
X115791000Y-102979000D02*
X121209000Y-102979000D01*
X115730000Y-103019000D02*
X121270000Y-103019000D01*
X115670000Y-103059000D02*
X121330000Y-103059000D01*
X115611000Y-103099000D02*
X121389000Y-103099000D01*
X115555000Y-103139000D02*
X121445000Y-103139000D01*
X115500000Y-103179000D02*
X121500000Y-103179000D01*
X115446000Y-103219000D02*
X121554000Y-103219000D01*
X115394000Y-103259000D02*
X121606000Y-103259000D01*
X115344000Y-103299000D02*
X121656000Y-103299000D01*
X115294000Y-103339000D02*
X121706000Y-103339000D01*
X115246000Y-103379000D02*
X121754000Y-103379000D01*
X115199000Y-103419000D02*
X121801000Y-103419000D01*
X115153000Y-103459000D02*
X121847000Y-103459000D01*
X115108000Y-103499000D02*
X121892000Y-103499000D01*
X115064000Y-103539000D02*
X121936000Y-103539000D01*
X119741000Y-103579000D02*
X121978000Y-103579000D01*
X115022000Y-103579000D02*
X117259000Y-103579000D01*
X119741000Y-103619000D02*
X122020000Y-103619000D01*
X114980000Y-103619000D02*
X117259000Y-103619000D01*
X119741000Y-103659000D02*
X122061000Y-103659000D01*
X114939000Y-103659000D02*
X117259000Y-103659000D01*
X119741000Y-103699000D02*
X122101000Y-103699000D01*
X114899000Y-103699000D02*
X117259000Y-103699000D01*
X119741000Y-103739000D02*
X122140000Y-103739000D01*
X114860000Y-103739000D02*
X117259000Y-103739000D01*
X119741000Y-103779000D02*
X122179000Y-103779000D01*
X114821000Y-103779000D02*
X117259000Y-103779000D01*
X119741000Y-103819000D02*
X122216000Y-103819000D01*
X114784000Y-103819000D02*
X117259000Y-103819000D01*
X119741000Y-103859000D02*
X122253000Y-103859000D01*
X114747000Y-103859000D02*
X117259000Y-103859000D01*
X119741000Y-103899000D02*
X122289000Y-103899000D01*
X114711000Y-103899000D02*
X117259000Y-103899000D01*
X119741000Y-103939000D02*
X122324000Y-103939000D01*
X114676000Y-103939000D02*
X117259000Y-103939000D01*
X119741000Y-103979000D02*
X122358000Y-103979000D01*
X114642000Y-103979000D02*
X117259000Y-103979000D01*
X119741000Y-104019000D02*
X122392000Y-104019000D01*
X114608000Y-104019000D02*
X117259000Y-104019000D01*
X119741000Y-104059000D02*
X122425000Y-104059000D01*
X114575000Y-104059000D02*
X117259000Y-104059000D01*
X119741000Y-104099000D02*
X122457000Y-104099000D01*
X114543000Y-104099000D02*
X117259000Y-104099000D01*
X119741000Y-104139000D02*
X122489000Y-104139000D01*
X114511000Y-104139000D02*
X117259000Y-104139000D01*
X119741000Y-104179000D02*
X122520000Y-104179000D01*
X114480000Y-104179000D02*
X117259000Y-104179000D01*
X119741000Y-104219000D02*
X122550000Y-104219000D01*
X114450000Y-104219000D02*
X117259000Y-104219000D01*
X119741000Y-104259000D02*
X122580000Y-104259000D01*
X114420000Y-104259000D02*
X117259000Y-104259000D01*
X119741000Y-104299000D02*
X122610000Y-104299000D01*
X114390000Y-104299000D02*
X117259000Y-104299000D01*
X119741000Y-104339000D02*
X122638000Y-104339000D01*
X114362000Y-104339000D02*
X117259000Y-104339000D01*
X119741000Y-104379000D02*
X122666000Y-104379000D01*
X114334000Y-104379000D02*
X117259000Y-104379000D01*
X119741000Y-104419000D02*
X122694000Y-104419000D01*
X114306000Y-104419000D02*
X117259000Y-104419000D01*
X119741000Y-104459000D02*
X122721000Y-104459000D01*
X114279000Y-104459000D02*
X117259000Y-104459000D01*
X119741000Y-104499000D02*
X122747000Y-104499000D01*
X114253000Y-104499000D02*
X117259000Y-104499000D01*
X119741000Y-104539000D02*
X122773000Y-104539000D01*
X114227000Y-104539000D02*
X117259000Y-104539000D01*
X119741000Y-104579000D02*
X122798000Y-104579000D01*
X114202000Y-104579000D02*
X117259000Y-104579000D01*
X119741000Y-104619000D02*
X122823000Y-104619000D01*
X114177000Y-104619000D02*
X117259000Y-104619000D01*
X119741000Y-104659000D02*
X122847000Y-104659000D01*
X114153000Y-104659000D02*
X117259000Y-104659000D01*
X119741000Y-104699000D02*
X122871000Y-104699000D01*
X114129000Y-104699000D02*
X117259000Y-104699000D01*
X119741000Y-104739000D02*
X122895000Y-104739000D01*
X114105000Y-104739000D02*
X117259000Y-104739000D01*
X119741000Y-104779000D02*
X122917000Y-104779000D01*
X114083000Y-104779000D02*
X117259000Y-104779000D01*
X119741000Y-104819000D02*
X122940000Y-104819000D01*
X114060000Y-104819000D02*
X117259000Y-104819000D01*
X119741000Y-104859000D02*
X122962000Y-104859000D01*
X114038000Y-104859000D02*
X117259000Y-104859000D01*
X119741000Y-104899000D02*
X122983000Y-104899000D01*
X114017000Y-104899000D02*
X117259000Y-104899000D01*
X119741000Y-104939000D02*
X123004000Y-104939000D01*
X113996000Y-104939000D02*
X117259000Y-104939000D01*
X119741000Y-104979000D02*
X123025000Y-104979000D01*
X113975000Y-104979000D02*
X117259000Y-104979000D01*
X119741000Y-105019000D02*
X123045000Y-105019000D01*
X113955000Y-105019000D02*
X117259000Y-105019000D01*
X119741000Y-105059000D02*
X123064000Y-105059000D01*
X113936000Y-105059000D02*
X117259000Y-105059000D01*
X119741000Y-105099000D02*
X123084000Y-105099000D01*
X113916000Y-105099000D02*
X117259000Y-105099000D01*
X119741000Y-105139000D02*
X123103000Y-105139000D01*
X113897000Y-105139000D02*
X117259000Y-105139000D01*
X119741000Y-105179000D02*
X123121000Y-105179000D01*
X113879000Y-105179000D02*
X117259000Y-105179000D01*
X119741000Y-105219000D02*
X123139000Y-105219000D01*
X113861000Y-105219000D02*
X117259000Y-105219000D01*
X119741000Y-105259000D02*
X123157000Y-105259000D01*
X113843000Y-105259000D02*
X117259000Y-105259000D01*
X119741000Y-105299000D02*
X123174000Y-105299000D01*
X113826000Y-105299000D02*
X117259000Y-105299000D01*
X119741000Y-105339000D02*
X123190000Y-105339000D01*
X113810000Y-105339000D02*
X117259000Y-105339000D01*
X119741000Y-105379000D02*
X123207000Y-105379000D01*
X113793000Y-105379000D02*
X117259000Y-105379000D01*
X119741000Y-105419000D02*
X123223000Y-105419000D01*
X113777000Y-105419000D02*
X117259000Y-105419000D01*
X119741000Y-105459000D02*
X123238000Y-105459000D01*
X113762000Y-105459000D02*
X117259000Y-105459000D01*
X119741000Y-105499000D02*
X123254000Y-105499000D01*
X113746000Y-105499000D02*
X117259000Y-105499000D01*
X119741000Y-105539000D02*
X123268000Y-105539000D01*
X113732000Y-105539000D02*
X117259000Y-105539000D01*
X119741000Y-105579000D02*
X123283000Y-105579000D01*
X113717000Y-105579000D02*
X117259000Y-105579000D01*
X119741000Y-105619000D02*
X123297000Y-105619000D01*
X113703000Y-105619000D02*
X117259000Y-105619000D01*
X119741000Y-105659000D02*
X123311000Y-105659000D01*
X113689000Y-105659000D02*
X117259000Y-105659000D01*
X119741000Y-105699000D02*
X123324000Y-105699000D01*
X113676000Y-105699000D02*
X117259000Y-105699000D01*
X119741000Y-105739000D02*
X123337000Y-105739000D01*
X113663000Y-105739000D02*
X117259000Y-105739000D01*
X119741000Y-105779000D02*
X123350000Y-105779000D01*
X113650000Y-105779000D02*
X117259000Y-105779000D01*
X119741000Y-105819000D02*
X123362000Y-105819000D01*
X113638000Y-105819000D02*
X117259000Y-105819000D01*
X119741000Y-105859000D02*
X123374000Y-105859000D01*
X113626000Y-105859000D02*
X117259000Y-105859000D01*
X119741000Y-105899000D02*
X123385000Y-105899000D01*
X113615000Y-105899000D02*
X117259000Y-105899000D01*
X119741000Y-105939000D02*
X123397000Y-105939000D01*
X113603000Y-105939000D02*
X117259000Y-105939000D01*
X119741000Y-105979000D02*
X123407000Y-105979000D01*
X113593000Y-105979000D02*
X117259000Y-105979000D01*
X119741000Y-106019000D02*
X123418000Y-106019000D01*
X113582000Y-106019000D02*
X117259000Y-106019000D01*
X113572000Y-106059000D02*
X123428000Y-106059000D01*
X113562000Y-106099000D02*
X123438000Y-106099000D01*
X113553000Y-106139000D02*
X123447000Y-106139000D01*
X113544000Y-106179000D02*
X123456000Y-106179000D01*
X113535000Y-106219000D02*
X123465000Y-106219000D01*
X113526000Y-106259000D02*
X123474000Y-106259000D01*
X113518000Y-106299000D02*
X123482000Y-106299000D01*
X113510000Y-106339000D02*
X123490000Y-106339000D01*
X113503000Y-106379000D02*
X123497000Y-106379000D01*
X113496000Y-106419000D02*
X123504000Y-106419000D01*
X113489000Y-106459000D02*
X123511000Y-106459000D01*
X113482000Y-106499000D02*
X123518000Y-106499000D01*
X113476000Y-106539000D02*
X123524000Y-106539000D01*
X113470000Y-106579000D02*
X123530000Y-106579000D01*
X113465000Y-106620000D02*
X123535000Y-106620000D01*
X113460000Y-106660000D02*
X123540000Y-106660000D01*
X113455000Y-106700000D02*
X123545000Y-106700000D01*
X113450000Y-106740000D02*
X123550000Y-106740000D01*
X113446000Y-106780000D02*
X123554000Y-106780000D01*
X113442000Y-106820000D02*
X123558000Y-106820000D01*
X113438000Y-106860000D02*
X123562000Y-106860000D01*
X113435000Y-106900000D02*
X123565000Y-106900000D01*
X113432000Y-106940000D02*
X123568000Y-106940000D01*
X113430000Y-106980000D02*
X123570000Y-106980000D01*
X113427000Y-107020000D02*
X123573000Y-107020000D01*
X113425000Y-107060000D02*
X123575000Y-107060000D01*
X113423000Y-107100000D02*
X123577000Y-107100000D01*
X113422000Y-107140000D02*
X123578000Y-107140000D01*
X113421000Y-107180000D02*
X123579000Y-107180000D01*
X113420000Y-107220000D02*
X123580000Y-107220000D01*
X113420000Y-107260000D02*
X123580000Y-107260000D01*
X113420000Y-107300000D02*
X123580000Y-107300000D01*
X123620000Y-107300000D02*
G75*
G03X123620000Y-107300000I-5120000J0D01*
G01*
X109780000Y-110920000D02*
X109780000Y-103480000D01*
X113020000Y-110920000D02*
X113020000Y-103480000D01*
X109780000Y-110920000D02*
X113020000Y-110920000D01*
X109780000Y-103480000D02*
X113020000Y-103480000D01*
X97620000Y-122621000D02*
X91380000Y-122621000D01*
X97620000Y-117979000D02*
X91380000Y-117979000D01*
X97620000Y-122621000D02*
X97620000Y-121225000D01*
X97620000Y-119375000D02*
X97620000Y-117979000D01*
X91380000Y-122621000D02*
X91380000Y-121225000D01*
X91380000Y-119375000D02*
X91380000Y-117979000D01*
X116980000Y-121020000D02*
X116980000Y-113580000D01*
X120220000Y-121020000D02*
X120220000Y-113580000D01*
X116980000Y-121020000D02*
X120220000Y-121020000D01*
X116980000Y-113580000D02*
X120220000Y-113580000D01*
X81475000Y-130220000D02*
X80079000Y-130220000D01*
X84721000Y-130220000D02*
X83325000Y-130220000D01*
X81475000Y-123980000D02*
X80079000Y-123980000D01*
X84721000Y-123980000D02*
X83325000Y-123980000D01*
X80079000Y-123980000D02*
X80079000Y-130220000D01*
X84721000Y-123980000D02*
X84721000Y-130220000D01*
X95720000Y-134160000D02*
G75*
G03X95720000Y-134160000I-5120000J0D01*
G01*
X95680000Y-134160000D02*
X85520000Y-134160000D01*
X95680000Y-134200000D02*
X85520000Y-134200000D01*
X95680000Y-134240000D02*
X85520000Y-134240000D01*
X95679000Y-134280000D02*
X85521000Y-134280000D01*
X95678000Y-134320000D02*
X85522000Y-134320000D01*
X95677000Y-134360000D02*
X85523000Y-134360000D01*
X95675000Y-134400000D02*
X85525000Y-134400000D01*
X95673000Y-134440000D02*
X85527000Y-134440000D01*
X95670000Y-134480000D02*
X85530000Y-134480000D01*
X95668000Y-134520000D02*
X85532000Y-134520000D01*
X95665000Y-134560000D02*
X85535000Y-134560000D01*
X95662000Y-134600000D02*
X85538000Y-134600000D01*
X95658000Y-134640000D02*
X85542000Y-134640000D01*
X95654000Y-134680000D02*
X85546000Y-134680000D01*
X95650000Y-134720000D02*
X85550000Y-134720000D01*
X95645000Y-134760000D02*
X85555000Y-134760000D01*
X95640000Y-134800000D02*
X85560000Y-134800000D01*
X95635000Y-134840000D02*
X85565000Y-134840000D01*
X95630000Y-134881000D02*
X85570000Y-134881000D01*
X95624000Y-134921000D02*
X85576000Y-134921000D01*
X95618000Y-134961000D02*
X85582000Y-134961000D01*
X95611000Y-135001000D02*
X85589000Y-135001000D01*
X95604000Y-135041000D02*
X85596000Y-135041000D01*
X95597000Y-135081000D02*
X85603000Y-135081000D01*
X95590000Y-135121000D02*
X85610000Y-135121000D01*
X95582000Y-135161000D02*
X85618000Y-135161000D01*
X95574000Y-135201000D02*
X85626000Y-135201000D01*
X95565000Y-135241000D02*
X85635000Y-135241000D01*
X95556000Y-135281000D02*
X85644000Y-135281000D01*
X95547000Y-135321000D02*
X85653000Y-135321000D01*
X95538000Y-135361000D02*
X85662000Y-135361000D01*
X95528000Y-135401000D02*
X85672000Y-135401000D01*
X95518000Y-135441000D02*
X91841000Y-135441000D01*
X89359000Y-135441000D02*
X85682000Y-135441000D01*
X95507000Y-135481000D02*
X91841000Y-135481000D01*
X89359000Y-135481000D02*
X85693000Y-135481000D01*
X95497000Y-135521000D02*
X91841000Y-135521000D01*
X89359000Y-135521000D02*
X85703000Y-135521000D01*
X95485000Y-135561000D02*
X91841000Y-135561000D01*
X89359000Y-135561000D02*
X85715000Y-135561000D01*
X95474000Y-135601000D02*
X91841000Y-135601000D01*
X89359000Y-135601000D02*
X85726000Y-135601000D01*
X95462000Y-135641000D02*
X91841000Y-135641000D01*
X89359000Y-135641000D02*
X85738000Y-135641000D01*
X95450000Y-135681000D02*
X91841000Y-135681000D01*
X89359000Y-135681000D02*
X85750000Y-135681000D01*
X95437000Y-135721000D02*
X91841000Y-135721000D01*
X89359000Y-135721000D02*
X85763000Y-135721000D01*
X95424000Y-135761000D02*
X91841000Y-135761000D01*
X89359000Y-135761000D02*
X85776000Y-135761000D01*
X95411000Y-135801000D02*
X91841000Y-135801000D01*
X89359000Y-135801000D02*
X85789000Y-135801000D01*
X95397000Y-135841000D02*
X91841000Y-135841000D01*
X89359000Y-135841000D02*
X85803000Y-135841000D01*
X95383000Y-135881000D02*
X91841000Y-135881000D01*
X89359000Y-135881000D02*
X85817000Y-135881000D01*
X95368000Y-135921000D02*
X91841000Y-135921000D01*
X89359000Y-135921000D02*
X85832000Y-135921000D01*
X95354000Y-135961000D02*
X91841000Y-135961000D01*
X89359000Y-135961000D02*
X85846000Y-135961000D01*
X95338000Y-136001000D02*
X91841000Y-136001000D01*
X89359000Y-136001000D02*
X85862000Y-136001000D01*
X95323000Y-136041000D02*
X91841000Y-136041000D01*
X89359000Y-136041000D02*
X85877000Y-136041000D01*
X95307000Y-136081000D02*
X91841000Y-136081000D01*
X89359000Y-136081000D02*
X85893000Y-136081000D01*
X95290000Y-136121000D02*
X91841000Y-136121000D01*
X89359000Y-136121000D02*
X85910000Y-136121000D01*
X95274000Y-136161000D02*
X91841000Y-136161000D01*
X89359000Y-136161000D02*
X85926000Y-136161000D01*
X95257000Y-136201000D02*
X91841000Y-136201000D01*
X89359000Y-136201000D02*
X85943000Y-136201000D01*
X95239000Y-136241000D02*
X91841000Y-136241000D01*
X89359000Y-136241000D02*
X85961000Y-136241000D01*
X95221000Y-136281000D02*
X91841000Y-136281000D01*
X89359000Y-136281000D02*
X85979000Y-136281000D01*
X95203000Y-136321000D02*
X91841000Y-136321000D01*
X89359000Y-136321000D02*
X85997000Y-136321000D01*
X95184000Y-136361000D02*
X91841000Y-136361000D01*
X89359000Y-136361000D02*
X86016000Y-136361000D01*
X95164000Y-136401000D02*
X91841000Y-136401000D01*
X89359000Y-136401000D02*
X86036000Y-136401000D01*
X95145000Y-136441000D02*
X91841000Y-136441000D01*
X89359000Y-136441000D02*
X86055000Y-136441000D01*
X95125000Y-136481000D02*
X91841000Y-136481000D01*
X89359000Y-136481000D02*
X86075000Y-136481000D01*
X95104000Y-136521000D02*
X91841000Y-136521000D01*
X89359000Y-136521000D02*
X86096000Y-136521000D01*
X95083000Y-136561000D02*
X91841000Y-136561000D01*
X89359000Y-136561000D02*
X86117000Y-136561000D01*
X95062000Y-136601000D02*
X91841000Y-136601000D01*
X89359000Y-136601000D02*
X86138000Y-136601000D01*
X95040000Y-136641000D02*
X91841000Y-136641000D01*
X89359000Y-136641000D02*
X86160000Y-136641000D01*
X95017000Y-136681000D02*
X91841000Y-136681000D01*
X89359000Y-136681000D02*
X86183000Y-136681000D01*
X94995000Y-136721000D02*
X91841000Y-136721000D01*
X89359000Y-136721000D02*
X86205000Y-136721000D01*
X94971000Y-136761000D02*
X91841000Y-136761000D01*
X89359000Y-136761000D02*
X86229000Y-136761000D01*
X94947000Y-136801000D02*
X91841000Y-136801000D01*
X89359000Y-136801000D02*
X86253000Y-136801000D01*
X94923000Y-136841000D02*
X91841000Y-136841000D01*
X89359000Y-136841000D02*
X86277000Y-136841000D01*
X94898000Y-136881000D02*
X91841000Y-136881000D01*
X89359000Y-136881000D02*
X86302000Y-136881000D01*
X94873000Y-136921000D02*
X91841000Y-136921000D01*
X89359000Y-136921000D02*
X86327000Y-136921000D01*
X94847000Y-136961000D02*
X91841000Y-136961000D01*
X89359000Y-136961000D02*
X86353000Y-136961000D01*
X94821000Y-137001000D02*
X91841000Y-137001000D01*
X89359000Y-137001000D02*
X86379000Y-137001000D01*
X94794000Y-137041000D02*
X91841000Y-137041000D01*
X89359000Y-137041000D02*
X86406000Y-137041000D01*
X94766000Y-137081000D02*
X91841000Y-137081000D01*
X89359000Y-137081000D02*
X86434000Y-137081000D01*
X94738000Y-137121000D02*
X91841000Y-137121000D01*
X89359000Y-137121000D02*
X86462000Y-137121000D01*
X94710000Y-137161000D02*
X91841000Y-137161000D01*
X89359000Y-137161000D02*
X86490000Y-137161000D01*
X94680000Y-137201000D02*
X91841000Y-137201000D01*
X89359000Y-137201000D02*
X86520000Y-137201000D01*
X94650000Y-137241000D02*
X91841000Y-137241000D01*
X89359000Y-137241000D02*
X86550000Y-137241000D01*
X94620000Y-137281000D02*
X91841000Y-137281000D01*
X89359000Y-137281000D02*
X86580000Y-137281000D01*
X94589000Y-137321000D02*
X91841000Y-137321000D01*
X89359000Y-137321000D02*
X86611000Y-137321000D01*
X94557000Y-137361000D02*
X91841000Y-137361000D01*
X89359000Y-137361000D02*
X86643000Y-137361000D01*
X94525000Y-137401000D02*
X91841000Y-137401000D01*
X89359000Y-137401000D02*
X86675000Y-137401000D01*
X94492000Y-137441000D02*
X91841000Y-137441000D01*
X89359000Y-137441000D02*
X86708000Y-137441000D01*
X94458000Y-137481000D02*
X91841000Y-137481000D01*
X89359000Y-137481000D02*
X86742000Y-137481000D01*
X94424000Y-137521000D02*
X91841000Y-137521000D01*
X89359000Y-137521000D02*
X86776000Y-137521000D01*
X94389000Y-137561000D02*
X91841000Y-137561000D01*
X89359000Y-137561000D02*
X86811000Y-137561000D01*
X94353000Y-137601000D02*
X91841000Y-137601000D01*
X89359000Y-137601000D02*
X86847000Y-137601000D01*
X94316000Y-137641000D02*
X91841000Y-137641000D01*
X89359000Y-137641000D02*
X86884000Y-137641000D01*
X94279000Y-137681000D02*
X91841000Y-137681000D01*
X89359000Y-137681000D02*
X86921000Y-137681000D01*
X94240000Y-137721000D02*
X91841000Y-137721000D01*
X89359000Y-137721000D02*
X86960000Y-137721000D01*
X94201000Y-137761000D02*
X91841000Y-137761000D01*
X89359000Y-137761000D02*
X86999000Y-137761000D01*
X94161000Y-137801000D02*
X91841000Y-137801000D01*
X89359000Y-137801000D02*
X87039000Y-137801000D01*
X94120000Y-137841000D02*
X91841000Y-137841000D01*
X89359000Y-137841000D02*
X87080000Y-137841000D01*
X94078000Y-137881000D02*
X91841000Y-137881000D01*
X89359000Y-137881000D02*
X87122000Y-137881000D01*
X94036000Y-137921000D02*
X87164000Y-137921000D01*
X93992000Y-137961000D02*
X87208000Y-137961000D01*
X93947000Y-138001000D02*
X87253000Y-138001000D01*
X93901000Y-138041000D02*
X87299000Y-138041000D01*
X93854000Y-138081000D02*
X87346000Y-138081000D01*
X93806000Y-138121000D02*
X87394000Y-138121000D01*
X93756000Y-138161000D02*
X87444000Y-138161000D01*
X93706000Y-138201000D02*
X87494000Y-138201000D01*
X93654000Y-138241000D02*
X87546000Y-138241000D01*
X93600000Y-138281000D02*
X87600000Y-138281000D01*
X93545000Y-138321000D02*
X87655000Y-138321000D01*
X93489000Y-138361000D02*
X87711000Y-138361000D01*
X93430000Y-138401000D02*
X87770000Y-138401000D01*
X93370000Y-138441000D02*
X87830000Y-138441000D01*
X93309000Y-138481000D02*
X87891000Y-138481000D01*
X93245000Y-138521000D02*
X87955000Y-138521000D01*
X93179000Y-138561000D02*
X88021000Y-138561000D01*
X93110000Y-138601000D02*
X88090000Y-138601000D01*
X93039000Y-138641000D02*
X88161000Y-138641000D01*
X92965000Y-138681000D02*
X88235000Y-138681000D01*
X92889000Y-138721000D02*
X88311000Y-138721000D01*
X92809000Y-138761000D02*
X88391000Y-138761000D01*
X92725000Y-138801000D02*
X88475000Y-138801000D01*
X92637000Y-138841000D02*
X88563000Y-138841000D01*
X92544000Y-138881000D02*
X88656000Y-138881000D01*
X92446000Y-138921000D02*
X88754000Y-138921000D01*
X92342000Y-138961000D02*
X88858000Y-138961000D01*
X92230000Y-139001000D02*
X88970000Y-139001000D01*
X92110000Y-139041000D02*
X89090000Y-139041000D01*
X91978000Y-139081000D02*
X89222000Y-139081000D01*
X91830000Y-139121000D02*
X89370000Y-139121000D01*
X91662000Y-139161000D02*
X89538000Y-139161000D01*
X91462000Y-139201000D02*
X89738000Y-139201000D01*
X91199000Y-139241000D02*
X90001000Y-139241000D01*
X93475000Y-128680354D02*
X93475000Y-129680354D01*
X93975000Y-129180354D02*
X92975000Y-129180354D01*
X91390000Y-107380000D02*
X91390000Y-109620000D01*
X91390000Y-109620000D02*
X95630000Y-109620000D01*
X95630000Y-109620000D02*
X95630000Y-107380000D01*
X95630000Y-107380000D02*
X91390000Y-107380000D01*
X90740000Y-108500000D02*
X91390000Y-108500000D01*
X96280000Y-108500000D02*
X95630000Y-108500000D01*
X92110000Y-107380000D02*
X92110000Y-109620000D01*
X92230000Y-107380000D02*
X92230000Y-109620000D01*
X91990000Y-107380000D02*
X91990000Y-109620000D01*
X84860000Y-120840000D02*
X84380000Y-120840000D01*
X84380000Y-120840000D02*
X84380000Y-113000000D01*
X84380000Y-113000000D02*
X84860000Y-113000000D01*
X87740000Y-120840000D02*
X88220000Y-120840000D01*
X88220000Y-120840000D02*
X88220000Y-113000000D01*
X88220000Y-113000000D02*
X87740000Y-113000000D01*
X84380000Y-119580000D02*
X88220000Y-119580000D01*
X84380000Y-119460000D02*
X88220000Y-119460000D01*
X84380000Y-119700000D02*
X88220000Y-119700000D01*
X91740000Y-114450000D02*
X95340000Y-114450000D01*
X91215816Y-113722795D02*
G75*
G03X91740000Y-114450000I2324184J1122795D01*
G01*
X91183600Y-111501193D02*
G75*
G02X93540000Y-110000000I2356400J-1098807D01*
G01*
X95896400Y-111501193D02*
G75*
G03X93540000Y-110000000I-2356400J-1098807D01*
G01*
X95864184Y-113722795D02*
G75*
G02X95340000Y-114450000I-2324184J1122795D01*
G01*
X87920000Y-102130000D02*
X98160000Y-102130000D01*
X87920000Y-106771000D02*
X98160000Y-106771000D01*
X87920000Y-102130000D02*
X87920000Y-106771000D01*
X98160000Y-102130000D02*
X98160000Y-106771000D01*
X87920000Y-103640000D02*
X98160000Y-103640000D01*
X91190000Y-102130000D02*
X91190000Y-103640000D01*
X94891000Y-102130000D02*
X94891000Y-103640000D01*
X112870000Y-112720000D02*
X112540000Y-112720000D01*
X112870000Y-119260000D02*
X112870000Y-112720000D01*
X112540000Y-119260000D02*
X112870000Y-119260000D01*
X110130000Y-112720000D02*
X110460000Y-112720000D01*
X110130000Y-119260000D02*
X110130000Y-112720000D01*
X110460000Y-119260000D02*
X110130000Y-119260000D01*
X115680000Y-126570000D02*
X115680000Y-126240000D01*
X109140000Y-126570000D02*
X115680000Y-126570000D01*
X109140000Y-126240000D02*
X109140000Y-126570000D01*
X115680000Y-123830000D02*
X115680000Y-124160000D01*
X109140000Y-123830000D02*
X115680000Y-123830000D01*
X109140000Y-124160000D02*
X109140000Y-123830000D01*
X96660000Y-117240000D02*
X96660000Y-117570000D01*
X96660000Y-117570000D02*
X90120000Y-117570000D01*
X90120000Y-117570000D02*
X90120000Y-117240000D01*
X96660000Y-115160000D02*
X96660000Y-114830000D01*
X96660000Y-114830000D02*
X90120000Y-114830000D01*
X90120000Y-114830000D02*
X90120000Y-115160000D01*
X109360000Y-135260000D02*
X109030000Y-135260000D01*
X109030000Y-135260000D02*
X109030000Y-128720000D01*
X109030000Y-128720000D02*
X109360000Y-128720000D01*
X111440000Y-135260000D02*
X111770000Y-135260000D01*
X111770000Y-135260000D02*
X111770000Y-128720000D01*
X111770000Y-128720000D02*
X111440000Y-128720000D01*
X105010000Y-113370000D02*
G75*
G02X103010000Y-113370000I-1000000J0D01*
G01*
X103010000Y-113370000D02*
X101760000Y-113370000D01*
X101760000Y-113370000D02*
X101760000Y-123650000D01*
X101760000Y-123650000D02*
X106260000Y-123650000D01*
X106260000Y-123650000D02*
X106260000Y-113370000D01*
X106260000Y-113370000D02*
X105010000Y-113370000D01*
X109370000Y-107500000D02*
G75*
G03X109370000Y-107500000I-5370000J0D01*
G01*
X80560000Y-122410000D02*
X80560000Y-109590000D01*
X80560000Y-109590000D02*
X77900000Y-109590000D01*
X77900000Y-109590000D02*
X77900000Y-122410000D01*
X77900000Y-122410000D02*
X80560000Y-122410000D01*
X77900000Y-121460000D02*
X71900000Y-121460000D01*
X71900000Y-121460000D02*
X71900000Y-120700000D01*
X71900000Y-120700000D02*
X77900000Y-120700000D01*
X77900000Y-121400000D02*
X71900000Y-121400000D01*
X77900000Y-121280000D02*
X71900000Y-121280000D01*
X77900000Y-121160000D02*
X71900000Y-121160000D01*
X77900000Y-121040000D02*
X71900000Y-121040000D01*
X77900000Y-120920000D02*
X71900000Y-120920000D01*
X77900000Y-120800000D02*
X71900000Y-120800000D01*
X80890000Y-121460000D02*
X80560000Y-121460000D01*
X80890000Y-120700000D02*
X80560000Y-120700000D01*
X80560000Y-119810000D02*
X77900000Y-119810000D01*
X77900000Y-118920000D02*
X71900000Y-118920000D01*
X71900000Y-118920000D02*
X71900000Y-118160000D01*
X71900000Y-118160000D02*
X77900000Y-118160000D01*
X80957071Y-118920000D02*
X80560000Y-118920000D01*
X80957071Y-118160000D02*
X80560000Y-118160000D01*
X80560000Y-117270000D02*
X77900000Y-117270000D01*
X77900000Y-116380000D02*
X71900000Y-116380000D01*
X71900000Y-116380000D02*
X71900000Y-115620000D01*
X71900000Y-115620000D02*
X77900000Y-115620000D01*
X80957071Y-116380000D02*
X80560000Y-116380000D01*
X80957071Y-115620000D02*
X80560000Y-115620000D01*
X80560000Y-114730000D02*
X77900000Y-114730000D01*
X77900000Y-113840000D02*
X71900000Y-113840000D01*
X71900000Y-113840000D02*
X71900000Y-113080000D01*
X71900000Y-113080000D02*
X77900000Y-113080000D01*
X80957071Y-113840000D02*
X80560000Y-113840000D01*
X80957071Y-113080000D02*
X80560000Y-113080000D01*
X80560000Y-112190000D02*
X77900000Y-112190000D01*
X77900000Y-111300000D02*
X71900000Y-111300000D01*
X71900000Y-111300000D02*
X71900000Y-110540000D01*
X71900000Y-110540000D02*
X77900000Y-110540000D01*
X80957071Y-111300000D02*
X80560000Y-111300000D01*
X80957071Y-110540000D02*
X80560000Y-110540000D01*
X83270000Y-121080000D02*
X83270000Y-122350000D01*
X83270000Y-122350000D02*
X82000000Y-122350000D01*
X164920000Y-145520000D02*
X159680000Y-145520000D01*
X164920000Y-134980000D02*
X159680000Y-134980000D01*
X159680000Y-134980000D02*
X159680000Y-145520000D01*
X164920000Y-134980000D02*
X164920000Y-145520000D01*
X140120000Y-134980000D02*
X140120000Y-145520000D01*
X134880000Y-134980000D02*
X134880000Y-145520000D01*
X140120000Y-134980000D02*
X134880000Y-134980000D01*
X140120000Y-145520000D02*
X134880000Y-145520000D01*
X148290000Y-157830000D02*
X148290000Y-155170000D01*
X148290000Y-157830000D02*
X161050000Y-157830000D01*
X161050000Y-157830000D02*
X161050000Y-155170000D01*
X148290000Y-155170000D02*
X161050000Y-155170000D01*
X145690000Y-155170000D02*
X147020000Y-155170000D01*
X145690000Y-156500000D02*
X145690000Y-155170000D01*
X158560000Y-116660000D02*
X158230000Y-116660000D01*
X158230000Y-116660000D02*
X158230000Y-110120000D01*
X158230000Y-110120000D02*
X158560000Y-110120000D01*
X160640000Y-116660000D02*
X160970000Y-116660000D01*
X160970000Y-116660000D02*
X160970000Y-110120000D01*
X160970000Y-110120000D02*
X160640000Y-110120000D01*
D11*
X116433333Y-138602380D02*
X116433333Y-137602380D01*
X117004761Y-138602380D01*
X117004761Y-137602380D01*
X118052380Y-138507142D02*
X118004761Y-138554761D01*
X117861904Y-138602380D01*
X117766666Y-138602380D01*
X117623809Y-138554761D01*
X117528571Y-138459523D01*
X117480952Y-138364285D01*
X117433333Y-138173809D01*
X117433333Y-138030952D01*
X117480952Y-137840476D01*
X117528571Y-137745238D01*
X117623809Y-137650000D01*
X117766666Y-137602380D01*
X117861904Y-137602380D01*
X118004761Y-137650000D01*
X118052380Y-137697619D01*
X118480952Y-138602380D02*
X118480952Y-137602380D01*
X118480952Y-138078571D02*
X119052380Y-138078571D01*
X119052380Y-138602380D02*
X119052380Y-137602380D01*
X119957142Y-137602380D02*
X119766666Y-137602380D01*
X119671428Y-137650000D01*
X119623809Y-137697619D01*
X119528571Y-137840476D01*
X119480952Y-138030952D01*
X119480952Y-138411904D01*
X119528571Y-138507142D01*
X119576190Y-138554761D01*
X119671428Y-138602380D01*
X119861904Y-138602380D01*
X119957142Y-138554761D01*
X120004761Y-138507142D01*
X120052380Y-138411904D01*
X120052380Y-138173809D01*
X120004761Y-138078571D01*
X119957142Y-138030952D01*
X119861904Y-137983333D01*
X119671428Y-137983333D01*
X119576190Y-138030952D01*
X119528571Y-138078571D01*
X119480952Y-138173809D01*
X121004761Y-138602380D02*
X120433333Y-138602380D01*
X120719047Y-138602380D02*
X120719047Y-137602380D01*
X120623809Y-137745238D01*
X120528571Y-137840476D01*
X120433333Y-137888095D01*
X121623809Y-137602380D02*
X121719047Y-137602380D01*
X121814285Y-137650000D01*
X121861904Y-137697619D01*
X121909523Y-137792857D01*
X121957142Y-137983333D01*
X121957142Y-138221428D01*
X121909523Y-138411904D01*
X121861904Y-138507142D01*
X121814285Y-138554761D01*
X121719047Y-138602380D01*
X121623809Y-138602380D01*
X121528571Y-138554761D01*
X121480952Y-138507142D01*
X121433333Y-138411904D01*
X121385714Y-138221428D01*
X121385714Y-137983333D01*
X121433333Y-137792857D01*
X121480952Y-137697619D01*
X121528571Y-137650000D01*
X121623809Y-137602380D01*
X122576190Y-137602380D02*
X122671428Y-137602380D01*
X122766666Y-137650000D01*
X122814285Y-137697619D01*
X122861904Y-137792857D01*
X122909523Y-137983333D01*
X122909523Y-138221428D01*
X122861904Y-138411904D01*
X122814285Y-138507142D01*
X122766666Y-138554761D01*
X122671428Y-138602380D01*
X122576190Y-138602380D01*
X122480952Y-138554761D01*
X122433333Y-138507142D01*
X122385714Y-138411904D01*
X122338095Y-138221428D01*
X122338095Y-137983333D01*
X122385714Y-137792857D01*
X122433333Y-137697619D01*
X122480952Y-137650000D01*
X122576190Y-137602380D01*
X123338095Y-138602380D02*
X123338095Y-137602380D01*
X123338095Y-138078571D02*
X123909523Y-138078571D01*
X123909523Y-138602380D02*
X123909523Y-137602380D01*
X124242857Y-137602380D02*
X124576190Y-138602380D01*
X124909523Y-137602380D01*
X187885714Y-126452380D02*
X188076190Y-126452380D01*
X188171428Y-126500000D01*
X188266666Y-126595238D01*
X188314285Y-126785714D01*
X188314285Y-127119047D01*
X188266666Y-127309523D01*
X188171428Y-127404761D01*
X188076190Y-127452380D01*
X187885714Y-127452380D01*
X187790476Y-127404761D01*
X187695238Y-127309523D01*
X187647619Y-127119047D01*
X187647619Y-126785714D01*
X187695238Y-126595238D01*
X187790476Y-126500000D01*
X187885714Y-126452380D01*
X189171428Y-126785714D02*
X189171428Y-127452380D01*
X188742857Y-126785714D02*
X188742857Y-127309523D01*
X188790476Y-127404761D01*
X188885714Y-127452380D01*
X189028571Y-127452380D01*
X189123809Y-127404761D01*
X189171428Y-127357142D01*
X189647619Y-126785714D02*
X189647619Y-127785714D01*
X189647619Y-126833333D02*
X189742857Y-126785714D01*
X189933333Y-126785714D01*
X190028571Y-126833333D01*
X190076190Y-126880952D01*
X190123809Y-126976190D01*
X190123809Y-127261904D01*
X190076190Y-127357142D01*
X190028571Y-127404761D01*
X189933333Y-127452380D01*
X189742857Y-127452380D01*
X189647619Y-127404761D01*
X190980952Y-126785714D02*
X190980952Y-127452380D01*
X190552380Y-126785714D02*
X190552380Y-127309523D01*
X190600000Y-127404761D01*
X190695238Y-127452380D01*
X190838095Y-127452380D01*
X190933333Y-127404761D01*
X190980952Y-127357142D01*
X191314285Y-126785714D02*
X191695238Y-126785714D01*
X191457142Y-126452380D02*
X191457142Y-127309523D01*
X191504761Y-127404761D01*
X191600000Y-127452380D01*
X191695238Y-127452380D01*
X191980952Y-126547619D02*
X192028571Y-126500000D01*
X192123809Y-126452380D01*
X192361904Y-126452380D01*
X192457142Y-126500000D01*
X192504761Y-126547619D01*
X192552380Y-126642857D01*
X192552380Y-126738095D01*
X192504761Y-126880952D01*
X191933333Y-127452380D01*
X192552380Y-127452380D01*
X144780952Y-127252380D02*
X144780952Y-126252380D01*
X145257142Y-126585714D02*
X145257142Y-127252380D01*
X145257142Y-126680952D02*
X145304761Y-126633333D01*
X145400000Y-126585714D01*
X145542857Y-126585714D01*
X145638095Y-126633333D01*
X145685714Y-126728571D01*
X145685714Y-127252380D01*
X146161904Y-126585714D02*
X146161904Y-127585714D01*
X146161904Y-126633333D02*
X146257142Y-126585714D01*
X146447619Y-126585714D01*
X146542857Y-126633333D01*
X146590476Y-126680952D01*
X146638095Y-126776190D01*
X146638095Y-127061904D01*
X146590476Y-127157142D01*
X146542857Y-127204761D01*
X146447619Y-127252380D01*
X146257142Y-127252380D01*
X146161904Y-127204761D01*
X147495238Y-126585714D02*
X147495238Y-127252380D01*
X147066666Y-126585714D02*
X147066666Y-127109523D01*
X147114285Y-127204761D01*
X147209523Y-127252380D01*
X147352380Y-127252380D01*
X147447619Y-127204761D01*
X147495238Y-127157142D01*
X147828571Y-126585714D02*
X148209523Y-126585714D01*
X147971428Y-126252380D02*
X147971428Y-127109523D01*
X148019047Y-127204761D01*
X148114285Y-127252380D01*
X148209523Y-127252380D01*
X149066666Y-127252380D02*
X148495238Y-127252380D01*
X148780952Y-127252380D02*
X148780952Y-126252380D01*
X148685714Y-126395238D01*
X148590476Y-126490476D01*
X148495238Y-126538095D01*
X230585714Y-126352380D02*
X230776190Y-126352380D01*
X230871428Y-126400000D01*
X230966666Y-126495238D01*
X231014285Y-126685714D01*
X231014285Y-127019047D01*
X230966666Y-127209523D01*
X230871428Y-127304761D01*
X230776190Y-127352380D01*
X230585714Y-127352380D01*
X230490476Y-127304761D01*
X230395238Y-127209523D01*
X230347619Y-127019047D01*
X230347619Y-126685714D01*
X230395238Y-126495238D01*
X230490476Y-126400000D01*
X230585714Y-126352380D01*
X231871428Y-126685714D02*
X231871428Y-127352380D01*
X231442857Y-126685714D02*
X231442857Y-127209523D01*
X231490476Y-127304761D01*
X231585714Y-127352380D01*
X231728571Y-127352380D01*
X231823809Y-127304761D01*
X231871428Y-127257142D01*
X232347619Y-126685714D02*
X232347619Y-127685714D01*
X232347619Y-126733333D02*
X232442857Y-126685714D01*
X232633333Y-126685714D01*
X232728571Y-126733333D01*
X232776190Y-126780952D01*
X232823809Y-126876190D01*
X232823809Y-127161904D01*
X232776190Y-127257142D01*
X232728571Y-127304761D01*
X232633333Y-127352380D01*
X232442857Y-127352380D01*
X232347619Y-127304761D01*
X233680952Y-126685714D02*
X233680952Y-127352380D01*
X233252380Y-126685714D02*
X233252380Y-127209523D01*
X233300000Y-127304761D01*
X233395238Y-127352380D01*
X233538095Y-127352380D01*
X233633333Y-127304761D01*
X233680952Y-127257142D01*
X234014285Y-126685714D02*
X234395238Y-126685714D01*
X234157142Y-126352380D02*
X234157142Y-127209523D01*
X234204761Y-127304761D01*
X234300000Y-127352380D01*
X234395238Y-127352380D01*
X235252380Y-127352380D02*
X234680952Y-127352380D01*
X234966666Y-127352380D02*
X234966666Y-126352380D01*
X234871428Y-126495238D01*
X234776190Y-126590476D01*
X234680952Y-126638095D01*
X108323333Y-145617142D02*
X108275714Y-145664761D01*
X108132857Y-145712380D01*
X108037619Y-145712380D01*
X107894761Y-145664761D01*
X107799523Y-145569523D01*
X107751904Y-145474285D01*
X107704285Y-145283809D01*
X107704285Y-145140952D01*
X107751904Y-144950476D01*
X107799523Y-144855238D01*
X107894761Y-144760000D01*
X108037619Y-144712380D01*
X108132857Y-144712380D01*
X108275714Y-144760000D01*
X108323333Y-144807619D01*
X109180476Y-145045714D02*
X109180476Y-145712380D01*
X108942380Y-144664761D02*
X108704285Y-145379047D01*
X109323333Y-145379047D01*
X129061904Y-121752380D02*
X129061904Y-120752380D01*
X129300000Y-120752380D01*
X129442857Y-120800000D01*
X129538095Y-120895238D01*
X129585714Y-120990476D01*
X129633333Y-121180952D01*
X129633333Y-121323809D01*
X129585714Y-121514285D01*
X129538095Y-121609523D01*
X129442857Y-121704761D01*
X129300000Y-121752380D01*
X129061904Y-121752380D01*
X130585714Y-121752380D02*
X130014285Y-121752380D01*
X130300000Y-121752380D02*
X130300000Y-120752380D01*
X130204761Y-120895238D01*
X130109523Y-120990476D01*
X130014285Y-121038095D01*
X133438095Y-121452380D02*
X133438095Y-120452380D01*
X134009523Y-121452380D02*
X133580952Y-120880952D01*
X134009523Y-120452380D02*
X133438095Y-121023809D01*
X221717619Y-154332380D02*
X221908095Y-154332380D01*
X222003333Y-154380000D01*
X222098571Y-154475238D01*
X222146190Y-154665714D01*
X222146190Y-154999047D01*
X222098571Y-155189523D01*
X222003333Y-155284761D01*
X221908095Y-155332380D01*
X221717619Y-155332380D01*
X221622380Y-155284761D01*
X221527142Y-155189523D01*
X221479523Y-154999047D01*
X221479523Y-154665714D01*
X221527142Y-154475238D01*
X221622380Y-154380000D01*
X221717619Y-154332380D01*
X222431904Y-154332380D02*
X223003333Y-154332380D01*
X222717619Y-155332380D02*
X222717619Y-154332380D01*
X223289047Y-154427619D02*
X223336666Y-154380000D01*
X223431904Y-154332380D01*
X223670000Y-154332380D01*
X223765238Y-154380000D01*
X223812857Y-154427619D01*
X223860476Y-154522857D01*
X223860476Y-154618095D01*
X223812857Y-154760952D01*
X223241428Y-155332380D01*
X223860476Y-155332380D01*
X216687619Y-154332380D02*
X216878095Y-154332380D01*
X216973333Y-154380000D01*
X217068571Y-154475238D01*
X217116190Y-154665714D01*
X217116190Y-154999047D01*
X217068571Y-155189523D01*
X216973333Y-155284761D01*
X216878095Y-155332380D01*
X216687619Y-155332380D01*
X216592380Y-155284761D01*
X216497142Y-155189523D01*
X216449523Y-154999047D01*
X216449523Y-154665714D01*
X216497142Y-154475238D01*
X216592380Y-154380000D01*
X216687619Y-154332380D01*
X217401904Y-154332380D02*
X217973333Y-154332380D01*
X217687619Y-155332380D02*
X217687619Y-154332380D01*
X218830476Y-155332380D02*
X218259047Y-155332380D01*
X218544761Y-155332380D02*
X218544761Y-154332380D01*
X218449523Y-154475238D01*
X218354285Y-154570476D01*
X218259047Y-154618095D01*
X132961904Y-115952380D02*
X132961904Y-114952380D01*
X133200000Y-114952380D01*
X133342857Y-115000000D01*
X133438095Y-115095238D01*
X133485714Y-115190476D01*
X133533333Y-115380952D01*
X133533333Y-115523809D01*
X133485714Y-115714285D01*
X133438095Y-115809523D01*
X133342857Y-115904761D01*
X133200000Y-115952380D01*
X132961904Y-115952380D01*
X134533333Y-115857142D02*
X134485714Y-115904761D01*
X134342857Y-115952380D01*
X134247619Y-115952380D01*
X134104761Y-115904761D01*
X134009523Y-115809523D01*
X133961904Y-115714285D01*
X133914285Y-115523809D01*
X133914285Y-115380952D01*
X133961904Y-115190476D01*
X134009523Y-115095238D01*
X134104761Y-115000000D01*
X134247619Y-114952380D01*
X134342857Y-114952380D01*
X134485714Y-115000000D01*
X134533333Y-115047619D01*
X135485714Y-115952380D02*
X134914285Y-115952380D01*
X135200000Y-115952380D02*
X135200000Y-114952380D01*
X135104761Y-115095238D01*
X135009523Y-115190476D01*
X134914285Y-115238095D01*
X208461904Y-147400000D02*
X208366666Y-147352380D01*
X208223809Y-147352380D01*
X208080952Y-147400000D01*
X207985714Y-147495238D01*
X207938095Y-147590476D01*
X207890476Y-147780952D01*
X207890476Y-147923809D01*
X207938095Y-148114285D01*
X207985714Y-148209523D01*
X208080952Y-148304761D01*
X208223809Y-148352380D01*
X208319047Y-148352380D01*
X208461904Y-148304761D01*
X208509523Y-148257142D01*
X208509523Y-147923809D01*
X208319047Y-147923809D01*
X208938095Y-148352380D02*
X208938095Y-147352380D01*
X209509523Y-148352380D01*
X209509523Y-147352380D01*
X209985714Y-148352380D02*
X209985714Y-147352380D01*
X210223809Y-147352380D01*
X210366666Y-147400000D01*
X210461904Y-147495238D01*
X210509523Y-147590476D01*
X210557142Y-147780952D01*
X210557142Y-147923809D01*
X210509523Y-148114285D01*
X210461904Y-148209523D01*
X210366666Y-148304761D01*
X210223809Y-148352380D01*
X209985714Y-148352380D01*
X211509523Y-148352380D02*
X210938095Y-148352380D01*
X211223809Y-148352380D02*
X211223809Y-147352380D01*
X211128571Y-147495238D01*
X211033333Y-147590476D01*
X210938095Y-147638095D01*
X229124761Y-154332380D02*
X229791428Y-155332380D01*
X229791428Y-154332380D02*
X229124761Y-155332380D01*
X230648571Y-155332380D02*
X230172380Y-155332380D01*
X230172380Y-154332380D01*
X231553333Y-155332380D02*
X231220000Y-154856190D01*
X230981904Y-155332380D02*
X230981904Y-154332380D01*
X231362857Y-154332380D01*
X231458095Y-154380000D01*
X231505714Y-154427619D01*
X231553333Y-154522857D01*
X231553333Y-154665714D01*
X231505714Y-154760952D01*
X231458095Y-154808571D01*
X231362857Y-154856190D01*
X230981904Y-154856190D01*
X231743809Y-155427619D02*
X232505714Y-155427619D01*
X233267619Y-155332380D02*
X232696190Y-155332380D01*
X232981904Y-155332380D02*
X232981904Y-154332380D01*
X232886666Y-154475238D01*
X232791428Y-154570476D01*
X232696190Y-154618095D01*
X239314761Y-154332380D02*
X239981428Y-155332380D01*
X239981428Y-154332380D02*
X239314761Y-155332380D01*
X240838571Y-155332380D02*
X240362380Y-155332380D01*
X240362380Y-154332380D01*
X241743333Y-155332380D02*
X241410000Y-154856190D01*
X241171904Y-155332380D02*
X241171904Y-154332380D01*
X241552857Y-154332380D01*
X241648095Y-154380000D01*
X241695714Y-154427619D01*
X241743333Y-154522857D01*
X241743333Y-154665714D01*
X241695714Y-154760952D01*
X241648095Y-154808571D01*
X241552857Y-154856190D01*
X241171904Y-154856190D01*
X241933809Y-155427619D02*
X242695714Y-155427619D01*
X242886190Y-154427619D02*
X242933809Y-154380000D01*
X243029047Y-154332380D01*
X243267142Y-154332380D01*
X243362380Y-154380000D01*
X243410000Y-154427619D01*
X243457619Y-154522857D01*
X243457619Y-154618095D01*
X243410000Y-154760952D01*
X242838571Y-155332380D01*
X243457619Y-155332380D01*
X234154761Y-154332380D02*
X234821428Y-155332380D01*
X234821428Y-154332380D02*
X234154761Y-155332380D01*
X235678571Y-155332380D02*
X235202380Y-155332380D01*
X235202380Y-154332380D01*
X236583333Y-155332380D02*
X236250000Y-154856190D01*
X236011904Y-155332380D02*
X236011904Y-154332380D01*
X236392857Y-154332380D01*
X236488095Y-154380000D01*
X236535714Y-154427619D01*
X236583333Y-154522857D01*
X236583333Y-154665714D01*
X236535714Y-154760952D01*
X236488095Y-154808571D01*
X236392857Y-154856190D01*
X236011904Y-154856190D01*
X236773809Y-155427619D02*
X237535714Y-155427619D01*
X237678571Y-154332380D02*
X238297619Y-154332380D01*
X237964285Y-154713333D01*
X238107142Y-154713333D01*
X238202380Y-154760952D01*
X238250000Y-154808571D01*
X238297619Y-154903809D01*
X238297619Y-155141904D01*
X238250000Y-155237142D01*
X238202380Y-155284761D01*
X238107142Y-155332380D01*
X237821428Y-155332380D01*
X237726190Y-155284761D01*
X237678571Y-155237142D01*
X118433333Y-156057142D02*
X118385714Y-156104761D01*
X118242857Y-156152380D01*
X118147619Y-156152380D01*
X118004761Y-156104761D01*
X117909523Y-156009523D01*
X117861904Y-155914285D01*
X117814285Y-155723809D01*
X117814285Y-155580952D01*
X117861904Y-155390476D01*
X117909523Y-155295238D01*
X118004761Y-155200000D01*
X118147619Y-155152380D01*
X118242857Y-155152380D01*
X118385714Y-155200000D01*
X118433333Y-155247619D01*
X118814285Y-155247619D02*
X118861904Y-155200000D01*
X118957142Y-155152380D01*
X119195238Y-155152380D01*
X119290476Y-155200000D01*
X119338095Y-155247619D01*
X119385714Y-155342857D01*
X119385714Y-155438095D01*
X119338095Y-155580952D01*
X118766666Y-156152380D01*
X119385714Y-156152380D01*
X227116666Y-145902380D02*
X227116666Y-146616666D01*
X227069047Y-146759523D01*
X226973809Y-146854761D01*
X226830952Y-146902380D01*
X226735714Y-146902380D01*
X227735714Y-146330952D02*
X227640476Y-146283333D01*
X227592857Y-146235714D01*
X227545238Y-146140476D01*
X227545238Y-146092857D01*
X227592857Y-145997619D01*
X227640476Y-145950000D01*
X227735714Y-145902380D01*
X227926190Y-145902380D01*
X228021428Y-145950000D01*
X228069047Y-145997619D01*
X228116666Y-146092857D01*
X228116666Y-146140476D01*
X228069047Y-146235714D01*
X228021428Y-146283333D01*
X227926190Y-146330952D01*
X227735714Y-146330952D01*
X227640476Y-146378571D01*
X227592857Y-146426190D01*
X227545238Y-146521428D01*
X227545238Y-146711904D01*
X227592857Y-146807142D01*
X227640476Y-146854761D01*
X227735714Y-146902380D01*
X227926190Y-146902380D01*
X228021428Y-146854761D01*
X228069047Y-146807142D01*
X228116666Y-146711904D01*
X228116666Y-146521428D01*
X228069047Y-146426190D01*
X228021428Y-146378571D01*
X227926190Y-146330952D01*
X97333333Y-152052380D02*
X97000000Y-151576190D01*
X96761904Y-152052380D02*
X96761904Y-151052380D01*
X97142857Y-151052380D01*
X97238095Y-151100000D01*
X97285714Y-151147619D01*
X97333333Y-151242857D01*
X97333333Y-151385714D01*
X97285714Y-151480952D01*
X97238095Y-151528571D01*
X97142857Y-151576190D01*
X96761904Y-151576190D01*
X98285714Y-152052380D02*
X97714285Y-152052380D01*
X98000000Y-152052380D02*
X98000000Y-151052380D01*
X97904761Y-151195238D01*
X97809523Y-151290476D01*
X97714285Y-151338095D01*
X118933333Y-148002380D02*
X118600000Y-147526190D01*
X118361904Y-148002380D02*
X118361904Y-147002380D01*
X118742857Y-147002380D01*
X118838095Y-147050000D01*
X118885714Y-147097619D01*
X118933333Y-147192857D01*
X118933333Y-147335714D01*
X118885714Y-147430952D01*
X118838095Y-147478571D01*
X118742857Y-147526190D01*
X118361904Y-147526190D01*
X119314285Y-147097619D02*
X119361904Y-147050000D01*
X119457142Y-147002380D01*
X119695238Y-147002380D01*
X119790476Y-147050000D01*
X119838095Y-147097619D01*
X119885714Y-147192857D01*
X119885714Y-147288095D01*
X119838095Y-147430952D01*
X119266666Y-148002380D01*
X119885714Y-148002380D01*
X190033333Y-134452380D02*
X189700000Y-133976190D01*
X189461904Y-134452380D02*
X189461904Y-133452380D01*
X189842857Y-133452380D01*
X189938095Y-133500000D01*
X189985714Y-133547619D01*
X190033333Y-133642857D01*
X190033333Y-133785714D01*
X189985714Y-133880952D01*
X189938095Y-133928571D01*
X189842857Y-133976190D01*
X189461904Y-133976190D01*
X190366666Y-133452380D02*
X190985714Y-133452380D01*
X190652380Y-133833333D01*
X190795238Y-133833333D01*
X190890476Y-133880952D01*
X190938095Y-133928571D01*
X190985714Y-134023809D01*
X190985714Y-134261904D01*
X190938095Y-134357142D01*
X190890476Y-134404761D01*
X190795238Y-134452380D01*
X190509523Y-134452380D01*
X190414285Y-134404761D01*
X190366666Y-134357142D01*
X118883333Y-151352380D02*
X118550000Y-150876190D01*
X118311904Y-151352380D02*
X118311904Y-150352380D01*
X118692857Y-150352380D01*
X118788095Y-150400000D01*
X118835714Y-150447619D01*
X118883333Y-150542857D01*
X118883333Y-150685714D01*
X118835714Y-150780952D01*
X118788095Y-150828571D01*
X118692857Y-150876190D01*
X118311904Y-150876190D01*
X119740476Y-150685714D02*
X119740476Y-151352380D01*
X119502380Y-150304761D02*
X119264285Y-151019047D01*
X119883333Y-151019047D01*
X224033333Y-150352380D02*
X223700000Y-149876190D01*
X223461904Y-150352380D02*
X223461904Y-149352380D01*
X223842857Y-149352380D01*
X223938095Y-149400000D01*
X223985714Y-149447619D01*
X224033333Y-149542857D01*
X224033333Y-149685714D01*
X223985714Y-149780952D01*
X223938095Y-149828571D01*
X223842857Y-149876190D01*
X223461904Y-149876190D01*
X224604761Y-149780952D02*
X224509523Y-149733333D01*
X224461904Y-149685714D01*
X224414285Y-149590476D01*
X224414285Y-149542857D01*
X224461904Y-149447619D01*
X224509523Y-149400000D01*
X224604761Y-149352380D01*
X224795238Y-149352380D01*
X224890476Y-149400000D01*
X224938095Y-149447619D01*
X224985714Y-149542857D01*
X224985714Y-149590476D01*
X224938095Y-149685714D01*
X224890476Y-149733333D01*
X224795238Y-149780952D01*
X224604761Y-149780952D01*
X224509523Y-149828571D01*
X224461904Y-149876190D01*
X224414285Y-149971428D01*
X224414285Y-150161904D01*
X224461904Y-150257142D01*
X224509523Y-150304761D01*
X224604761Y-150352380D01*
X224795238Y-150352380D01*
X224890476Y-150304761D01*
X224938095Y-150257142D01*
X224985714Y-150161904D01*
X224985714Y-149971428D01*
X224938095Y-149876190D01*
X224890476Y-149828571D01*
X224795238Y-149780952D01*
X238533333Y-134452380D02*
X238200000Y-133976190D01*
X237961904Y-134452380D02*
X237961904Y-133452380D01*
X238342857Y-133452380D01*
X238438095Y-133500000D01*
X238485714Y-133547619D01*
X238533333Y-133642857D01*
X238533333Y-133785714D01*
X238485714Y-133880952D01*
X238438095Y-133928571D01*
X238342857Y-133976190D01*
X237961904Y-133976190D01*
X239009523Y-134452380D02*
X239200000Y-134452380D01*
X239295238Y-134404761D01*
X239342857Y-134357142D01*
X239438095Y-134214285D01*
X239485714Y-134023809D01*
X239485714Y-133642857D01*
X239438095Y-133547619D01*
X239390476Y-133500000D01*
X239295238Y-133452380D01*
X239104761Y-133452380D01*
X239009523Y-133500000D01*
X238961904Y-133547619D01*
X238914285Y-133642857D01*
X238914285Y-133880952D01*
X238961904Y-133976190D01*
X239009523Y-134023809D01*
X239104761Y-134071428D01*
X239295238Y-134071428D01*
X239390476Y-134023809D01*
X239438095Y-133976190D01*
X239485714Y-133880952D01*
X216657142Y-134252380D02*
X216323809Y-133776190D01*
X216085714Y-134252380D02*
X216085714Y-133252380D01*
X216466666Y-133252380D01*
X216561904Y-133300000D01*
X216609523Y-133347619D01*
X216657142Y-133442857D01*
X216657142Y-133585714D01*
X216609523Y-133680952D01*
X216561904Y-133728571D01*
X216466666Y-133776190D01*
X216085714Y-133776190D01*
X217609523Y-134252380D02*
X217038095Y-134252380D01*
X217323809Y-134252380D02*
X217323809Y-133252380D01*
X217228571Y-133395238D01*
X217133333Y-133490476D01*
X217038095Y-133538095D01*
X218228571Y-133252380D02*
X218323809Y-133252380D01*
X218419047Y-133300000D01*
X218466666Y-133347619D01*
X218514285Y-133442857D01*
X218561904Y-133633333D01*
X218561904Y-133871428D01*
X218514285Y-134061904D01*
X218466666Y-134157142D01*
X218419047Y-134204761D01*
X218323809Y-134252380D01*
X218228571Y-134252380D01*
X218133333Y-134204761D01*
X218085714Y-134157142D01*
X218038095Y-134061904D01*
X217990476Y-133871428D01*
X217990476Y-133633333D01*
X218038095Y-133442857D01*
X218085714Y-133347619D01*
X218133333Y-133300000D01*
X218228571Y-133252380D01*
X177666666Y-113952380D02*
X177666666Y-114666666D01*
X177619047Y-114809523D01*
X177523809Y-114904761D01*
X177380952Y-114952380D01*
X177285714Y-114952380D01*
X178047619Y-113952380D02*
X178666666Y-113952380D01*
X178333333Y-114333333D01*
X178476190Y-114333333D01*
X178571428Y-114380952D01*
X178619047Y-114428571D01*
X178666666Y-114523809D01*
X178666666Y-114761904D01*
X178619047Y-114857142D01*
X178571428Y-114904761D01*
X178476190Y-114952380D01*
X178190476Y-114952380D01*
X178095238Y-114904761D01*
X178047619Y-114857142D01*
X211666666Y-113952380D02*
X211666666Y-114666666D01*
X211619047Y-114809523D01*
X211523809Y-114904761D01*
X211380952Y-114952380D01*
X211285714Y-114952380D01*
X212619047Y-113952380D02*
X212142857Y-113952380D01*
X212095238Y-114428571D01*
X212142857Y-114380952D01*
X212238095Y-114333333D01*
X212476190Y-114333333D01*
X212571428Y-114380952D01*
X212619047Y-114428571D01*
X212666666Y-114523809D01*
X212666666Y-114761904D01*
X212619047Y-114857142D01*
X212571428Y-114904761D01*
X212476190Y-114952380D01*
X212238095Y-114952380D01*
X212142857Y-114904761D01*
X212095238Y-114857142D01*
X81666666Y-153952380D02*
X81666666Y-154666666D01*
X81619047Y-154809523D01*
X81523809Y-154904761D01*
X81380952Y-154952380D01*
X81285714Y-154952380D01*
X82095238Y-154047619D02*
X82142857Y-154000000D01*
X82238095Y-153952380D01*
X82476190Y-153952380D01*
X82571428Y-154000000D01*
X82619047Y-154047619D01*
X82666666Y-154142857D01*
X82666666Y-154238095D01*
X82619047Y-154380952D01*
X82047619Y-154952380D01*
X82666666Y-154952380D01*
X211666666Y-158722380D02*
X211666666Y-159436666D01*
X211619047Y-159579523D01*
X211523809Y-159674761D01*
X211380952Y-159722380D01*
X211285714Y-159722380D01*
X212571428Y-158722380D02*
X212380952Y-158722380D01*
X212285714Y-158770000D01*
X212238095Y-158817619D01*
X212142857Y-158960476D01*
X212095238Y-159150952D01*
X212095238Y-159531904D01*
X212142857Y-159627142D01*
X212190476Y-159674761D01*
X212285714Y-159722380D01*
X212476190Y-159722380D01*
X212571428Y-159674761D01*
X212619047Y-159627142D01*
X212666666Y-159531904D01*
X212666666Y-159293809D01*
X212619047Y-159198571D01*
X212571428Y-159150952D01*
X212476190Y-159103333D01*
X212285714Y-159103333D01*
X212190476Y-159150952D01*
X212142857Y-159198571D01*
X212095238Y-159293809D01*
X177666666Y-158722380D02*
X177666666Y-159436666D01*
X177619047Y-159579523D01*
X177523809Y-159674761D01*
X177380952Y-159722380D01*
X177285714Y-159722380D01*
X178571428Y-159055714D02*
X178571428Y-159722380D01*
X178333333Y-158674761D02*
X178095238Y-159389047D01*
X178714285Y-159389047D01*
X114833333Y-122457142D02*
X114785714Y-122504761D01*
X114642857Y-122552380D01*
X114547619Y-122552380D01*
X114404761Y-122504761D01*
X114309523Y-122409523D01*
X114261904Y-122314285D01*
X114214285Y-122123809D01*
X114214285Y-121980952D01*
X114261904Y-121790476D01*
X114309523Y-121695238D01*
X114404761Y-121600000D01*
X114547619Y-121552380D01*
X114642857Y-121552380D01*
X114785714Y-121600000D01*
X114833333Y-121647619D01*
X115166666Y-121552380D02*
X115833333Y-121552380D01*
X115404761Y-122552380D01*
X121633333Y-112757142D02*
X121585714Y-112804761D01*
X121442857Y-112852380D01*
X121347619Y-112852380D01*
X121204761Y-112804761D01*
X121109523Y-112709523D01*
X121061904Y-112614285D01*
X121014285Y-112423809D01*
X121014285Y-112280952D01*
X121061904Y-112090476D01*
X121109523Y-111995238D01*
X121204761Y-111900000D01*
X121347619Y-111852380D01*
X121442857Y-111852380D01*
X121585714Y-111900000D01*
X121633333Y-111947619D01*
X122204761Y-112280952D02*
X122109523Y-112233333D01*
X122061904Y-112185714D01*
X122014285Y-112090476D01*
X122014285Y-112042857D01*
X122061904Y-111947619D01*
X122109523Y-111900000D01*
X122204761Y-111852380D01*
X122395238Y-111852380D01*
X122490476Y-111900000D01*
X122538095Y-111947619D01*
X122585714Y-112042857D01*
X122585714Y-112090476D01*
X122538095Y-112185714D01*
X122490476Y-112233333D01*
X122395238Y-112280952D01*
X122204761Y-112280952D01*
X122109523Y-112328571D01*
X122061904Y-112376190D01*
X122014285Y-112471428D01*
X122014285Y-112661904D01*
X122061904Y-112757142D01*
X122109523Y-112804761D01*
X122204761Y-112852380D01*
X122395238Y-112852380D01*
X122490476Y-112804761D01*
X122538095Y-112757142D01*
X122585714Y-112661904D01*
X122585714Y-112471428D01*
X122538095Y-112376190D01*
X122490476Y-112328571D01*
X122395238Y-112280952D01*
X111033333Y-107657142D02*
X110985714Y-107704761D01*
X110842857Y-107752380D01*
X110747619Y-107752380D01*
X110604761Y-107704761D01*
X110509523Y-107609523D01*
X110461904Y-107514285D01*
X110414285Y-107323809D01*
X110414285Y-107180952D01*
X110461904Y-106990476D01*
X110509523Y-106895238D01*
X110604761Y-106800000D01*
X110747619Y-106752380D01*
X110842857Y-106752380D01*
X110985714Y-106800000D01*
X111033333Y-106847619D01*
X111509523Y-107752380D02*
X111700000Y-107752380D01*
X111795238Y-107704761D01*
X111842857Y-107657142D01*
X111938095Y-107514285D01*
X111985714Y-107323809D01*
X111985714Y-106942857D01*
X111938095Y-106847619D01*
X111890476Y-106800000D01*
X111795238Y-106752380D01*
X111604761Y-106752380D01*
X111509523Y-106800000D01*
X111461904Y-106847619D01*
X111414285Y-106942857D01*
X111414285Y-107180952D01*
X111461904Y-107276190D01*
X111509523Y-107323809D01*
X111604761Y-107371428D01*
X111795238Y-107371428D01*
X111890476Y-107323809D01*
X111938095Y-107276190D01*
X111985714Y-107180952D01*
X93957142Y-123857142D02*
X93909523Y-123904761D01*
X93766666Y-123952380D01*
X93671428Y-123952380D01*
X93528571Y-123904761D01*
X93433333Y-123809523D01*
X93385714Y-123714285D01*
X93338095Y-123523809D01*
X93338095Y-123380952D01*
X93385714Y-123190476D01*
X93433333Y-123095238D01*
X93528571Y-123000000D01*
X93671428Y-122952380D01*
X93766666Y-122952380D01*
X93909523Y-123000000D01*
X93957142Y-123047619D01*
X94909523Y-123952380D02*
X94338095Y-123952380D01*
X94623809Y-123952380D02*
X94623809Y-122952380D01*
X94528571Y-123095238D01*
X94433333Y-123190476D01*
X94338095Y-123238095D01*
X95528571Y-122952380D02*
X95623809Y-122952380D01*
X95719047Y-123000000D01*
X95766666Y-123047619D01*
X95814285Y-123142857D01*
X95861904Y-123333333D01*
X95861904Y-123571428D01*
X95814285Y-123761904D01*
X95766666Y-123857142D01*
X95719047Y-123904761D01*
X95623809Y-123952380D01*
X95528571Y-123952380D01*
X95433333Y-123904761D01*
X95385714Y-123857142D01*
X95338095Y-123761904D01*
X95290476Y-123571428D01*
X95290476Y-123333333D01*
X95338095Y-123142857D01*
X95385714Y-123047619D01*
X95433333Y-123000000D01*
X95528571Y-122952380D01*
X117957142Y-122357142D02*
X117909523Y-122404761D01*
X117766666Y-122452380D01*
X117671428Y-122452380D01*
X117528571Y-122404761D01*
X117433333Y-122309523D01*
X117385714Y-122214285D01*
X117338095Y-122023809D01*
X117338095Y-121880952D01*
X117385714Y-121690476D01*
X117433333Y-121595238D01*
X117528571Y-121500000D01*
X117671428Y-121452380D01*
X117766666Y-121452380D01*
X117909523Y-121500000D01*
X117957142Y-121547619D01*
X118909523Y-122452380D02*
X118338095Y-122452380D01*
X118623809Y-122452380D02*
X118623809Y-121452380D01*
X118528571Y-121595238D01*
X118433333Y-121690476D01*
X118338095Y-121738095D01*
X119861904Y-122452380D02*
X119290476Y-122452380D01*
X119576190Y-122452380D02*
X119576190Y-121452380D01*
X119480952Y-121595238D01*
X119385714Y-121690476D01*
X119290476Y-121738095D01*
X81857142Y-132057142D02*
X81809523Y-132104761D01*
X81666666Y-132152380D01*
X81571428Y-132152380D01*
X81428571Y-132104761D01*
X81333333Y-132009523D01*
X81285714Y-131914285D01*
X81238095Y-131723809D01*
X81238095Y-131580952D01*
X81285714Y-131390476D01*
X81333333Y-131295238D01*
X81428571Y-131200000D01*
X81571428Y-131152380D01*
X81666666Y-131152380D01*
X81809523Y-131200000D01*
X81857142Y-131247619D01*
X82809523Y-132152380D02*
X82238095Y-132152380D01*
X82523809Y-132152380D02*
X82523809Y-131152380D01*
X82428571Y-131295238D01*
X82333333Y-131390476D01*
X82238095Y-131438095D01*
X83190476Y-131247619D02*
X83238095Y-131200000D01*
X83333333Y-131152380D01*
X83571428Y-131152380D01*
X83666666Y-131200000D01*
X83714285Y-131247619D01*
X83761904Y-131342857D01*
X83761904Y-131438095D01*
X83714285Y-131580952D01*
X83142857Y-132152380D01*
X83761904Y-132152380D01*
X95557142Y-138617142D02*
X95509523Y-138664761D01*
X95366666Y-138712380D01*
X95271428Y-138712380D01*
X95128571Y-138664761D01*
X95033333Y-138569523D01*
X94985714Y-138474285D01*
X94938095Y-138283809D01*
X94938095Y-138140952D01*
X94985714Y-137950476D01*
X95033333Y-137855238D01*
X95128571Y-137760000D01*
X95271428Y-137712380D01*
X95366666Y-137712380D01*
X95509523Y-137760000D01*
X95557142Y-137807619D01*
X96509523Y-138712380D02*
X95938095Y-138712380D01*
X96223809Y-138712380D02*
X96223809Y-137712380D01*
X96128571Y-137855238D01*
X96033333Y-137950476D01*
X95938095Y-137998095D01*
X96842857Y-137712380D02*
X97461904Y-137712380D01*
X97128571Y-138093333D01*
X97271428Y-138093333D01*
X97366666Y-138140952D01*
X97414285Y-138188571D01*
X97461904Y-138283809D01*
X97461904Y-138521904D01*
X97414285Y-138617142D01*
X97366666Y-138664761D01*
X97271428Y-138712380D01*
X96985714Y-138712380D01*
X96890476Y-138664761D01*
X96842857Y-138617142D01*
X92961904Y-108952380D02*
X92961904Y-107952380D01*
X93200000Y-107952380D01*
X93342857Y-108000000D01*
X93438095Y-108095238D01*
X93485714Y-108190476D01*
X93533333Y-108380952D01*
X93533333Y-108523809D01*
X93485714Y-108714285D01*
X93438095Y-108809523D01*
X93342857Y-108904761D01*
X93200000Y-108952380D01*
X92961904Y-108952380D01*
X93914285Y-108047619D02*
X93961904Y-108000000D01*
X94057142Y-107952380D01*
X94295238Y-107952380D01*
X94390476Y-108000000D01*
X94438095Y-108047619D01*
X94485714Y-108142857D01*
X94485714Y-108238095D01*
X94438095Y-108380952D01*
X93866666Y-108952380D01*
X94485714Y-108952380D01*
X87438095Y-108652380D02*
X87438095Y-107652380D01*
X88009523Y-108652380D02*
X87580952Y-108080952D01*
X88009523Y-107652380D02*
X87438095Y-108223809D01*
X88461904Y-119452380D02*
X88461904Y-118452380D01*
X88700000Y-118452380D01*
X88842857Y-118500000D01*
X88938095Y-118595238D01*
X88985714Y-118690476D01*
X89033333Y-118880952D01*
X89033333Y-119023809D01*
X88985714Y-119214285D01*
X88938095Y-119309523D01*
X88842857Y-119404761D01*
X88700000Y-119452380D01*
X88461904Y-119452380D01*
X89366666Y-118452380D02*
X89985714Y-118452380D01*
X89652380Y-118833333D01*
X89795238Y-118833333D01*
X89890476Y-118880952D01*
X89938095Y-118928571D01*
X89985714Y-119023809D01*
X89985714Y-119261904D01*
X89938095Y-119357142D01*
X89890476Y-119404761D01*
X89795238Y-119452380D01*
X89509523Y-119452380D01*
X89414285Y-119404761D01*
X89366666Y-119357142D01*
X88138095Y-122752380D02*
X88138095Y-121752380D01*
X88709523Y-122752380D02*
X88280952Y-122180952D01*
X88709523Y-121752380D02*
X88138095Y-122323809D01*
X98404761Y-112947619D02*
X98309523Y-112900000D01*
X98214285Y-112804761D01*
X98071428Y-112661904D01*
X97976190Y-112614285D01*
X97880952Y-112614285D01*
X97928571Y-112852380D02*
X97833333Y-112804761D01*
X97738095Y-112709523D01*
X97690476Y-112519047D01*
X97690476Y-112185714D01*
X97738095Y-111995238D01*
X97833333Y-111900000D01*
X97928571Y-111852380D01*
X98119047Y-111852380D01*
X98214285Y-111900000D01*
X98309523Y-111995238D01*
X98357142Y-112185714D01*
X98357142Y-112519047D01*
X98309523Y-112709523D01*
X98214285Y-112804761D01*
X98119047Y-112852380D01*
X97928571Y-112852380D01*
X99309523Y-112852380D02*
X98738095Y-112852380D01*
X99023809Y-112852380D02*
X99023809Y-111852380D01*
X98928571Y-111995238D01*
X98833333Y-112090476D01*
X98738095Y-112138095D01*
X86204761Y-105247619D02*
X86109523Y-105200000D01*
X86014285Y-105104761D01*
X85871428Y-104961904D01*
X85776190Y-104914285D01*
X85680952Y-104914285D01*
X85728571Y-105152380D02*
X85633333Y-105104761D01*
X85538095Y-105009523D01*
X85490476Y-104819047D01*
X85490476Y-104485714D01*
X85538095Y-104295238D01*
X85633333Y-104200000D01*
X85728571Y-104152380D01*
X85919047Y-104152380D01*
X86014285Y-104200000D01*
X86109523Y-104295238D01*
X86157142Y-104485714D01*
X86157142Y-104819047D01*
X86109523Y-105009523D01*
X86014285Y-105104761D01*
X85919047Y-105152380D01*
X85728571Y-105152380D01*
X86538095Y-104247619D02*
X86585714Y-104200000D01*
X86680952Y-104152380D01*
X86919047Y-104152380D01*
X87014285Y-104200000D01*
X87061904Y-104247619D01*
X87109523Y-104342857D01*
X87109523Y-104438095D01*
X87061904Y-104580952D01*
X86490476Y-105152380D01*
X87109523Y-105152380D01*
X110857142Y-116252380D02*
X110523809Y-115776190D01*
X110285714Y-116252380D02*
X110285714Y-115252380D01*
X110666666Y-115252380D01*
X110761904Y-115300000D01*
X110809523Y-115347619D01*
X110857142Y-115442857D01*
X110857142Y-115585714D01*
X110809523Y-115680952D01*
X110761904Y-115728571D01*
X110666666Y-115776190D01*
X110285714Y-115776190D01*
X111809523Y-116252380D02*
X111238095Y-116252380D01*
X111523809Y-116252380D02*
X111523809Y-115252380D01*
X111428571Y-115395238D01*
X111333333Y-115490476D01*
X111238095Y-115538095D01*
X112761904Y-116252380D02*
X112190476Y-116252380D01*
X112476190Y-116252380D02*
X112476190Y-115252380D01*
X112380952Y-115395238D01*
X112285714Y-115490476D01*
X112190476Y-115538095D01*
X111557142Y-123552380D02*
X111223809Y-123076190D01*
X110985714Y-123552380D02*
X110985714Y-122552380D01*
X111366666Y-122552380D01*
X111461904Y-122600000D01*
X111509523Y-122647619D01*
X111557142Y-122742857D01*
X111557142Y-122885714D01*
X111509523Y-122980952D01*
X111461904Y-123028571D01*
X111366666Y-123076190D01*
X110985714Y-123076190D01*
X112509523Y-123552380D02*
X111938095Y-123552380D01*
X112223809Y-123552380D02*
X112223809Y-122552380D01*
X112128571Y-122695238D01*
X112033333Y-122790476D01*
X111938095Y-122838095D01*
X112890476Y-122647619D02*
X112938095Y-122600000D01*
X113033333Y-122552380D01*
X113271428Y-122552380D01*
X113366666Y-122600000D01*
X113414285Y-122647619D01*
X113461904Y-122742857D01*
X113461904Y-122838095D01*
X113414285Y-122980952D01*
X112842857Y-123552380D01*
X113461904Y-123552380D01*
X92457142Y-116652380D02*
X92123809Y-116176190D01*
X91885714Y-116652380D02*
X91885714Y-115652380D01*
X92266666Y-115652380D01*
X92361904Y-115700000D01*
X92409523Y-115747619D01*
X92457142Y-115842857D01*
X92457142Y-115985714D01*
X92409523Y-116080952D01*
X92361904Y-116128571D01*
X92266666Y-116176190D01*
X91885714Y-116176190D01*
X93409523Y-116652380D02*
X92838095Y-116652380D01*
X93123809Y-116652380D02*
X93123809Y-115652380D01*
X93028571Y-115795238D01*
X92933333Y-115890476D01*
X92838095Y-115938095D01*
X93742857Y-115652380D02*
X94361904Y-115652380D01*
X94028571Y-116033333D01*
X94171428Y-116033333D01*
X94266666Y-116080952D01*
X94314285Y-116128571D01*
X94361904Y-116223809D01*
X94361904Y-116461904D01*
X94314285Y-116557142D01*
X94266666Y-116604761D01*
X94171428Y-116652380D01*
X93885714Y-116652380D01*
X93790476Y-116604761D01*
X93742857Y-116557142D01*
X106657142Y-132452380D02*
X106323809Y-131976190D01*
X106085714Y-132452380D02*
X106085714Y-131452380D01*
X106466666Y-131452380D01*
X106561904Y-131500000D01*
X106609523Y-131547619D01*
X106657142Y-131642857D01*
X106657142Y-131785714D01*
X106609523Y-131880952D01*
X106561904Y-131928571D01*
X106466666Y-131976190D01*
X106085714Y-131976190D01*
X107609523Y-132452380D02*
X107038095Y-132452380D01*
X107323809Y-132452380D02*
X107323809Y-131452380D01*
X107228571Y-131595238D01*
X107133333Y-131690476D01*
X107038095Y-131738095D01*
X108466666Y-131785714D02*
X108466666Y-132452380D01*
X108228571Y-131404761D02*
X107990476Y-132119047D01*
X108609523Y-132119047D01*
X103238095Y-118452380D02*
X103238095Y-119261904D01*
X103285714Y-119357142D01*
X103333333Y-119404761D01*
X103428571Y-119452380D01*
X103619047Y-119452380D01*
X103714285Y-119404761D01*
X103761904Y-119357142D01*
X103809523Y-119261904D01*
X103809523Y-118452380D01*
X104809523Y-119452380D02*
X104238095Y-119452380D01*
X104523809Y-119452380D02*
X104523809Y-118452380D01*
X104428571Y-118595238D01*
X104333333Y-118690476D01*
X104238095Y-118738095D01*
X107833333Y-112952380D02*
X107357142Y-112952380D01*
X107357142Y-111952380D01*
X108690476Y-112952380D02*
X108119047Y-112952380D01*
X108404761Y-112952380D02*
X108404761Y-111952380D01*
X108309523Y-112095238D01*
X108214285Y-112190476D01*
X108119047Y-112238095D01*
X81666666Y-107852380D02*
X81666666Y-108566666D01*
X81619047Y-108709523D01*
X81523809Y-108804761D01*
X81380952Y-108852380D01*
X81285714Y-108852380D01*
X82666666Y-108852380D02*
X82095238Y-108852380D01*
X82380952Y-108852380D02*
X82380952Y-107852380D01*
X82285714Y-107995238D01*
X82190476Y-108090476D01*
X82095238Y-108138095D01*
X162133333Y-134457142D02*
X162085714Y-134504761D01*
X161942857Y-134552380D01*
X161847619Y-134552380D01*
X161704761Y-134504761D01*
X161609523Y-134409523D01*
X161561904Y-134314285D01*
X161514285Y-134123809D01*
X161514285Y-133980952D01*
X161561904Y-133790476D01*
X161609523Y-133695238D01*
X161704761Y-133600000D01*
X161847619Y-133552380D01*
X161942857Y-133552380D01*
X162085714Y-133600000D01*
X162133333Y-133647619D01*
X163085714Y-134552380D02*
X162514285Y-134552380D01*
X162800000Y-134552380D02*
X162800000Y-133552380D01*
X162704761Y-133695238D01*
X162609523Y-133790476D01*
X162514285Y-133838095D01*
X137333333Y-134457142D02*
X137285714Y-134504761D01*
X137142857Y-134552380D01*
X137047619Y-134552380D01*
X136904761Y-134504761D01*
X136809523Y-134409523D01*
X136761904Y-134314285D01*
X136714285Y-134123809D01*
X136714285Y-133980952D01*
X136761904Y-133790476D01*
X136809523Y-133695238D01*
X136904761Y-133600000D01*
X137047619Y-133552380D01*
X137142857Y-133552380D01*
X137285714Y-133600000D01*
X137333333Y-133647619D01*
X137666666Y-133552380D02*
X138285714Y-133552380D01*
X137952380Y-133933333D01*
X138095238Y-133933333D01*
X138190476Y-133980952D01*
X138238095Y-134028571D01*
X138285714Y-134123809D01*
X138285714Y-134361904D01*
X138238095Y-134457142D01*
X138190476Y-134504761D01*
X138095238Y-134552380D01*
X137809523Y-134552380D01*
X137714285Y-134504761D01*
X137666666Y-134457142D01*
X143916666Y-155952380D02*
X143916666Y-156666666D01*
X143869047Y-156809523D01*
X143773809Y-156904761D01*
X143630952Y-156952380D01*
X143535714Y-156952380D01*
X144297619Y-155952380D02*
X144964285Y-155952380D01*
X144535714Y-156952380D01*
X157682380Y-114032857D02*
X157206190Y-114366190D01*
X157682380Y-114604285D02*
X156682380Y-114604285D01*
X156682380Y-114223333D01*
X156730000Y-114128095D01*
X156777619Y-114080476D01*
X156872857Y-114032857D01*
X157015714Y-114032857D01*
X157110952Y-114080476D01*
X157158571Y-114128095D01*
X157206190Y-114223333D01*
X157206190Y-114604285D01*
X157682380Y-113080476D02*
X157682380Y-113651904D01*
X157682380Y-113366190D02*
X156682380Y-113366190D01*
X156825238Y-113461428D01*
X156920476Y-113556666D01*
X156968095Y-113651904D01*
X156682380Y-112175714D02*
X156682380Y-112651904D01*
X157158571Y-112699523D01*
X157110952Y-112651904D01*
X157063333Y-112556666D01*
X157063333Y-112318571D01*
X157110952Y-112223333D01*
X157158571Y-112175714D01*
X157253809Y-112128095D01*
X157491904Y-112128095D01*
X157587142Y-112175714D01*
X157634761Y-112223333D01*
X157682380Y-112318571D01*
X157682380Y-112556666D01*
X157634761Y-112651904D01*
X157587142Y-112699523D01*
M02*
