G04 #@! TF.GenerationSoftware,KiCad,Pcbnew,(5.1.0)-1*
G04 #@! TF.CreationDate,2019-04-22T23:50:54+02:00*
G04 #@! TF.ProjectId,pcb_tube,7063625f-7475-4626-952e-6b696361645f,rev?*
G04 #@! TF.SameCoordinates,Original*
G04 #@! TF.FileFunction,Legend,Top*
G04 #@! TF.FilePolarity,Positive*
%FSLAX46Y46*%
G04 Gerber Fmt 4.6, Leading zero omitted, Abs format (unit mm)*
G04 Created by KiCad (PCBNEW (5.1.0)-1) date 2019-04-22 23:50:54*
%MOMM*%
%LPD*%
G04 APERTURE LIST*
%ADD10C,0.150000*%
%ADD11C,0.120000*%
%ADD12C,0.010000*%
%ADD13C,0.100000*%
%ADD14O,6.502000X10.102000*%
%ADD15O,1.802000X1.802000*%
%ADD16R,1.802000X1.802000*%
%ADD17O,1.702000X1.702000*%
%ADD18C,1.702000*%
%ADD19R,2.502000X2.502000*%
%ADD20C,2.502000*%
%ADD21C,0.200000*%
%ADD22C,3.202000*%
%ADD23C,0.500000*%
%ADD24R,2.102000X2.102000*%
%ADD25C,2.102000*%
%ADD26R,1.702000X1.702000*%
%ADD27R,3.102000X3.102000*%
%ADD28C,3.102000*%
G04 APERTURE END LIST*
D10*
X120085714Y-98447619D02*
X120133333Y-98400000D01*
X120228571Y-98352380D01*
X120466666Y-98352380D01*
X120561904Y-98400000D01*
X120609523Y-98447619D01*
X120657142Y-98542857D01*
X120657142Y-98638095D01*
X120609523Y-98780952D01*
X120038095Y-99352380D01*
X120657142Y-99352380D01*
X121276190Y-98352380D02*
X121371428Y-98352380D01*
X121466666Y-98400000D01*
X121514285Y-98447619D01*
X121561904Y-98542857D01*
X121609523Y-98733333D01*
X121609523Y-98971428D01*
X121561904Y-99161904D01*
X121514285Y-99257142D01*
X121466666Y-99304761D01*
X121371428Y-99352380D01*
X121276190Y-99352380D01*
X121180952Y-99304761D01*
X121133333Y-99257142D01*
X121085714Y-99161904D01*
X121038095Y-98971428D01*
X121038095Y-98733333D01*
X121085714Y-98542857D01*
X121133333Y-98447619D01*
X121180952Y-98400000D01*
X121276190Y-98352380D01*
X122561904Y-99352380D02*
X121990476Y-99352380D01*
X122276190Y-99352380D02*
X122276190Y-98352380D01*
X122180952Y-98495238D01*
X122085714Y-98590476D01*
X121990476Y-98638095D01*
X123038095Y-99352380D02*
X123228571Y-99352380D01*
X123323809Y-99304761D01*
X123371428Y-99257142D01*
X123466666Y-99114285D01*
X123514285Y-98923809D01*
X123514285Y-98542857D01*
X123466666Y-98447619D01*
X123419047Y-98400000D01*
X123323809Y-98352380D01*
X123133333Y-98352380D01*
X123038095Y-98400000D01*
X122990476Y-98447619D01*
X122942857Y-98542857D01*
X122942857Y-98780952D01*
X122990476Y-98876190D01*
X123038095Y-98923809D01*
X123133333Y-98971428D01*
X123323809Y-98971428D01*
X123419047Y-98923809D01*
X123466666Y-98876190D01*
X123514285Y-98780952D01*
X124704761Y-98971428D02*
X125466666Y-98971428D01*
X126561904Y-98352380D02*
X126895238Y-99352380D01*
X127228571Y-98352380D01*
X128085714Y-99352380D02*
X127514285Y-99352380D01*
X127800000Y-99352380D02*
X127800000Y-98352380D01*
X127704761Y-98495238D01*
X127609523Y-98590476D01*
X127514285Y-98638095D01*
X128514285Y-99257142D02*
X128561904Y-99304761D01*
X128514285Y-99352380D01*
X128466666Y-99304761D01*
X128514285Y-99257142D01*
X128514285Y-99352380D01*
X129180952Y-98352380D02*
X129276190Y-98352380D01*
X129371428Y-98400000D01*
X129419047Y-98447619D01*
X129466666Y-98542857D01*
X129514285Y-98733333D01*
X129514285Y-98971428D01*
X129466666Y-99161904D01*
X129419047Y-99257142D01*
X129371428Y-99304761D01*
X129276190Y-99352380D01*
X129180952Y-99352380D01*
X129085714Y-99304761D01*
X129038095Y-99257142D01*
X128990476Y-99161904D01*
X128942857Y-98971428D01*
X128942857Y-98733333D01*
X128990476Y-98542857D01*
X129038095Y-98447619D01*
X129085714Y-98400000D01*
X129180952Y-98352380D01*
X117595238Y-67875000D02*
X117500000Y-67827380D01*
X117357142Y-67827380D01*
X117214285Y-67875000D01*
X117119047Y-67970238D01*
X117071428Y-68065476D01*
X117023809Y-68255952D01*
X117023809Y-68398809D01*
X117071428Y-68589285D01*
X117119047Y-68684523D01*
X117214285Y-68779761D01*
X117357142Y-68827380D01*
X117452380Y-68827380D01*
X117595238Y-68779761D01*
X117642857Y-68732142D01*
X117642857Y-68398809D01*
X117452380Y-68398809D01*
X118547619Y-67827380D02*
X118071428Y-67827380D01*
X118023809Y-68303571D01*
X118071428Y-68255952D01*
X118166666Y-68208333D01*
X118404761Y-68208333D01*
X118500000Y-68255952D01*
X118547619Y-68303571D01*
X118595238Y-68398809D01*
X118595238Y-68636904D01*
X118547619Y-68732142D01*
X118500000Y-68779761D01*
X118404761Y-68827380D01*
X118166666Y-68827380D01*
X118071428Y-68779761D01*
X118023809Y-68732142D01*
X119785714Y-68827380D02*
X119785714Y-67827380D01*
X120166666Y-67827380D01*
X120261904Y-67875000D01*
X120309523Y-67922619D01*
X120357142Y-68017857D01*
X120357142Y-68160714D01*
X120309523Y-68255952D01*
X120261904Y-68303571D01*
X120166666Y-68351190D01*
X119785714Y-68351190D01*
X120785714Y-68827380D02*
X120785714Y-68160714D01*
X120785714Y-68351190D02*
X120833333Y-68255952D01*
X120880952Y-68208333D01*
X120976190Y-68160714D01*
X121071428Y-68160714D01*
X121785714Y-68779761D02*
X121690476Y-68827380D01*
X121500000Y-68827380D01*
X121404761Y-68779761D01*
X121357142Y-68684523D01*
X121357142Y-68303571D01*
X121404761Y-68208333D01*
X121500000Y-68160714D01*
X121690476Y-68160714D01*
X121785714Y-68208333D01*
X121833333Y-68303571D01*
X121833333Y-68398809D01*
X121357142Y-68494047D01*
X122690476Y-68827380D02*
X122690476Y-68303571D01*
X122642857Y-68208333D01*
X122547619Y-68160714D01*
X122357142Y-68160714D01*
X122261904Y-68208333D01*
X122690476Y-68779761D02*
X122595238Y-68827380D01*
X122357142Y-68827380D01*
X122261904Y-68779761D01*
X122214285Y-68684523D01*
X122214285Y-68589285D01*
X122261904Y-68494047D01*
X122357142Y-68446428D01*
X122595238Y-68446428D01*
X122690476Y-68398809D01*
X123166666Y-68827380D02*
X123166666Y-68160714D01*
X123166666Y-68255952D02*
X123214285Y-68208333D01*
X123309523Y-68160714D01*
X123452380Y-68160714D01*
X123547619Y-68208333D01*
X123595238Y-68303571D01*
X123595238Y-68827380D01*
X123595238Y-68303571D02*
X123642857Y-68208333D01*
X123738095Y-68160714D01*
X123880952Y-68160714D01*
X123976190Y-68208333D01*
X124023809Y-68303571D01*
X124023809Y-68827380D01*
X124500000Y-68160714D02*
X124500000Y-69160714D01*
X124500000Y-68208333D02*
X124595238Y-68160714D01*
X124785714Y-68160714D01*
X124880952Y-68208333D01*
X124928571Y-68255952D01*
X124976190Y-68351190D01*
X124976190Y-68636904D01*
X124928571Y-68732142D01*
X124880952Y-68779761D01*
X124785714Y-68827380D01*
X124595238Y-68827380D01*
X124500000Y-68779761D01*
X112500000Y-69810714D02*
X112690476Y-70477380D01*
X112880952Y-70001190D01*
X113071428Y-70477380D01*
X113261904Y-69810714D01*
X113642857Y-70477380D02*
X113642857Y-69810714D01*
X113642857Y-69477380D02*
X113595238Y-69525000D01*
X113642857Y-69572619D01*
X113690476Y-69525000D01*
X113642857Y-69477380D01*
X113642857Y-69572619D01*
X113976190Y-69810714D02*
X114357142Y-69810714D01*
X114119047Y-69477380D02*
X114119047Y-70334523D01*
X114166666Y-70429761D01*
X114261904Y-70477380D01*
X114357142Y-70477380D01*
X114690476Y-70477380D02*
X114690476Y-69477380D01*
X115119047Y-70477380D02*
X115119047Y-69953571D01*
X115071428Y-69858333D01*
X114976190Y-69810714D01*
X114833333Y-69810714D01*
X114738095Y-69858333D01*
X114690476Y-69905952D01*
X116357142Y-70477380D02*
X116357142Y-69477380D01*
X116738095Y-69477380D01*
X116833333Y-69525000D01*
X116880952Y-69572619D01*
X116928571Y-69667857D01*
X116928571Y-69810714D01*
X116880952Y-69905952D01*
X116833333Y-69953571D01*
X116738095Y-70001190D01*
X116357142Y-70001190D01*
X117357142Y-70477380D02*
X117357142Y-69810714D01*
X117357142Y-69477380D02*
X117309523Y-69525000D01*
X117357142Y-69572619D01*
X117404761Y-69525000D01*
X117357142Y-69477380D01*
X117357142Y-69572619D01*
X117785714Y-70429761D02*
X117880952Y-70477380D01*
X118071428Y-70477380D01*
X118166666Y-70429761D01*
X118214285Y-70334523D01*
X118214285Y-70286904D01*
X118166666Y-70191666D01*
X118071428Y-70144047D01*
X117928571Y-70144047D01*
X117833333Y-70096428D01*
X117785714Y-70001190D01*
X117785714Y-69953571D01*
X117833333Y-69858333D01*
X117928571Y-69810714D01*
X118071428Y-69810714D01*
X118166666Y-69858333D01*
X118500000Y-69810714D02*
X118880952Y-69810714D01*
X118642857Y-69477380D02*
X118642857Y-70334523D01*
X118690476Y-70429761D01*
X118785714Y-70477380D01*
X118880952Y-70477380D01*
X119357142Y-70477380D02*
X119261904Y-70429761D01*
X119214285Y-70382142D01*
X119166666Y-70286904D01*
X119166666Y-70001190D01*
X119214285Y-69905952D01*
X119261904Y-69858333D01*
X119357142Y-69810714D01*
X119499999Y-69810714D01*
X119595238Y-69858333D01*
X119642857Y-69905952D01*
X119690476Y-70001190D01*
X119690476Y-70286904D01*
X119642857Y-70382142D01*
X119595238Y-70429761D01*
X119499999Y-70477380D01*
X119357142Y-70477380D01*
X120119047Y-70477380D02*
X120119047Y-69810714D01*
X120119047Y-70001190D02*
X120166666Y-69905952D01*
X120214285Y-69858333D01*
X120309523Y-69810714D01*
X120404761Y-69810714D01*
X120690476Y-70429761D02*
X120785714Y-70477380D01*
X120976190Y-70477380D01*
X121071428Y-70429761D01*
X121119047Y-70334523D01*
X121119047Y-70286904D01*
X121071428Y-70191666D01*
X120976190Y-70144047D01*
X120833333Y-70144047D01*
X120738095Y-70096428D01*
X120690476Y-70001190D01*
X120690476Y-69953571D01*
X120738095Y-69858333D01*
X120833333Y-69810714D01*
X120976190Y-69810714D01*
X121071428Y-69858333D01*
X121547619Y-70477380D02*
X121547619Y-69810714D01*
X121547619Y-69477380D02*
X121500000Y-69525000D01*
X121547619Y-69572619D01*
X121595238Y-69525000D01*
X121547619Y-69477380D01*
X121547619Y-69572619D01*
X122166666Y-70477380D02*
X122071428Y-70429761D01*
X122023809Y-70382142D01*
X121976190Y-70286904D01*
X121976190Y-70001190D01*
X122023809Y-69905952D01*
X122071428Y-69858333D01*
X122166666Y-69810714D01*
X122309523Y-69810714D01*
X122404761Y-69858333D01*
X122452380Y-69905952D01*
X122500000Y-70001190D01*
X122500000Y-70286904D01*
X122452380Y-70382142D01*
X122404761Y-70429761D01*
X122309523Y-70477380D01*
X122166666Y-70477380D01*
X122928571Y-69810714D02*
X122928571Y-70477380D01*
X122928571Y-69905952D02*
X122976190Y-69858333D01*
X123071428Y-69810714D01*
X123214285Y-69810714D01*
X123309523Y-69858333D01*
X123357142Y-69953571D01*
X123357142Y-70477380D01*
X124547619Y-70429761D02*
X124690476Y-70477380D01*
X124928571Y-70477380D01*
X125023809Y-70429761D01*
X125071428Y-70382142D01*
X125119047Y-70286904D01*
X125119047Y-70191666D01*
X125071428Y-70096428D01*
X125023809Y-70048809D01*
X124928571Y-70001190D01*
X124738095Y-69953571D01*
X124642857Y-69905952D01*
X124595238Y-69858333D01*
X124547619Y-69763095D01*
X124547619Y-69667857D01*
X124595238Y-69572619D01*
X124642857Y-69525000D01*
X124738095Y-69477380D01*
X124976190Y-69477380D01*
X125119047Y-69525000D01*
X125452380Y-69810714D02*
X125690476Y-70477380D01*
X125928571Y-69810714D02*
X125690476Y-70477380D01*
X125595238Y-70715476D01*
X125547619Y-70763095D01*
X125452380Y-70810714D01*
X126261904Y-70429761D02*
X126357142Y-70477380D01*
X126547619Y-70477380D01*
X126642857Y-70429761D01*
X126690476Y-70334523D01*
X126690476Y-70286904D01*
X126642857Y-70191666D01*
X126547619Y-70144047D01*
X126404761Y-70144047D01*
X126309523Y-70096428D01*
X126261904Y-70001190D01*
X126261904Y-69953571D01*
X126309523Y-69858333D01*
X126404761Y-69810714D01*
X126547619Y-69810714D01*
X126642857Y-69858333D01*
X126976190Y-69810714D02*
X127357142Y-69810714D01*
X127119047Y-69477380D02*
X127119047Y-70334523D01*
X127166666Y-70429761D01*
X127261904Y-70477380D01*
X127357142Y-70477380D01*
X128071428Y-70429761D02*
X127976190Y-70477380D01*
X127785714Y-70477380D01*
X127690476Y-70429761D01*
X127642857Y-70334523D01*
X127642857Y-69953571D01*
X127690476Y-69858333D01*
X127785714Y-69810714D01*
X127976190Y-69810714D01*
X128071428Y-69858333D01*
X128119047Y-69953571D01*
X128119047Y-70048809D01*
X127642857Y-70144047D01*
X128547619Y-70477380D02*
X128547619Y-69810714D01*
X128547619Y-69905952D02*
X128595238Y-69858333D01*
X128690476Y-69810714D01*
X128833333Y-69810714D01*
X128928571Y-69858333D01*
X128976190Y-69953571D01*
X128976190Y-70477380D01*
X128976190Y-69953571D02*
X129023809Y-69858333D01*
X129119047Y-69810714D01*
X129261904Y-69810714D01*
X129357142Y-69858333D01*
X129404761Y-69953571D01*
X129404761Y-70477380D01*
X75952380Y-114652380D02*
X75380952Y-114652380D01*
X75666666Y-114652380D02*
X75666666Y-113652380D01*
X75571428Y-113795238D01*
X75476190Y-113890476D01*
X75380952Y-113938095D01*
X76571428Y-113652380D02*
X76666666Y-113652380D01*
X76761904Y-113700000D01*
X76809523Y-113747619D01*
X76857142Y-113842857D01*
X76904761Y-114033333D01*
X76904761Y-114271428D01*
X76857142Y-114461904D01*
X76809523Y-114557142D01*
X76761904Y-114604761D01*
X76666666Y-114652380D01*
X76571428Y-114652380D01*
X76476190Y-114604761D01*
X76428571Y-114557142D01*
X76380952Y-114461904D01*
X76333333Y-114271428D01*
X76333333Y-114033333D01*
X76380952Y-113842857D01*
X76428571Y-113747619D01*
X76476190Y-113700000D01*
X76571428Y-113652380D01*
X77523809Y-113652380D02*
X77619047Y-113652380D01*
X77714285Y-113700000D01*
X77761904Y-113747619D01*
X77809523Y-113842857D01*
X77857142Y-114033333D01*
X77857142Y-114271428D01*
X77809523Y-114461904D01*
X77761904Y-114557142D01*
X77714285Y-114604761D01*
X77619047Y-114652380D01*
X77523809Y-114652380D01*
X77428571Y-114604761D01*
X77380952Y-114557142D01*
X77333333Y-114461904D01*
X77285714Y-114271428D01*
X77285714Y-114033333D01*
X77333333Y-113842857D01*
X77380952Y-113747619D01*
X77428571Y-113700000D01*
X77523809Y-113652380D01*
X78333333Y-114604761D02*
X78333333Y-114652380D01*
X78285714Y-114747619D01*
X78238095Y-114795238D01*
X78952380Y-113652380D02*
X79047619Y-113652380D01*
X79142857Y-113700000D01*
X79190476Y-113747619D01*
X79238095Y-113842857D01*
X79285714Y-114033333D01*
X79285714Y-114271428D01*
X79238095Y-114461904D01*
X79190476Y-114557142D01*
X79142857Y-114604761D01*
X79047619Y-114652380D01*
X78952380Y-114652380D01*
X78857142Y-114604761D01*
X78809523Y-114557142D01*
X78761904Y-114461904D01*
X78714285Y-114271428D01*
X78714285Y-114033333D01*
X78761904Y-113842857D01*
X78809523Y-113747619D01*
X78857142Y-113700000D01*
X78952380Y-113652380D01*
X79904761Y-113652380D02*
X80000000Y-113652380D01*
X80095238Y-113700000D01*
X80142857Y-113747619D01*
X80190476Y-113842857D01*
X80238095Y-114033333D01*
X80238095Y-114271428D01*
X80190476Y-114461904D01*
X80142857Y-114557142D01*
X80095238Y-114604761D01*
X80000000Y-114652380D01*
X79904761Y-114652380D01*
X79809523Y-114604761D01*
X79761904Y-114557142D01*
X79714285Y-114461904D01*
X79666666Y-114271428D01*
X79666666Y-114033333D01*
X79714285Y-113842857D01*
X79761904Y-113747619D01*
X79809523Y-113700000D01*
X79904761Y-113652380D01*
X80857142Y-113652380D02*
X80952380Y-113652380D01*
X81047619Y-113700000D01*
X81095238Y-113747619D01*
X81142857Y-113842857D01*
X81190476Y-114033333D01*
X81190476Y-114271428D01*
X81142857Y-114461904D01*
X81095238Y-114557142D01*
X81047619Y-114604761D01*
X80952380Y-114652380D01*
X80857142Y-114652380D01*
X80761904Y-114604761D01*
X80714285Y-114557142D01*
X80666666Y-114461904D01*
X80619047Y-114271428D01*
X80619047Y-114033333D01*
X80666666Y-113842857D01*
X80714285Y-113747619D01*
X80761904Y-113700000D01*
X80857142Y-113652380D01*
X82380952Y-114652380D02*
X82380952Y-113985714D01*
X82380952Y-114080952D02*
X82428571Y-114033333D01*
X82523809Y-113985714D01*
X82666666Y-113985714D01*
X82761904Y-114033333D01*
X82809523Y-114128571D01*
X82809523Y-114652380D01*
X82809523Y-114128571D02*
X82857142Y-114033333D01*
X82952380Y-113985714D01*
X83095238Y-113985714D01*
X83190476Y-114033333D01*
X83238095Y-114128571D01*
X83238095Y-114652380D01*
X83714285Y-114652380D02*
X83714285Y-113985714D01*
X83714285Y-114080952D02*
X83761904Y-114033333D01*
X83857142Y-113985714D01*
X84000000Y-113985714D01*
X84095238Y-114033333D01*
X84142857Y-114128571D01*
X84142857Y-114652380D01*
X84142857Y-114128571D02*
X84190476Y-114033333D01*
X84285714Y-113985714D01*
X84428571Y-113985714D01*
X84523809Y-114033333D01*
X84571428Y-114128571D01*
X84571428Y-114652380D01*
D11*
X30000000Y-112930000D02*
X130000000Y-112930000D01*
X30000000Y-100000000D02*
X30000000Y-113516421D01*
X130000000Y-100000000D02*
X130000000Y-113516421D01*
X130000000Y-112930000D02*
X128873496Y-113516421D01*
X130000000Y-112930000D02*
X128873496Y-112343579D01*
X30000000Y-112930000D02*
X31126504Y-113516421D01*
X30000000Y-112930000D02*
X31126504Y-112343579D01*
D10*
X17354285Y-72833333D02*
X16687619Y-72833333D01*
X17735238Y-72595238D02*
X17020952Y-72357142D01*
X17020952Y-72976190D01*
X17687619Y-73261904D02*
X17687619Y-73928571D01*
X16687619Y-73500000D01*
X16735238Y-74357142D02*
X16687619Y-74357142D01*
X16592380Y-74309523D01*
X16544761Y-74261904D01*
X17687619Y-74976190D02*
X17687619Y-75071428D01*
X17640000Y-75166666D01*
X17592380Y-75214285D01*
X17497142Y-75261904D01*
X17306666Y-75309523D01*
X17068571Y-75309523D01*
X16878095Y-75261904D01*
X16782857Y-75214285D01*
X16735238Y-75166666D01*
X16687619Y-75071428D01*
X16687619Y-74976190D01*
X16735238Y-74880952D01*
X16782857Y-74833333D01*
X16878095Y-74785714D01*
X17068571Y-74738095D01*
X17306666Y-74738095D01*
X17497142Y-74785714D01*
X17592380Y-74833333D01*
X17640000Y-74880952D01*
X17687619Y-74976190D01*
X17687619Y-75928571D02*
X17687619Y-76023809D01*
X17640000Y-76119047D01*
X17592380Y-76166666D01*
X17497142Y-76214285D01*
X17306666Y-76261904D01*
X17068571Y-76261904D01*
X16878095Y-76214285D01*
X16782857Y-76166666D01*
X16735238Y-76119047D01*
X16687619Y-76023809D01*
X16687619Y-75928571D01*
X16735238Y-75833333D01*
X16782857Y-75785714D01*
X16878095Y-75738095D01*
X17068571Y-75690476D01*
X17306666Y-75690476D01*
X17497142Y-75738095D01*
X17592380Y-75785714D01*
X17640000Y-75833333D01*
X17687619Y-75928571D01*
X17687619Y-76880952D02*
X17687619Y-76976190D01*
X17640000Y-77071428D01*
X17592380Y-77119047D01*
X17497142Y-77166666D01*
X17306666Y-77214285D01*
X17068571Y-77214285D01*
X16878095Y-77166666D01*
X16782857Y-77119047D01*
X16735238Y-77071428D01*
X16687619Y-76976190D01*
X16687619Y-76880952D01*
X16735238Y-76785714D01*
X16782857Y-76738095D01*
X16878095Y-76690476D01*
X17068571Y-76642857D01*
X17306666Y-76642857D01*
X17497142Y-76690476D01*
X17592380Y-76738095D01*
X17640000Y-76785714D01*
X17687619Y-76880952D01*
X16687619Y-78404761D02*
X17354285Y-78404761D01*
X17259047Y-78404761D02*
X17306666Y-78452380D01*
X17354285Y-78547619D01*
X17354285Y-78690476D01*
X17306666Y-78785714D01*
X17211428Y-78833333D01*
X16687619Y-78833333D01*
X17211428Y-78833333D02*
X17306666Y-78880952D01*
X17354285Y-78976190D01*
X17354285Y-79119047D01*
X17306666Y-79214285D01*
X17211428Y-79261904D01*
X16687619Y-79261904D01*
X16687619Y-79738095D02*
X17354285Y-79738095D01*
X17259047Y-79738095D02*
X17306666Y-79785714D01*
X17354285Y-79880952D01*
X17354285Y-80023809D01*
X17306666Y-80119047D01*
X17211428Y-80166666D01*
X16687619Y-80166666D01*
X17211428Y-80166666D02*
X17306666Y-80214285D01*
X17354285Y-80309523D01*
X17354285Y-80452380D01*
X17306666Y-80547619D01*
X17211428Y-80595238D01*
X16687619Y-80595238D01*
D11*
X18410000Y-53000000D02*
X18410000Y-100000000D01*
X30000000Y-53000000D02*
X17823579Y-53000000D01*
X30000000Y-100000000D02*
X17823579Y-100000000D01*
X18410000Y-100000000D02*
X17823579Y-98873496D01*
X18410000Y-100000000D02*
X18996421Y-98873496D01*
X18410000Y-53000000D02*
X17823579Y-54126504D01*
X18410000Y-53000000D02*
X18996421Y-54126504D01*
X80010000Y-87610000D02*
X78730000Y-87610000D01*
X130000000Y-87610000D02*
X130000000Y-89360000D01*
X80000000Y-87610000D02*
X129990000Y-87610000D01*
X78730000Y-87610000D02*
X78730000Y-89370000D01*
X129990000Y-89370000D02*
X78740000Y-89370000D01*
D12*
G36*
X117448750Y-77825000D02*
G01*
X117226500Y-77825000D01*
X117226500Y-77253500D01*
X117448750Y-77253500D01*
X117448750Y-77825000D01*
X117448750Y-77825000D01*
G37*
X117448750Y-77825000D02*
X117226500Y-77825000D01*
X117226500Y-77253500D01*
X117448750Y-77253500D01*
X117448750Y-77825000D01*
G36*
X117641177Y-77267138D02*
G01*
X117730281Y-77303561D01*
X117843677Y-77356031D01*
X117893250Y-77380500D01*
X118007094Y-77436966D01*
X118097852Y-77480528D01*
X118151848Y-77504689D01*
X118160503Y-77507500D01*
X118172252Y-77479448D01*
X118183004Y-77409894D01*
X118185020Y-77388437D01*
X118203911Y-77299420D01*
X118241497Y-77269387D01*
X118242500Y-77269375D01*
X118266595Y-77281898D01*
X118282688Y-77326541D01*
X118292947Y-77413913D01*
X118299298Y-77547187D01*
X118301843Y-77685219D01*
X118297498Y-77770515D01*
X118284927Y-77813594D01*
X118264006Y-77825000D01*
X118217118Y-77812138D01*
X118128397Y-77777651D01*
X118013113Y-77727686D01*
X117948529Y-77698000D01*
X117829061Y-77642908D01*
X117732110Y-77599873D01*
X117671359Y-77574882D01*
X117658384Y-77571000D01*
X117646397Y-77599192D01*
X117639735Y-77669614D01*
X117639250Y-77698000D01*
X117631385Y-77786306D01*
X117605316Y-77822695D01*
X117591625Y-77825000D01*
X117568390Y-77813864D01*
X117553918Y-77773222D01*
X117546399Y-77692223D01*
X117544025Y-77560015D01*
X117544000Y-77539250D01*
X117545801Y-77400199D01*
X117552444Y-77313591D01*
X117565787Y-77268439D01*
X117587689Y-77253756D01*
X117592329Y-77253500D01*
X117641177Y-77267138D01*
X117641177Y-77267138D01*
G37*
X117641177Y-77267138D02*
X117730281Y-77303561D01*
X117843677Y-77356031D01*
X117893250Y-77380500D01*
X118007094Y-77436966D01*
X118097852Y-77480528D01*
X118151848Y-77504689D01*
X118160503Y-77507500D01*
X118172252Y-77479448D01*
X118183004Y-77409894D01*
X118185020Y-77388437D01*
X118203911Y-77299420D01*
X118241497Y-77269387D01*
X118242500Y-77269375D01*
X118266595Y-77281898D01*
X118282688Y-77326541D01*
X118292947Y-77413913D01*
X118299298Y-77547187D01*
X118301843Y-77685219D01*
X118297498Y-77770515D01*
X118284927Y-77813594D01*
X118264006Y-77825000D01*
X118217118Y-77812138D01*
X118128397Y-77777651D01*
X118013113Y-77727686D01*
X117948529Y-77698000D01*
X117829061Y-77642908D01*
X117732110Y-77599873D01*
X117671359Y-77574882D01*
X117658384Y-77571000D01*
X117646397Y-77599192D01*
X117639735Y-77669614D01*
X117639250Y-77698000D01*
X117631385Y-77786306D01*
X117605316Y-77822695D01*
X117591625Y-77825000D01*
X117568390Y-77813864D01*
X117553918Y-77773222D01*
X117546399Y-77692223D01*
X117544025Y-77560015D01*
X117544000Y-77539250D01*
X117545801Y-77400199D01*
X117552444Y-77313591D01*
X117565787Y-77268439D01*
X117587689Y-77253756D01*
X117592329Y-77253500D01*
X117641177Y-77267138D01*
G36*
X119147793Y-77259919D02*
G01*
X119201448Y-77268876D01*
X119223852Y-77285695D01*
X119226750Y-77300014D01*
X119200022Y-77338316D01*
X119131500Y-77348750D01*
X119036250Y-77348750D01*
X119036250Y-77825000D01*
X118782250Y-77825000D01*
X118782250Y-77348750D01*
X118668479Y-77348750D01*
X118588139Y-77339761D01*
X118566978Y-77312324D01*
X118567870Y-77309062D01*
X118601612Y-77287803D01*
X118689270Y-77272542D01*
X118834819Y-77262702D01*
X118903891Y-77260326D01*
X119052177Y-77257508D01*
X119147793Y-77259919D01*
X119147793Y-77259919D01*
G37*
X119147793Y-77259919D02*
X119201448Y-77268876D01*
X119223852Y-77285695D01*
X119226750Y-77300014D01*
X119200022Y-77338316D01*
X119131500Y-77348750D01*
X119036250Y-77348750D01*
X119036250Y-77825000D01*
X118782250Y-77825000D01*
X118782250Y-77348750D01*
X118668479Y-77348750D01*
X118588139Y-77339761D01*
X118566978Y-77312324D01*
X118567870Y-77309062D01*
X118601612Y-77287803D01*
X118689270Y-77272542D01*
X118834819Y-77262702D01*
X118903891Y-77260326D01*
X119052177Y-77257508D01*
X119147793Y-77259919D01*
G36*
X119939311Y-77272443D02*
G01*
X119951990Y-77329123D01*
X119956837Y-77439249D01*
X119957000Y-77473104D01*
X119949480Y-77627701D01*
X119920589Y-77730052D01*
X119860828Y-77790287D01*
X119760700Y-77818541D01*
X119627142Y-77825000D01*
X119493638Y-77818663D01*
X119403910Y-77796928D01*
X119349329Y-77764306D01*
X119308641Y-77723380D01*
X119285920Y-77671411D01*
X119276178Y-77589909D01*
X119274375Y-77486493D01*
X119274375Y-77269375D01*
X119528375Y-77269375D01*
X119560125Y-77713875D01*
X119694012Y-77723586D01*
X119767706Y-77725180D01*
X119815242Y-77709514D01*
X119843381Y-77665292D01*
X119858881Y-77581219D01*
X119868502Y-77445999D01*
X119869328Y-77430606D01*
X119882000Y-77332701D01*
X119904870Y-77271822D01*
X119917312Y-77261273D01*
X119939311Y-77272443D01*
X119939311Y-77272443D01*
G37*
X119939311Y-77272443D02*
X119951990Y-77329123D01*
X119956837Y-77439249D01*
X119957000Y-77473104D01*
X119949480Y-77627701D01*
X119920589Y-77730052D01*
X119860828Y-77790287D01*
X119760700Y-77818541D01*
X119627142Y-77825000D01*
X119493638Y-77818663D01*
X119403910Y-77796928D01*
X119349329Y-77764306D01*
X119308641Y-77723380D01*
X119285920Y-77671411D01*
X119276178Y-77589909D01*
X119274375Y-77486493D01*
X119274375Y-77269375D01*
X119528375Y-77269375D01*
X119560125Y-77713875D01*
X119694012Y-77723586D01*
X119767706Y-77725180D01*
X119815242Y-77709514D01*
X119843381Y-77665292D01*
X119858881Y-77581219D01*
X119868502Y-77445999D01*
X119869328Y-77430606D01*
X119882000Y-77332701D01*
X119904870Y-77271822D01*
X119917312Y-77261273D01*
X119939311Y-77272443D01*
G36*
X120605402Y-77270988D02*
G01*
X120676778Y-77299653D01*
X120709135Y-77348382D01*
X120710376Y-77420585D01*
X120708871Y-77430616D01*
X120704910Y-77507830D01*
X120718334Y-77554173D01*
X120721090Y-77556417D01*
X120747595Y-77605028D01*
X120745663Y-77680283D01*
X120717952Y-77753459D01*
X120700857Y-77775107D01*
X120660882Y-77799569D01*
X120592149Y-77814964D01*
X120482850Y-77822902D01*
X120334496Y-77825000D01*
X120018027Y-77825000D01*
X120021039Y-77733773D01*
X120274500Y-77733773D01*
X120377687Y-77723824D01*
X120454810Y-77704844D01*
X120487610Y-77659697D01*
X120491020Y-77642437D01*
X120486762Y-77589077D01*
X120441454Y-77571640D01*
X120419583Y-77571000D01*
X120354092Y-77554819D01*
X120338000Y-77523375D01*
X120365723Y-77485148D01*
X120419703Y-77475750D01*
X120482302Y-77460843D01*
X120497154Y-77426265D01*
X120469571Y-77387228D01*
X120404863Y-77358946D01*
X120377427Y-77354675D01*
X120274500Y-77344726D01*
X120274500Y-77733773D01*
X120021039Y-77733773D01*
X120027201Y-77547187D01*
X120036375Y-77269375D01*
X120313970Y-77260204D01*
X120487101Y-77258975D01*
X120605402Y-77270988D01*
X120605402Y-77270988D01*
G37*
X120605402Y-77270988D02*
X120676778Y-77299653D01*
X120709135Y-77348382D01*
X120710376Y-77420585D01*
X120708871Y-77430616D01*
X120704910Y-77507830D01*
X120718334Y-77554173D01*
X120721090Y-77556417D01*
X120747595Y-77605028D01*
X120745663Y-77680283D01*
X120717952Y-77753459D01*
X120700857Y-77775107D01*
X120660882Y-77799569D01*
X120592149Y-77814964D01*
X120482850Y-77822902D01*
X120334496Y-77825000D01*
X120018027Y-77825000D01*
X120021039Y-77733773D01*
X120274500Y-77733773D01*
X120377687Y-77723824D01*
X120454810Y-77704844D01*
X120487610Y-77659697D01*
X120491020Y-77642437D01*
X120486762Y-77589077D01*
X120441454Y-77571640D01*
X120419583Y-77571000D01*
X120354092Y-77554819D01*
X120338000Y-77523375D01*
X120365723Y-77485148D01*
X120419703Y-77475750D01*
X120482302Y-77460843D01*
X120497154Y-77426265D01*
X120469571Y-77387228D01*
X120404863Y-77358946D01*
X120377427Y-77354675D01*
X120274500Y-77344726D01*
X120274500Y-77733773D01*
X120021039Y-77733773D01*
X120027201Y-77547187D01*
X120036375Y-77269375D01*
X120313970Y-77260204D01*
X120487101Y-77258975D01*
X120605402Y-77270988D01*
G36*
X121424639Y-77257284D02*
G01*
X121466878Y-77268680D01*
X121480641Y-77290132D01*
X121481000Y-77296282D01*
X121465078Y-77326446D01*
X121409524Y-77344724D01*
X121302655Y-77354879D01*
X121298437Y-77355103D01*
X121115875Y-77364625D01*
X121115875Y-77713875D01*
X121298437Y-77723396D01*
X121409639Y-77734142D01*
X121467164Y-77753587D01*
X121481000Y-77778959D01*
X121467794Y-77802696D01*
X121420967Y-77816962D01*
X121329703Y-77823706D01*
X121225556Y-77825000D01*
X121094146Y-77822994D01*
X121008696Y-77814255D01*
X120951722Y-77794693D01*
X120905741Y-77760221D01*
X120892181Y-77747068D01*
X120830646Y-77644609D01*
X120813360Y-77520335D01*
X120841381Y-77398981D01*
X120874942Y-77344332D01*
X120912005Y-77307031D01*
X120959973Y-77283353D01*
X121034443Y-77269269D01*
X121151011Y-77260747D01*
X121208317Y-77258182D01*
X121342320Y-77254326D01*
X121424639Y-77257284D01*
X121424639Y-77257284D01*
G37*
X121424639Y-77257284D02*
X121466878Y-77268680D01*
X121480641Y-77290132D01*
X121481000Y-77296282D01*
X121465078Y-77326446D01*
X121409524Y-77344724D01*
X121302655Y-77354879D01*
X121298437Y-77355103D01*
X121115875Y-77364625D01*
X121115875Y-77713875D01*
X121298437Y-77723396D01*
X121409639Y-77734142D01*
X121467164Y-77753587D01*
X121481000Y-77778959D01*
X121467794Y-77802696D01*
X121420967Y-77816962D01*
X121329703Y-77823706D01*
X121225556Y-77825000D01*
X121094146Y-77822994D01*
X121008696Y-77814255D01*
X120951722Y-77794693D01*
X120905741Y-77760221D01*
X120892181Y-77747068D01*
X120830646Y-77644609D01*
X120813360Y-77520335D01*
X120841381Y-77398981D01*
X120874942Y-77344332D01*
X120912005Y-77307031D01*
X120959973Y-77283353D01*
X121034443Y-77269269D01*
X121151011Y-77260747D01*
X121208317Y-77258182D01*
X121342320Y-77254326D01*
X121424639Y-77257284D01*
G36*
X121976339Y-77253555D02*
G01*
X122072232Y-77263979D01*
X122134003Y-77282428D01*
X122147750Y-77299540D01*
X122128138Y-77328607D01*
X122062931Y-77346515D01*
X121965187Y-77355103D01*
X121782625Y-77364625D01*
X121965187Y-77470142D01*
X122072608Y-77538869D01*
X122131482Y-77598620D01*
X122152183Y-77664100D01*
X122148338Y-77729750D01*
X122132431Y-77773034D01*
X122092451Y-77801056D01*
X122017317Y-77816887D01*
X121895949Y-77823598D01*
X121806437Y-77824513D01*
X121672912Y-77822489D01*
X121591989Y-77814559D01*
X121552896Y-77798852D01*
X121544500Y-77778959D01*
X121564667Y-77749434D01*
X121631395Y-77731388D01*
X121721847Y-77723396D01*
X121899194Y-77713875D01*
X121729784Y-77602750D01*
X121612139Y-77509499D01*
X121552083Y-77423354D01*
X121550987Y-77347454D01*
X121595178Y-77294966D01*
X121655744Y-77271863D01*
X121750914Y-77257355D01*
X121863506Y-77251300D01*
X121976339Y-77253555D01*
X121976339Y-77253555D01*
G37*
X121976339Y-77253555D02*
X122072232Y-77263979D01*
X122134003Y-77282428D01*
X122147750Y-77299540D01*
X122128138Y-77328607D01*
X122062931Y-77346515D01*
X121965187Y-77355103D01*
X121782625Y-77364625D01*
X121965187Y-77470142D01*
X122072608Y-77538869D01*
X122131482Y-77598620D01*
X122152183Y-77664100D01*
X122148338Y-77729750D01*
X122132431Y-77773034D01*
X122092451Y-77801056D01*
X122017317Y-77816887D01*
X121895949Y-77823598D01*
X121806437Y-77824513D01*
X121672912Y-77822489D01*
X121591989Y-77814559D01*
X121552896Y-77798852D01*
X121544500Y-77778959D01*
X121564667Y-77749434D01*
X121631395Y-77731388D01*
X121721847Y-77723396D01*
X121899194Y-77713875D01*
X121729784Y-77602750D01*
X121612139Y-77509499D01*
X121552083Y-77423354D01*
X121550987Y-77347454D01*
X121595178Y-77294966D01*
X121655744Y-77271863D01*
X121750914Y-77257355D01*
X121863506Y-77251300D01*
X121976339Y-77253555D01*
G36*
X122633028Y-77257879D02*
G01*
X122686273Y-77279702D01*
X122735834Y-77331996D01*
X122790443Y-77411679D01*
X122848446Y-77495967D01*
X122893604Y-77553570D01*
X122912941Y-77570429D01*
X122938517Y-77545986D01*
X122985317Y-77482037D01*
X123030692Y-77412250D01*
X123098765Y-77311537D01*
X123148910Y-77264446D01*
X123190226Y-77267135D01*
X123231810Y-77315765D01*
X123237513Y-77324937D01*
X123283635Y-77400989D01*
X123339013Y-77492640D01*
X123345714Y-77503753D01*
X123410437Y-77611131D01*
X123527042Y-77428848D01*
X123587513Y-77340627D01*
X123635739Y-77281821D01*
X123661649Y-77264644D01*
X123662104Y-77265021D01*
X123655556Y-77298789D01*
X123621838Y-77370869D01*
X123569459Y-77467044D01*
X123506930Y-77573097D01*
X123442762Y-77674814D01*
X123385464Y-77757977D01*
X123343546Y-77808371D01*
X123331922Y-77816585D01*
X123297927Y-77797739D01*
X123246718Y-77736027D01*
X123193954Y-77652525D01*
X123139441Y-77561374D01*
X123095401Y-77497543D01*
X123072886Y-77475750D01*
X123046883Y-77500876D01*
X122999954Y-77566479D01*
X122947137Y-77650375D01*
X122889037Y-77740506D01*
X122840381Y-77803572D01*
X122813687Y-77825000D01*
X122784235Y-77800340D01*
X122729766Y-77734317D01*
X122659783Y-77638862D01*
X122623932Y-77586775D01*
X122532125Y-77449561D01*
X122474275Y-77356366D01*
X122448672Y-77298676D01*
X122453600Y-77267979D01*
X122487346Y-77255760D01*
X122548198Y-77253505D01*
X122556859Y-77253500D01*
X122633028Y-77257879D01*
X122633028Y-77257879D01*
G37*
X122633028Y-77257879D02*
X122686273Y-77279702D01*
X122735834Y-77331996D01*
X122790443Y-77411679D01*
X122848446Y-77495967D01*
X122893604Y-77553570D01*
X122912941Y-77570429D01*
X122938517Y-77545986D01*
X122985317Y-77482037D01*
X123030692Y-77412250D01*
X123098765Y-77311537D01*
X123148910Y-77264446D01*
X123190226Y-77267135D01*
X123231810Y-77315765D01*
X123237513Y-77324937D01*
X123283635Y-77400989D01*
X123339013Y-77492640D01*
X123345714Y-77503753D01*
X123410437Y-77611131D01*
X123527042Y-77428848D01*
X123587513Y-77340627D01*
X123635739Y-77281821D01*
X123661649Y-77264644D01*
X123662104Y-77265021D01*
X123655556Y-77298789D01*
X123621838Y-77370869D01*
X123569459Y-77467044D01*
X123506930Y-77573097D01*
X123442762Y-77674814D01*
X123385464Y-77757977D01*
X123343546Y-77808371D01*
X123331922Y-77816585D01*
X123297927Y-77797739D01*
X123246718Y-77736027D01*
X123193954Y-77652525D01*
X123139441Y-77561374D01*
X123095401Y-77497543D01*
X123072886Y-77475750D01*
X123046883Y-77500876D01*
X122999954Y-77566479D01*
X122947137Y-77650375D01*
X122889037Y-77740506D01*
X122840381Y-77803572D01*
X122813687Y-77825000D01*
X122784235Y-77800340D01*
X122729766Y-77734317D01*
X122659783Y-77638862D01*
X122623932Y-77586775D01*
X122532125Y-77449561D01*
X122474275Y-77356366D01*
X122448672Y-77298676D01*
X122453600Y-77267979D01*
X122487346Y-77255760D01*
X122548198Y-77253505D01*
X122556859Y-77253500D01*
X122633028Y-77257879D01*
G36*
X124282139Y-77257284D02*
G01*
X124324378Y-77268680D01*
X124338141Y-77290132D01*
X124338500Y-77296282D01*
X124322578Y-77326446D01*
X124267024Y-77344724D01*
X124160155Y-77354879D01*
X124155937Y-77355103D01*
X123973375Y-77364625D01*
X123973375Y-77713875D01*
X124155937Y-77723396D01*
X124267139Y-77734142D01*
X124324664Y-77753587D01*
X124338500Y-77778959D01*
X124325294Y-77802696D01*
X124278467Y-77816962D01*
X124187203Y-77823706D01*
X124083056Y-77825000D01*
X123951646Y-77822994D01*
X123866196Y-77814255D01*
X123809222Y-77794693D01*
X123763241Y-77760221D01*
X123749681Y-77747068D01*
X123688146Y-77644609D01*
X123670860Y-77520335D01*
X123698881Y-77398981D01*
X123732442Y-77344332D01*
X123769505Y-77307031D01*
X123817473Y-77283353D01*
X123891943Y-77269269D01*
X124008511Y-77260747D01*
X124065817Y-77258182D01*
X124199820Y-77254326D01*
X124282139Y-77257284D01*
X124282139Y-77257284D01*
G37*
X124282139Y-77257284D02*
X124324378Y-77268680D01*
X124338141Y-77290132D01*
X124338500Y-77296282D01*
X124322578Y-77326446D01*
X124267024Y-77344724D01*
X124160155Y-77354879D01*
X124155937Y-77355103D01*
X123973375Y-77364625D01*
X123973375Y-77713875D01*
X124155937Y-77723396D01*
X124267139Y-77734142D01*
X124324664Y-77753587D01*
X124338500Y-77778959D01*
X124325294Y-77802696D01*
X124278467Y-77816962D01*
X124187203Y-77823706D01*
X124083056Y-77825000D01*
X123951646Y-77822994D01*
X123866196Y-77814255D01*
X123809222Y-77794693D01*
X123763241Y-77760221D01*
X123749681Y-77747068D01*
X123688146Y-77644609D01*
X123670860Y-77520335D01*
X123698881Y-77398981D01*
X123732442Y-77344332D01*
X123769505Y-77307031D01*
X123817473Y-77283353D01*
X123891943Y-77269269D01*
X124008511Y-77260747D01*
X124065817Y-77258182D01*
X124199820Y-77254326D01*
X124282139Y-77257284D01*
G36*
X125089806Y-77255073D02*
G01*
X125184862Y-77260839D01*
X125237361Y-77272364D01*
X125257747Y-77291213D01*
X125259250Y-77301125D01*
X125230851Y-77338934D01*
X125164000Y-77348750D01*
X125068750Y-77348750D01*
X125068750Y-77825000D01*
X124814750Y-77825000D01*
X124814750Y-77348750D01*
X124719500Y-77348750D01*
X124643880Y-77334550D01*
X124624250Y-77301125D01*
X124634741Y-77278916D01*
X124673180Y-77264658D01*
X124750010Y-77256783D01*
X124875675Y-77253725D01*
X124941750Y-77253500D01*
X125089806Y-77255073D01*
X125089806Y-77255073D01*
G37*
X125089806Y-77255073D02*
X125184862Y-77260839D01*
X125237361Y-77272364D01*
X125257747Y-77291213D01*
X125259250Y-77301125D01*
X125230851Y-77338934D01*
X125164000Y-77348750D01*
X125068750Y-77348750D01*
X125068750Y-77825000D01*
X124814750Y-77825000D01*
X124814750Y-77348750D01*
X124719500Y-77348750D01*
X124643880Y-77334550D01*
X124624250Y-77301125D01*
X124634741Y-77278916D01*
X124673180Y-77264658D01*
X124750010Y-77256783D01*
X124875675Y-77253725D01*
X124941750Y-77253500D01*
X125089806Y-77255073D01*
G36*
X125746292Y-77257015D02*
G01*
X125862993Y-77266407D01*
X125942273Y-77279942D01*
X125959837Y-77286367D01*
X126008911Y-77343925D01*
X126018108Y-77425615D01*
X125985856Y-77504923D01*
X125973625Y-77518839D01*
X125930174Y-77582930D01*
X125946109Y-77638936D01*
X125975358Y-77667688D01*
X126033335Y-77731816D01*
X126055850Y-77766826D01*
X126068678Y-77803981D01*
X126045188Y-77820767D01*
X125972598Y-77824971D01*
X125960321Y-77825000D01*
X125883169Y-77819339D01*
X125825683Y-77793858D01*
X125767177Y-77735811D01*
X125721079Y-77677559D01*
X125648679Y-77578170D01*
X125616497Y-77517552D01*
X125623035Y-77486602D01*
X125666796Y-77476217D01*
X125687875Y-77475750D01*
X125750117Y-77460867D01*
X125767250Y-77412250D01*
X125752010Y-77365503D01*
X125695602Y-77349300D01*
X125673390Y-77348750D01*
X125579531Y-77348750D01*
X125570203Y-77578937D01*
X125560875Y-77809125D01*
X125441812Y-77818979D01*
X125322750Y-77828833D01*
X125322750Y-77253500D01*
X125610587Y-77253500D01*
X125746292Y-77257015D01*
X125746292Y-77257015D01*
G37*
X125746292Y-77257015D02*
X125862993Y-77266407D01*
X125942273Y-77279942D01*
X125959837Y-77286367D01*
X126008911Y-77343925D01*
X126018108Y-77425615D01*
X125985856Y-77504923D01*
X125973625Y-77518839D01*
X125930174Y-77582930D01*
X125946109Y-77638936D01*
X125975358Y-77667688D01*
X126033335Y-77731816D01*
X126055850Y-77766826D01*
X126068678Y-77803981D01*
X126045188Y-77820767D01*
X125972598Y-77824971D01*
X125960321Y-77825000D01*
X125883169Y-77819339D01*
X125825683Y-77793858D01*
X125767177Y-77735811D01*
X125721079Y-77677559D01*
X125648679Y-77578170D01*
X125616497Y-77517552D01*
X125623035Y-77486602D01*
X125666796Y-77476217D01*
X125687875Y-77475750D01*
X125750117Y-77460867D01*
X125767250Y-77412250D01*
X125752010Y-77365503D01*
X125695602Y-77349300D01*
X125673390Y-77348750D01*
X125579531Y-77348750D01*
X125570203Y-77578937D01*
X125560875Y-77809125D01*
X125441812Y-77818979D01*
X125322750Y-77828833D01*
X125322750Y-77253500D01*
X125610587Y-77253500D01*
X125746292Y-77257015D01*
G36*
X126394671Y-77428125D02*
G01*
X126403978Y-77569300D01*
X126418474Y-77658248D01*
X126444836Y-77706226D01*
X126489745Y-77724489D01*
X126559879Y-77724293D01*
X126569987Y-77723586D01*
X126703875Y-77713875D01*
X126719750Y-77491625D01*
X126732010Y-77368482D01*
X126748901Y-77298381D01*
X126773405Y-77270881D01*
X126783250Y-77269375D01*
X126809028Y-77282072D01*
X126823229Y-77328082D01*
X126828278Y-77419283D01*
X126828090Y-77488747D01*
X126823579Y-77610642D01*
X126810612Y-77687244D01*
X126784303Y-77736658D01*
X126753135Y-77766559D01*
X126663817Y-77807267D01*
X126539257Y-77826574D01*
X126403965Y-77824580D01*
X126282448Y-77801386D01*
X126207329Y-77764306D01*
X126166641Y-77723380D01*
X126143920Y-77671411D01*
X126134178Y-77589909D01*
X126132375Y-77486493D01*
X126132375Y-77269375D01*
X126386375Y-77269375D01*
X126394671Y-77428125D01*
X126394671Y-77428125D01*
G37*
X126394671Y-77428125D02*
X126403978Y-77569300D01*
X126418474Y-77658248D01*
X126444836Y-77706226D01*
X126489745Y-77724489D01*
X126559879Y-77724293D01*
X126569987Y-77723586D01*
X126703875Y-77713875D01*
X126719750Y-77491625D01*
X126732010Y-77368482D01*
X126748901Y-77298381D01*
X126773405Y-77270881D01*
X126783250Y-77269375D01*
X126809028Y-77282072D01*
X126823229Y-77328082D01*
X126828278Y-77419283D01*
X126828090Y-77488747D01*
X126823579Y-77610642D01*
X126810612Y-77687244D01*
X126784303Y-77736658D01*
X126753135Y-77766559D01*
X126663817Y-77807267D01*
X126539257Y-77826574D01*
X126403965Y-77824580D01*
X126282448Y-77801386D01*
X126207329Y-77764306D01*
X126166641Y-77723380D01*
X126143920Y-77671411D01*
X126134178Y-77589909D01*
X126132375Y-77486493D01*
X126132375Y-77269375D01*
X126386375Y-77269375D01*
X126394671Y-77428125D01*
G36*
X127209477Y-77259620D02*
G01*
X127324374Y-77267021D01*
X127423751Y-77279368D01*
X127489355Y-77295656D01*
X127505103Y-77307415D01*
X127486505Y-77332765D01*
X127409064Y-77349217D01*
X127334870Y-77355040D01*
X127152046Y-77364625D01*
X127324835Y-77475750D01*
X127442012Y-77563428D01*
X127501400Y-77637952D01*
X127507999Y-77660060D01*
X127507301Y-77733508D01*
X127474715Y-77782290D01*
X127401603Y-77810769D01*
X127279326Y-77823309D01*
X127181529Y-77825000D01*
X127058606Y-77822681D01*
X126961418Y-77816517D01*
X126906377Y-77807692D01*
X126900529Y-77804696D01*
X126889577Y-77768091D01*
X126938099Y-77742673D01*
X127042848Y-77729719D01*
X127094686Y-77728344D01*
X127275375Y-77726939D01*
X127150590Y-77656907D01*
X127004096Y-77562410D01*
X126918495Y-77476901D01*
X126892117Y-77398507D01*
X126896682Y-77372033D01*
X126928543Y-77305764D01*
X126954216Y-77277128D01*
X127006144Y-77263670D01*
X127097316Y-77258169D01*
X127209477Y-77259620D01*
X127209477Y-77259620D01*
G37*
X127209477Y-77259620D02*
X127324374Y-77267021D01*
X127423751Y-77279368D01*
X127489355Y-77295656D01*
X127505103Y-77307415D01*
X127486505Y-77332765D01*
X127409064Y-77349217D01*
X127334870Y-77355040D01*
X127152046Y-77364625D01*
X127324835Y-77475750D01*
X127442012Y-77563428D01*
X127501400Y-77637952D01*
X127507999Y-77660060D01*
X127507301Y-77733508D01*
X127474715Y-77782290D01*
X127401603Y-77810769D01*
X127279326Y-77823309D01*
X127181529Y-77825000D01*
X127058606Y-77822681D01*
X126961418Y-77816517D01*
X126906377Y-77807692D01*
X126900529Y-77804696D01*
X126889577Y-77768091D01*
X126938099Y-77742673D01*
X127042848Y-77729719D01*
X127094686Y-77728344D01*
X127275375Y-77726939D01*
X127150590Y-77656907D01*
X127004096Y-77562410D01*
X126918495Y-77476901D01*
X126892117Y-77398507D01*
X126896682Y-77372033D01*
X126928543Y-77305764D01*
X126954216Y-77277128D01*
X127006144Y-77263670D01*
X127097316Y-77258169D01*
X127209477Y-77259620D01*
G36*
X127868108Y-77260326D02*
G01*
X128036007Y-77268313D01*
X128144550Y-77281508D01*
X128197711Y-77300488D01*
X128204129Y-77309062D01*
X128188001Y-77338127D01*
X128112848Y-77348683D01*
X128103520Y-77348750D01*
X127989750Y-77348750D01*
X127989750Y-77825000D01*
X127883916Y-77825000D01*
X127805465Y-77819191D01*
X127758350Y-77805083D01*
X127756916Y-77803833D01*
X127746269Y-77763539D01*
X127738667Y-77678199D01*
X127735750Y-77566248D01*
X127735750Y-77348750D01*
X127640500Y-77348750D01*
X127565640Y-77335074D01*
X127545250Y-77300014D01*
X127554111Y-77277878D01*
X127587836Y-77264390D01*
X127657133Y-77258233D01*
X127772712Y-77258090D01*
X127868108Y-77260326D01*
X127868108Y-77260326D01*
G37*
X127868108Y-77260326D02*
X128036007Y-77268313D01*
X128144550Y-77281508D01*
X128197711Y-77300488D01*
X128204129Y-77309062D01*
X128188001Y-77338127D01*
X128112848Y-77348683D01*
X128103520Y-77348750D01*
X127989750Y-77348750D01*
X127989750Y-77825000D01*
X127883916Y-77825000D01*
X127805465Y-77819191D01*
X127758350Y-77805083D01*
X127756916Y-77803833D01*
X127746269Y-77763539D01*
X127738667Y-77678199D01*
X127735750Y-77566248D01*
X127735750Y-77348750D01*
X127640500Y-77348750D01*
X127565640Y-77335074D01*
X127545250Y-77300014D01*
X127554111Y-77277878D01*
X127587836Y-77264390D01*
X127657133Y-77258233D01*
X127772712Y-77258090D01*
X127868108Y-77260326D01*
G36*
X121411684Y-77480025D02*
G01*
X121465901Y-77495028D01*
X121481000Y-77523375D01*
X121463487Y-77553778D01*
X121403182Y-77568320D01*
X121327541Y-77571000D01*
X121233485Y-77566949D01*
X121167984Y-77556660D01*
X121152916Y-77549833D01*
X121132213Y-77510836D01*
X121166360Y-77486909D01*
X121258590Y-77476492D01*
X121306375Y-77475750D01*
X121411684Y-77480025D01*
X121411684Y-77480025D01*
G37*
X121411684Y-77480025D02*
X121465901Y-77495028D01*
X121481000Y-77523375D01*
X121463487Y-77553778D01*
X121403182Y-77568320D01*
X121327541Y-77571000D01*
X121233485Y-77566949D01*
X121167984Y-77556660D01*
X121152916Y-77549833D01*
X121132213Y-77510836D01*
X121166360Y-77486909D01*
X121258590Y-77476492D01*
X121306375Y-77475750D01*
X121411684Y-77480025D01*
G36*
X124269184Y-77480025D02*
G01*
X124323401Y-77495028D01*
X124338500Y-77523375D01*
X124320987Y-77553778D01*
X124260682Y-77568320D01*
X124185041Y-77571000D01*
X124090985Y-77566949D01*
X124025484Y-77556660D01*
X124010416Y-77549833D01*
X123989713Y-77510836D01*
X124023860Y-77486909D01*
X124116090Y-77476492D01*
X124163875Y-77475750D01*
X124269184Y-77480025D01*
X124269184Y-77480025D01*
G37*
X124269184Y-77480025D02*
X124323401Y-77495028D01*
X124338500Y-77523375D01*
X124320987Y-77553778D01*
X124260682Y-77568320D01*
X124185041Y-77571000D01*
X124090985Y-77566949D01*
X124025484Y-77556660D01*
X124010416Y-77549833D01*
X123989713Y-77510836D01*
X124023860Y-77486909D01*
X124116090Y-77476492D01*
X124163875Y-77475750D01*
X124269184Y-77480025D01*
G36*
X121484356Y-71475174D02*
G01*
X121828276Y-71475964D01*
X122124934Y-71477531D01*
X122378389Y-71480118D01*
X122592700Y-71483973D01*
X122771927Y-71489341D01*
X122920128Y-71496468D01*
X123041364Y-71505598D01*
X123139693Y-71516979D01*
X123219175Y-71530855D01*
X123283869Y-71547473D01*
X123337835Y-71567078D01*
X123385131Y-71589915D01*
X123429818Y-71616231D01*
X123475954Y-71646271D01*
X123527599Y-71680281D01*
X123528381Y-71680788D01*
X123614508Y-71741058D01*
X123733773Y-71830675D01*
X123870901Y-71937893D01*
X124010618Y-72050968D01*
X124020888Y-72059451D01*
X124159009Y-72172119D01*
X124259608Y-72249038D01*
X124332873Y-72296366D01*
X124388993Y-72320257D01*
X124438158Y-72326867D01*
X124461683Y-72325762D01*
X124521032Y-72314942D01*
X124567996Y-72286324D01*
X124615585Y-72227372D01*
X124676809Y-72125549D01*
X124685609Y-72110000D01*
X124802004Y-71903625D01*
X127418250Y-71887045D01*
X127418250Y-72364000D01*
X127871560Y-72364000D01*
X128079864Y-72365755D01*
X128233085Y-72373377D01*
X128339594Y-72390400D01*
X128407765Y-72420357D01*
X128445972Y-72466783D01*
X128462586Y-72533210D01*
X128466000Y-72614879D01*
X128462651Y-72705659D01*
X128446928Y-72772153D01*
X128410319Y-72818124D01*
X128344311Y-72847333D01*
X128240390Y-72863541D01*
X128090043Y-72870509D01*
X127884757Y-72871999D01*
X127884062Y-72872000D01*
X127418250Y-72872000D01*
X127418250Y-73189500D01*
X127873090Y-73189499D01*
X128052371Y-73190018D01*
X128179397Y-73192624D01*
X128265410Y-73198894D01*
X128321653Y-73210406D01*
X128359368Y-73228737D01*
X128389797Y-73255464D01*
X128396965Y-73262983D01*
X128454921Y-73365242D01*
X128464329Y-73481568D01*
X128425467Y-73589165D01*
X128392516Y-73628465D01*
X128359109Y-73655836D01*
X128319498Y-73674850D01*
X128262239Y-73687016D01*
X128175893Y-73693841D01*
X128049019Y-73696833D01*
X127870174Y-73697499D01*
X127868641Y-73697500D01*
X127418250Y-73697500D01*
X127418250Y-73951500D01*
X127975451Y-73951500D01*
X128192720Y-73952726D01*
X128355822Y-73956868D01*
X128474049Y-73964617D01*
X128556696Y-73976664D01*
X128613055Y-73993701D01*
X128626326Y-73999940D01*
X128720000Y-74048380D01*
X128720000Y-74352038D01*
X128719460Y-74487707D01*
X128712722Y-74590733D01*
X128692108Y-74665622D01*
X128649939Y-74716882D01*
X128578535Y-74749019D01*
X128470219Y-74766539D01*
X128317311Y-74773948D01*
X128112134Y-74775753D01*
X127997687Y-74775943D01*
X127418250Y-74777000D01*
X127418250Y-75094500D01*
X127862750Y-75094500D01*
X128041540Y-75095277D01*
X128168102Y-75098547D01*
X128253697Y-75105718D01*
X128309587Y-75118198D01*
X128347034Y-75137394D01*
X128370750Y-75158000D01*
X128420272Y-75243519D01*
X128434250Y-75359454D01*
X128430363Y-75444583D01*
X128413000Y-75507053D01*
X128373605Y-75550600D01*
X128303624Y-75578955D01*
X128194503Y-75595853D01*
X128037685Y-75605027D01*
X127861256Y-75609526D01*
X127402375Y-75618375D01*
X127392697Y-75769187D01*
X127383020Y-75920000D01*
X127853945Y-75919999D01*
X128065978Y-75921752D01*
X128222779Y-75929105D01*
X128332567Y-75945197D01*
X128403562Y-75973171D01*
X128443983Y-76016166D01*
X128462052Y-76077323D01*
X128466000Y-76153856D01*
X128463125Y-76245252D01*
X128448744Y-76312170D01*
X128414221Y-76358686D01*
X128350922Y-76388875D01*
X128250210Y-76406815D01*
X128103450Y-76416579D01*
X127902007Y-76422245D01*
X127897126Y-76422349D01*
X127418250Y-76432574D01*
X127418250Y-76745500D01*
X124733129Y-76745500D01*
X124631360Y-76539125D01*
X124576124Y-76431728D01*
X124534594Y-76369833D01*
X124494393Y-76341049D01*
X124443142Y-76332983D01*
X124425225Y-76332750D01*
X124375792Y-76339606D01*
X124317512Y-76364006D01*
X124241640Y-76411692D01*
X124139436Y-76488410D01*
X124002158Y-76599904D01*
X123940741Y-76651108D01*
X123790634Y-76772152D01*
X123638170Y-76887003D01*
X123498224Y-76984978D01*
X123385675Y-77055390D01*
X123355004Y-77071796D01*
X123149384Y-77174125D01*
X121894504Y-77175067D01*
X121604708Y-77175069D01*
X121264006Y-77174706D01*
X120884992Y-77174013D01*
X120480258Y-77173023D01*
X120062398Y-77171772D01*
X119644005Y-77170292D01*
X119237671Y-77168619D01*
X118870920Y-77166864D01*
X117102215Y-77157718D01*
X116863803Y-76872500D01*
X114374625Y-76872500D01*
X114189250Y-76669438D01*
X114085717Y-76548363D01*
X113984126Y-76416855D01*
X113904544Y-76301056D01*
X113897027Y-76288794D01*
X113769705Y-76031990D01*
X113663836Y-75725789D01*
X113581215Y-75381178D01*
X113523636Y-75009142D01*
X113492894Y-74620665D01*
X113491055Y-74276979D01*
X113595992Y-74276979D01*
X113597896Y-74541595D01*
X113607043Y-74799774D01*
X113623270Y-75034156D01*
X113646414Y-75227380D01*
X113650736Y-75253250D01*
X113730058Y-75615501D01*
X113834790Y-75930289D01*
X113970691Y-76210534D01*
X114143519Y-76469154D01*
X114251767Y-76601536D01*
X114404409Y-76777250D01*
X116904051Y-76777250D01*
X117019536Y-76912187D01*
X117135020Y-77047125D01*
X118522197Y-77063916D01*
X118859738Y-77067521D01*
X119245419Y-77070816D01*
X119663883Y-77073721D01*
X120099768Y-77076154D01*
X120537717Y-77078033D01*
X120962371Y-77079277D01*
X121358371Y-77079803D01*
X121513468Y-77079791D01*
X123117561Y-77078875D01*
X123323218Y-76976063D01*
X123422529Y-76917770D01*
X123554424Y-76828088D01*
X123703985Y-76717765D01*
X123856292Y-76597549D01*
X123907188Y-76555376D01*
X124051899Y-76434561D01*
X124158435Y-76348980D01*
X124236862Y-76292578D01*
X124297246Y-76259296D01*
X124349656Y-76243078D01*
X124404157Y-76237869D01*
X124435536Y-76237500D01*
X124585570Y-76237500D01*
X124692222Y-76443757D01*
X124798875Y-76650015D01*
X126060937Y-76650132D01*
X127323000Y-76650250D01*
X127323000Y-76332750D01*
X127808775Y-76332750D01*
X128026012Y-76330555D01*
X128183292Y-76323808D01*
X128284008Y-76312262D01*
X128331555Y-76295668D01*
X128332650Y-76294649D01*
X128363182Y-76232677D01*
X128370179Y-76150380D01*
X128354910Y-76075020D01*
X128320528Y-76034521D01*
X128272487Y-76027837D01*
X128173283Y-76022159D01*
X128035250Y-76017927D01*
X127870723Y-76015580D01*
X127779442Y-76015250D01*
X127288578Y-76015250D01*
X127297851Y-75769187D01*
X127307125Y-75523125D01*
X128323125Y-75491375D01*
X128333228Y-75386113D01*
X128336512Y-75315501D01*
X128325176Y-75264174D01*
X128290843Y-75229073D01*
X128225136Y-75207140D01*
X128119678Y-75195317D01*
X127966092Y-75190546D01*
X127795362Y-75189750D01*
X127323000Y-75189750D01*
X127323000Y-74689834D01*
X127893182Y-74706182D01*
X128126637Y-74712252D01*
X128304250Y-74712954D01*
X128433655Y-74704724D01*
X128522485Y-74683998D01*
X128578372Y-74647213D01*
X128608950Y-74590805D01*
X128621851Y-74511211D01*
X128624709Y-74404866D01*
X128624750Y-74364635D01*
X128622685Y-74234917D01*
X128614413Y-74154143D01*
X128596812Y-74107832D01*
X128566763Y-74081503D01*
X128563337Y-74079617D01*
X128510105Y-74068152D01*
X128402486Y-74058692D01*
X128249574Y-74051694D01*
X128060462Y-74047618D01*
X127912462Y-74046750D01*
X127323000Y-74046750D01*
X127323000Y-73602250D01*
X127808775Y-73602249D01*
X128010521Y-73601076D01*
X128157406Y-73595931D01*
X128258049Y-73584380D01*
X128321068Y-73563989D01*
X128355084Y-73532322D01*
X128368717Y-73486945D01*
X128370750Y-73443499D01*
X128366594Y-73386509D01*
X128348382Y-73345016D01*
X128307493Y-73316586D01*
X128235308Y-73298784D01*
X128123207Y-73289175D01*
X127962571Y-73285324D01*
X127808775Y-73284749D01*
X127323000Y-73284750D01*
X127323000Y-72776750D01*
X127808775Y-72776749D01*
X128010521Y-72775576D01*
X128157406Y-72770431D01*
X128258049Y-72758880D01*
X128321068Y-72738489D01*
X128355084Y-72706822D01*
X128368717Y-72661445D01*
X128370749Y-72617999D01*
X128366594Y-72561009D01*
X128348382Y-72519516D01*
X128307493Y-72491086D01*
X128235308Y-72473284D01*
X128123207Y-72463675D01*
X127962571Y-72459824D01*
X127808775Y-72459249D01*
X127323000Y-72459250D01*
X127323000Y-71983000D01*
X126092687Y-71983212D01*
X124862375Y-71983424D01*
X124741451Y-72205462D01*
X124620528Y-72427500D01*
X124470696Y-72427500D01*
X124395578Y-72423860D01*
X124331516Y-72407735D01*
X124262844Y-72371317D01*
X124173894Y-72306799D01*
X124083620Y-72234597D01*
X123848970Y-72046521D01*
X123655220Y-71897611D01*
X123496641Y-71783928D01*
X123367507Y-71701531D01*
X123262088Y-71646481D01*
X123187918Y-71618564D01*
X123153094Y-71610195D01*
X123105897Y-71602827D01*
X123042416Y-71596401D01*
X122958743Y-71590854D01*
X122850966Y-71586125D01*
X122715178Y-71582152D01*
X122547469Y-71578875D01*
X122343929Y-71576232D01*
X122100648Y-71574162D01*
X121813718Y-71572602D01*
X121479228Y-71571493D01*
X121093269Y-71570772D01*
X120651933Y-71570378D01*
X120151308Y-71570250D01*
X120109987Y-71570249D01*
X119612708Y-71570304D01*
X119175059Y-71570515D01*
X118793171Y-71570957D01*
X118463175Y-71571700D01*
X118181199Y-71572818D01*
X117943376Y-71574383D01*
X117745835Y-71576469D01*
X117584706Y-71579146D01*
X117456120Y-71582489D01*
X117356208Y-71586568D01*
X117281099Y-71591458D01*
X117226925Y-71597231D01*
X117189815Y-71603958D01*
X117165900Y-71611713D01*
X117151310Y-71620568D01*
X117145965Y-71625812D01*
X117094331Y-71687278D01*
X117029149Y-71768078D01*
X117016143Y-71784562D01*
X116935105Y-71887750D01*
X114534022Y-71887750D01*
X114312846Y-72124583D01*
X114082534Y-72416965D01*
X113893577Y-72755447D01*
X113747494Y-73136681D01*
X113645805Y-73557316D01*
X113635366Y-73618125D01*
X113614564Y-73797883D01*
X113601493Y-74023289D01*
X113595992Y-74276979D01*
X113491055Y-74276979D01*
X113490785Y-74226732D01*
X113510261Y-73921810D01*
X113572965Y-73473331D01*
X113671058Y-73072720D01*
X113806816Y-72713667D01*
X113982512Y-72389860D01*
X114143418Y-72164378D01*
X114215402Y-72072145D01*
X114275328Y-71996482D01*
X114330087Y-71935758D01*
X114386566Y-71888342D01*
X114451657Y-71852606D01*
X114532249Y-71826917D01*
X114635231Y-71809646D01*
X114767493Y-71799163D01*
X114935925Y-71793837D01*
X115147416Y-71792038D01*
X115408855Y-71792135D01*
X115714940Y-71792500D01*
X116908203Y-71792500D01*
X116987513Y-71666865D01*
X117048892Y-71583225D01*
X117109546Y-71521324D01*
X117128699Y-71508115D01*
X117171431Y-71501593D01*
X117274163Y-71495797D01*
X117437296Y-71490723D01*
X117661231Y-71486365D01*
X117946369Y-71482720D01*
X118293111Y-71479783D01*
X118701859Y-71477550D01*
X119173013Y-71476016D01*
X119706975Y-71475176D01*
X120128428Y-71475000D01*
X120638491Y-71474938D01*
X121089114Y-71474914D01*
X121484356Y-71475174D01*
X121484356Y-71475174D01*
G37*
X121484356Y-71475174D02*
X121828276Y-71475964D01*
X122124934Y-71477531D01*
X122378389Y-71480118D01*
X122592700Y-71483973D01*
X122771927Y-71489341D01*
X122920128Y-71496468D01*
X123041364Y-71505598D01*
X123139693Y-71516979D01*
X123219175Y-71530855D01*
X123283869Y-71547473D01*
X123337835Y-71567078D01*
X123385131Y-71589915D01*
X123429818Y-71616231D01*
X123475954Y-71646271D01*
X123527599Y-71680281D01*
X123528381Y-71680788D01*
X123614508Y-71741058D01*
X123733773Y-71830675D01*
X123870901Y-71937893D01*
X124010618Y-72050968D01*
X124020888Y-72059451D01*
X124159009Y-72172119D01*
X124259608Y-72249038D01*
X124332873Y-72296366D01*
X124388993Y-72320257D01*
X124438158Y-72326867D01*
X124461683Y-72325762D01*
X124521032Y-72314942D01*
X124567996Y-72286324D01*
X124615585Y-72227372D01*
X124676809Y-72125549D01*
X124685609Y-72110000D01*
X124802004Y-71903625D01*
X127418250Y-71887045D01*
X127418250Y-72364000D01*
X127871560Y-72364000D01*
X128079864Y-72365755D01*
X128233085Y-72373377D01*
X128339594Y-72390400D01*
X128407765Y-72420357D01*
X128445972Y-72466783D01*
X128462586Y-72533210D01*
X128466000Y-72614879D01*
X128462651Y-72705659D01*
X128446928Y-72772153D01*
X128410319Y-72818124D01*
X128344311Y-72847333D01*
X128240390Y-72863541D01*
X128090043Y-72870509D01*
X127884757Y-72871999D01*
X127884062Y-72872000D01*
X127418250Y-72872000D01*
X127418250Y-73189500D01*
X127873090Y-73189499D01*
X128052371Y-73190018D01*
X128179397Y-73192624D01*
X128265410Y-73198894D01*
X128321653Y-73210406D01*
X128359368Y-73228737D01*
X128389797Y-73255464D01*
X128396965Y-73262983D01*
X128454921Y-73365242D01*
X128464329Y-73481568D01*
X128425467Y-73589165D01*
X128392516Y-73628465D01*
X128359109Y-73655836D01*
X128319498Y-73674850D01*
X128262239Y-73687016D01*
X128175893Y-73693841D01*
X128049019Y-73696833D01*
X127870174Y-73697499D01*
X127868641Y-73697500D01*
X127418250Y-73697500D01*
X127418250Y-73951500D01*
X127975451Y-73951500D01*
X128192720Y-73952726D01*
X128355822Y-73956868D01*
X128474049Y-73964617D01*
X128556696Y-73976664D01*
X128613055Y-73993701D01*
X128626326Y-73999940D01*
X128720000Y-74048380D01*
X128720000Y-74352038D01*
X128719460Y-74487707D01*
X128712722Y-74590733D01*
X128692108Y-74665622D01*
X128649939Y-74716882D01*
X128578535Y-74749019D01*
X128470219Y-74766539D01*
X128317311Y-74773948D01*
X128112134Y-74775753D01*
X127997687Y-74775943D01*
X127418250Y-74777000D01*
X127418250Y-75094500D01*
X127862750Y-75094500D01*
X128041540Y-75095277D01*
X128168102Y-75098547D01*
X128253697Y-75105718D01*
X128309587Y-75118198D01*
X128347034Y-75137394D01*
X128370750Y-75158000D01*
X128420272Y-75243519D01*
X128434250Y-75359454D01*
X128430363Y-75444583D01*
X128413000Y-75507053D01*
X128373605Y-75550600D01*
X128303624Y-75578955D01*
X128194503Y-75595853D01*
X128037685Y-75605027D01*
X127861256Y-75609526D01*
X127402375Y-75618375D01*
X127392697Y-75769187D01*
X127383020Y-75920000D01*
X127853945Y-75919999D01*
X128065978Y-75921752D01*
X128222779Y-75929105D01*
X128332567Y-75945197D01*
X128403562Y-75973171D01*
X128443983Y-76016166D01*
X128462052Y-76077323D01*
X128466000Y-76153856D01*
X128463125Y-76245252D01*
X128448744Y-76312170D01*
X128414221Y-76358686D01*
X128350922Y-76388875D01*
X128250210Y-76406815D01*
X128103450Y-76416579D01*
X127902007Y-76422245D01*
X127897126Y-76422349D01*
X127418250Y-76432574D01*
X127418250Y-76745500D01*
X124733129Y-76745500D01*
X124631360Y-76539125D01*
X124576124Y-76431728D01*
X124534594Y-76369833D01*
X124494393Y-76341049D01*
X124443142Y-76332983D01*
X124425225Y-76332750D01*
X124375792Y-76339606D01*
X124317512Y-76364006D01*
X124241640Y-76411692D01*
X124139436Y-76488410D01*
X124002158Y-76599904D01*
X123940741Y-76651108D01*
X123790634Y-76772152D01*
X123638170Y-76887003D01*
X123498224Y-76984978D01*
X123385675Y-77055390D01*
X123355004Y-77071796D01*
X123149384Y-77174125D01*
X121894504Y-77175067D01*
X121604708Y-77175069D01*
X121264006Y-77174706D01*
X120884992Y-77174013D01*
X120480258Y-77173023D01*
X120062398Y-77171772D01*
X119644005Y-77170292D01*
X119237671Y-77168619D01*
X118870920Y-77166864D01*
X117102215Y-77157718D01*
X116863803Y-76872500D01*
X114374625Y-76872500D01*
X114189250Y-76669438D01*
X114085717Y-76548363D01*
X113984126Y-76416855D01*
X113904544Y-76301056D01*
X113897027Y-76288794D01*
X113769705Y-76031990D01*
X113663836Y-75725789D01*
X113581215Y-75381178D01*
X113523636Y-75009142D01*
X113492894Y-74620665D01*
X113491055Y-74276979D01*
X113595992Y-74276979D01*
X113597896Y-74541595D01*
X113607043Y-74799774D01*
X113623270Y-75034156D01*
X113646414Y-75227380D01*
X113650736Y-75253250D01*
X113730058Y-75615501D01*
X113834790Y-75930289D01*
X113970691Y-76210534D01*
X114143519Y-76469154D01*
X114251767Y-76601536D01*
X114404409Y-76777250D01*
X116904051Y-76777250D01*
X117019536Y-76912187D01*
X117135020Y-77047125D01*
X118522197Y-77063916D01*
X118859738Y-77067521D01*
X119245419Y-77070816D01*
X119663883Y-77073721D01*
X120099768Y-77076154D01*
X120537717Y-77078033D01*
X120962371Y-77079277D01*
X121358371Y-77079803D01*
X121513468Y-77079791D01*
X123117561Y-77078875D01*
X123323218Y-76976063D01*
X123422529Y-76917770D01*
X123554424Y-76828088D01*
X123703985Y-76717765D01*
X123856292Y-76597549D01*
X123907188Y-76555376D01*
X124051899Y-76434561D01*
X124158435Y-76348980D01*
X124236862Y-76292578D01*
X124297246Y-76259296D01*
X124349656Y-76243078D01*
X124404157Y-76237869D01*
X124435536Y-76237500D01*
X124585570Y-76237500D01*
X124692222Y-76443757D01*
X124798875Y-76650015D01*
X126060937Y-76650132D01*
X127323000Y-76650250D01*
X127323000Y-76332750D01*
X127808775Y-76332750D01*
X128026012Y-76330555D01*
X128183292Y-76323808D01*
X128284008Y-76312262D01*
X128331555Y-76295668D01*
X128332650Y-76294649D01*
X128363182Y-76232677D01*
X128370179Y-76150380D01*
X128354910Y-76075020D01*
X128320528Y-76034521D01*
X128272487Y-76027837D01*
X128173283Y-76022159D01*
X128035250Y-76017927D01*
X127870723Y-76015580D01*
X127779442Y-76015250D01*
X127288578Y-76015250D01*
X127297851Y-75769187D01*
X127307125Y-75523125D01*
X128323125Y-75491375D01*
X128333228Y-75386113D01*
X128336512Y-75315501D01*
X128325176Y-75264174D01*
X128290843Y-75229073D01*
X128225136Y-75207140D01*
X128119678Y-75195317D01*
X127966092Y-75190546D01*
X127795362Y-75189750D01*
X127323000Y-75189750D01*
X127323000Y-74689834D01*
X127893182Y-74706182D01*
X128126637Y-74712252D01*
X128304250Y-74712954D01*
X128433655Y-74704724D01*
X128522485Y-74683998D01*
X128578372Y-74647213D01*
X128608950Y-74590805D01*
X128621851Y-74511211D01*
X128624709Y-74404866D01*
X128624750Y-74364635D01*
X128622685Y-74234917D01*
X128614413Y-74154143D01*
X128596812Y-74107832D01*
X128566763Y-74081503D01*
X128563337Y-74079617D01*
X128510105Y-74068152D01*
X128402486Y-74058692D01*
X128249574Y-74051694D01*
X128060462Y-74047618D01*
X127912462Y-74046750D01*
X127323000Y-74046750D01*
X127323000Y-73602250D01*
X127808775Y-73602249D01*
X128010521Y-73601076D01*
X128157406Y-73595931D01*
X128258049Y-73584380D01*
X128321068Y-73563989D01*
X128355084Y-73532322D01*
X128368717Y-73486945D01*
X128370750Y-73443499D01*
X128366594Y-73386509D01*
X128348382Y-73345016D01*
X128307493Y-73316586D01*
X128235308Y-73298784D01*
X128123207Y-73289175D01*
X127962571Y-73285324D01*
X127808775Y-73284749D01*
X127323000Y-73284750D01*
X127323000Y-72776750D01*
X127808775Y-72776749D01*
X128010521Y-72775576D01*
X128157406Y-72770431D01*
X128258049Y-72758880D01*
X128321068Y-72738489D01*
X128355084Y-72706822D01*
X128368717Y-72661445D01*
X128370749Y-72617999D01*
X128366594Y-72561009D01*
X128348382Y-72519516D01*
X128307493Y-72491086D01*
X128235308Y-72473284D01*
X128123207Y-72463675D01*
X127962571Y-72459824D01*
X127808775Y-72459249D01*
X127323000Y-72459250D01*
X127323000Y-71983000D01*
X126092687Y-71983212D01*
X124862375Y-71983424D01*
X124741451Y-72205462D01*
X124620528Y-72427500D01*
X124470696Y-72427500D01*
X124395578Y-72423860D01*
X124331516Y-72407735D01*
X124262844Y-72371317D01*
X124173894Y-72306799D01*
X124083620Y-72234597D01*
X123848970Y-72046521D01*
X123655220Y-71897611D01*
X123496641Y-71783928D01*
X123367507Y-71701531D01*
X123262088Y-71646481D01*
X123187918Y-71618564D01*
X123153094Y-71610195D01*
X123105897Y-71602827D01*
X123042416Y-71596401D01*
X122958743Y-71590854D01*
X122850966Y-71586125D01*
X122715178Y-71582152D01*
X122547469Y-71578875D01*
X122343929Y-71576232D01*
X122100648Y-71574162D01*
X121813718Y-71572602D01*
X121479228Y-71571493D01*
X121093269Y-71570772D01*
X120651933Y-71570378D01*
X120151308Y-71570250D01*
X120109987Y-71570249D01*
X119612708Y-71570304D01*
X119175059Y-71570515D01*
X118793171Y-71570957D01*
X118463175Y-71571700D01*
X118181199Y-71572818D01*
X117943376Y-71574383D01*
X117745835Y-71576469D01*
X117584706Y-71579146D01*
X117456120Y-71582489D01*
X117356208Y-71586568D01*
X117281099Y-71591458D01*
X117226925Y-71597231D01*
X117189815Y-71603958D01*
X117165900Y-71611713D01*
X117151310Y-71620568D01*
X117145965Y-71625812D01*
X117094331Y-71687278D01*
X117029149Y-71768078D01*
X117016143Y-71784562D01*
X116935105Y-71887750D01*
X114534022Y-71887750D01*
X114312846Y-72124583D01*
X114082534Y-72416965D01*
X113893577Y-72755447D01*
X113747494Y-73136681D01*
X113645805Y-73557316D01*
X113635366Y-73618125D01*
X113614564Y-73797883D01*
X113601493Y-74023289D01*
X113595992Y-74276979D01*
X113491055Y-74276979D01*
X113490785Y-74226732D01*
X113510261Y-73921810D01*
X113572965Y-73473331D01*
X113671058Y-73072720D01*
X113806816Y-72713667D01*
X113982512Y-72389860D01*
X114143418Y-72164378D01*
X114215402Y-72072145D01*
X114275328Y-71996482D01*
X114330087Y-71935758D01*
X114386566Y-71888342D01*
X114451657Y-71852606D01*
X114532249Y-71826917D01*
X114635231Y-71809646D01*
X114767493Y-71799163D01*
X114935925Y-71793837D01*
X115147416Y-71792038D01*
X115408855Y-71792135D01*
X115714940Y-71792500D01*
X116908203Y-71792500D01*
X116987513Y-71666865D01*
X117048892Y-71583225D01*
X117109546Y-71521324D01*
X117128699Y-71508115D01*
X117171431Y-71501593D01*
X117274163Y-71495797D01*
X117437296Y-71490723D01*
X117661231Y-71486365D01*
X117946369Y-71482720D01*
X118293111Y-71479783D01*
X118701859Y-71477550D01*
X119173013Y-71476016D01*
X119706975Y-71475176D01*
X120128428Y-71475000D01*
X120638491Y-71474938D01*
X121089114Y-71474914D01*
X121484356Y-71475174D01*
G36*
X116792868Y-73004119D02*
G01*
X117149908Y-73005787D01*
X117197070Y-73006057D01*
X117546718Y-73008158D01*
X117838490Y-73010214D01*
X118078011Y-73012491D01*
X118270903Y-73015254D01*
X118422792Y-73018766D01*
X118539300Y-73023293D01*
X118626052Y-73029099D01*
X118688670Y-73036449D01*
X118732780Y-73045609D01*
X118764004Y-73056842D01*
X118787967Y-73070413D01*
X118803764Y-73081693D01*
X118916081Y-73190656D01*
X118984461Y-73323251D01*
X119014426Y-73492551D01*
X119016834Y-73586019D01*
X118987073Y-73837028D01*
X118900847Y-74063876D01*
X118755764Y-74271751D01*
X118651555Y-74378449D01*
X118551412Y-74467643D01*
X118459042Y-74538482D01*
X118365374Y-74593196D01*
X118261337Y-74634011D01*
X118137860Y-74663156D01*
X117985871Y-74682858D01*
X117796299Y-74695345D01*
X117560073Y-74702846D01*
X117313812Y-74706991D01*
X117061111Y-74709743D01*
X116865664Y-74710242D01*
X116721260Y-74708250D01*
X116621684Y-74703529D01*
X116560724Y-74695842D01*
X116532166Y-74684949D01*
X116528000Y-74676886D01*
X116539840Y-74618015D01*
X116569254Y-74526292D01*
X116607075Y-74426464D01*
X116644141Y-74343276D01*
X116664354Y-74308687D01*
X116716989Y-74285432D01*
X116831221Y-74272227D01*
X116964766Y-74269000D01*
X117107787Y-74264523D01*
X117242624Y-74252665D01*
X117344297Y-74235784D01*
X117359278Y-74231767D01*
X117493762Y-74161399D01*
X117608918Y-74045144D01*
X117688661Y-73900534D01*
X117702317Y-73857856D01*
X117721255Y-73706383D01*
X117686570Y-73586203D01*
X117615525Y-73506497D01*
X117573773Y-73479436D01*
X117521627Y-73461334D01*
X117446266Y-73450464D01*
X117334864Y-73445101D01*
X117174599Y-73443518D01*
X117147657Y-73443500D01*
X116759878Y-73443500D01*
X116367772Y-74511149D01*
X116275915Y-74759220D01*
X116189282Y-74989306D01*
X116110638Y-75194352D01*
X116042749Y-75367305D01*
X115988380Y-75501110D01*
X115950298Y-75588713D01*
X115932065Y-75622399D01*
X115887337Y-75637521D01*
X115793992Y-75649793D01*
X115663700Y-75659153D01*
X115508131Y-75665541D01*
X115338956Y-75668898D01*
X115167845Y-75669161D01*
X115006469Y-75666272D01*
X114866498Y-75660169D01*
X114759603Y-75650792D01*
X114697455Y-75638081D01*
X114686500Y-75628846D01*
X114697293Y-75590258D01*
X114727798Y-75499874D01*
X114775203Y-75365269D01*
X114836695Y-75194017D01*
X114909462Y-74993694D01*
X114990691Y-74771874D01*
X115077570Y-74536131D01*
X115167287Y-74294042D01*
X115257029Y-74053181D01*
X115343984Y-73821122D01*
X115425340Y-73605440D01*
X115498283Y-73413711D01*
X115560003Y-73253509D01*
X115607685Y-73132408D01*
X115638519Y-73057984D01*
X115648500Y-73037807D01*
X115668177Y-73028140D01*
X115713872Y-73020222D01*
X115790202Y-73013956D01*
X115901779Y-73009250D01*
X116053220Y-73006008D01*
X116249139Y-73004135D01*
X116494150Y-73003537D01*
X116792868Y-73004119D01*
X116792868Y-73004119D01*
G37*
X116792868Y-73004119D02*
X117149908Y-73005787D01*
X117197070Y-73006057D01*
X117546718Y-73008158D01*
X117838490Y-73010214D01*
X118078011Y-73012491D01*
X118270903Y-73015254D01*
X118422792Y-73018766D01*
X118539300Y-73023293D01*
X118626052Y-73029099D01*
X118688670Y-73036449D01*
X118732780Y-73045609D01*
X118764004Y-73056842D01*
X118787967Y-73070413D01*
X118803764Y-73081693D01*
X118916081Y-73190656D01*
X118984461Y-73323251D01*
X119014426Y-73492551D01*
X119016834Y-73586019D01*
X118987073Y-73837028D01*
X118900847Y-74063876D01*
X118755764Y-74271751D01*
X118651555Y-74378449D01*
X118551412Y-74467643D01*
X118459042Y-74538482D01*
X118365374Y-74593196D01*
X118261337Y-74634011D01*
X118137860Y-74663156D01*
X117985871Y-74682858D01*
X117796299Y-74695345D01*
X117560073Y-74702846D01*
X117313812Y-74706991D01*
X117061111Y-74709743D01*
X116865664Y-74710242D01*
X116721260Y-74708250D01*
X116621684Y-74703529D01*
X116560724Y-74695842D01*
X116532166Y-74684949D01*
X116528000Y-74676886D01*
X116539840Y-74618015D01*
X116569254Y-74526292D01*
X116607075Y-74426464D01*
X116644141Y-74343276D01*
X116664354Y-74308687D01*
X116716989Y-74285432D01*
X116831221Y-74272227D01*
X116964766Y-74269000D01*
X117107787Y-74264523D01*
X117242624Y-74252665D01*
X117344297Y-74235784D01*
X117359278Y-74231767D01*
X117493762Y-74161399D01*
X117608918Y-74045144D01*
X117688661Y-73900534D01*
X117702317Y-73857856D01*
X117721255Y-73706383D01*
X117686570Y-73586203D01*
X117615525Y-73506497D01*
X117573773Y-73479436D01*
X117521627Y-73461334D01*
X117446266Y-73450464D01*
X117334864Y-73445101D01*
X117174599Y-73443518D01*
X117147657Y-73443500D01*
X116759878Y-73443500D01*
X116367772Y-74511149D01*
X116275915Y-74759220D01*
X116189282Y-74989306D01*
X116110638Y-75194352D01*
X116042749Y-75367305D01*
X115988380Y-75501110D01*
X115950298Y-75588713D01*
X115932065Y-75622399D01*
X115887337Y-75637521D01*
X115793992Y-75649793D01*
X115663700Y-75659153D01*
X115508131Y-75665541D01*
X115338956Y-75668898D01*
X115167845Y-75669161D01*
X115006469Y-75666272D01*
X114866498Y-75660169D01*
X114759603Y-75650792D01*
X114697455Y-75638081D01*
X114686500Y-75628846D01*
X114697293Y-75590258D01*
X114727798Y-75499874D01*
X114775203Y-75365269D01*
X114836695Y-75194017D01*
X114909462Y-74993694D01*
X114990691Y-74771874D01*
X115077570Y-74536131D01*
X115167287Y-74294042D01*
X115257029Y-74053181D01*
X115343984Y-73821122D01*
X115425340Y-73605440D01*
X115498283Y-73413711D01*
X115560003Y-73253509D01*
X115607685Y-73132408D01*
X115638519Y-73057984D01*
X115648500Y-73037807D01*
X115668177Y-73028140D01*
X115713872Y-73020222D01*
X115790202Y-73013956D01*
X115901779Y-73009250D01*
X116053220Y-73006008D01*
X116249139Y-73004135D01*
X116494150Y-73003537D01*
X116792868Y-73004119D01*
G36*
X122831488Y-73086312D02*
G01*
X122804845Y-73170685D01*
X122764516Y-73275619D01*
X122750457Y-73308562D01*
X122691070Y-73443500D01*
X121846890Y-73443500D01*
X121568930Y-73444062D01*
X121346800Y-73446660D01*
X121172835Y-73452659D01*
X121039366Y-73463426D01*
X120938730Y-73480326D01*
X120863258Y-73504725D01*
X120805285Y-73537989D01*
X120757144Y-73581483D01*
X120711170Y-73636574D01*
X120702922Y-73647318D01*
X120655462Y-73726330D01*
X120594367Y-73852388D01*
X120524939Y-74011927D01*
X120452479Y-74191382D01*
X120382289Y-74377188D01*
X120319670Y-74555781D01*
X120269925Y-74713594D01*
X120238828Y-74834755D01*
X120218724Y-74945981D01*
X120216264Y-75017661D01*
X120232561Y-75071561D01*
X120252679Y-75105757D01*
X120300904Y-75158221D01*
X120371388Y-75193023D01*
X120474784Y-75212377D01*
X120621743Y-75218496D01*
X120779651Y-75215285D01*
X121046678Y-75205625D01*
X121271776Y-74601299D01*
X121341420Y-74415768D01*
X121404874Y-74249435D01*
X121458384Y-74111925D01*
X121498194Y-74012867D01*
X121520550Y-73961887D01*
X121522561Y-73958362D01*
X121560394Y-73945681D01*
X121647189Y-73935243D01*
X121770344Y-73927180D01*
X121917259Y-73921624D01*
X122075331Y-73918707D01*
X122231961Y-73918561D01*
X122374547Y-73921316D01*
X122490488Y-73927105D01*
X122567184Y-73936061D01*
X122592250Y-73947174D01*
X122581227Y-73989066D01*
X122550584Y-74080456D01*
X122503955Y-74211756D01*
X122444975Y-74373376D01*
X122377281Y-74555728D01*
X122304507Y-74749221D01*
X122230289Y-74944268D01*
X122158262Y-75131278D01*
X122092062Y-75300663D01*
X122035324Y-75442832D01*
X121991684Y-75548199D01*
X121964776Y-75607172D01*
X121959873Y-75615213D01*
X121943626Y-75628070D01*
X121914397Y-75638543D01*
X121866298Y-75646847D01*
X121793440Y-75653197D01*
X121689937Y-75657810D01*
X121549898Y-75660899D01*
X121367437Y-75662681D01*
X121136664Y-75663370D01*
X120851692Y-75663183D01*
X120659549Y-75662758D01*
X120289846Y-75660867D01*
X119975203Y-75657266D01*
X119717241Y-75652003D01*
X119517583Y-75645120D01*
X119377850Y-75636665D01*
X119299663Y-75626682D01*
X119291747Y-75624568D01*
X119155449Y-75551608D01*
X119031754Y-75431275D01*
X118935264Y-75279666D01*
X118900498Y-75193227D01*
X118848740Y-74933486D01*
X118852481Y-74661929D01*
X118906893Y-74386562D01*
X119007150Y-74115393D01*
X119148422Y-73856428D01*
X119325883Y-73617673D01*
X119534706Y-73407135D01*
X119770062Y-73232821D01*
X120027123Y-73102737D01*
X120193858Y-73048179D01*
X120254270Y-73035151D01*
X120329705Y-73024541D01*
X120426670Y-73016125D01*
X120551667Y-73009677D01*
X120711203Y-73004973D01*
X120911780Y-73001788D01*
X121159905Y-72999898D01*
X121462081Y-72999079D01*
X121618112Y-72999000D01*
X122853133Y-72999000D01*
X122831488Y-73086312D01*
X122831488Y-73086312D01*
G37*
X122831488Y-73086312D02*
X122804845Y-73170685D01*
X122764516Y-73275619D01*
X122750457Y-73308562D01*
X122691070Y-73443500D01*
X121846890Y-73443500D01*
X121568930Y-73444062D01*
X121346800Y-73446660D01*
X121172835Y-73452659D01*
X121039366Y-73463426D01*
X120938730Y-73480326D01*
X120863258Y-73504725D01*
X120805285Y-73537989D01*
X120757144Y-73581483D01*
X120711170Y-73636574D01*
X120702922Y-73647318D01*
X120655462Y-73726330D01*
X120594367Y-73852388D01*
X120524939Y-74011927D01*
X120452479Y-74191382D01*
X120382289Y-74377188D01*
X120319670Y-74555781D01*
X120269925Y-74713594D01*
X120238828Y-74834755D01*
X120218724Y-74945981D01*
X120216264Y-75017661D01*
X120232561Y-75071561D01*
X120252679Y-75105757D01*
X120300904Y-75158221D01*
X120371388Y-75193023D01*
X120474784Y-75212377D01*
X120621743Y-75218496D01*
X120779651Y-75215285D01*
X121046678Y-75205625D01*
X121271776Y-74601299D01*
X121341420Y-74415768D01*
X121404874Y-74249435D01*
X121458384Y-74111925D01*
X121498194Y-74012867D01*
X121520550Y-73961887D01*
X121522561Y-73958362D01*
X121560394Y-73945681D01*
X121647189Y-73935243D01*
X121770344Y-73927180D01*
X121917259Y-73921624D01*
X122075331Y-73918707D01*
X122231961Y-73918561D01*
X122374547Y-73921316D01*
X122490488Y-73927105D01*
X122567184Y-73936061D01*
X122592250Y-73947174D01*
X122581227Y-73989066D01*
X122550584Y-74080456D01*
X122503955Y-74211756D01*
X122444975Y-74373376D01*
X122377281Y-74555728D01*
X122304507Y-74749221D01*
X122230289Y-74944268D01*
X122158262Y-75131278D01*
X122092062Y-75300663D01*
X122035324Y-75442832D01*
X121991684Y-75548199D01*
X121964776Y-75607172D01*
X121959873Y-75615213D01*
X121943626Y-75628070D01*
X121914397Y-75638543D01*
X121866298Y-75646847D01*
X121793440Y-75653197D01*
X121689937Y-75657810D01*
X121549898Y-75660899D01*
X121367437Y-75662681D01*
X121136664Y-75663370D01*
X120851692Y-75663183D01*
X120659549Y-75662758D01*
X120289846Y-75660867D01*
X119975203Y-75657266D01*
X119717241Y-75652003D01*
X119517583Y-75645120D01*
X119377850Y-75636665D01*
X119299663Y-75626682D01*
X119291747Y-75624568D01*
X119155449Y-75551608D01*
X119031754Y-75431275D01*
X118935264Y-75279666D01*
X118900498Y-75193227D01*
X118848740Y-74933486D01*
X118852481Y-74661929D01*
X118906893Y-74386562D01*
X119007150Y-74115393D01*
X119148422Y-73856428D01*
X119325883Y-73617673D01*
X119534706Y-73407135D01*
X119770062Y-73232821D01*
X120027123Y-73102737D01*
X120193858Y-73048179D01*
X120254270Y-73035151D01*
X120329705Y-73024541D01*
X120426670Y-73016125D01*
X120551667Y-73009677D01*
X120711203Y-73004973D01*
X120911780Y-73001788D01*
X121159905Y-72999898D01*
X121462081Y-72999079D01*
X121618112Y-72999000D01*
X122853133Y-72999000D01*
X122831488Y-73086312D01*
G36*
X126323988Y-73086312D02*
G01*
X126297345Y-73170685D01*
X126257016Y-73275619D01*
X126242957Y-73308562D01*
X126183570Y-73443500D01*
X124250953Y-73443500D01*
X124216448Y-73530812D01*
X124181248Y-73622033D01*
X124139359Y-73733675D01*
X124096584Y-73849830D01*
X124058730Y-73954588D01*
X124031601Y-74032042D01*
X124021003Y-74066284D01*
X124021000Y-74066405D01*
X124051280Y-74069829D01*
X124136245Y-74072882D01*
X124267078Y-74075417D01*
X124434964Y-74077290D01*
X124631088Y-74078357D01*
X124759187Y-74078549D01*
X125020329Y-74079453D01*
X125226233Y-74083209D01*
X125385149Y-74091437D01*
X125505327Y-74105759D01*
X125595016Y-74127797D01*
X125662467Y-74159173D01*
X125715930Y-74201509D01*
X125763655Y-74256425D01*
X125780868Y-74279379D01*
X125832478Y-74396174D01*
X125852384Y-74550184D01*
X125841239Y-74723985D01*
X125799697Y-74900155D01*
X125753292Y-75014719D01*
X125625232Y-75218806D01*
X125458432Y-75399802D01*
X125269970Y-75540146D01*
X125211625Y-75571763D01*
X125052875Y-75650125D01*
X123707146Y-75659673D01*
X122361418Y-75669221D01*
X122380388Y-75574368D01*
X122406958Y-75482074D01*
X122448027Y-75376640D01*
X122456327Y-75358445D01*
X122513295Y-75237375D01*
X123471269Y-75221500D01*
X123744049Y-75216780D01*
X123960655Y-75212292D01*
X124128409Y-75207459D01*
X124254634Y-75201706D01*
X124346650Y-75194459D01*
X124411779Y-75185141D01*
X124457344Y-75173178D01*
X124490665Y-75157995D01*
X124518809Y-75139205D01*
X124638335Y-75021649D01*
X124718179Y-74882997D01*
X124753348Y-74737926D01*
X124738848Y-74601115D01*
X124718382Y-74552662D01*
X124706114Y-74534913D01*
X124685802Y-74520954D01*
X124650403Y-74510331D01*
X124592873Y-74502591D01*
X124506167Y-74497279D01*
X124383244Y-74493943D01*
X124217058Y-74492129D01*
X124000566Y-74491383D01*
X123764886Y-74491250D01*
X123488768Y-74490713D01*
X123270144Y-74488924D01*
X123103016Y-74485614D01*
X122981386Y-74480511D01*
X122899255Y-74473347D01*
X122850625Y-74463853D01*
X122829499Y-74451757D01*
X122828096Y-74449136D01*
X122834484Y-74409962D01*
X122859804Y-74321873D01*
X122900341Y-74195278D01*
X122952382Y-74040586D01*
X123012214Y-73868208D01*
X123076123Y-73688552D01*
X123140395Y-73512029D01*
X123201316Y-73349046D01*
X123255173Y-73210015D01*
X123298252Y-73105345D01*
X123326839Y-73045445D01*
X123331285Y-73038687D01*
X123352628Y-73028995D01*
X123403288Y-73020891D01*
X123487667Y-73014262D01*
X123610165Y-73008992D01*
X123775186Y-73004967D01*
X123987129Y-73002072D01*
X124250398Y-73000192D01*
X124569394Y-72999212D01*
X124853829Y-72999000D01*
X126345633Y-72999000D01*
X126323988Y-73086312D01*
X126323988Y-73086312D01*
G37*
X126323988Y-73086312D02*
X126297345Y-73170685D01*
X126257016Y-73275619D01*
X126242957Y-73308562D01*
X126183570Y-73443500D01*
X124250953Y-73443500D01*
X124216448Y-73530812D01*
X124181248Y-73622033D01*
X124139359Y-73733675D01*
X124096584Y-73849830D01*
X124058730Y-73954588D01*
X124031601Y-74032042D01*
X124021003Y-74066284D01*
X124021000Y-74066405D01*
X124051280Y-74069829D01*
X124136245Y-74072882D01*
X124267078Y-74075417D01*
X124434964Y-74077290D01*
X124631088Y-74078357D01*
X124759187Y-74078549D01*
X125020329Y-74079453D01*
X125226233Y-74083209D01*
X125385149Y-74091437D01*
X125505327Y-74105759D01*
X125595016Y-74127797D01*
X125662467Y-74159173D01*
X125715930Y-74201509D01*
X125763655Y-74256425D01*
X125780868Y-74279379D01*
X125832478Y-74396174D01*
X125852384Y-74550184D01*
X125841239Y-74723985D01*
X125799697Y-74900155D01*
X125753292Y-75014719D01*
X125625232Y-75218806D01*
X125458432Y-75399802D01*
X125269970Y-75540146D01*
X125211625Y-75571763D01*
X125052875Y-75650125D01*
X123707146Y-75659673D01*
X122361418Y-75669221D01*
X122380388Y-75574368D01*
X122406958Y-75482074D01*
X122448027Y-75376640D01*
X122456327Y-75358445D01*
X122513295Y-75237375D01*
X123471269Y-75221500D01*
X123744049Y-75216780D01*
X123960655Y-75212292D01*
X124128409Y-75207459D01*
X124254634Y-75201706D01*
X124346650Y-75194459D01*
X124411779Y-75185141D01*
X124457344Y-75173178D01*
X124490665Y-75157995D01*
X124518809Y-75139205D01*
X124638335Y-75021649D01*
X124718179Y-74882997D01*
X124753348Y-74737926D01*
X124738848Y-74601115D01*
X124718382Y-74552662D01*
X124706114Y-74534913D01*
X124685802Y-74520954D01*
X124650403Y-74510331D01*
X124592873Y-74502591D01*
X124506167Y-74497279D01*
X124383244Y-74493943D01*
X124217058Y-74492129D01*
X124000566Y-74491383D01*
X123764886Y-74491250D01*
X123488768Y-74490713D01*
X123270144Y-74488924D01*
X123103016Y-74485614D01*
X122981386Y-74480511D01*
X122899255Y-74473347D01*
X122850625Y-74463853D01*
X122829499Y-74451757D01*
X122828096Y-74449136D01*
X122834484Y-74409962D01*
X122859804Y-74321873D01*
X122900341Y-74195278D01*
X122952382Y-74040586D01*
X123012214Y-73868208D01*
X123076123Y-73688552D01*
X123140395Y-73512029D01*
X123201316Y-73349046D01*
X123255173Y-73210015D01*
X123298252Y-73105345D01*
X123326839Y-73045445D01*
X123331285Y-73038687D01*
X123352628Y-73028995D01*
X123403288Y-73020891D01*
X123487667Y-73014262D01*
X123610165Y-73008992D01*
X123775186Y-73004967D01*
X123987129Y-73002072D01*
X124250398Y-73000192D01*
X124569394Y-72999212D01*
X124853829Y-72999000D01*
X126345633Y-72999000D01*
X126323988Y-73086312D01*
D11*
X115090000Y-84000000D02*
X115090000Y-82670000D01*
X115090000Y-82670000D02*
X116420000Y-82670000D01*
X117690000Y-82670000D02*
X127910000Y-82670000D01*
X127910000Y-85330000D02*
X127910000Y-82670000D01*
X117690000Y-85330000D02*
X127910000Y-85330000D01*
X117690000Y-85330000D02*
X117690000Y-82670000D01*
X56820000Y-86030000D02*
X56820000Y-86360000D01*
X63360000Y-86030000D02*
X56820000Y-86030000D01*
X63360000Y-86360000D02*
X63360000Y-86030000D01*
X56820000Y-88770000D02*
X56820000Y-88440000D01*
X63360000Y-88770000D02*
X56820000Y-88770000D01*
X63360000Y-88440000D02*
X63360000Y-88770000D01*
X60130000Y-80580000D02*
X60460000Y-80580000D01*
X60130000Y-74040000D02*
X60130000Y-80580000D01*
X60460000Y-74040000D02*
X60130000Y-74040000D01*
X62870000Y-80580000D02*
X62540000Y-80580000D01*
X62870000Y-74040000D02*
X62870000Y-80580000D01*
X62540000Y-74040000D02*
X62870000Y-74040000D01*
X77980000Y-82670000D02*
X77980000Y-82340000D01*
X71440000Y-82670000D02*
X77980000Y-82670000D01*
X71440000Y-82340000D02*
X71440000Y-82670000D01*
X77980000Y-79930000D02*
X77980000Y-80260000D01*
X71440000Y-79930000D02*
X77980000Y-79930000D01*
X71440000Y-80260000D02*
X71440000Y-79930000D01*
X118320000Y-59900000D02*
G75*
G03X118320000Y-59900000I-6620000J0D01*
G01*
X105120000Y-59900000D02*
X118280000Y-59900000D01*
X105120000Y-59860000D02*
X118280000Y-59860000D01*
X105120000Y-59820000D02*
X118280000Y-59820000D01*
X105121000Y-59780000D02*
X118279000Y-59780000D01*
X105121000Y-59740000D02*
X118279000Y-59740000D01*
X105123000Y-59700000D02*
X118277000Y-59700000D01*
X105124000Y-59660000D02*
X118276000Y-59660000D01*
X105125000Y-59620000D02*
X118275000Y-59620000D01*
X105127000Y-59580000D02*
X118273000Y-59580000D01*
X105129000Y-59540000D02*
X118271000Y-59540000D01*
X105132000Y-59500000D02*
X118268000Y-59500000D01*
X105134000Y-59460000D02*
X118266000Y-59460000D01*
X105137000Y-59420000D02*
X118263000Y-59420000D01*
X105140000Y-59380000D02*
X118260000Y-59380000D01*
X105143000Y-59340000D02*
X118257000Y-59340000D01*
X105147000Y-59300000D02*
X118253000Y-59300000D01*
X105151000Y-59260000D02*
X118249000Y-59260000D01*
X105155000Y-59220000D02*
X118245000Y-59220000D01*
X105159000Y-59179000D02*
X118241000Y-59179000D01*
X105163000Y-59139000D02*
X118237000Y-59139000D01*
X105168000Y-59099000D02*
X118232000Y-59099000D01*
X105173000Y-59059000D02*
X118227000Y-59059000D01*
X105178000Y-59019000D02*
X118222000Y-59019000D01*
X105184000Y-58979000D02*
X118216000Y-58979000D01*
X105189000Y-58939000D02*
X118211000Y-58939000D01*
X105195000Y-58899000D02*
X118205000Y-58899000D01*
X105202000Y-58859000D02*
X118198000Y-58859000D01*
X105208000Y-58819000D02*
X110260000Y-58819000D01*
X113140000Y-58819000D02*
X118192000Y-58819000D01*
X105215000Y-58779000D02*
X110260000Y-58779000D01*
X113140000Y-58779000D02*
X118185000Y-58779000D01*
X105222000Y-58739000D02*
X110260000Y-58739000D01*
X113140000Y-58739000D02*
X118178000Y-58739000D01*
X105229000Y-58699000D02*
X110260000Y-58699000D01*
X113140000Y-58699000D02*
X118171000Y-58699000D01*
X105237000Y-58659000D02*
X110260000Y-58659000D01*
X113140000Y-58659000D02*
X118163000Y-58659000D01*
X105244000Y-58619000D02*
X110260000Y-58619000D01*
X113140000Y-58619000D02*
X118156000Y-58619000D01*
X105252000Y-58579000D02*
X110260000Y-58579000D01*
X113140000Y-58579000D02*
X118148000Y-58579000D01*
X105261000Y-58539000D02*
X110260000Y-58539000D01*
X113140000Y-58539000D02*
X118139000Y-58539000D01*
X105269000Y-58499000D02*
X110260000Y-58499000D01*
X113140000Y-58499000D02*
X118131000Y-58499000D01*
X105278000Y-58459000D02*
X110260000Y-58459000D01*
X113140000Y-58459000D02*
X118122000Y-58459000D01*
X105287000Y-58419000D02*
X110260000Y-58419000D01*
X113140000Y-58419000D02*
X118113000Y-58419000D01*
X105296000Y-58379000D02*
X110260000Y-58379000D01*
X113140000Y-58379000D02*
X118104000Y-58379000D01*
X105306000Y-58339000D02*
X110260000Y-58339000D01*
X113140000Y-58339000D02*
X118094000Y-58339000D01*
X105316000Y-58299000D02*
X110260000Y-58299000D01*
X113140000Y-58299000D02*
X118084000Y-58299000D01*
X105326000Y-58259000D02*
X110260000Y-58259000D01*
X113140000Y-58259000D02*
X118074000Y-58259000D01*
X105336000Y-58219000D02*
X110260000Y-58219000D01*
X113140000Y-58219000D02*
X118064000Y-58219000D01*
X105347000Y-58179000D02*
X110260000Y-58179000D01*
X113140000Y-58179000D02*
X118053000Y-58179000D01*
X105358000Y-58139000D02*
X110260000Y-58139000D01*
X113140000Y-58139000D02*
X118042000Y-58139000D01*
X105369000Y-58099000D02*
X110260000Y-58099000D01*
X113140000Y-58099000D02*
X118031000Y-58099000D01*
X105380000Y-58059000D02*
X110260000Y-58059000D01*
X113140000Y-58059000D02*
X118020000Y-58059000D01*
X105392000Y-58019000D02*
X110260000Y-58019000D01*
X113140000Y-58019000D02*
X118008000Y-58019000D01*
X105404000Y-57979000D02*
X110260000Y-57979000D01*
X113140000Y-57979000D02*
X117996000Y-57979000D01*
X105416000Y-57939000D02*
X110260000Y-57939000D01*
X113140000Y-57939000D02*
X117984000Y-57939000D01*
X105429000Y-57899000D02*
X110260000Y-57899000D01*
X113140000Y-57899000D02*
X117971000Y-57899000D01*
X105442000Y-57859000D02*
X110260000Y-57859000D01*
X113140000Y-57859000D02*
X117958000Y-57859000D01*
X105455000Y-57819000D02*
X110260000Y-57819000D01*
X113140000Y-57819000D02*
X117945000Y-57819000D01*
X105468000Y-57779000D02*
X110260000Y-57779000D01*
X113140000Y-57779000D02*
X117932000Y-57779000D01*
X105482000Y-57739000D02*
X110260000Y-57739000D01*
X113140000Y-57739000D02*
X117918000Y-57739000D01*
X105496000Y-57699000D02*
X110260000Y-57699000D01*
X113140000Y-57699000D02*
X117904000Y-57699000D01*
X105510000Y-57659000D02*
X110260000Y-57659000D01*
X113140000Y-57659000D02*
X117890000Y-57659000D01*
X105525000Y-57619000D02*
X110260000Y-57619000D01*
X113140000Y-57619000D02*
X117875000Y-57619000D01*
X105539000Y-57579000D02*
X110260000Y-57579000D01*
X113140000Y-57579000D02*
X117861000Y-57579000D01*
X105554000Y-57539000D02*
X110260000Y-57539000D01*
X113140000Y-57539000D02*
X117846000Y-57539000D01*
X105570000Y-57499000D02*
X110260000Y-57499000D01*
X113140000Y-57499000D02*
X117830000Y-57499000D01*
X105586000Y-57459000D02*
X110260000Y-57459000D01*
X113140000Y-57459000D02*
X117814000Y-57459000D01*
X105602000Y-57419000D02*
X110260000Y-57419000D01*
X113140000Y-57419000D02*
X117798000Y-57419000D01*
X105618000Y-57379000D02*
X110260000Y-57379000D01*
X113140000Y-57379000D02*
X117782000Y-57379000D01*
X105635000Y-57339000D02*
X110260000Y-57339000D01*
X113140000Y-57339000D02*
X117765000Y-57339000D01*
X105651000Y-57299000D02*
X110260000Y-57299000D01*
X113140000Y-57299000D02*
X117749000Y-57299000D01*
X105669000Y-57259000D02*
X110260000Y-57259000D01*
X113140000Y-57259000D02*
X117731000Y-57259000D01*
X105686000Y-57219000D02*
X110260000Y-57219000D01*
X113140000Y-57219000D02*
X117714000Y-57219000D01*
X105704000Y-57179000D02*
X110260000Y-57179000D01*
X113140000Y-57179000D02*
X117696000Y-57179000D01*
X105722000Y-57139000D02*
X110260000Y-57139000D01*
X113140000Y-57139000D02*
X117678000Y-57139000D01*
X105741000Y-57099000D02*
X110260000Y-57099000D01*
X113140000Y-57099000D02*
X117659000Y-57099000D01*
X105760000Y-57059000D02*
X110260000Y-57059000D01*
X113140000Y-57059000D02*
X117640000Y-57059000D01*
X105779000Y-57019000D02*
X110260000Y-57019000D01*
X113140000Y-57019000D02*
X117621000Y-57019000D01*
X105798000Y-56979000D02*
X110260000Y-56979000D01*
X113140000Y-56979000D02*
X117602000Y-56979000D01*
X105818000Y-56939000D02*
X110260000Y-56939000D01*
X113140000Y-56939000D02*
X117582000Y-56939000D01*
X105838000Y-56899000D02*
X110260000Y-56899000D01*
X113140000Y-56899000D02*
X117562000Y-56899000D01*
X105859000Y-56859000D02*
X110260000Y-56859000D01*
X113140000Y-56859000D02*
X117541000Y-56859000D01*
X105880000Y-56819000D02*
X110260000Y-56819000D01*
X113140000Y-56819000D02*
X117520000Y-56819000D01*
X105901000Y-56779000D02*
X110260000Y-56779000D01*
X113140000Y-56779000D02*
X117499000Y-56779000D01*
X105922000Y-56739000D02*
X110260000Y-56739000D01*
X113140000Y-56739000D02*
X117478000Y-56739000D01*
X105944000Y-56699000D02*
X110260000Y-56699000D01*
X113140000Y-56699000D02*
X117456000Y-56699000D01*
X105967000Y-56659000D02*
X110260000Y-56659000D01*
X113140000Y-56659000D02*
X117433000Y-56659000D01*
X105989000Y-56619000D02*
X110260000Y-56619000D01*
X113140000Y-56619000D02*
X117411000Y-56619000D01*
X106012000Y-56579000D02*
X110260000Y-56579000D01*
X113140000Y-56579000D02*
X117388000Y-56579000D01*
X106036000Y-56539000D02*
X110260000Y-56539000D01*
X113140000Y-56539000D02*
X117364000Y-56539000D01*
X106059000Y-56499000D02*
X110260000Y-56499000D01*
X113140000Y-56499000D02*
X117341000Y-56499000D01*
X106083000Y-56459000D02*
X110260000Y-56459000D01*
X113140000Y-56459000D02*
X117317000Y-56459000D01*
X106108000Y-56419000D02*
X110260000Y-56419000D01*
X113140000Y-56419000D02*
X117292000Y-56419000D01*
X106133000Y-56379000D02*
X110260000Y-56379000D01*
X113140000Y-56379000D02*
X117267000Y-56379000D01*
X106158000Y-56339000D02*
X110260000Y-56339000D01*
X113140000Y-56339000D02*
X117242000Y-56339000D01*
X106184000Y-56299000D02*
X110260000Y-56299000D01*
X113140000Y-56299000D02*
X117216000Y-56299000D01*
X106210000Y-56259000D02*
X110260000Y-56259000D01*
X113140000Y-56259000D02*
X117190000Y-56259000D01*
X106237000Y-56219000D02*
X110260000Y-56219000D01*
X113140000Y-56219000D02*
X117163000Y-56219000D01*
X106264000Y-56179000D02*
X110260000Y-56179000D01*
X113140000Y-56179000D02*
X117136000Y-56179000D01*
X106291000Y-56139000D02*
X110260000Y-56139000D01*
X113140000Y-56139000D02*
X117109000Y-56139000D01*
X106319000Y-56099000D02*
X110260000Y-56099000D01*
X113140000Y-56099000D02*
X117081000Y-56099000D01*
X106347000Y-56059000D02*
X110260000Y-56059000D01*
X113140000Y-56059000D02*
X117053000Y-56059000D01*
X106376000Y-56019000D02*
X110260000Y-56019000D01*
X113140000Y-56019000D02*
X117024000Y-56019000D01*
X106405000Y-55979000D02*
X110260000Y-55979000D01*
X113140000Y-55979000D02*
X116995000Y-55979000D01*
X106435000Y-55939000D02*
X116965000Y-55939000D01*
X106465000Y-55899000D02*
X116935000Y-55899000D01*
X106495000Y-55859000D02*
X116905000Y-55859000D01*
X106526000Y-55819000D02*
X116874000Y-55819000D01*
X106558000Y-55779000D02*
X116842000Y-55779000D01*
X106590000Y-55739000D02*
X116810000Y-55739000D01*
X106622000Y-55699000D02*
X116778000Y-55699000D01*
X106656000Y-55659000D02*
X116744000Y-55659000D01*
X106689000Y-55619000D02*
X116711000Y-55619000D01*
X106723000Y-55579000D02*
X116677000Y-55579000D01*
X106758000Y-55539000D02*
X116642000Y-55539000D01*
X106793000Y-55499000D02*
X116607000Y-55499000D01*
X106829000Y-55459000D02*
X116571000Y-55459000D01*
X106866000Y-55419000D02*
X116534000Y-55419000D01*
X106903000Y-55379000D02*
X116497000Y-55379000D01*
X106940000Y-55339000D02*
X116460000Y-55339000D01*
X106979000Y-55299000D02*
X116421000Y-55299000D01*
X107018000Y-55259000D02*
X116382000Y-55259000D01*
X107057000Y-55219000D02*
X116343000Y-55219000D01*
X107098000Y-55179000D02*
X116302000Y-55179000D01*
X107139000Y-55139000D02*
X116261000Y-55139000D01*
X107181000Y-55099000D02*
X116219000Y-55099000D01*
X107223000Y-55059000D02*
X116177000Y-55059000D01*
X107266000Y-55019000D02*
X116134000Y-55019000D01*
X107310000Y-54979000D02*
X116090000Y-54979000D01*
X107355000Y-54939000D02*
X116045000Y-54939000D01*
X107401000Y-54899000D02*
X115999000Y-54899000D01*
X107447000Y-54859000D02*
X115953000Y-54859000D01*
X107495000Y-54819000D02*
X115905000Y-54819000D01*
X107543000Y-54779000D02*
X115857000Y-54779000D01*
X107592000Y-54739000D02*
X115808000Y-54739000D01*
X107643000Y-54699000D02*
X115757000Y-54699000D01*
X107694000Y-54659000D02*
X115706000Y-54659000D01*
X107746000Y-54619000D02*
X115654000Y-54619000D01*
X107800000Y-54579000D02*
X115600000Y-54579000D01*
X107854000Y-54539000D02*
X115546000Y-54539000D01*
X107910000Y-54499000D02*
X115490000Y-54499000D01*
X107967000Y-54459000D02*
X115433000Y-54459000D01*
X108025000Y-54419000D02*
X115375000Y-54419000D01*
X108085000Y-54379000D02*
X115315000Y-54379000D01*
X108146000Y-54339000D02*
X115254000Y-54339000D01*
X108209000Y-54299000D02*
X115191000Y-54299000D01*
X108273000Y-54259000D02*
X115127000Y-54259000D01*
X108339000Y-54219000D02*
X115061000Y-54219000D01*
X108407000Y-54179000D02*
X114993000Y-54179000D01*
X108477000Y-54139000D02*
X114923000Y-54139000D01*
X108548000Y-54099000D02*
X114852000Y-54099000D01*
X108622000Y-54059000D02*
X114778000Y-54059000D01*
X108698000Y-54019000D02*
X114702000Y-54019000D01*
X108777000Y-53979000D02*
X114623000Y-53979000D01*
X108858000Y-53939000D02*
X114542000Y-53939000D01*
X108942000Y-53899000D02*
X114458000Y-53899000D01*
X109030000Y-53859000D02*
X114370000Y-53859000D01*
X109121000Y-53819000D02*
X114279000Y-53819000D01*
X109216000Y-53779000D02*
X114184000Y-53779000D01*
X109315000Y-53739000D02*
X114085000Y-53739000D01*
X109419000Y-53699000D02*
X113981000Y-53699000D01*
X109529000Y-53659000D02*
X113871000Y-53659000D01*
X109645000Y-53619000D02*
X113755000Y-53619000D01*
X109769000Y-53579000D02*
X113631000Y-53579000D01*
X109902000Y-53539000D02*
X113498000Y-53539000D01*
X110047000Y-53499000D02*
X113353000Y-53499000D01*
X110206000Y-53459000D02*
X113194000Y-53459000D01*
X110385000Y-53419000D02*
X113015000Y-53419000D01*
X110593000Y-53379000D02*
X112807000Y-53379000D01*
X110850000Y-53339000D02*
X112550000Y-53339000D01*
X111225000Y-53299000D02*
X112175000Y-53299000D01*
X107985000Y-66984569D02*
X107985000Y-65684569D01*
X107335000Y-66334569D02*
X108635000Y-66334569D01*
X89666240Y-66562282D02*
G75*
G03X89666240Y-66562282I-12950001J0D01*
G01*
X56066240Y-66562282D02*
G75*
G03X56066240Y-66562282I-12950001J0D01*
G01*
X51500000Y-97700000D02*
X52900000Y-97700000D01*
X53600000Y-98400000D02*
X53600000Y-99000000D01*
X52900000Y-99700000D02*
X51500000Y-99700000D01*
X50800000Y-99000000D02*
X50800000Y-98400000D01*
X50800000Y-98400000D02*
G75*
G02X51500000Y-97700000I700000J0D01*
G01*
X51500000Y-99700000D02*
G75*
G02X50800000Y-99000000I0J700000D01*
G01*
X53600000Y-99000000D02*
G75*
G02X52900000Y-99700000I-700000J0D01*
G01*
X52900000Y-97700000D02*
G75*
G02X53600000Y-98400000I0J-700000D01*
G01*
X104320000Y-59900000D02*
G75*
G03X104320000Y-59900000I-5120000J0D01*
G01*
X94120000Y-59900000D02*
X104280000Y-59900000D01*
X94120000Y-59860000D02*
X104280000Y-59860000D01*
X94120000Y-59820000D02*
X104280000Y-59820000D01*
X94121000Y-59780000D02*
X104279000Y-59780000D01*
X94122000Y-59740000D02*
X104278000Y-59740000D01*
X94123000Y-59700000D02*
X104277000Y-59700000D01*
X94125000Y-59660000D02*
X104275000Y-59660000D01*
X94127000Y-59620000D02*
X104273000Y-59620000D01*
X94130000Y-59580000D02*
X104270000Y-59580000D01*
X94132000Y-59540000D02*
X104268000Y-59540000D01*
X94135000Y-59500000D02*
X104265000Y-59500000D01*
X94138000Y-59460000D02*
X104262000Y-59460000D01*
X94142000Y-59420000D02*
X104258000Y-59420000D01*
X94146000Y-59380000D02*
X104254000Y-59380000D01*
X94150000Y-59340000D02*
X104250000Y-59340000D01*
X94155000Y-59300000D02*
X104245000Y-59300000D01*
X94160000Y-59260000D02*
X104240000Y-59260000D01*
X94165000Y-59220000D02*
X104235000Y-59220000D01*
X94170000Y-59179000D02*
X104230000Y-59179000D01*
X94176000Y-59139000D02*
X104224000Y-59139000D01*
X94182000Y-59099000D02*
X104218000Y-59099000D01*
X94189000Y-59059000D02*
X104211000Y-59059000D01*
X94196000Y-59019000D02*
X104204000Y-59019000D01*
X94203000Y-58979000D02*
X104197000Y-58979000D01*
X94210000Y-58939000D02*
X104190000Y-58939000D01*
X94218000Y-58899000D02*
X104182000Y-58899000D01*
X94226000Y-58859000D02*
X104174000Y-58859000D01*
X94235000Y-58819000D02*
X104165000Y-58819000D01*
X94244000Y-58779000D02*
X104156000Y-58779000D01*
X94253000Y-58739000D02*
X104147000Y-58739000D01*
X94262000Y-58699000D02*
X104138000Y-58699000D01*
X94272000Y-58659000D02*
X104128000Y-58659000D01*
X94282000Y-58619000D02*
X97959000Y-58619000D01*
X100441000Y-58619000D02*
X104118000Y-58619000D01*
X94293000Y-58579000D02*
X97959000Y-58579000D01*
X100441000Y-58579000D02*
X104107000Y-58579000D01*
X94303000Y-58539000D02*
X97959000Y-58539000D01*
X100441000Y-58539000D02*
X104097000Y-58539000D01*
X94315000Y-58499000D02*
X97959000Y-58499000D01*
X100441000Y-58499000D02*
X104085000Y-58499000D01*
X94326000Y-58459000D02*
X97959000Y-58459000D01*
X100441000Y-58459000D02*
X104074000Y-58459000D01*
X94338000Y-58419000D02*
X97959000Y-58419000D01*
X100441000Y-58419000D02*
X104062000Y-58419000D01*
X94350000Y-58379000D02*
X97959000Y-58379000D01*
X100441000Y-58379000D02*
X104050000Y-58379000D01*
X94363000Y-58339000D02*
X97959000Y-58339000D01*
X100441000Y-58339000D02*
X104037000Y-58339000D01*
X94376000Y-58299000D02*
X97959000Y-58299000D01*
X100441000Y-58299000D02*
X104024000Y-58299000D01*
X94389000Y-58259000D02*
X97959000Y-58259000D01*
X100441000Y-58259000D02*
X104011000Y-58259000D01*
X94403000Y-58219000D02*
X97959000Y-58219000D01*
X100441000Y-58219000D02*
X103997000Y-58219000D01*
X94417000Y-58179000D02*
X97959000Y-58179000D01*
X100441000Y-58179000D02*
X103983000Y-58179000D01*
X94432000Y-58139000D02*
X97959000Y-58139000D01*
X100441000Y-58139000D02*
X103968000Y-58139000D01*
X94446000Y-58099000D02*
X97959000Y-58099000D01*
X100441000Y-58099000D02*
X103954000Y-58099000D01*
X94462000Y-58059000D02*
X97959000Y-58059000D01*
X100441000Y-58059000D02*
X103938000Y-58059000D01*
X94477000Y-58019000D02*
X97959000Y-58019000D01*
X100441000Y-58019000D02*
X103923000Y-58019000D01*
X94493000Y-57979000D02*
X97959000Y-57979000D01*
X100441000Y-57979000D02*
X103907000Y-57979000D01*
X94510000Y-57939000D02*
X97959000Y-57939000D01*
X100441000Y-57939000D02*
X103890000Y-57939000D01*
X94526000Y-57899000D02*
X97959000Y-57899000D01*
X100441000Y-57899000D02*
X103874000Y-57899000D01*
X94543000Y-57859000D02*
X97959000Y-57859000D01*
X100441000Y-57859000D02*
X103857000Y-57859000D01*
X94561000Y-57819000D02*
X97959000Y-57819000D01*
X100441000Y-57819000D02*
X103839000Y-57819000D01*
X94579000Y-57779000D02*
X97959000Y-57779000D01*
X100441000Y-57779000D02*
X103821000Y-57779000D01*
X94597000Y-57739000D02*
X97959000Y-57739000D01*
X100441000Y-57739000D02*
X103803000Y-57739000D01*
X94616000Y-57699000D02*
X97959000Y-57699000D01*
X100441000Y-57699000D02*
X103784000Y-57699000D01*
X94636000Y-57659000D02*
X97959000Y-57659000D01*
X100441000Y-57659000D02*
X103764000Y-57659000D01*
X94655000Y-57619000D02*
X97959000Y-57619000D01*
X100441000Y-57619000D02*
X103745000Y-57619000D01*
X94675000Y-57579000D02*
X97959000Y-57579000D01*
X100441000Y-57579000D02*
X103725000Y-57579000D01*
X94696000Y-57539000D02*
X97959000Y-57539000D01*
X100441000Y-57539000D02*
X103704000Y-57539000D01*
X94717000Y-57499000D02*
X97959000Y-57499000D01*
X100441000Y-57499000D02*
X103683000Y-57499000D01*
X94738000Y-57459000D02*
X97959000Y-57459000D01*
X100441000Y-57459000D02*
X103662000Y-57459000D01*
X94760000Y-57419000D02*
X97959000Y-57419000D01*
X100441000Y-57419000D02*
X103640000Y-57419000D01*
X94783000Y-57379000D02*
X97959000Y-57379000D01*
X100441000Y-57379000D02*
X103617000Y-57379000D01*
X94805000Y-57339000D02*
X97959000Y-57339000D01*
X100441000Y-57339000D02*
X103595000Y-57339000D01*
X94829000Y-57299000D02*
X97959000Y-57299000D01*
X100441000Y-57299000D02*
X103571000Y-57299000D01*
X94853000Y-57259000D02*
X97959000Y-57259000D01*
X100441000Y-57259000D02*
X103547000Y-57259000D01*
X94877000Y-57219000D02*
X97959000Y-57219000D01*
X100441000Y-57219000D02*
X103523000Y-57219000D01*
X94902000Y-57179000D02*
X97959000Y-57179000D01*
X100441000Y-57179000D02*
X103498000Y-57179000D01*
X94927000Y-57139000D02*
X97959000Y-57139000D01*
X100441000Y-57139000D02*
X103473000Y-57139000D01*
X94953000Y-57099000D02*
X97959000Y-57099000D01*
X100441000Y-57099000D02*
X103447000Y-57099000D01*
X94979000Y-57059000D02*
X97959000Y-57059000D01*
X100441000Y-57059000D02*
X103421000Y-57059000D01*
X95006000Y-57019000D02*
X97959000Y-57019000D01*
X100441000Y-57019000D02*
X103394000Y-57019000D01*
X95034000Y-56979000D02*
X97959000Y-56979000D01*
X100441000Y-56979000D02*
X103366000Y-56979000D01*
X95062000Y-56939000D02*
X97959000Y-56939000D01*
X100441000Y-56939000D02*
X103338000Y-56939000D01*
X95090000Y-56899000D02*
X97959000Y-56899000D01*
X100441000Y-56899000D02*
X103310000Y-56899000D01*
X95120000Y-56859000D02*
X97959000Y-56859000D01*
X100441000Y-56859000D02*
X103280000Y-56859000D01*
X95150000Y-56819000D02*
X97959000Y-56819000D01*
X100441000Y-56819000D02*
X103250000Y-56819000D01*
X95180000Y-56779000D02*
X97959000Y-56779000D01*
X100441000Y-56779000D02*
X103220000Y-56779000D01*
X95211000Y-56739000D02*
X97959000Y-56739000D01*
X100441000Y-56739000D02*
X103189000Y-56739000D01*
X95243000Y-56699000D02*
X97959000Y-56699000D01*
X100441000Y-56699000D02*
X103157000Y-56699000D01*
X95275000Y-56659000D02*
X97959000Y-56659000D01*
X100441000Y-56659000D02*
X103125000Y-56659000D01*
X95308000Y-56619000D02*
X97959000Y-56619000D01*
X100441000Y-56619000D02*
X103092000Y-56619000D01*
X95342000Y-56579000D02*
X97959000Y-56579000D01*
X100441000Y-56579000D02*
X103058000Y-56579000D01*
X95376000Y-56539000D02*
X97959000Y-56539000D01*
X100441000Y-56539000D02*
X103024000Y-56539000D01*
X95411000Y-56499000D02*
X97959000Y-56499000D01*
X100441000Y-56499000D02*
X102989000Y-56499000D01*
X95447000Y-56459000D02*
X97959000Y-56459000D01*
X100441000Y-56459000D02*
X102953000Y-56459000D01*
X95484000Y-56419000D02*
X97959000Y-56419000D01*
X100441000Y-56419000D02*
X102916000Y-56419000D01*
X95521000Y-56379000D02*
X97959000Y-56379000D01*
X100441000Y-56379000D02*
X102879000Y-56379000D01*
X95560000Y-56339000D02*
X97959000Y-56339000D01*
X100441000Y-56339000D02*
X102840000Y-56339000D01*
X95599000Y-56299000D02*
X97959000Y-56299000D01*
X100441000Y-56299000D02*
X102801000Y-56299000D01*
X95639000Y-56259000D02*
X97959000Y-56259000D01*
X100441000Y-56259000D02*
X102761000Y-56259000D01*
X95680000Y-56219000D02*
X97959000Y-56219000D01*
X100441000Y-56219000D02*
X102720000Y-56219000D01*
X95722000Y-56179000D02*
X97959000Y-56179000D01*
X100441000Y-56179000D02*
X102678000Y-56179000D01*
X95764000Y-56139000D02*
X102636000Y-56139000D01*
X95808000Y-56099000D02*
X102592000Y-56099000D01*
X95853000Y-56059000D02*
X102547000Y-56059000D01*
X95899000Y-56019000D02*
X102501000Y-56019000D01*
X95946000Y-55979000D02*
X102454000Y-55979000D01*
X95994000Y-55939000D02*
X102406000Y-55939000D01*
X96044000Y-55899000D02*
X102356000Y-55899000D01*
X96094000Y-55859000D02*
X102306000Y-55859000D01*
X96146000Y-55819000D02*
X102254000Y-55819000D01*
X96200000Y-55779000D02*
X102200000Y-55779000D01*
X96255000Y-55739000D02*
X102145000Y-55739000D01*
X96311000Y-55699000D02*
X102089000Y-55699000D01*
X96370000Y-55659000D02*
X102030000Y-55659000D01*
X96430000Y-55619000D02*
X101970000Y-55619000D01*
X96491000Y-55579000D02*
X101909000Y-55579000D01*
X96555000Y-55539000D02*
X101845000Y-55539000D01*
X96621000Y-55499000D02*
X101779000Y-55499000D01*
X96690000Y-55459000D02*
X101710000Y-55459000D01*
X96761000Y-55419000D02*
X101639000Y-55419000D01*
X96835000Y-55379000D02*
X101565000Y-55379000D01*
X96911000Y-55339000D02*
X101489000Y-55339000D01*
X96991000Y-55299000D02*
X101409000Y-55299000D01*
X97075000Y-55259000D02*
X101325000Y-55259000D01*
X97163000Y-55219000D02*
X101237000Y-55219000D01*
X97256000Y-55179000D02*
X101144000Y-55179000D01*
X97354000Y-55139000D02*
X101046000Y-55139000D01*
X97458000Y-55099000D02*
X100942000Y-55099000D01*
X97570000Y-55059000D02*
X100830000Y-55059000D01*
X97690000Y-55019000D02*
X100710000Y-55019000D01*
X97822000Y-54979000D02*
X100578000Y-54979000D01*
X97970000Y-54939000D02*
X100430000Y-54939000D01*
X98138000Y-54899000D02*
X100262000Y-54899000D01*
X98338000Y-54859000D02*
X100062000Y-54859000D01*
X98601000Y-54819000D02*
X99799000Y-54819000D01*
X96325000Y-65379646D02*
X96325000Y-64379646D01*
X95825000Y-64879646D02*
X96825000Y-64879646D01*
X74654000Y-89364759D02*
X74024000Y-89364759D01*
X74339000Y-89049759D02*
X74339000Y-89679759D01*
X72902000Y-95791000D02*
X72098000Y-95791000D01*
X73133000Y-95751000D02*
X71867000Y-95751000D01*
X73302000Y-95711000D02*
X71698000Y-95711000D01*
X73440000Y-95671000D02*
X71560000Y-95671000D01*
X73559000Y-95631000D02*
X71441000Y-95631000D01*
X73665000Y-95591000D02*
X71335000Y-95591000D01*
X73762000Y-95551000D02*
X71238000Y-95551000D01*
X73850000Y-95511000D02*
X71150000Y-95511000D01*
X73932000Y-95471000D02*
X71068000Y-95471000D01*
X74009000Y-95431000D02*
X70991000Y-95431000D01*
X74081000Y-95391000D02*
X70919000Y-95391000D01*
X74150000Y-95351000D02*
X70850000Y-95351000D01*
X74214000Y-95311000D02*
X70786000Y-95311000D01*
X74276000Y-95271000D02*
X70724000Y-95271000D01*
X74334000Y-95231000D02*
X70666000Y-95231000D01*
X74390000Y-95191000D02*
X70610000Y-95191000D01*
X74444000Y-95151000D02*
X70556000Y-95151000D01*
X74495000Y-95111000D02*
X70505000Y-95111000D01*
X74544000Y-95071000D02*
X70456000Y-95071000D01*
X74592000Y-95031000D02*
X70408000Y-95031000D01*
X74637000Y-94991000D02*
X70363000Y-94991000D01*
X74682000Y-94951000D02*
X70318000Y-94951000D01*
X74724000Y-94911000D02*
X70276000Y-94911000D01*
X74765000Y-94871000D02*
X70235000Y-94871000D01*
X71460000Y-94831000D02*
X70195000Y-94831000D01*
X74805000Y-94831000D02*
X73540000Y-94831000D01*
X71460000Y-94791000D02*
X70157000Y-94791000D01*
X74843000Y-94791000D02*
X73540000Y-94791000D01*
X71460000Y-94751000D02*
X70120000Y-94751000D01*
X74880000Y-94751000D02*
X73540000Y-94751000D01*
X71460000Y-94711000D02*
X70084000Y-94711000D01*
X74916000Y-94711000D02*
X73540000Y-94711000D01*
X71460000Y-94671000D02*
X70050000Y-94671000D01*
X74950000Y-94671000D02*
X73540000Y-94671000D01*
X71460000Y-94631000D02*
X70016000Y-94631000D01*
X74984000Y-94631000D02*
X73540000Y-94631000D01*
X71460000Y-94591000D02*
X69984000Y-94591000D01*
X75016000Y-94591000D02*
X73540000Y-94591000D01*
X71460000Y-94551000D02*
X69952000Y-94551000D01*
X75048000Y-94551000D02*
X73540000Y-94551000D01*
X71460000Y-94511000D02*
X69922000Y-94511000D01*
X75078000Y-94511000D02*
X73540000Y-94511000D01*
X71460000Y-94471000D02*
X69893000Y-94471000D01*
X75107000Y-94471000D02*
X73540000Y-94471000D01*
X71460000Y-94431000D02*
X69864000Y-94431000D01*
X75136000Y-94431000D02*
X73540000Y-94431000D01*
X71460000Y-94391000D02*
X69836000Y-94391000D01*
X75164000Y-94391000D02*
X73540000Y-94391000D01*
X71460000Y-94351000D02*
X69810000Y-94351000D01*
X75190000Y-94351000D02*
X73540000Y-94351000D01*
X71460000Y-94311000D02*
X69784000Y-94311000D01*
X75216000Y-94311000D02*
X73540000Y-94311000D01*
X71460000Y-94271000D02*
X69758000Y-94271000D01*
X75242000Y-94271000D02*
X73540000Y-94271000D01*
X71460000Y-94231000D02*
X69734000Y-94231000D01*
X75266000Y-94231000D02*
X73540000Y-94231000D01*
X71460000Y-94191000D02*
X69710000Y-94191000D01*
X75290000Y-94191000D02*
X73540000Y-94191000D01*
X71460000Y-94151000D02*
X69688000Y-94151000D01*
X75312000Y-94151000D02*
X73540000Y-94151000D01*
X71460000Y-94111000D02*
X69666000Y-94111000D01*
X75334000Y-94111000D02*
X73540000Y-94111000D01*
X71460000Y-94071000D02*
X69644000Y-94071000D01*
X75356000Y-94071000D02*
X73540000Y-94071000D01*
X71460000Y-94031000D02*
X69624000Y-94031000D01*
X75376000Y-94031000D02*
X73540000Y-94031000D01*
X71460000Y-93991000D02*
X69604000Y-93991000D01*
X75396000Y-93991000D02*
X73540000Y-93991000D01*
X71460000Y-93951000D02*
X69584000Y-93951000D01*
X75416000Y-93951000D02*
X73540000Y-93951000D01*
X71460000Y-93911000D02*
X69566000Y-93911000D01*
X75434000Y-93911000D02*
X73540000Y-93911000D01*
X71460000Y-93871000D02*
X69548000Y-93871000D01*
X75452000Y-93871000D02*
X73540000Y-93871000D01*
X71460000Y-93831000D02*
X69530000Y-93831000D01*
X75470000Y-93831000D02*
X73540000Y-93831000D01*
X71460000Y-93791000D02*
X69514000Y-93791000D01*
X75486000Y-93791000D02*
X73540000Y-93791000D01*
X71460000Y-93751000D02*
X69498000Y-93751000D01*
X75502000Y-93751000D02*
X73540000Y-93751000D01*
X71460000Y-93711000D02*
X69482000Y-93711000D01*
X75518000Y-93711000D02*
X73540000Y-93711000D01*
X71460000Y-93671000D02*
X69467000Y-93671000D01*
X75533000Y-93671000D02*
X73540000Y-93671000D01*
X71460000Y-93631000D02*
X69453000Y-93631000D01*
X75547000Y-93631000D02*
X73540000Y-93631000D01*
X71460000Y-93591000D02*
X69439000Y-93591000D01*
X75561000Y-93591000D02*
X73540000Y-93591000D01*
X71460000Y-93551000D02*
X69426000Y-93551000D01*
X75574000Y-93551000D02*
X73540000Y-93551000D01*
X71460000Y-93511000D02*
X69414000Y-93511000D01*
X75586000Y-93511000D02*
X73540000Y-93511000D01*
X71460000Y-93471000D02*
X69402000Y-93471000D01*
X75598000Y-93471000D02*
X73540000Y-93471000D01*
X71460000Y-93431000D02*
X69390000Y-93431000D01*
X75610000Y-93431000D02*
X73540000Y-93431000D01*
X71460000Y-93391000D02*
X69379000Y-93391000D01*
X75621000Y-93391000D02*
X73540000Y-93391000D01*
X71460000Y-93351000D02*
X69369000Y-93351000D01*
X75631000Y-93351000D02*
X73540000Y-93351000D01*
X71460000Y-93311000D02*
X69359000Y-93311000D01*
X75641000Y-93311000D02*
X73540000Y-93311000D01*
X71460000Y-93271000D02*
X69350000Y-93271000D01*
X75650000Y-93271000D02*
X73540000Y-93271000D01*
X71460000Y-93230000D02*
X69341000Y-93230000D01*
X75659000Y-93230000D02*
X73540000Y-93230000D01*
X71460000Y-93190000D02*
X69333000Y-93190000D01*
X75667000Y-93190000D02*
X73540000Y-93190000D01*
X71460000Y-93150000D02*
X69325000Y-93150000D01*
X75675000Y-93150000D02*
X73540000Y-93150000D01*
X71460000Y-93110000D02*
X69318000Y-93110000D01*
X75682000Y-93110000D02*
X73540000Y-93110000D01*
X71460000Y-93070000D02*
X69311000Y-93070000D01*
X75689000Y-93070000D02*
X73540000Y-93070000D01*
X71460000Y-93030000D02*
X69305000Y-93030000D01*
X75695000Y-93030000D02*
X73540000Y-93030000D01*
X71460000Y-92990000D02*
X69299000Y-92990000D01*
X75701000Y-92990000D02*
X73540000Y-92990000D01*
X71460000Y-92950000D02*
X69294000Y-92950000D01*
X75706000Y-92950000D02*
X73540000Y-92950000D01*
X71460000Y-92910000D02*
X69289000Y-92910000D01*
X75711000Y-92910000D02*
X73540000Y-92910000D01*
X71460000Y-92870000D02*
X69285000Y-92870000D01*
X75715000Y-92870000D02*
X73540000Y-92870000D01*
X71460000Y-92830000D02*
X69282000Y-92830000D01*
X75718000Y-92830000D02*
X73540000Y-92830000D01*
X71460000Y-92790000D02*
X69278000Y-92790000D01*
X75722000Y-92790000D02*
X73540000Y-92790000D01*
X75724000Y-92750000D02*
X69276000Y-92750000D01*
X75727000Y-92710000D02*
X69273000Y-92710000D01*
X75728000Y-92670000D02*
X69272000Y-92670000D01*
X75730000Y-92630000D02*
X69270000Y-92630000D01*
X75730000Y-92590000D02*
X69270000Y-92590000D01*
X75730000Y-92550000D02*
X69270000Y-92550000D01*
X75770000Y-92550000D02*
G75*
G03X75770000Y-92550000I-3270000J0D01*
G01*
X31380000Y-78980000D02*
X39120000Y-78980000D01*
X31380000Y-84220000D02*
X39120000Y-84220000D01*
X31380000Y-78980000D02*
X31380000Y-80344000D01*
X31380000Y-82856000D02*
X31380000Y-84220000D01*
X39120000Y-78980000D02*
X39120000Y-80344000D01*
X39120000Y-82856000D02*
X39120000Y-84220000D01*
X92440000Y-62940000D02*
X92770000Y-62940000D01*
X92770000Y-62940000D02*
X92770000Y-69480000D01*
X92770000Y-69480000D02*
X92440000Y-69480000D01*
X90360000Y-62940000D02*
X90030000Y-62940000D01*
X90030000Y-62940000D02*
X90030000Y-69480000D01*
X90030000Y-69480000D02*
X90360000Y-69480000D01*
X61420000Y-53130000D02*
X61420000Y-53460000D01*
X67960000Y-53130000D02*
X61420000Y-53130000D01*
X67960000Y-53460000D02*
X67960000Y-53130000D01*
X61420000Y-55870000D02*
X61420000Y-55540000D01*
X67960000Y-55870000D02*
X61420000Y-55870000D01*
X67960000Y-55540000D02*
X67960000Y-55870000D01*
X96840000Y-68040000D02*
X97170000Y-68040000D01*
X97170000Y-68040000D02*
X97170000Y-74580000D01*
X97170000Y-74580000D02*
X96840000Y-74580000D01*
X94760000Y-68040000D02*
X94430000Y-68040000D01*
X94430000Y-68040000D02*
X94430000Y-74580000D01*
X94430000Y-74580000D02*
X94760000Y-74580000D01*
X77980000Y-85770000D02*
X77980000Y-85440000D01*
X71440000Y-85770000D02*
X77980000Y-85770000D01*
X71440000Y-85440000D02*
X71440000Y-85770000D01*
X77980000Y-83030000D02*
X77980000Y-83360000D01*
X71440000Y-83030000D02*
X77980000Y-83030000D01*
X71440000Y-83360000D02*
X71440000Y-83030000D01*
X92860000Y-55540000D02*
X92860000Y-55870000D01*
X92860000Y-55870000D02*
X86320000Y-55870000D01*
X86320000Y-55870000D02*
X86320000Y-55540000D01*
X92860000Y-53460000D02*
X92860000Y-53130000D01*
X92860000Y-53130000D02*
X86320000Y-53130000D01*
X86320000Y-53130000D02*
X86320000Y-53460000D01*
X98260000Y-74560000D02*
X97930000Y-74560000D01*
X97930000Y-74560000D02*
X97930000Y-68020000D01*
X97930000Y-68020000D02*
X98260000Y-68020000D01*
X100340000Y-74560000D02*
X100670000Y-74560000D01*
X100670000Y-74560000D02*
X100670000Y-68020000D01*
X100670000Y-68020000D02*
X100340000Y-68020000D01*
X56330000Y-70780000D02*
X56660000Y-70780000D01*
X56330000Y-64240000D02*
X56330000Y-70780000D01*
X56660000Y-64240000D02*
X56330000Y-64240000D01*
X59070000Y-70780000D02*
X58740000Y-70780000D01*
X59070000Y-64240000D02*
X59070000Y-70780000D01*
X58740000Y-64240000D02*
X59070000Y-64240000D01*
X56660000Y-80560000D02*
X56330000Y-80560000D01*
X56330000Y-80560000D02*
X56330000Y-74020000D01*
X56330000Y-74020000D02*
X56660000Y-74020000D01*
X58740000Y-80560000D02*
X59070000Y-80560000D01*
X59070000Y-80560000D02*
X59070000Y-74020000D01*
X59070000Y-74020000D02*
X58740000Y-74020000D01*
X53580000Y-82370000D02*
X53580000Y-82040000D01*
X47040000Y-82370000D02*
X53580000Y-82370000D01*
X47040000Y-82040000D02*
X47040000Y-82370000D01*
X53580000Y-79630000D02*
X53580000Y-79960000D01*
X47040000Y-79630000D02*
X53580000Y-79630000D01*
X47040000Y-79960000D02*
X47040000Y-79630000D01*
X56840000Y-82960000D02*
X56840000Y-82630000D01*
X56840000Y-82630000D02*
X63380000Y-82630000D01*
X63380000Y-82630000D02*
X63380000Y-82960000D01*
X56840000Y-85040000D02*
X56840000Y-85370000D01*
X56840000Y-85370000D02*
X63380000Y-85370000D01*
X63380000Y-85370000D02*
X63380000Y-85040000D01*
X53580000Y-85470000D02*
X53580000Y-85140000D01*
X47040000Y-85470000D02*
X53580000Y-85470000D01*
X47040000Y-85140000D02*
X47040000Y-85470000D01*
X53580000Y-82730000D02*
X53580000Y-83060000D01*
X47040000Y-82730000D02*
X53580000Y-82730000D01*
X47040000Y-83060000D02*
X47040000Y-82730000D01*
X103120000Y-73730000D02*
X103120000Y-74060000D01*
X109660000Y-73730000D02*
X103120000Y-73730000D01*
X109660000Y-74060000D02*
X109660000Y-73730000D01*
X103120000Y-76470000D02*
X103120000Y-76140000D01*
X109660000Y-76470000D02*
X103120000Y-76470000D01*
X109660000Y-76140000D02*
X109660000Y-76470000D01*
X59620000Y-56400000D02*
G75*
G03X59620000Y-56400000I-3270000J0D01*
G01*
X56350000Y-59630000D02*
X56350000Y-53170000D01*
X56310000Y-59630000D02*
X56310000Y-53170000D01*
X56270000Y-59630000D02*
X56270000Y-53170000D01*
X56230000Y-59628000D02*
X56230000Y-53172000D01*
X56190000Y-59627000D02*
X56190000Y-53173000D01*
X56150000Y-59624000D02*
X56150000Y-53176000D01*
X56110000Y-59622000D02*
X56110000Y-57440000D01*
X56110000Y-55360000D02*
X56110000Y-53178000D01*
X56070000Y-59618000D02*
X56070000Y-57440000D01*
X56070000Y-55360000D02*
X56070000Y-53182000D01*
X56030000Y-59615000D02*
X56030000Y-57440000D01*
X56030000Y-55360000D02*
X56030000Y-53185000D01*
X55990000Y-59611000D02*
X55990000Y-57440000D01*
X55990000Y-55360000D02*
X55990000Y-53189000D01*
X55950000Y-59606000D02*
X55950000Y-57440000D01*
X55950000Y-55360000D02*
X55950000Y-53194000D01*
X55910000Y-59601000D02*
X55910000Y-57440000D01*
X55910000Y-55360000D02*
X55910000Y-53199000D01*
X55870000Y-59595000D02*
X55870000Y-57440000D01*
X55870000Y-55360000D02*
X55870000Y-53205000D01*
X55830000Y-59589000D02*
X55830000Y-57440000D01*
X55830000Y-55360000D02*
X55830000Y-53211000D01*
X55790000Y-59582000D02*
X55790000Y-57440000D01*
X55790000Y-55360000D02*
X55790000Y-53218000D01*
X55750000Y-59575000D02*
X55750000Y-57440000D01*
X55750000Y-55360000D02*
X55750000Y-53225000D01*
X55710000Y-59567000D02*
X55710000Y-57440000D01*
X55710000Y-55360000D02*
X55710000Y-53233000D01*
X55670000Y-59559000D02*
X55670000Y-57440000D01*
X55670000Y-55360000D02*
X55670000Y-53241000D01*
X55629000Y-59550000D02*
X55629000Y-57440000D01*
X55629000Y-55360000D02*
X55629000Y-53250000D01*
X55589000Y-59541000D02*
X55589000Y-57440000D01*
X55589000Y-55360000D02*
X55589000Y-53259000D01*
X55549000Y-59531000D02*
X55549000Y-57440000D01*
X55549000Y-55360000D02*
X55549000Y-53269000D01*
X55509000Y-59521000D02*
X55509000Y-57440000D01*
X55509000Y-55360000D02*
X55509000Y-53279000D01*
X55469000Y-59510000D02*
X55469000Y-57440000D01*
X55469000Y-55360000D02*
X55469000Y-53290000D01*
X55429000Y-59498000D02*
X55429000Y-57440000D01*
X55429000Y-55360000D02*
X55429000Y-53302000D01*
X55389000Y-59486000D02*
X55389000Y-57440000D01*
X55389000Y-55360000D02*
X55389000Y-53314000D01*
X55349000Y-59474000D02*
X55349000Y-57440000D01*
X55349000Y-55360000D02*
X55349000Y-53326000D01*
X55309000Y-59461000D02*
X55309000Y-57440000D01*
X55309000Y-55360000D02*
X55309000Y-53339000D01*
X55269000Y-59447000D02*
X55269000Y-57440000D01*
X55269000Y-55360000D02*
X55269000Y-53353000D01*
X55229000Y-59433000D02*
X55229000Y-57440000D01*
X55229000Y-55360000D02*
X55229000Y-53367000D01*
X55189000Y-59418000D02*
X55189000Y-57440000D01*
X55189000Y-55360000D02*
X55189000Y-53382000D01*
X55149000Y-59402000D02*
X55149000Y-57440000D01*
X55149000Y-55360000D02*
X55149000Y-53398000D01*
X55109000Y-59386000D02*
X55109000Y-57440000D01*
X55109000Y-55360000D02*
X55109000Y-53414000D01*
X55069000Y-59370000D02*
X55069000Y-57440000D01*
X55069000Y-55360000D02*
X55069000Y-53430000D01*
X55029000Y-59352000D02*
X55029000Y-57440000D01*
X55029000Y-55360000D02*
X55029000Y-53448000D01*
X54989000Y-59334000D02*
X54989000Y-57440000D01*
X54989000Y-55360000D02*
X54989000Y-53466000D01*
X54949000Y-59316000D02*
X54949000Y-57440000D01*
X54949000Y-55360000D02*
X54949000Y-53484000D01*
X54909000Y-59296000D02*
X54909000Y-57440000D01*
X54909000Y-55360000D02*
X54909000Y-53504000D01*
X54869000Y-59276000D02*
X54869000Y-57440000D01*
X54869000Y-55360000D02*
X54869000Y-53524000D01*
X54829000Y-59256000D02*
X54829000Y-57440000D01*
X54829000Y-55360000D02*
X54829000Y-53544000D01*
X54789000Y-59234000D02*
X54789000Y-57440000D01*
X54789000Y-55360000D02*
X54789000Y-53566000D01*
X54749000Y-59212000D02*
X54749000Y-57440000D01*
X54749000Y-55360000D02*
X54749000Y-53588000D01*
X54709000Y-59190000D02*
X54709000Y-57440000D01*
X54709000Y-55360000D02*
X54709000Y-53610000D01*
X54669000Y-59166000D02*
X54669000Y-57440000D01*
X54669000Y-55360000D02*
X54669000Y-53634000D01*
X54629000Y-59142000D02*
X54629000Y-57440000D01*
X54629000Y-55360000D02*
X54629000Y-53658000D01*
X54589000Y-59116000D02*
X54589000Y-57440000D01*
X54589000Y-55360000D02*
X54589000Y-53684000D01*
X54549000Y-59090000D02*
X54549000Y-57440000D01*
X54549000Y-55360000D02*
X54549000Y-53710000D01*
X54509000Y-59064000D02*
X54509000Y-57440000D01*
X54509000Y-55360000D02*
X54509000Y-53736000D01*
X54469000Y-59036000D02*
X54469000Y-57440000D01*
X54469000Y-55360000D02*
X54469000Y-53764000D01*
X54429000Y-59007000D02*
X54429000Y-57440000D01*
X54429000Y-55360000D02*
X54429000Y-53793000D01*
X54389000Y-58978000D02*
X54389000Y-57440000D01*
X54389000Y-55360000D02*
X54389000Y-53822000D01*
X54349000Y-58948000D02*
X54349000Y-57440000D01*
X54349000Y-55360000D02*
X54349000Y-53852000D01*
X54309000Y-58916000D02*
X54309000Y-57440000D01*
X54309000Y-55360000D02*
X54309000Y-53884000D01*
X54269000Y-58884000D02*
X54269000Y-57440000D01*
X54269000Y-55360000D02*
X54269000Y-53916000D01*
X54229000Y-58850000D02*
X54229000Y-57440000D01*
X54229000Y-55360000D02*
X54229000Y-53950000D01*
X54189000Y-58816000D02*
X54189000Y-57440000D01*
X54189000Y-55360000D02*
X54189000Y-53984000D01*
X54149000Y-58780000D02*
X54149000Y-57440000D01*
X54149000Y-55360000D02*
X54149000Y-54020000D01*
X54109000Y-58743000D02*
X54109000Y-57440000D01*
X54109000Y-55360000D02*
X54109000Y-54057000D01*
X54069000Y-58705000D02*
X54069000Y-57440000D01*
X54069000Y-55360000D02*
X54069000Y-54095000D01*
X54029000Y-58665000D02*
X54029000Y-54135000D01*
X53989000Y-58624000D02*
X53989000Y-54176000D01*
X53949000Y-58582000D02*
X53949000Y-54218000D01*
X53909000Y-58537000D02*
X53909000Y-54263000D01*
X53869000Y-58492000D02*
X53869000Y-54308000D01*
X53829000Y-58444000D02*
X53829000Y-54356000D01*
X53789000Y-58395000D02*
X53789000Y-54405000D01*
X53749000Y-58344000D02*
X53749000Y-54456000D01*
X53709000Y-58290000D02*
X53709000Y-54510000D01*
X53669000Y-58234000D02*
X53669000Y-54566000D01*
X53629000Y-58176000D02*
X53629000Y-54624000D01*
X53589000Y-58114000D02*
X53589000Y-54686000D01*
X53549000Y-58050000D02*
X53549000Y-54750000D01*
X53509000Y-57981000D02*
X53509000Y-54819000D01*
X53469000Y-57909000D02*
X53469000Y-54891000D01*
X53429000Y-57832000D02*
X53429000Y-54968000D01*
X53389000Y-57750000D02*
X53389000Y-55050000D01*
X53349000Y-57662000D02*
X53349000Y-55138000D01*
X53309000Y-57565000D02*
X53309000Y-55235000D01*
X53269000Y-57459000D02*
X53269000Y-55341000D01*
X53229000Y-57340000D02*
X53229000Y-55460000D01*
X53189000Y-57202000D02*
X53189000Y-55598000D01*
X53149000Y-57033000D02*
X53149000Y-55767000D01*
X53109000Y-56802000D02*
X53109000Y-55998000D01*
X59850241Y-58239000D02*
X59220241Y-58239000D01*
X59535241Y-58554000D02*
X59535241Y-57924000D01*
X38310000Y-99740000D02*
X30690000Y-99740000D01*
X38310000Y-84500000D02*
X30690000Y-84500000D01*
X37040000Y-99740000D02*
X37040000Y-84500000D01*
X30690000Y-99740000D02*
X30690000Y-84500000D01*
X38310000Y-99740000D02*
X38310000Y-84500000D01*
X86770000Y-85330000D02*
X86770000Y-82670000D01*
X86770000Y-85330000D02*
X99530000Y-85330000D01*
X99530000Y-85330000D02*
X99530000Y-82670000D01*
X86770000Y-82670000D02*
X99530000Y-82670000D01*
X84170000Y-82670000D02*
X85500000Y-82670000D01*
X84170000Y-84000000D02*
X84170000Y-82670000D01*
X59380000Y-62030000D02*
X63620000Y-62030000D01*
X59380000Y-72270000D02*
X63620000Y-72270000D01*
X63620000Y-72270000D02*
X63620000Y-62030000D01*
X59380000Y-72270000D02*
X59380000Y-62030000D01*
X69520000Y-78530000D02*
X69520000Y-88770000D01*
X65280000Y-78530000D02*
X65280000Y-88770000D01*
X69520000Y-78530000D02*
X65280000Y-78530000D01*
X69520000Y-88770000D02*
X65280000Y-88770000D01*
X54825000Y-89780000D02*
X65365000Y-89780000D01*
X54825000Y-95020000D02*
X65365000Y-95020000D01*
X54825000Y-89780000D02*
X54825000Y-95020000D01*
X65365000Y-89780000D02*
X65365000Y-95020000D01*
D10*
X116066666Y-81052380D02*
X116066666Y-81766666D01*
X116019047Y-81909523D01*
X115923809Y-82004761D01*
X115780952Y-82052380D01*
X115685714Y-82052380D01*
X117066666Y-82052380D02*
X116495238Y-82052380D01*
X116780952Y-82052380D02*
X116780952Y-81052380D01*
X116685714Y-81195238D01*
X116590476Y-81290476D01*
X116495238Y-81338095D01*
X59923333Y-87852380D02*
X59590000Y-87376190D01*
X59351904Y-87852380D02*
X59351904Y-86852380D01*
X59732857Y-86852380D01*
X59828095Y-86900000D01*
X59875714Y-86947619D01*
X59923333Y-87042857D01*
X59923333Y-87185714D01*
X59875714Y-87280952D01*
X59828095Y-87328571D01*
X59732857Y-87376190D01*
X59351904Y-87376190D01*
X60399523Y-87852380D02*
X60590000Y-87852380D01*
X60685238Y-87804761D01*
X60732857Y-87757142D01*
X60828095Y-87614285D01*
X60875714Y-87423809D01*
X60875714Y-87042857D01*
X60828095Y-86947619D01*
X60780476Y-86900000D01*
X60685238Y-86852380D01*
X60494761Y-86852380D01*
X60399523Y-86900000D01*
X60351904Y-86947619D01*
X60304285Y-87042857D01*
X60304285Y-87280952D01*
X60351904Y-87376190D01*
X60399523Y-87423809D01*
X60494761Y-87471428D01*
X60685238Y-87471428D01*
X60780476Y-87423809D01*
X60828095Y-87376190D01*
X60875714Y-87280952D01*
X62052380Y-77566666D02*
X61576190Y-77900000D01*
X62052380Y-78138095D02*
X61052380Y-78138095D01*
X61052380Y-77757142D01*
X61100000Y-77661904D01*
X61147619Y-77614285D01*
X61242857Y-77566666D01*
X61385714Y-77566666D01*
X61480952Y-77614285D01*
X61528571Y-77661904D01*
X61576190Y-77757142D01*
X61576190Y-78138095D01*
X61480952Y-76995238D02*
X61433333Y-77090476D01*
X61385714Y-77138095D01*
X61290476Y-77185714D01*
X61242857Y-77185714D01*
X61147619Y-77138095D01*
X61100000Y-77090476D01*
X61052380Y-76995238D01*
X61052380Y-76804761D01*
X61100000Y-76709523D01*
X61147619Y-76661904D01*
X61242857Y-76614285D01*
X61290476Y-76614285D01*
X61385714Y-76661904D01*
X61433333Y-76709523D01*
X61480952Y-76804761D01*
X61480952Y-76995238D01*
X61528571Y-77090476D01*
X61576190Y-77138095D01*
X61671428Y-77185714D01*
X61861904Y-77185714D01*
X61957142Y-77138095D01*
X62004761Y-77090476D01*
X62052380Y-76995238D01*
X62052380Y-76804761D01*
X62004761Y-76709523D01*
X61957142Y-76661904D01*
X61861904Y-76614285D01*
X61671428Y-76614285D01*
X61576190Y-76661904D01*
X61528571Y-76709523D01*
X61480952Y-76804761D01*
X80433333Y-81752380D02*
X80100000Y-81276190D01*
X79861904Y-81752380D02*
X79861904Y-80752380D01*
X80242857Y-80752380D01*
X80338095Y-80800000D01*
X80385714Y-80847619D01*
X80433333Y-80942857D01*
X80433333Y-81085714D01*
X80385714Y-81180952D01*
X80338095Y-81228571D01*
X80242857Y-81276190D01*
X79861904Y-81276190D01*
X80766666Y-80752380D02*
X81433333Y-80752380D01*
X81004761Y-81752380D01*
X117833333Y-65057142D02*
X117785714Y-65104761D01*
X117642857Y-65152380D01*
X117547619Y-65152380D01*
X117404761Y-65104761D01*
X117309523Y-65009523D01*
X117261904Y-64914285D01*
X117214285Y-64723809D01*
X117214285Y-64580952D01*
X117261904Y-64390476D01*
X117309523Y-64295238D01*
X117404761Y-64200000D01*
X117547619Y-64152380D01*
X117642857Y-64152380D01*
X117785714Y-64200000D01*
X117833333Y-64247619D01*
X118690476Y-64152380D02*
X118500000Y-64152380D01*
X118404761Y-64200000D01*
X118357142Y-64247619D01*
X118261904Y-64390476D01*
X118214285Y-64580952D01*
X118214285Y-64961904D01*
X118261904Y-65057142D01*
X118309523Y-65104761D01*
X118404761Y-65152380D01*
X118595238Y-65152380D01*
X118690476Y-65104761D01*
X118738095Y-65057142D01*
X118785714Y-64961904D01*
X118785714Y-64723809D01*
X118738095Y-64628571D01*
X118690476Y-64580952D01*
X118595238Y-64533333D01*
X118404761Y-64533333D01*
X118309523Y-64580952D01*
X118261904Y-64628571D01*
X118214285Y-64723809D01*
X85990476Y-76052381D02*
X86323809Y-77052381D01*
X86657142Y-76052381D01*
X87514285Y-77052381D02*
X86942857Y-77052381D01*
X87228571Y-77052381D02*
X87228571Y-76052381D01*
X87133333Y-76195239D01*
X87038095Y-76290477D01*
X86942857Y-76338096D01*
X51890476Y-76552380D02*
X52223809Y-77552380D01*
X52557142Y-76552380D01*
X52842857Y-76647619D02*
X52890476Y-76600000D01*
X52985714Y-76552380D01*
X53223809Y-76552380D01*
X53319047Y-76600000D01*
X53366666Y-76647619D01*
X53414285Y-76742857D01*
X53414285Y-76838095D01*
X53366666Y-76980952D01*
X52795238Y-77552380D01*
X53414285Y-77552380D01*
X103133333Y-65057142D02*
X103085714Y-65104761D01*
X102942857Y-65152380D01*
X102847619Y-65152380D01*
X102704761Y-65104761D01*
X102609523Y-65009523D01*
X102561904Y-64914285D01*
X102514285Y-64723809D01*
X102514285Y-64580952D01*
X102561904Y-64390476D01*
X102609523Y-64295238D01*
X102704761Y-64200000D01*
X102847619Y-64152380D01*
X102942857Y-64152380D01*
X103085714Y-64200000D01*
X103133333Y-64247619D01*
X104085714Y-65152380D02*
X103514285Y-65152380D01*
X103800000Y-65152380D02*
X103800000Y-64152380D01*
X103704761Y-64295238D01*
X103609523Y-64390476D01*
X103514285Y-64438095D01*
X76933333Y-92957142D02*
X76885714Y-93004761D01*
X76742857Y-93052380D01*
X76647619Y-93052380D01*
X76504761Y-93004761D01*
X76409523Y-92909523D01*
X76361904Y-92814285D01*
X76314285Y-92623809D01*
X76314285Y-92480952D01*
X76361904Y-92290476D01*
X76409523Y-92195238D01*
X76504761Y-92100000D01*
X76647619Y-92052380D01*
X76742857Y-92052380D01*
X76885714Y-92100000D01*
X76933333Y-92147619D01*
X77266666Y-92052380D02*
X77885714Y-92052380D01*
X77552380Y-92433333D01*
X77695238Y-92433333D01*
X77790476Y-92480952D01*
X77838095Y-92528571D01*
X77885714Y-92623809D01*
X77885714Y-92861904D01*
X77838095Y-92957142D01*
X77790476Y-93004761D01*
X77695238Y-93052380D01*
X77409523Y-93052380D01*
X77314285Y-93004761D01*
X77266666Y-92957142D01*
X34733333Y-78557142D02*
X34685714Y-78604761D01*
X34542857Y-78652380D01*
X34447619Y-78652380D01*
X34304761Y-78604761D01*
X34209523Y-78509523D01*
X34161904Y-78414285D01*
X34114285Y-78223809D01*
X34114285Y-78080952D01*
X34161904Y-77890476D01*
X34209523Y-77795238D01*
X34304761Y-77700000D01*
X34447619Y-77652380D01*
X34542857Y-77652380D01*
X34685714Y-77700000D01*
X34733333Y-77747619D01*
X35066666Y-77652380D02*
X35733333Y-77652380D01*
X35304761Y-78652380D01*
X91233333Y-72352380D02*
X90900000Y-71876190D01*
X90661904Y-72352380D02*
X90661904Y-71352380D01*
X91042857Y-71352380D01*
X91138095Y-71400000D01*
X91185714Y-71447619D01*
X91233333Y-71542857D01*
X91233333Y-71685714D01*
X91185714Y-71780952D01*
X91138095Y-71828571D01*
X91042857Y-71876190D01*
X90661904Y-71876190D01*
X92185714Y-72352380D02*
X91614285Y-72352380D01*
X91900000Y-72352380D02*
X91900000Y-71352380D01*
X91804761Y-71495238D01*
X91709523Y-71590476D01*
X91614285Y-71638095D01*
X64433333Y-57352380D02*
X64100000Y-56876190D01*
X63861904Y-57352380D02*
X63861904Y-56352380D01*
X64242857Y-56352380D01*
X64338095Y-56400000D01*
X64385714Y-56447619D01*
X64433333Y-56542857D01*
X64433333Y-56685714D01*
X64385714Y-56780952D01*
X64338095Y-56828571D01*
X64242857Y-56876190D01*
X63861904Y-56876190D01*
X64814285Y-56447619D02*
X64861904Y-56400000D01*
X64957142Y-56352380D01*
X65195238Y-56352380D01*
X65290476Y-56400000D01*
X65338095Y-56447619D01*
X65385714Y-56542857D01*
X65385714Y-56638095D01*
X65338095Y-56780952D01*
X64766666Y-57352380D01*
X65385714Y-57352380D01*
X95633333Y-78152380D02*
X95300000Y-77676190D01*
X95061904Y-78152380D02*
X95061904Y-77152380D01*
X95442857Y-77152380D01*
X95538095Y-77200000D01*
X95585714Y-77247619D01*
X95633333Y-77342857D01*
X95633333Y-77485714D01*
X95585714Y-77580952D01*
X95538095Y-77628571D01*
X95442857Y-77676190D01*
X95061904Y-77676190D01*
X95966666Y-77152380D02*
X96585714Y-77152380D01*
X96252380Y-77533333D01*
X96395238Y-77533333D01*
X96490476Y-77580952D01*
X96538095Y-77628571D01*
X96585714Y-77723809D01*
X96585714Y-77961904D01*
X96538095Y-78057142D01*
X96490476Y-78104761D01*
X96395238Y-78152380D01*
X96109523Y-78152380D01*
X96014285Y-78104761D01*
X95966666Y-78057142D01*
X80433333Y-84852380D02*
X80100000Y-84376190D01*
X79861904Y-84852380D02*
X79861904Y-83852380D01*
X80242857Y-83852380D01*
X80338095Y-83900000D01*
X80385714Y-83947619D01*
X80433333Y-84042857D01*
X80433333Y-84185714D01*
X80385714Y-84280952D01*
X80338095Y-84328571D01*
X80242857Y-84376190D01*
X79861904Y-84376190D01*
X81290476Y-84185714D02*
X81290476Y-84852380D01*
X81052380Y-83804761D02*
X80814285Y-84519047D01*
X81433333Y-84519047D01*
X89533333Y-57152380D02*
X89200000Y-56676190D01*
X88961904Y-57152380D02*
X88961904Y-56152380D01*
X89342857Y-56152380D01*
X89438095Y-56200000D01*
X89485714Y-56247619D01*
X89533333Y-56342857D01*
X89533333Y-56485714D01*
X89485714Y-56580952D01*
X89438095Y-56628571D01*
X89342857Y-56676190D01*
X88961904Y-56676190D01*
X90438095Y-56152380D02*
X89961904Y-56152380D01*
X89914285Y-56628571D01*
X89961904Y-56580952D01*
X90057142Y-56533333D01*
X90295238Y-56533333D01*
X90390476Y-56580952D01*
X90438095Y-56628571D01*
X90485714Y-56723809D01*
X90485714Y-56961904D01*
X90438095Y-57057142D01*
X90390476Y-57104761D01*
X90295238Y-57152380D01*
X90057142Y-57152380D01*
X89961904Y-57104761D01*
X89914285Y-57057142D01*
X99133333Y-78252380D02*
X98800000Y-77776190D01*
X98561904Y-78252380D02*
X98561904Y-77252380D01*
X98942857Y-77252380D01*
X99038095Y-77300000D01*
X99085714Y-77347619D01*
X99133333Y-77442857D01*
X99133333Y-77585714D01*
X99085714Y-77680952D01*
X99038095Y-77728571D01*
X98942857Y-77776190D01*
X98561904Y-77776190D01*
X99990476Y-77252380D02*
X99800000Y-77252380D01*
X99704761Y-77300000D01*
X99657142Y-77347619D01*
X99561904Y-77490476D01*
X99514285Y-77680952D01*
X99514285Y-78061904D01*
X99561904Y-78157142D01*
X99609523Y-78204761D01*
X99704761Y-78252380D01*
X99895238Y-78252380D01*
X99990476Y-78204761D01*
X100038095Y-78157142D01*
X100085714Y-78061904D01*
X100085714Y-77823809D01*
X100038095Y-77728571D01*
X99990476Y-77680952D01*
X99895238Y-77633333D01*
X99704761Y-77633333D01*
X99609523Y-77680952D01*
X99561904Y-77728571D01*
X99514285Y-77823809D01*
X58152380Y-67742857D02*
X57676190Y-68076190D01*
X58152380Y-68314285D02*
X57152380Y-68314285D01*
X57152380Y-67933333D01*
X57200000Y-67838095D01*
X57247619Y-67790476D01*
X57342857Y-67742857D01*
X57485714Y-67742857D01*
X57580952Y-67790476D01*
X57628571Y-67838095D01*
X57676190Y-67933333D01*
X57676190Y-68314285D01*
X58152380Y-66790476D02*
X58152380Y-67361904D01*
X58152380Y-67076190D02*
X57152380Y-67076190D01*
X57295238Y-67171428D01*
X57390476Y-67266666D01*
X57438095Y-67361904D01*
X57152380Y-66171428D02*
X57152380Y-66076190D01*
X57200000Y-65980952D01*
X57247619Y-65933333D01*
X57342857Y-65885714D01*
X57533333Y-65838095D01*
X57771428Y-65838095D01*
X57961904Y-65885714D01*
X58057142Y-65933333D01*
X58104761Y-65980952D01*
X58152380Y-66076190D01*
X58152380Y-66171428D01*
X58104761Y-66266666D01*
X58057142Y-66314285D01*
X57961904Y-66361904D01*
X57771428Y-66409523D01*
X57533333Y-66409523D01*
X57342857Y-66361904D01*
X57247619Y-66314285D01*
X57200000Y-66266666D01*
X57152380Y-66171428D01*
X58052380Y-77642857D02*
X57576190Y-77976190D01*
X58052380Y-78214285D02*
X57052380Y-78214285D01*
X57052380Y-77833333D01*
X57100000Y-77738095D01*
X57147619Y-77690476D01*
X57242857Y-77642857D01*
X57385714Y-77642857D01*
X57480952Y-77690476D01*
X57528571Y-77738095D01*
X57576190Y-77833333D01*
X57576190Y-78214285D01*
X58052380Y-76690476D02*
X58052380Y-77261904D01*
X58052380Y-76976190D02*
X57052380Y-76976190D01*
X57195238Y-77071428D01*
X57290476Y-77166666D01*
X57338095Y-77261904D01*
X58052380Y-75738095D02*
X58052380Y-76309523D01*
X58052380Y-76023809D02*
X57052380Y-76023809D01*
X57195238Y-76119047D01*
X57290476Y-76214285D01*
X57338095Y-76309523D01*
X43357142Y-81452380D02*
X43023809Y-80976190D01*
X42785714Y-81452380D02*
X42785714Y-80452380D01*
X43166666Y-80452380D01*
X43261904Y-80500000D01*
X43309523Y-80547619D01*
X43357142Y-80642857D01*
X43357142Y-80785714D01*
X43309523Y-80880952D01*
X43261904Y-80928571D01*
X43166666Y-80976190D01*
X42785714Y-80976190D01*
X44309523Y-81452380D02*
X43738095Y-81452380D01*
X44023809Y-81452380D02*
X44023809Y-80452380D01*
X43928571Y-80595238D01*
X43833333Y-80690476D01*
X43738095Y-80738095D01*
X44690476Y-80547619D02*
X44738095Y-80500000D01*
X44833333Y-80452380D01*
X45071428Y-80452380D01*
X45166666Y-80500000D01*
X45214285Y-80547619D01*
X45261904Y-80642857D01*
X45261904Y-80738095D01*
X45214285Y-80880952D01*
X44642857Y-81452380D01*
X45261904Y-81452380D01*
X59257142Y-84452380D02*
X58923809Y-83976190D01*
X58685714Y-84452380D02*
X58685714Y-83452380D01*
X59066666Y-83452380D01*
X59161904Y-83500000D01*
X59209523Y-83547619D01*
X59257142Y-83642857D01*
X59257142Y-83785714D01*
X59209523Y-83880952D01*
X59161904Y-83928571D01*
X59066666Y-83976190D01*
X58685714Y-83976190D01*
X60209523Y-84452380D02*
X59638095Y-84452380D01*
X59923809Y-84452380D02*
X59923809Y-83452380D01*
X59828571Y-83595238D01*
X59733333Y-83690476D01*
X59638095Y-83738095D01*
X60542857Y-83452380D02*
X61161904Y-83452380D01*
X60828571Y-83833333D01*
X60971428Y-83833333D01*
X61066666Y-83880952D01*
X61114285Y-83928571D01*
X61161904Y-84023809D01*
X61161904Y-84261904D01*
X61114285Y-84357142D01*
X61066666Y-84404761D01*
X60971428Y-84452380D01*
X60685714Y-84452380D01*
X60590476Y-84404761D01*
X60542857Y-84357142D01*
X43257142Y-84552380D02*
X42923809Y-84076190D01*
X42685714Y-84552380D02*
X42685714Y-83552380D01*
X43066666Y-83552380D01*
X43161904Y-83600000D01*
X43209523Y-83647619D01*
X43257142Y-83742857D01*
X43257142Y-83885714D01*
X43209523Y-83980952D01*
X43161904Y-84028571D01*
X43066666Y-84076190D01*
X42685714Y-84076190D01*
X44209523Y-84552380D02*
X43638095Y-84552380D01*
X43923809Y-84552380D02*
X43923809Y-83552380D01*
X43828571Y-83695238D01*
X43733333Y-83790476D01*
X43638095Y-83838095D01*
X45066666Y-83885714D02*
X45066666Y-84552380D01*
X44828571Y-83504761D02*
X44590476Y-84219047D01*
X45209523Y-84219047D01*
X105357142Y-73452380D02*
X105023809Y-72976190D01*
X104785714Y-73452380D02*
X104785714Y-72452380D01*
X105166666Y-72452380D01*
X105261904Y-72500000D01*
X105309523Y-72547619D01*
X105357142Y-72642857D01*
X105357142Y-72785714D01*
X105309523Y-72880952D01*
X105261904Y-72928571D01*
X105166666Y-72976190D01*
X104785714Y-72976190D01*
X106309523Y-73452380D02*
X105738095Y-73452380D01*
X106023809Y-73452380D02*
X106023809Y-72452380D01*
X105928571Y-72595238D01*
X105833333Y-72690476D01*
X105738095Y-72738095D01*
X107214285Y-72452380D02*
X106738095Y-72452380D01*
X106690476Y-72928571D01*
X106738095Y-72880952D01*
X106833333Y-72833333D01*
X107071428Y-72833333D01*
X107166666Y-72880952D01*
X107214285Y-72928571D01*
X107261904Y-73023809D01*
X107261904Y-73261904D01*
X107214285Y-73357142D01*
X107166666Y-73404761D01*
X107071428Y-73452380D01*
X106833333Y-73452380D01*
X106738095Y-73404761D01*
X106690476Y-73357142D01*
X52333333Y-54357142D02*
X52285714Y-54404761D01*
X52142857Y-54452380D01*
X52047619Y-54452380D01*
X51904761Y-54404761D01*
X51809523Y-54309523D01*
X51761904Y-54214285D01*
X51714285Y-54023809D01*
X51714285Y-53880952D01*
X51761904Y-53690476D01*
X51809523Y-53595238D01*
X51904761Y-53500000D01*
X52047619Y-53452380D01*
X52142857Y-53452380D01*
X52285714Y-53500000D01*
X52333333Y-53547619D01*
X52714285Y-53547619D02*
X52761904Y-53500000D01*
X52857142Y-53452380D01*
X53095238Y-53452380D01*
X53190476Y-53500000D01*
X53238095Y-53547619D01*
X53285714Y-53642857D01*
X53285714Y-53738095D01*
X53238095Y-53880952D01*
X52666666Y-54452380D01*
X53285714Y-54452380D01*
X38886666Y-98382380D02*
X38886666Y-99096666D01*
X38839047Y-99239523D01*
X38743809Y-99334761D01*
X38600952Y-99382380D01*
X38505714Y-99382380D01*
X39267619Y-98382380D02*
X39886666Y-98382380D01*
X39553333Y-98763333D01*
X39696190Y-98763333D01*
X39791428Y-98810952D01*
X39839047Y-98858571D01*
X39886666Y-98953809D01*
X39886666Y-99191904D01*
X39839047Y-99287142D01*
X39791428Y-99334761D01*
X39696190Y-99382380D01*
X39410476Y-99382380D01*
X39315238Y-99334761D01*
X39267619Y-99287142D01*
X85166666Y-81352380D02*
X85166666Y-82066666D01*
X85119047Y-82209523D01*
X85023809Y-82304761D01*
X84880952Y-82352380D01*
X84785714Y-82352380D01*
X85595238Y-81447619D02*
X85642857Y-81400000D01*
X85738095Y-81352380D01*
X85976190Y-81352380D01*
X86071428Y-81400000D01*
X86119047Y-81447619D01*
X86166666Y-81542857D01*
X86166666Y-81638095D01*
X86119047Y-81780952D01*
X85547619Y-82352380D01*
X86166666Y-82352380D01*
X61757142Y-67666666D02*
X61804761Y-67714285D01*
X61852380Y-67857142D01*
X61852380Y-67952380D01*
X61804761Y-68095238D01*
X61709523Y-68190476D01*
X61614285Y-68238095D01*
X61423809Y-68285714D01*
X61280952Y-68285714D01*
X61090476Y-68238095D01*
X60995238Y-68190476D01*
X60900000Y-68095238D01*
X60852380Y-67952380D01*
X60852380Y-67857142D01*
X60900000Y-67714285D01*
X60947619Y-67666666D01*
X61185714Y-66809523D02*
X61852380Y-66809523D01*
X60804761Y-67047619D02*
X61519047Y-67285714D01*
X61519047Y-66666666D01*
X67233333Y-78157142D02*
X67185714Y-78204761D01*
X67042857Y-78252380D01*
X66947619Y-78252380D01*
X66804761Y-78204761D01*
X66709523Y-78109523D01*
X66661904Y-78014285D01*
X66614285Y-77823809D01*
X66614285Y-77680952D01*
X66661904Y-77490476D01*
X66709523Y-77395238D01*
X66804761Y-77300000D01*
X66947619Y-77252380D01*
X67042857Y-77252380D01*
X67185714Y-77300000D01*
X67233333Y-77347619D01*
X68138095Y-77252380D02*
X67661904Y-77252380D01*
X67614285Y-77728571D01*
X67661904Y-77680952D01*
X67757142Y-77633333D01*
X67995238Y-77633333D01*
X68090476Y-77680952D01*
X68138095Y-77728571D01*
X68185714Y-77823809D01*
X68185714Y-78061904D01*
X68138095Y-78157142D01*
X68090476Y-78204761D01*
X67995238Y-78252380D01*
X67757142Y-78252380D01*
X67661904Y-78204761D01*
X67614285Y-78157142D01*
X66333333Y-92757142D02*
X66285714Y-92804761D01*
X66142857Y-92852380D01*
X66047619Y-92852380D01*
X65904761Y-92804761D01*
X65809523Y-92709523D01*
X65761904Y-92614285D01*
X65714285Y-92423809D01*
X65714285Y-92280952D01*
X65761904Y-92090476D01*
X65809523Y-91995238D01*
X65904761Y-91900000D01*
X66047619Y-91852380D01*
X66142857Y-91852380D01*
X66285714Y-91900000D01*
X66333333Y-91947619D01*
X66904761Y-92280952D02*
X66809523Y-92233333D01*
X66761904Y-92185714D01*
X66714285Y-92090476D01*
X66714285Y-92042857D01*
X66761904Y-91947619D01*
X66809523Y-91900000D01*
X66904761Y-91852380D01*
X67095238Y-91852380D01*
X67190476Y-91900000D01*
X67238095Y-91947619D01*
X67285714Y-92042857D01*
X67285714Y-92090476D01*
X67238095Y-92185714D01*
X67190476Y-92233333D01*
X67095238Y-92280952D01*
X66904761Y-92280952D01*
X66809523Y-92328571D01*
X66761904Y-92376190D01*
X66714285Y-92471428D01*
X66714285Y-92661904D01*
X66761904Y-92757142D01*
X66809523Y-92804761D01*
X66904761Y-92852380D01*
X67095238Y-92852380D01*
X67190476Y-92804761D01*
X67238095Y-92757142D01*
X67285714Y-92661904D01*
X67285714Y-92471428D01*
X67238095Y-92376190D01*
X67190476Y-92328571D01*
X67095238Y-92280952D01*
%LPC*%
D13*
G36*
X52100000Y-99950000D02*
G01*
X45150000Y-99950000D01*
X45125000Y-89400000D01*
X52075000Y-89400000D01*
X52100000Y-99950000D01*
G37*
X52100000Y-99950000D02*
X45150000Y-99950000D01*
X45125000Y-89400000D01*
X52075000Y-89400000D01*
X52100000Y-99950000D01*
D14*
X48600000Y-94500000D03*
D15*
X126580000Y-84000000D03*
X124040000Y-84000000D03*
X121500000Y-84000000D03*
X118960000Y-84000000D03*
D16*
X116420000Y-84000000D03*
D17*
X56280000Y-87400000D03*
D18*
X63900000Y-87400000D03*
D17*
X61500000Y-81120000D03*
D18*
X61500000Y-73500000D03*
D17*
X78520000Y-81300000D03*
D18*
X70900000Y-81300000D03*
D19*
X111700000Y-62400000D03*
D20*
X111700000Y-57400000D03*
D21*
G36*
X77615447Y-75106775D02*
G01*
X77693275Y-75117454D01*
X77769682Y-75135709D01*
X77843932Y-75161366D01*
X77915309Y-75194177D01*
X77983126Y-75233826D01*
X78046731Y-75279931D01*
X78105510Y-75332049D01*
X78158898Y-75389677D01*
X79188001Y-76616114D01*
X79235483Y-76678698D01*
X79276602Y-76745634D01*
X79310962Y-76816279D01*
X79338232Y-76889951D01*
X79358150Y-76965941D01*
X79370524Y-77043518D01*
X79375234Y-77121934D01*
X79372236Y-77200434D01*
X79361557Y-77278262D01*
X79343302Y-77354669D01*
X79317645Y-77428919D01*
X79284834Y-77500296D01*
X79245185Y-77568113D01*
X79199080Y-77631718D01*
X79146962Y-77690497D01*
X79089334Y-77743885D01*
X77862897Y-78772988D01*
X77800313Y-78820470D01*
X77733377Y-78861589D01*
X77662732Y-78895949D01*
X77589060Y-78923219D01*
X77513070Y-78943137D01*
X77435493Y-78955511D01*
X77357077Y-78960221D01*
X77278577Y-78957223D01*
X77200749Y-78946544D01*
X77124342Y-78928289D01*
X77050092Y-78902632D01*
X76978715Y-78869821D01*
X76910898Y-78830172D01*
X76847293Y-78784067D01*
X76788514Y-78731949D01*
X76735126Y-78674321D01*
X75706023Y-77447884D01*
X75658541Y-77385300D01*
X75617422Y-77318364D01*
X75583062Y-77247719D01*
X75555792Y-77174047D01*
X75535874Y-77098057D01*
X75523500Y-77020480D01*
X75518790Y-76942064D01*
X75521788Y-76863564D01*
X75532467Y-76785736D01*
X75550722Y-76709329D01*
X75576379Y-76635079D01*
X75609190Y-76563702D01*
X75648839Y-76495885D01*
X75694944Y-76432280D01*
X75747062Y-76373501D01*
X75804690Y-76320113D01*
X77031127Y-75291010D01*
X77093711Y-75243528D01*
X77160647Y-75202409D01*
X77231292Y-75168049D01*
X77304964Y-75140779D01*
X77380954Y-75120861D01*
X77458531Y-75108487D01*
X77536947Y-75103777D01*
X77615447Y-75106775D01*
X77615447Y-75106775D01*
G37*
D22*
X77447012Y-77031999D03*
D21*
G36*
X71314522Y-73540490D02*
G01*
X71392350Y-73551169D01*
X71468757Y-73569424D01*
X71543007Y-73595081D01*
X71614384Y-73627892D01*
X71682201Y-73667541D01*
X71745806Y-73713646D01*
X71804585Y-73765764D01*
X71857973Y-73823392D01*
X72887076Y-75049829D01*
X72934558Y-75112413D01*
X72975677Y-75179349D01*
X73010037Y-75249994D01*
X73037307Y-75323666D01*
X73057225Y-75399656D01*
X73069599Y-75477233D01*
X73074309Y-75555649D01*
X73071311Y-75634149D01*
X73060632Y-75711977D01*
X73042377Y-75788384D01*
X73016720Y-75862634D01*
X72983909Y-75934011D01*
X72944260Y-76001828D01*
X72898155Y-76065433D01*
X72846037Y-76124212D01*
X72788409Y-76177600D01*
X71561972Y-77206703D01*
X71499388Y-77254185D01*
X71432452Y-77295304D01*
X71361807Y-77329664D01*
X71288135Y-77356934D01*
X71212145Y-77376852D01*
X71134568Y-77389226D01*
X71056152Y-77393936D01*
X70977652Y-77390938D01*
X70899824Y-77380259D01*
X70823417Y-77362004D01*
X70749167Y-77336347D01*
X70677790Y-77303536D01*
X70609973Y-77263887D01*
X70546368Y-77217782D01*
X70487589Y-77165664D01*
X70434201Y-77108036D01*
X69405098Y-75881599D01*
X69357616Y-75819015D01*
X69316497Y-75752079D01*
X69282137Y-75681434D01*
X69254867Y-75607762D01*
X69234949Y-75531772D01*
X69222575Y-75454195D01*
X69217865Y-75375779D01*
X69220863Y-75297279D01*
X69231542Y-75219451D01*
X69249797Y-75143044D01*
X69275454Y-75068794D01*
X69308265Y-74997417D01*
X69347914Y-74929600D01*
X69394019Y-74865995D01*
X69446137Y-74807216D01*
X69503765Y-74753828D01*
X70730202Y-73724725D01*
X70792786Y-73677243D01*
X70859722Y-73636124D01*
X70930367Y-73601764D01*
X71004039Y-73574494D01*
X71080029Y-73554576D01*
X71157606Y-73542202D01*
X71236022Y-73537492D01*
X71314522Y-73540490D01*
X71314522Y-73540490D01*
G37*
D22*
X71146087Y-75465714D03*
D21*
G36*
X67142830Y-68568862D02*
G01*
X67220658Y-68579541D01*
X67297065Y-68597796D01*
X67371315Y-68623453D01*
X67442692Y-68656264D01*
X67510509Y-68695913D01*
X67574114Y-68742018D01*
X67632893Y-68794136D01*
X67686281Y-68851764D01*
X68715384Y-70078201D01*
X68762866Y-70140785D01*
X68803985Y-70207721D01*
X68838345Y-70278366D01*
X68865615Y-70352038D01*
X68885533Y-70428028D01*
X68897907Y-70505605D01*
X68902617Y-70584021D01*
X68899619Y-70662521D01*
X68888940Y-70740349D01*
X68870685Y-70816756D01*
X68845028Y-70891006D01*
X68812217Y-70962383D01*
X68772568Y-71030200D01*
X68726463Y-71093805D01*
X68674345Y-71152584D01*
X68616717Y-71205972D01*
X67390280Y-72235075D01*
X67327696Y-72282557D01*
X67260760Y-72323676D01*
X67190115Y-72358036D01*
X67116443Y-72385306D01*
X67040453Y-72405224D01*
X66962876Y-72417598D01*
X66884460Y-72422308D01*
X66805960Y-72419310D01*
X66728132Y-72408631D01*
X66651725Y-72390376D01*
X66577475Y-72364719D01*
X66506098Y-72331908D01*
X66438281Y-72292259D01*
X66374676Y-72246154D01*
X66315897Y-72194036D01*
X66262509Y-72136408D01*
X65233406Y-70909971D01*
X65185924Y-70847387D01*
X65144805Y-70780451D01*
X65110445Y-70709806D01*
X65083175Y-70636134D01*
X65063257Y-70560144D01*
X65050883Y-70482567D01*
X65046173Y-70404151D01*
X65049171Y-70325651D01*
X65059850Y-70247823D01*
X65078105Y-70171416D01*
X65103762Y-70097166D01*
X65136573Y-70025789D01*
X65176222Y-69957972D01*
X65222327Y-69894367D01*
X65274445Y-69835588D01*
X65332073Y-69782200D01*
X66558510Y-68753097D01*
X66621094Y-68705615D01*
X66688030Y-68664496D01*
X66758675Y-68630136D01*
X66832347Y-68602866D01*
X66908337Y-68582948D01*
X66985914Y-68570574D01*
X67064330Y-68565864D01*
X67142830Y-68568862D01*
X67142830Y-68568862D01*
G37*
D22*
X66974395Y-70494086D03*
D21*
G36*
X66694485Y-62091680D02*
G01*
X66772313Y-62102359D01*
X66848720Y-62120614D01*
X66922970Y-62146271D01*
X66994347Y-62179082D01*
X67062164Y-62218731D01*
X67125769Y-62264836D01*
X67184548Y-62316954D01*
X67237936Y-62374582D01*
X68267039Y-63601019D01*
X68314521Y-63663603D01*
X68355640Y-63730539D01*
X68390000Y-63801184D01*
X68417270Y-63874856D01*
X68437188Y-63950846D01*
X68449562Y-64028423D01*
X68454272Y-64106839D01*
X68451274Y-64185339D01*
X68440595Y-64263167D01*
X68422340Y-64339574D01*
X68396683Y-64413824D01*
X68363872Y-64485201D01*
X68324223Y-64553018D01*
X68278118Y-64616623D01*
X68226000Y-64675402D01*
X68168372Y-64728790D01*
X66941935Y-65757893D01*
X66879351Y-65805375D01*
X66812415Y-65846494D01*
X66741770Y-65880854D01*
X66668098Y-65908124D01*
X66592108Y-65928042D01*
X66514531Y-65940416D01*
X66436115Y-65945126D01*
X66357615Y-65942128D01*
X66279787Y-65931449D01*
X66203380Y-65913194D01*
X66129130Y-65887537D01*
X66057753Y-65854726D01*
X65989936Y-65815077D01*
X65926331Y-65768972D01*
X65867552Y-65716854D01*
X65814164Y-65659226D01*
X64785061Y-64432789D01*
X64737579Y-64370205D01*
X64696460Y-64303269D01*
X64662100Y-64232624D01*
X64634830Y-64158952D01*
X64614912Y-64082962D01*
X64602538Y-64005385D01*
X64597828Y-63926969D01*
X64600826Y-63848469D01*
X64611505Y-63770641D01*
X64629760Y-63694234D01*
X64655417Y-63619984D01*
X64688228Y-63548607D01*
X64727877Y-63480790D01*
X64773982Y-63417185D01*
X64826100Y-63358406D01*
X64883728Y-63305018D01*
X66110165Y-62275915D01*
X66172749Y-62228433D01*
X66239685Y-62187314D01*
X66310330Y-62152954D01*
X66384002Y-62125684D01*
X66459992Y-62105766D01*
X66537569Y-62093392D01*
X66615985Y-62088682D01*
X66694485Y-62091680D01*
X66694485Y-62091680D01*
G37*
D22*
X66526050Y-64016904D03*
D21*
G36*
X70135404Y-56593592D02*
G01*
X70213232Y-56604271D01*
X70289639Y-56622526D01*
X70363889Y-56648183D01*
X70435266Y-56680994D01*
X70503083Y-56720643D01*
X70566688Y-56766748D01*
X70625467Y-56818866D01*
X70678855Y-56876494D01*
X71707958Y-58102931D01*
X71755440Y-58165515D01*
X71796559Y-58232451D01*
X71830919Y-58303096D01*
X71858189Y-58376768D01*
X71878107Y-58452758D01*
X71890481Y-58530335D01*
X71895191Y-58608751D01*
X71892193Y-58687251D01*
X71881514Y-58765079D01*
X71863259Y-58841486D01*
X71837602Y-58915736D01*
X71804791Y-58987113D01*
X71765142Y-59054930D01*
X71719037Y-59118535D01*
X71666919Y-59177314D01*
X71609291Y-59230702D01*
X70382854Y-60259805D01*
X70320270Y-60307287D01*
X70253334Y-60348406D01*
X70182689Y-60382766D01*
X70109017Y-60410036D01*
X70033027Y-60429954D01*
X69955450Y-60442328D01*
X69877034Y-60447038D01*
X69798534Y-60444040D01*
X69720706Y-60433361D01*
X69644299Y-60415106D01*
X69570049Y-60389449D01*
X69498672Y-60356638D01*
X69430855Y-60316989D01*
X69367250Y-60270884D01*
X69308471Y-60218766D01*
X69255083Y-60161138D01*
X68225980Y-58934701D01*
X68178498Y-58872117D01*
X68137379Y-58805181D01*
X68103019Y-58734536D01*
X68075749Y-58660864D01*
X68055831Y-58584874D01*
X68043457Y-58507297D01*
X68038747Y-58428881D01*
X68041745Y-58350381D01*
X68052424Y-58272553D01*
X68070679Y-58196146D01*
X68096336Y-58121896D01*
X68129147Y-58050519D01*
X68168796Y-57982702D01*
X68214901Y-57919097D01*
X68267019Y-57860318D01*
X68324647Y-57806930D01*
X69551084Y-56777827D01*
X69613668Y-56730345D01*
X69680604Y-56689226D01*
X69751249Y-56654866D01*
X69824921Y-56627596D01*
X69900911Y-56607678D01*
X69978488Y-56595304D01*
X70056904Y-56590594D01*
X70135404Y-56593592D01*
X70135404Y-56593592D01*
G37*
D22*
X69966969Y-58518816D03*
D21*
G36*
X76147474Y-54159681D02*
G01*
X76225302Y-54170360D01*
X76301709Y-54188615D01*
X76375959Y-54214272D01*
X76447336Y-54247083D01*
X76515153Y-54286732D01*
X76578758Y-54332837D01*
X76637537Y-54384955D01*
X76690925Y-54442583D01*
X77720028Y-55669020D01*
X77767510Y-55731604D01*
X77808629Y-55798540D01*
X77842989Y-55869185D01*
X77870259Y-55942857D01*
X77890177Y-56018847D01*
X77902551Y-56096424D01*
X77907261Y-56174840D01*
X77904263Y-56253340D01*
X77893584Y-56331168D01*
X77875329Y-56407575D01*
X77849672Y-56481825D01*
X77816861Y-56553202D01*
X77777212Y-56621019D01*
X77731107Y-56684624D01*
X77678989Y-56743403D01*
X77621361Y-56796791D01*
X76394924Y-57825894D01*
X76332340Y-57873376D01*
X76265404Y-57914495D01*
X76194759Y-57948855D01*
X76121087Y-57976125D01*
X76045097Y-57996043D01*
X75967520Y-58008417D01*
X75889104Y-58013127D01*
X75810604Y-58010129D01*
X75732776Y-57999450D01*
X75656369Y-57981195D01*
X75582119Y-57955538D01*
X75510742Y-57922727D01*
X75442925Y-57883078D01*
X75379320Y-57836973D01*
X75320541Y-57784855D01*
X75267153Y-57727227D01*
X74238050Y-56500790D01*
X74190568Y-56438206D01*
X74149449Y-56371270D01*
X74115089Y-56300625D01*
X74087819Y-56226953D01*
X74067901Y-56150963D01*
X74055527Y-56073386D01*
X74050817Y-55994970D01*
X74053815Y-55916470D01*
X74064494Y-55838642D01*
X74082749Y-55762235D01*
X74108406Y-55687985D01*
X74141217Y-55616608D01*
X74180866Y-55548791D01*
X74226971Y-55485186D01*
X74279089Y-55426407D01*
X74336717Y-55373019D01*
X75563154Y-54343916D01*
X75625738Y-54296434D01*
X75692674Y-54255315D01*
X75763319Y-54220955D01*
X75836991Y-54193685D01*
X75912981Y-54173767D01*
X75990558Y-54161393D01*
X76068974Y-54156683D01*
X76147474Y-54159681D01*
X76147474Y-54159681D01*
G37*
D22*
X75979039Y-56084905D03*
D21*
G36*
X82440738Y-55732393D02*
G01*
X82518566Y-55743072D01*
X82594973Y-55761327D01*
X82669223Y-55786984D01*
X82740600Y-55819795D01*
X82808417Y-55859444D01*
X82872022Y-55905549D01*
X82930801Y-55957667D01*
X82984189Y-56015295D01*
X84013292Y-57241732D01*
X84060774Y-57304316D01*
X84101893Y-57371252D01*
X84136253Y-57441897D01*
X84163523Y-57515569D01*
X84183441Y-57591559D01*
X84195815Y-57669136D01*
X84200525Y-57747552D01*
X84197527Y-57826052D01*
X84186848Y-57903880D01*
X84168593Y-57980287D01*
X84142936Y-58054537D01*
X84110125Y-58125914D01*
X84070476Y-58193731D01*
X84024371Y-58257336D01*
X83972253Y-58316115D01*
X83914625Y-58369503D01*
X82688188Y-59398606D01*
X82625604Y-59446088D01*
X82558668Y-59487207D01*
X82488023Y-59521567D01*
X82414351Y-59548837D01*
X82338361Y-59568755D01*
X82260784Y-59581129D01*
X82182368Y-59585839D01*
X82103868Y-59582841D01*
X82026040Y-59572162D01*
X81949633Y-59553907D01*
X81875383Y-59528250D01*
X81804006Y-59495439D01*
X81736189Y-59455790D01*
X81672584Y-59409685D01*
X81613805Y-59357567D01*
X81560417Y-59299939D01*
X80531314Y-58073502D01*
X80483832Y-58010918D01*
X80442713Y-57943982D01*
X80408353Y-57873337D01*
X80381083Y-57799665D01*
X80361165Y-57723675D01*
X80348791Y-57646098D01*
X80344081Y-57567682D01*
X80347079Y-57489182D01*
X80357758Y-57411354D01*
X80376013Y-57334947D01*
X80401670Y-57260697D01*
X80434481Y-57189320D01*
X80474130Y-57121503D01*
X80520235Y-57057898D01*
X80572353Y-56999119D01*
X80629981Y-56945731D01*
X81856418Y-55916628D01*
X81919002Y-55869146D01*
X81985938Y-55828027D01*
X82056583Y-55793667D01*
X82130255Y-55766397D01*
X82206245Y-55746479D01*
X82283822Y-55734105D01*
X82362238Y-55729395D01*
X82440738Y-55732393D01*
X82440738Y-55732393D01*
G37*
D22*
X82272303Y-57657617D03*
D21*
G36*
X86612429Y-60704022D02*
G01*
X86690257Y-60714701D01*
X86766664Y-60732956D01*
X86840914Y-60758613D01*
X86912291Y-60791424D01*
X86980108Y-60831073D01*
X87043713Y-60877178D01*
X87102492Y-60929296D01*
X87155880Y-60986924D01*
X88184983Y-62213361D01*
X88232465Y-62275945D01*
X88273584Y-62342881D01*
X88307944Y-62413526D01*
X88335214Y-62487198D01*
X88355132Y-62563188D01*
X88367506Y-62640765D01*
X88372216Y-62719181D01*
X88369218Y-62797681D01*
X88358539Y-62875509D01*
X88340284Y-62951916D01*
X88314627Y-63026166D01*
X88281816Y-63097543D01*
X88242167Y-63165360D01*
X88196062Y-63228965D01*
X88143944Y-63287744D01*
X88086316Y-63341132D01*
X86859879Y-64370235D01*
X86797295Y-64417717D01*
X86730359Y-64458836D01*
X86659714Y-64493196D01*
X86586042Y-64520466D01*
X86510052Y-64540384D01*
X86432475Y-64552758D01*
X86354059Y-64557468D01*
X86275559Y-64554470D01*
X86197731Y-64543791D01*
X86121324Y-64525536D01*
X86047074Y-64499879D01*
X85975697Y-64467068D01*
X85907880Y-64427419D01*
X85844275Y-64381314D01*
X85785496Y-64329196D01*
X85732108Y-64271568D01*
X84703005Y-63045131D01*
X84655523Y-62982547D01*
X84614404Y-62915611D01*
X84580044Y-62844966D01*
X84552774Y-62771294D01*
X84532856Y-62695304D01*
X84520482Y-62617727D01*
X84515772Y-62539311D01*
X84518770Y-62460811D01*
X84529449Y-62382983D01*
X84547704Y-62306576D01*
X84573361Y-62232326D01*
X84606172Y-62160949D01*
X84645821Y-62093132D01*
X84691926Y-62029527D01*
X84744044Y-61970748D01*
X84801672Y-61917360D01*
X86028109Y-60888257D01*
X86090693Y-60840775D01*
X86157629Y-60799656D01*
X86228274Y-60765296D01*
X86301946Y-60738026D01*
X86377936Y-60718108D01*
X86455513Y-60705734D01*
X86533929Y-60701024D01*
X86612429Y-60704022D01*
X86612429Y-60704022D01*
G37*
D22*
X86443994Y-62629246D03*
X86900000Y-69100000D03*
D21*
G36*
X87097334Y-66844460D02*
G01*
X89155540Y-69297334D01*
X86702666Y-71355540D01*
X84644460Y-68902666D01*
X87097334Y-66844460D01*
X87097334Y-66844460D01*
G37*
G36*
X44015447Y-75106775D02*
G01*
X44093275Y-75117454D01*
X44169682Y-75135709D01*
X44243932Y-75161366D01*
X44315309Y-75194177D01*
X44383126Y-75233826D01*
X44446731Y-75279931D01*
X44505510Y-75332049D01*
X44558898Y-75389677D01*
X45588001Y-76616114D01*
X45635483Y-76678698D01*
X45676602Y-76745634D01*
X45710962Y-76816279D01*
X45738232Y-76889951D01*
X45758150Y-76965941D01*
X45770524Y-77043518D01*
X45775234Y-77121934D01*
X45772236Y-77200434D01*
X45761557Y-77278262D01*
X45743302Y-77354669D01*
X45717645Y-77428919D01*
X45684834Y-77500296D01*
X45645185Y-77568113D01*
X45599080Y-77631718D01*
X45546962Y-77690497D01*
X45489334Y-77743885D01*
X44262897Y-78772988D01*
X44200313Y-78820470D01*
X44133377Y-78861589D01*
X44062732Y-78895949D01*
X43989060Y-78923219D01*
X43913070Y-78943137D01*
X43835493Y-78955511D01*
X43757077Y-78960221D01*
X43678577Y-78957223D01*
X43600749Y-78946544D01*
X43524342Y-78928289D01*
X43450092Y-78902632D01*
X43378715Y-78869821D01*
X43310898Y-78830172D01*
X43247293Y-78784067D01*
X43188514Y-78731949D01*
X43135126Y-78674321D01*
X42106023Y-77447884D01*
X42058541Y-77385300D01*
X42017422Y-77318364D01*
X41983062Y-77247719D01*
X41955792Y-77174047D01*
X41935874Y-77098057D01*
X41923500Y-77020480D01*
X41918790Y-76942064D01*
X41921788Y-76863564D01*
X41932467Y-76785736D01*
X41950722Y-76709329D01*
X41976379Y-76635079D01*
X42009190Y-76563702D01*
X42048839Y-76495885D01*
X42094944Y-76432280D01*
X42147062Y-76373501D01*
X42204690Y-76320113D01*
X43431127Y-75291010D01*
X43493711Y-75243528D01*
X43560647Y-75202409D01*
X43631292Y-75168049D01*
X43704964Y-75140779D01*
X43780954Y-75120861D01*
X43858531Y-75108487D01*
X43936947Y-75103777D01*
X44015447Y-75106775D01*
X44015447Y-75106775D01*
G37*
D22*
X43847012Y-77031999D03*
D21*
G36*
X37714522Y-73540490D02*
G01*
X37792350Y-73551169D01*
X37868757Y-73569424D01*
X37943007Y-73595081D01*
X38014384Y-73627892D01*
X38082201Y-73667541D01*
X38145806Y-73713646D01*
X38204585Y-73765764D01*
X38257973Y-73823392D01*
X39287076Y-75049829D01*
X39334558Y-75112413D01*
X39375677Y-75179349D01*
X39410037Y-75249994D01*
X39437307Y-75323666D01*
X39457225Y-75399656D01*
X39469599Y-75477233D01*
X39474309Y-75555649D01*
X39471311Y-75634149D01*
X39460632Y-75711977D01*
X39442377Y-75788384D01*
X39416720Y-75862634D01*
X39383909Y-75934011D01*
X39344260Y-76001828D01*
X39298155Y-76065433D01*
X39246037Y-76124212D01*
X39188409Y-76177600D01*
X37961972Y-77206703D01*
X37899388Y-77254185D01*
X37832452Y-77295304D01*
X37761807Y-77329664D01*
X37688135Y-77356934D01*
X37612145Y-77376852D01*
X37534568Y-77389226D01*
X37456152Y-77393936D01*
X37377652Y-77390938D01*
X37299824Y-77380259D01*
X37223417Y-77362004D01*
X37149167Y-77336347D01*
X37077790Y-77303536D01*
X37009973Y-77263887D01*
X36946368Y-77217782D01*
X36887589Y-77165664D01*
X36834201Y-77108036D01*
X35805098Y-75881599D01*
X35757616Y-75819015D01*
X35716497Y-75752079D01*
X35682137Y-75681434D01*
X35654867Y-75607762D01*
X35634949Y-75531772D01*
X35622575Y-75454195D01*
X35617865Y-75375779D01*
X35620863Y-75297279D01*
X35631542Y-75219451D01*
X35649797Y-75143044D01*
X35675454Y-75068794D01*
X35708265Y-74997417D01*
X35747914Y-74929600D01*
X35794019Y-74865995D01*
X35846137Y-74807216D01*
X35903765Y-74753828D01*
X37130202Y-73724725D01*
X37192786Y-73677243D01*
X37259722Y-73636124D01*
X37330367Y-73601764D01*
X37404039Y-73574494D01*
X37480029Y-73554576D01*
X37557606Y-73542202D01*
X37636022Y-73537492D01*
X37714522Y-73540490D01*
X37714522Y-73540490D01*
G37*
D22*
X37546087Y-75465714D03*
D21*
G36*
X33542830Y-68568862D02*
G01*
X33620658Y-68579541D01*
X33697065Y-68597796D01*
X33771315Y-68623453D01*
X33842692Y-68656264D01*
X33910509Y-68695913D01*
X33974114Y-68742018D01*
X34032893Y-68794136D01*
X34086281Y-68851764D01*
X35115384Y-70078201D01*
X35162866Y-70140785D01*
X35203985Y-70207721D01*
X35238345Y-70278366D01*
X35265615Y-70352038D01*
X35285533Y-70428028D01*
X35297907Y-70505605D01*
X35302617Y-70584021D01*
X35299619Y-70662521D01*
X35288940Y-70740349D01*
X35270685Y-70816756D01*
X35245028Y-70891006D01*
X35212217Y-70962383D01*
X35172568Y-71030200D01*
X35126463Y-71093805D01*
X35074345Y-71152584D01*
X35016717Y-71205972D01*
X33790280Y-72235075D01*
X33727696Y-72282557D01*
X33660760Y-72323676D01*
X33590115Y-72358036D01*
X33516443Y-72385306D01*
X33440453Y-72405224D01*
X33362876Y-72417598D01*
X33284460Y-72422308D01*
X33205960Y-72419310D01*
X33128132Y-72408631D01*
X33051725Y-72390376D01*
X32977475Y-72364719D01*
X32906098Y-72331908D01*
X32838281Y-72292259D01*
X32774676Y-72246154D01*
X32715897Y-72194036D01*
X32662509Y-72136408D01*
X31633406Y-70909971D01*
X31585924Y-70847387D01*
X31544805Y-70780451D01*
X31510445Y-70709806D01*
X31483175Y-70636134D01*
X31463257Y-70560144D01*
X31450883Y-70482567D01*
X31446173Y-70404151D01*
X31449171Y-70325651D01*
X31459850Y-70247823D01*
X31478105Y-70171416D01*
X31503762Y-70097166D01*
X31536573Y-70025789D01*
X31576222Y-69957972D01*
X31622327Y-69894367D01*
X31674445Y-69835588D01*
X31732073Y-69782200D01*
X32958510Y-68753097D01*
X33021094Y-68705615D01*
X33088030Y-68664496D01*
X33158675Y-68630136D01*
X33232347Y-68602866D01*
X33308337Y-68582948D01*
X33385914Y-68570574D01*
X33464330Y-68565864D01*
X33542830Y-68568862D01*
X33542830Y-68568862D01*
G37*
D22*
X33374395Y-70494086D03*
D21*
G36*
X33094485Y-62091680D02*
G01*
X33172313Y-62102359D01*
X33248720Y-62120614D01*
X33322970Y-62146271D01*
X33394347Y-62179082D01*
X33462164Y-62218731D01*
X33525769Y-62264836D01*
X33584548Y-62316954D01*
X33637936Y-62374582D01*
X34667039Y-63601019D01*
X34714521Y-63663603D01*
X34755640Y-63730539D01*
X34790000Y-63801184D01*
X34817270Y-63874856D01*
X34837188Y-63950846D01*
X34849562Y-64028423D01*
X34854272Y-64106839D01*
X34851274Y-64185339D01*
X34840595Y-64263167D01*
X34822340Y-64339574D01*
X34796683Y-64413824D01*
X34763872Y-64485201D01*
X34724223Y-64553018D01*
X34678118Y-64616623D01*
X34626000Y-64675402D01*
X34568372Y-64728790D01*
X33341935Y-65757893D01*
X33279351Y-65805375D01*
X33212415Y-65846494D01*
X33141770Y-65880854D01*
X33068098Y-65908124D01*
X32992108Y-65928042D01*
X32914531Y-65940416D01*
X32836115Y-65945126D01*
X32757615Y-65942128D01*
X32679787Y-65931449D01*
X32603380Y-65913194D01*
X32529130Y-65887537D01*
X32457753Y-65854726D01*
X32389936Y-65815077D01*
X32326331Y-65768972D01*
X32267552Y-65716854D01*
X32214164Y-65659226D01*
X31185061Y-64432789D01*
X31137579Y-64370205D01*
X31096460Y-64303269D01*
X31062100Y-64232624D01*
X31034830Y-64158952D01*
X31014912Y-64082962D01*
X31002538Y-64005385D01*
X30997828Y-63926969D01*
X31000826Y-63848469D01*
X31011505Y-63770641D01*
X31029760Y-63694234D01*
X31055417Y-63619984D01*
X31088228Y-63548607D01*
X31127877Y-63480790D01*
X31173982Y-63417185D01*
X31226100Y-63358406D01*
X31283728Y-63305018D01*
X32510165Y-62275915D01*
X32572749Y-62228433D01*
X32639685Y-62187314D01*
X32710330Y-62152954D01*
X32784002Y-62125684D01*
X32859992Y-62105766D01*
X32937569Y-62093392D01*
X33015985Y-62088682D01*
X33094485Y-62091680D01*
X33094485Y-62091680D01*
G37*
D22*
X32926050Y-64016904D03*
D21*
G36*
X36535404Y-56593592D02*
G01*
X36613232Y-56604271D01*
X36689639Y-56622526D01*
X36763889Y-56648183D01*
X36835266Y-56680994D01*
X36903083Y-56720643D01*
X36966688Y-56766748D01*
X37025467Y-56818866D01*
X37078855Y-56876494D01*
X38107958Y-58102931D01*
X38155440Y-58165515D01*
X38196559Y-58232451D01*
X38230919Y-58303096D01*
X38258189Y-58376768D01*
X38278107Y-58452758D01*
X38290481Y-58530335D01*
X38295191Y-58608751D01*
X38292193Y-58687251D01*
X38281514Y-58765079D01*
X38263259Y-58841486D01*
X38237602Y-58915736D01*
X38204791Y-58987113D01*
X38165142Y-59054930D01*
X38119037Y-59118535D01*
X38066919Y-59177314D01*
X38009291Y-59230702D01*
X36782854Y-60259805D01*
X36720270Y-60307287D01*
X36653334Y-60348406D01*
X36582689Y-60382766D01*
X36509017Y-60410036D01*
X36433027Y-60429954D01*
X36355450Y-60442328D01*
X36277034Y-60447038D01*
X36198534Y-60444040D01*
X36120706Y-60433361D01*
X36044299Y-60415106D01*
X35970049Y-60389449D01*
X35898672Y-60356638D01*
X35830855Y-60316989D01*
X35767250Y-60270884D01*
X35708471Y-60218766D01*
X35655083Y-60161138D01*
X34625980Y-58934701D01*
X34578498Y-58872117D01*
X34537379Y-58805181D01*
X34503019Y-58734536D01*
X34475749Y-58660864D01*
X34455831Y-58584874D01*
X34443457Y-58507297D01*
X34438747Y-58428881D01*
X34441745Y-58350381D01*
X34452424Y-58272553D01*
X34470679Y-58196146D01*
X34496336Y-58121896D01*
X34529147Y-58050519D01*
X34568796Y-57982702D01*
X34614901Y-57919097D01*
X34667019Y-57860318D01*
X34724647Y-57806930D01*
X35951084Y-56777827D01*
X36013668Y-56730345D01*
X36080604Y-56689226D01*
X36151249Y-56654866D01*
X36224921Y-56627596D01*
X36300911Y-56607678D01*
X36378488Y-56595304D01*
X36456904Y-56590594D01*
X36535404Y-56593592D01*
X36535404Y-56593592D01*
G37*
D22*
X36366969Y-58518816D03*
D21*
G36*
X42547474Y-54159681D02*
G01*
X42625302Y-54170360D01*
X42701709Y-54188615D01*
X42775959Y-54214272D01*
X42847336Y-54247083D01*
X42915153Y-54286732D01*
X42978758Y-54332837D01*
X43037537Y-54384955D01*
X43090925Y-54442583D01*
X44120028Y-55669020D01*
X44167510Y-55731604D01*
X44208629Y-55798540D01*
X44242989Y-55869185D01*
X44270259Y-55942857D01*
X44290177Y-56018847D01*
X44302551Y-56096424D01*
X44307261Y-56174840D01*
X44304263Y-56253340D01*
X44293584Y-56331168D01*
X44275329Y-56407575D01*
X44249672Y-56481825D01*
X44216861Y-56553202D01*
X44177212Y-56621019D01*
X44131107Y-56684624D01*
X44078989Y-56743403D01*
X44021361Y-56796791D01*
X42794924Y-57825894D01*
X42732340Y-57873376D01*
X42665404Y-57914495D01*
X42594759Y-57948855D01*
X42521087Y-57976125D01*
X42445097Y-57996043D01*
X42367520Y-58008417D01*
X42289104Y-58013127D01*
X42210604Y-58010129D01*
X42132776Y-57999450D01*
X42056369Y-57981195D01*
X41982119Y-57955538D01*
X41910742Y-57922727D01*
X41842925Y-57883078D01*
X41779320Y-57836973D01*
X41720541Y-57784855D01*
X41667153Y-57727227D01*
X40638050Y-56500790D01*
X40590568Y-56438206D01*
X40549449Y-56371270D01*
X40515089Y-56300625D01*
X40487819Y-56226953D01*
X40467901Y-56150963D01*
X40455527Y-56073386D01*
X40450817Y-55994970D01*
X40453815Y-55916470D01*
X40464494Y-55838642D01*
X40482749Y-55762235D01*
X40508406Y-55687985D01*
X40541217Y-55616608D01*
X40580866Y-55548791D01*
X40626971Y-55485186D01*
X40679089Y-55426407D01*
X40736717Y-55373019D01*
X41963154Y-54343916D01*
X42025738Y-54296434D01*
X42092674Y-54255315D01*
X42163319Y-54220955D01*
X42236991Y-54193685D01*
X42312981Y-54173767D01*
X42390558Y-54161393D01*
X42468974Y-54156683D01*
X42547474Y-54159681D01*
X42547474Y-54159681D01*
G37*
D22*
X42379039Y-56084905D03*
D21*
G36*
X48840738Y-55732393D02*
G01*
X48918566Y-55743072D01*
X48994973Y-55761327D01*
X49069223Y-55786984D01*
X49140600Y-55819795D01*
X49208417Y-55859444D01*
X49272022Y-55905549D01*
X49330801Y-55957667D01*
X49384189Y-56015295D01*
X50413292Y-57241732D01*
X50460774Y-57304316D01*
X50501893Y-57371252D01*
X50536253Y-57441897D01*
X50563523Y-57515569D01*
X50583441Y-57591559D01*
X50595815Y-57669136D01*
X50600525Y-57747552D01*
X50597527Y-57826052D01*
X50586848Y-57903880D01*
X50568593Y-57980287D01*
X50542936Y-58054537D01*
X50510125Y-58125914D01*
X50470476Y-58193731D01*
X50424371Y-58257336D01*
X50372253Y-58316115D01*
X50314625Y-58369503D01*
X49088188Y-59398606D01*
X49025604Y-59446088D01*
X48958668Y-59487207D01*
X48888023Y-59521567D01*
X48814351Y-59548837D01*
X48738361Y-59568755D01*
X48660784Y-59581129D01*
X48582368Y-59585839D01*
X48503868Y-59582841D01*
X48426040Y-59572162D01*
X48349633Y-59553907D01*
X48275383Y-59528250D01*
X48204006Y-59495439D01*
X48136189Y-59455790D01*
X48072584Y-59409685D01*
X48013805Y-59357567D01*
X47960417Y-59299939D01*
X46931314Y-58073502D01*
X46883832Y-58010918D01*
X46842713Y-57943982D01*
X46808353Y-57873337D01*
X46781083Y-57799665D01*
X46761165Y-57723675D01*
X46748791Y-57646098D01*
X46744081Y-57567682D01*
X46747079Y-57489182D01*
X46757758Y-57411354D01*
X46776013Y-57334947D01*
X46801670Y-57260697D01*
X46834481Y-57189320D01*
X46874130Y-57121503D01*
X46920235Y-57057898D01*
X46972353Y-56999119D01*
X47029981Y-56945731D01*
X48256418Y-55916628D01*
X48319002Y-55869146D01*
X48385938Y-55828027D01*
X48456583Y-55793667D01*
X48530255Y-55766397D01*
X48606245Y-55746479D01*
X48683822Y-55734105D01*
X48762238Y-55729395D01*
X48840738Y-55732393D01*
X48840738Y-55732393D01*
G37*
D22*
X48672303Y-57657617D03*
D21*
G36*
X53012429Y-60704022D02*
G01*
X53090257Y-60714701D01*
X53166664Y-60732956D01*
X53240914Y-60758613D01*
X53312291Y-60791424D01*
X53380108Y-60831073D01*
X53443713Y-60877178D01*
X53502492Y-60929296D01*
X53555880Y-60986924D01*
X54584983Y-62213361D01*
X54632465Y-62275945D01*
X54673584Y-62342881D01*
X54707944Y-62413526D01*
X54735214Y-62487198D01*
X54755132Y-62563188D01*
X54767506Y-62640765D01*
X54772216Y-62719181D01*
X54769218Y-62797681D01*
X54758539Y-62875509D01*
X54740284Y-62951916D01*
X54714627Y-63026166D01*
X54681816Y-63097543D01*
X54642167Y-63165360D01*
X54596062Y-63228965D01*
X54543944Y-63287744D01*
X54486316Y-63341132D01*
X53259879Y-64370235D01*
X53197295Y-64417717D01*
X53130359Y-64458836D01*
X53059714Y-64493196D01*
X52986042Y-64520466D01*
X52910052Y-64540384D01*
X52832475Y-64552758D01*
X52754059Y-64557468D01*
X52675559Y-64554470D01*
X52597731Y-64543791D01*
X52521324Y-64525536D01*
X52447074Y-64499879D01*
X52375697Y-64467068D01*
X52307880Y-64427419D01*
X52244275Y-64381314D01*
X52185496Y-64329196D01*
X52132108Y-64271568D01*
X51103005Y-63045131D01*
X51055523Y-62982547D01*
X51014404Y-62915611D01*
X50980044Y-62844966D01*
X50952774Y-62771294D01*
X50932856Y-62695304D01*
X50920482Y-62617727D01*
X50915772Y-62539311D01*
X50918770Y-62460811D01*
X50929449Y-62382983D01*
X50947704Y-62306576D01*
X50973361Y-62232326D01*
X51006172Y-62160949D01*
X51045821Y-62093132D01*
X51091926Y-62029527D01*
X51144044Y-61970748D01*
X51201672Y-61917360D01*
X52428109Y-60888257D01*
X52490693Y-60840775D01*
X52557629Y-60799656D01*
X52628274Y-60765296D01*
X52701946Y-60738026D01*
X52777936Y-60718108D01*
X52855513Y-60705734D01*
X52933929Y-60701024D01*
X53012429Y-60704022D01*
X53012429Y-60704022D01*
G37*
D22*
X52843994Y-62629246D03*
X53300000Y-69100000D03*
D21*
G36*
X53497334Y-66844460D02*
G01*
X55555540Y-69297334D01*
X53102666Y-71355540D01*
X51044460Y-68902666D01*
X53497334Y-66844460D01*
X53497334Y-66844460D01*
G37*
D23*
X51550000Y-98700000D03*
D21*
G36*
X52059950Y-97899980D02*
G01*
X52069517Y-97902882D01*
X52078334Y-97907595D01*
X52086062Y-97913938D01*
X52092405Y-97921666D01*
X52097118Y-97930483D01*
X52100020Y-97940050D01*
X52101000Y-97950000D01*
X52101000Y-99450000D01*
X52100020Y-99459950D01*
X52097118Y-99469517D01*
X52092405Y-99478334D01*
X52086062Y-99486062D01*
X52078334Y-99492405D01*
X52069517Y-99497118D01*
X52059950Y-99500020D01*
X52050000Y-99501000D01*
X51550000Y-99501000D01*
X51543888Y-99500398D01*
X51525466Y-99500398D01*
X51520467Y-99500152D01*
X51471636Y-99495342D01*
X51466686Y-99494608D01*
X51418561Y-99485036D01*
X51413705Y-99483820D01*
X51366750Y-99469576D01*
X51362039Y-99467890D01*
X51316706Y-99449113D01*
X51312180Y-99446973D01*
X51268907Y-99423842D01*
X51264616Y-99421269D01*
X51223817Y-99394009D01*
X51219796Y-99391027D01*
X51181867Y-99359899D01*
X51178159Y-99356538D01*
X51143462Y-99321841D01*
X51140101Y-99318133D01*
X51108973Y-99280204D01*
X51105991Y-99276183D01*
X51078731Y-99235384D01*
X51076158Y-99231093D01*
X51053027Y-99187820D01*
X51050887Y-99183294D01*
X51032110Y-99137961D01*
X51030424Y-99133250D01*
X51016180Y-99086295D01*
X51014964Y-99081439D01*
X51005392Y-99033314D01*
X51004658Y-99028364D01*
X50999848Y-98979533D01*
X50999602Y-98974534D01*
X50999602Y-98956112D01*
X50999000Y-98950000D01*
X50999000Y-98450000D01*
X50999602Y-98443888D01*
X50999602Y-98425466D01*
X50999848Y-98420467D01*
X51004658Y-98371636D01*
X51005392Y-98366686D01*
X51014964Y-98318561D01*
X51016180Y-98313705D01*
X51030424Y-98266750D01*
X51032110Y-98262039D01*
X51050887Y-98216706D01*
X51053027Y-98212180D01*
X51076158Y-98168907D01*
X51078731Y-98164616D01*
X51105991Y-98123817D01*
X51108973Y-98119796D01*
X51140101Y-98081867D01*
X51143462Y-98078159D01*
X51178159Y-98043462D01*
X51181867Y-98040101D01*
X51219796Y-98008973D01*
X51223817Y-98005991D01*
X51264616Y-97978731D01*
X51268907Y-97976158D01*
X51312180Y-97953027D01*
X51316706Y-97950887D01*
X51362039Y-97932110D01*
X51366750Y-97930424D01*
X51413705Y-97916180D01*
X51418561Y-97914964D01*
X51466686Y-97905392D01*
X51471636Y-97904658D01*
X51520467Y-97899848D01*
X51525466Y-97899602D01*
X51543888Y-97899602D01*
X51550000Y-97899000D01*
X52050000Y-97899000D01*
X52059950Y-97899980D01*
X52059950Y-97899980D01*
G37*
D23*
X52850000Y-98700000D03*
D21*
G36*
X52856112Y-97899602D02*
G01*
X52874534Y-97899602D01*
X52879533Y-97899848D01*
X52928364Y-97904658D01*
X52933314Y-97905392D01*
X52981439Y-97914964D01*
X52986295Y-97916180D01*
X53033250Y-97930424D01*
X53037961Y-97932110D01*
X53083294Y-97950887D01*
X53087820Y-97953027D01*
X53131093Y-97976158D01*
X53135384Y-97978731D01*
X53176183Y-98005991D01*
X53180204Y-98008973D01*
X53218133Y-98040101D01*
X53221841Y-98043462D01*
X53256538Y-98078159D01*
X53259899Y-98081867D01*
X53291027Y-98119796D01*
X53294009Y-98123817D01*
X53321269Y-98164616D01*
X53323842Y-98168907D01*
X53346973Y-98212180D01*
X53349113Y-98216706D01*
X53367890Y-98262039D01*
X53369576Y-98266750D01*
X53383820Y-98313705D01*
X53385036Y-98318561D01*
X53394608Y-98366686D01*
X53395342Y-98371636D01*
X53400152Y-98420467D01*
X53400398Y-98425466D01*
X53400398Y-98443888D01*
X53401000Y-98450000D01*
X53401000Y-98950000D01*
X53400398Y-98956112D01*
X53400398Y-98974534D01*
X53400152Y-98979533D01*
X53395342Y-99028364D01*
X53394608Y-99033314D01*
X53385036Y-99081439D01*
X53383820Y-99086295D01*
X53369576Y-99133250D01*
X53367890Y-99137961D01*
X53349113Y-99183294D01*
X53346973Y-99187820D01*
X53323842Y-99231093D01*
X53321269Y-99235384D01*
X53294009Y-99276183D01*
X53291027Y-99280204D01*
X53259899Y-99318133D01*
X53256538Y-99321841D01*
X53221841Y-99356538D01*
X53218133Y-99359899D01*
X53180204Y-99391027D01*
X53176183Y-99394009D01*
X53135384Y-99421269D01*
X53131093Y-99423842D01*
X53087820Y-99446973D01*
X53083294Y-99449113D01*
X53037961Y-99467890D01*
X53033250Y-99469576D01*
X52986295Y-99483820D01*
X52981439Y-99485036D01*
X52933314Y-99494608D01*
X52928364Y-99495342D01*
X52879533Y-99500152D01*
X52874534Y-99500398D01*
X52856112Y-99500398D01*
X52850000Y-99501000D01*
X52350000Y-99501000D01*
X52340050Y-99500020D01*
X52330483Y-99497118D01*
X52321666Y-99492405D01*
X52313938Y-99486062D01*
X52307595Y-99478334D01*
X52302882Y-99469517D01*
X52299980Y-99459950D01*
X52299000Y-99450000D01*
X52299000Y-97950000D01*
X52299980Y-97940050D01*
X52302882Y-97930483D01*
X52307595Y-97921666D01*
X52313938Y-97913938D01*
X52321666Y-97907595D01*
X52330483Y-97902882D01*
X52340050Y-97899980D01*
X52350000Y-97899000D01*
X52850000Y-97899000D01*
X52856112Y-97899602D01*
X52856112Y-97899602D01*
G37*
D24*
X99200000Y-62400000D03*
D25*
X99200000Y-57400000D03*
D18*
X72500000Y-93800000D03*
D26*
X72500000Y-91300000D03*
D25*
X31500000Y-81600000D03*
X39000000Y-81600000D03*
D18*
X91400000Y-62400000D03*
D17*
X91400000Y-70020000D03*
X60880000Y-54500000D03*
D18*
X68500000Y-54500000D03*
X95800000Y-67500000D03*
D17*
X95800000Y-75120000D03*
X78520000Y-84400000D03*
D18*
X70900000Y-84400000D03*
X93400000Y-54500000D03*
D17*
X85780000Y-54500000D03*
D18*
X99300000Y-75100000D03*
D17*
X99300000Y-67480000D03*
X57700000Y-71320000D03*
D18*
X57700000Y-63700000D03*
X57700000Y-81100000D03*
D17*
X57700000Y-73480000D03*
X54120000Y-81000000D03*
D18*
X46500000Y-81000000D03*
X56300000Y-84000000D03*
D17*
X63920000Y-84000000D03*
X54120000Y-84100000D03*
D18*
X46500000Y-84100000D03*
D17*
X102580000Y-75100000D03*
D18*
X110200000Y-75100000D03*
D26*
X57600000Y-56400000D03*
D18*
X55100000Y-56400000D03*
D27*
X34500000Y-97200000D03*
D28*
X34500000Y-92120000D03*
X34500000Y-87040000D03*
D16*
X85500000Y-83980000D03*
D15*
X88040000Y-84000000D03*
X90580000Y-84000000D03*
X93120000Y-84000000D03*
X95660000Y-84000000D03*
X98200000Y-84000000D03*
D25*
X61500000Y-63400000D03*
X61500000Y-70900000D03*
X67400000Y-79900000D03*
X67400000Y-87400000D03*
X56345000Y-92400000D03*
X63845000Y-92400000D03*
M02*
