M48
; DRILL file {KiCad (5.1.0)-1} date 22/04/2019 23:51:07
; FORMAT={-:-/ absolute / metric / decimal}
; #@! TF.CreationDate,2019-04-22T23:51:07+02:00
; #@! TF.GenerationSoftware,Kicad,Pcbnew,(5.1.0)-1
FMAT,2
METRIC
T1C0.800
T2C1.000
T3C1.200
T4C1.520
T5C2.000
T6C3.200
%
G90
G05
T1
X60.88Y-54.5
X68.5Y-54.5
X72.5Y-91.3
X72.5Y-93.8
X46.5Y-84.1
X54.12Y-84.1
X57.7Y-63.7
X57.7Y-71.32
X57.7Y-73.48
X57.7Y-81.1
X70.9Y-84.4
X78.52Y-84.4
X56.28Y-87.4
X63.9Y-87.4
X46.5Y-81.0
X54.12Y-81.0
X95.8Y-67.5
X95.8Y-75.12
X102.58Y-75.1
X110.2Y-75.1
X91.4Y-62.4
X91.4Y-70.02
X85.78Y-54.5
X93.4Y-54.5
X56.3Y-84.0
X63.92Y-84.0
X61.5Y-73.5
X61.5Y-81.12
X99.3Y-67.48
X99.3Y-75.1
X70.9Y-81.3
X78.52Y-81.3
X55.1Y-56.4
X57.6Y-56.4
T2
X31.5Y-81.6
X39.0Y-81.6
X67.4Y-79.9
X67.4Y-87.4
X61.5Y-63.4
X61.5Y-70.9
X56.345Y-92.4
X63.845Y-92.4
X99.2Y-57.4
X99.2Y-62.4
X85.5Y-83.98
X88.04Y-84.0
X90.58Y-84.0
X93.12Y-84.0
X95.66Y-84.0
X98.2Y-84.0
X116.42Y-84.0
X118.96Y-84.0
X121.5Y-84.0
X124.04Y-84.0
X126.58Y-84.0
T3
X111.7Y-57.4
X111.7Y-62.4
T4
X34.5Y-87.04
X34.5Y-92.12
X34.5Y-97.2
T5
X66.526Y-64.017
X66.974Y-70.494
X69.967Y-58.519
X71.146Y-75.466
X75.979Y-56.085
X77.447Y-77.032
X82.272Y-57.658
X86.444Y-62.629
X86.9Y-69.1
X32.926Y-64.017
X33.374Y-70.494
X36.367Y-58.519
X37.546Y-75.466
X42.379Y-56.085
X43.847Y-77.032
X48.672Y-57.658
X52.844Y-62.629
X53.3Y-69.1
T6
G00X48.6Y-92.6
M15
G01X48.6Y-96.4
M16
G05
T0
M30
