G04 #@! TF.GenerationSoftware,KiCad,Pcbnew,(5.1.0)-1*
G04 #@! TF.CreationDate,2019-04-19T18:26:43+02:00*
G04 #@! TF.ProjectId,pcb_tube,7063625f-7475-4626-952e-6b696361645f,rev?*
G04 #@! TF.SameCoordinates,Original*
G04 #@! TF.FileFunction,Legend,Bot*
G04 #@! TF.FilePolarity,Positive*
%FSLAX46Y46*%
G04 Gerber Fmt 4.6, Leading zero omitted, Abs format (unit mm)*
G04 Created by KiCad (PCBNEW (5.1.0)-1) date 2019-04-19 18:26:43*
%MOMM*%
%LPD*%
G04 APERTURE LIST*
%ADD10C,0.100000*%
%ADD11O,6.502000X10.102000*%
%ADD12O,1.802000X1.802000*%
%ADD13R,1.802000X1.802000*%
%ADD14O,1.702000X1.702000*%
%ADD15C,1.702000*%
%ADD16R,2.502000X2.502000*%
%ADD17C,2.502000*%
%ADD18C,0.200000*%
%ADD19C,3.202000*%
%ADD20R,2.102000X2.102000*%
%ADD21C,2.102000*%
%ADD22R,1.702000X1.702000*%
%ADD23R,3.102000X3.102000*%
%ADD24C,3.102000*%
G04 APERTURE END LIST*
%LPC*%
D10*
G36*
X52100000Y-99950000D02*
G01*
X45150000Y-99950000D01*
X45125000Y-89400000D01*
X52075000Y-89400000D01*
X52100000Y-99950000D01*
G37*
X52100000Y-99950000D02*
X45150000Y-99950000D01*
X45125000Y-89400000D01*
X52075000Y-89400000D01*
X52100000Y-99950000D01*
D11*
X48600000Y-94500000D03*
D12*
X126580000Y-84000000D03*
X124040000Y-84000000D03*
X121500000Y-84000000D03*
X118960000Y-84000000D03*
D13*
X116420000Y-84000000D03*
D14*
X56280000Y-87400000D03*
D15*
X63900000Y-87400000D03*
D14*
X61500000Y-81120000D03*
D15*
X61500000Y-73500000D03*
D14*
X78520000Y-81300000D03*
D15*
X70900000Y-81300000D03*
D16*
X111700000Y-62400000D03*
D17*
X111700000Y-57400000D03*
D18*
G36*
X77615447Y-75106775D02*
G01*
X77693275Y-75117454D01*
X77769682Y-75135709D01*
X77843932Y-75161366D01*
X77915309Y-75194177D01*
X77983126Y-75233826D01*
X78046731Y-75279931D01*
X78105510Y-75332049D01*
X78158898Y-75389677D01*
X79188001Y-76616114D01*
X79235483Y-76678698D01*
X79276602Y-76745634D01*
X79310962Y-76816279D01*
X79338232Y-76889951D01*
X79358150Y-76965941D01*
X79370524Y-77043518D01*
X79375234Y-77121934D01*
X79372236Y-77200434D01*
X79361557Y-77278262D01*
X79343302Y-77354669D01*
X79317645Y-77428919D01*
X79284834Y-77500296D01*
X79245185Y-77568113D01*
X79199080Y-77631718D01*
X79146962Y-77690497D01*
X79089334Y-77743885D01*
X77862897Y-78772988D01*
X77800313Y-78820470D01*
X77733377Y-78861589D01*
X77662732Y-78895949D01*
X77589060Y-78923219D01*
X77513070Y-78943137D01*
X77435493Y-78955511D01*
X77357077Y-78960221D01*
X77278577Y-78957223D01*
X77200749Y-78946544D01*
X77124342Y-78928289D01*
X77050092Y-78902632D01*
X76978715Y-78869821D01*
X76910898Y-78830172D01*
X76847293Y-78784067D01*
X76788514Y-78731949D01*
X76735126Y-78674321D01*
X75706023Y-77447884D01*
X75658541Y-77385300D01*
X75617422Y-77318364D01*
X75583062Y-77247719D01*
X75555792Y-77174047D01*
X75535874Y-77098057D01*
X75523500Y-77020480D01*
X75518790Y-76942064D01*
X75521788Y-76863564D01*
X75532467Y-76785736D01*
X75550722Y-76709329D01*
X75576379Y-76635079D01*
X75609190Y-76563702D01*
X75648839Y-76495885D01*
X75694944Y-76432280D01*
X75747062Y-76373501D01*
X75804690Y-76320113D01*
X77031127Y-75291010D01*
X77093711Y-75243528D01*
X77160647Y-75202409D01*
X77231292Y-75168049D01*
X77304964Y-75140779D01*
X77380954Y-75120861D01*
X77458531Y-75108487D01*
X77536947Y-75103777D01*
X77615447Y-75106775D01*
X77615447Y-75106775D01*
G37*
D19*
X77447012Y-77031999D03*
D18*
G36*
X71314522Y-73540490D02*
G01*
X71392350Y-73551169D01*
X71468757Y-73569424D01*
X71543007Y-73595081D01*
X71614384Y-73627892D01*
X71682201Y-73667541D01*
X71745806Y-73713646D01*
X71804585Y-73765764D01*
X71857973Y-73823392D01*
X72887076Y-75049829D01*
X72934558Y-75112413D01*
X72975677Y-75179349D01*
X73010037Y-75249994D01*
X73037307Y-75323666D01*
X73057225Y-75399656D01*
X73069599Y-75477233D01*
X73074309Y-75555649D01*
X73071311Y-75634149D01*
X73060632Y-75711977D01*
X73042377Y-75788384D01*
X73016720Y-75862634D01*
X72983909Y-75934011D01*
X72944260Y-76001828D01*
X72898155Y-76065433D01*
X72846037Y-76124212D01*
X72788409Y-76177600D01*
X71561972Y-77206703D01*
X71499388Y-77254185D01*
X71432452Y-77295304D01*
X71361807Y-77329664D01*
X71288135Y-77356934D01*
X71212145Y-77376852D01*
X71134568Y-77389226D01*
X71056152Y-77393936D01*
X70977652Y-77390938D01*
X70899824Y-77380259D01*
X70823417Y-77362004D01*
X70749167Y-77336347D01*
X70677790Y-77303536D01*
X70609973Y-77263887D01*
X70546368Y-77217782D01*
X70487589Y-77165664D01*
X70434201Y-77108036D01*
X69405098Y-75881599D01*
X69357616Y-75819015D01*
X69316497Y-75752079D01*
X69282137Y-75681434D01*
X69254867Y-75607762D01*
X69234949Y-75531772D01*
X69222575Y-75454195D01*
X69217865Y-75375779D01*
X69220863Y-75297279D01*
X69231542Y-75219451D01*
X69249797Y-75143044D01*
X69275454Y-75068794D01*
X69308265Y-74997417D01*
X69347914Y-74929600D01*
X69394019Y-74865995D01*
X69446137Y-74807216D01*
X69503765Y-74753828D01*
X70730202Y-73724725D01*
X70792786Y-73677243D01*
X70859722Y-73636124D01*
X70930367Y-73601764D01*
X71004039Y-73574494D01*
X71080029Y-73554576D01*
X71157606Y-73542202D01*
X71236022Y-73537492D01*
X71314522Y-73540490D01*
X71314522Y-73540490D01*
G37*
D19*
X71146087Y-75465714D03*
D18*
G36*
X67142830Y-68568862D02*
G01*
X67220658Y-68579541D01*
X67297065Y-68597796D01*
X67371315Y-68623453D01*
X67442692Y-68656264D01*
X67510509Y-68695913D01*
X67574114Y-68742018D01*
X67632893Y-68794136D01*
X67686281Y-68851764D01*
X68715384Y-70078201D01*
X68762866Y-70140785D01*
X68803985Y-70207721D01*
X68838345Y-70278366D01*
X68865615Y-70352038D01*
X68885533Y-70428028D01*
X68897907Y-70505605D01*
X68902617Y-70584021D01*
X68899619Y-70662521D01*
X68888940Y-70740349D01*
X68870685Y-70816756D01*
X68845028Y-70891006D01*
X68812217Y-70962383D01*
X68772568Y-71030200D01*
X68726463Y-71093805D01*
X68674345Y-71152584D01*
X68616717Y-71205972D01*
X67390280Y-72235075D01*
X67327696Y-72282557D01*
X67260760Y-72323676D01*
X67190115Y-72358036D01*
X67116443Y-72385306D01*
X67040453Y-72405224D01*
X66962876Y-72417598D01*
X66884460Y-72422308D01*
X66805960Y-72419310D01*
X66728132Y-72408631D01*
X66651725Y-72390376D01*
X66577475Y-72364719D01*
X66506098Y-72331908D01*
X66438281Y-72292259D01*
X66374676Y-72246154D01*
X66315897Y-72194036D01*
X66262509Y-72136408D01*
X65233406Y-70909971D01*
X65185924Y-70847387D01*
X65144805Y-70780451D01*
X65110445Y-70709806D01*
X65083175Y-70636134D01*
X65063257Y-70560144D01*
X65050883Y-70482567D01*
X65046173Y-70404151D01*
X65049171Y-70325651D01*
X65059850Y-70247823D01*
X65078105Y-70171416D01*
X65103762Y-70097166D01*
X65136573Y-70025789D01*
X65176222Y-69957972D01*
X65222327Y-69894367D01*
X65274445Y-69835588D01*
X65332073Y-69782200D01*
X66558510Y-68753097D01*
X66621094Y-68705615D01*
X66688030Y-68664496D01*
X66758675Y-68630136D01*
X66832347Y-68602866D01*
X66908337Y-68582948D01*
X66985914Y-68570574D01*
X67064330Y-68565864D01*
X67142830Y-68568862D01*
X67142830Y-68568862D01*
G37*
D19*
X66974395Y-70494086D03*
D18*
G36*
X66694485Y-62091680D02*
G01*
X66772313Y-62102359D01*
X66848720Y-62120614D01*
X66922970Y-62146271D01*
X66994347Y-62179082D01*
X67062164Y-62218731D01*
X67125769Y-62264836D01*
X67184548Y-62316954D01*
X67237936Y-62374582D01*
X68267039Y-63601019D01*
X68314521Y-63663603D01*
X68355640Y-63730539D01*
X68390000Y-63801184D01*
X68417270Y-63874856D01*
X68437188Y-63950846D01*
X68449562Y-64028423D01*
X68454272Y-64106839D01*
X68451274Y-64185339D01*
X68440595Y-64263167D01*
X68422340Y-64339574D01*
X68396683Y-64413824D01*
X68363872Y-64485201D01*
X68324223Y-64553018D01*
X68278118Y-64616623D01*
X68226000Y-64675402D01*
X68168372Y-64728790D01*
X66941935Y-65757893D01*
X66879351Y-65805375D01*
X66812415Y-65846494D01*
X66741770Y-65880854D01*
X66668098Y-65908124D01*
X66592108Y-65928042D01*
X66514531Y-65940416D01*
X66436115Y-65945126D01*
X66357615Y-65942128D01*
X66279787Y-65931449D01*
X66203380Y-65913194D01*
X66129130Y-65887537D01*
X66057753Y-65854726D01*
X65989936Y-65815077D01*
X65926331Y-65768972D01*
X65867552Y-65716854D01*
X65814164Y-65659226D01*
X64785061Y-64432789D01*
X64737579Y-64370205D01*
X64696460Y-64303269D01*
X64662100Y-64232624D01*
X64634830Y-64158952D01*
X64614912Y-64082962D01*
X64602538Y-64005385D01*
X64597828Y-63926969D01*
X64600826Y-63848469D01*
X64611505Y-63770641D01*
X64629760Y-63694234D01*
X64655417Y-63619984D01*
X64688228Y-63548607D01*
X64727877Y-63480790D01*
X64773982Y-63417185D01*
X64826100Y-63358406D01*
X64883728Y-63305018D01*
X66110165Y-62275915D01*
X66172749Y-62228433D01*
X66239685Y-62187314D01*
X66310330Y-62152954D01*
X66384002Y-62125684D01*
X66459992Y-62105766D01*
X66537569Y-62093392D01*
X66615985Y-62088682D01*
X66694485Y-62091680D01*
X66694485Y-62091680D01*
G37*
D19*
X66526050Y-64016904D03*
D18*
G36*
X70135404Y-56593592D02*
G01*
X70213232Y-56604271D01*
X70289639Y-56622526D01*
X70363889Y-56648183D01*
X70435266Y-56680994D01*
X70503083Y-56720643D01*
X70566688Y-56766748D01*
X70625467Y-56818866D01*
X70678855Y-56876494D01*
X71707958Y-58102931D01*
X71755440Y-58165515D01*
X71796559Y-58232451D01*
X71830919Y-58303096D01*
X71858189Y-58376768D01*
X71878107Y-58452758D01*
X71890481Y-58530335D01*
X71895191Y-58608751D01*
X71892193Y-58687251D01*
X71881514Y-58765079D01*
X71863259Y-58841486D01*
X71837602Y-58915736D01*
X71804791Y-58987113D01*
X71765142Y-59054930D01*
X71719037Y-59118535D01*
X71666919Y-59177314D01*
X71609291Y-59230702D01*
X70382854Y-60259805D01*
X70320270Y-60307287D01*
X70253334Y-60348406D01*
X70182689Y-60382766D01*
X70109017Y-60410036D01*
X70033027Y-60429954D01*
X69955450Y-60442328D01*
X69877034Y-60447038D01*
X69798534Y-60444040D01*
X69720706Y-60433361D01*
X69644299Y-60415106D01*
X69570049Y-60389449D01*
X69498672Y-60356638D01*
X69430855Y-60316989D01*
X69367250Y-60270884D01*
X69308471Y-60218766D01*
X69255083Y-60161138D01*
X68225980Y-58934701D01*
X68178498Y-58872117D01*
X68137379Y-58805181D01*
X68103019Y-58734536D01*
X68075749Y-58660864D01*
X68055831Y-58584874D01*
X68043457Y-58507297D01*
X68038747Y-58428881D01*
X68041745Y-58350381D01*
X68052424Y-58272553D01*
X68070679Y-58196146D01*
X68096336Y-58121896D01*
X68129147Y-58050519D01*
X68168796Y-57982702D01*
X68214901Y-57919097D01*
X68267019Y-57860318D01*
X68324647Y-57806930D01*
X69551084Y-56777827D01*
X69613668Y-56730345D01*
X69680604Y-56689226D01*
X69751249Y-56654866D01*
X69824921Y-56627596D01*
X69900911Y-56607678D01*
X69978488Y-56595304D01*
X70056904Y-56590594D01*
X70135404Y-56593592D01*
X70135404Y-56593592D01*
G37*
D19*
X69966969Y-58518816D03*
D18*
G36*
X76147474Y-54159681D02*
G01*
X76225302Y-54170360D01*
X76301709Y-54188615D01*
X76375959Y-54214272D01*
X76447336Y-54247083D01*
X76515153Y-54286732D01*
X76578758Y-54332837D01*
X76637537Y-54384955D01*
X76690925Y-54442583D01*
X77720028Y-55669020D01*
X77767510Y-55731604D01*
X77808629Y-55798540D01*
X77842989Y-55869185D01*
X77870259Y-55942857D01*
X77890177Y-56018847D01*
X77902551Y-56096424D01*
X77907261Y-56174840D01*
X77904263Y-56253340D01*
X77893584Y-56331168D01*
X77875329Y-56407575D01*
X77849672Y-56481825D01*
X77816861Y-56553202D01*
X77777212Y-56621019D01*
X77731107Y-56684624D01*
X77678989Y-56743403D01*
X77621361Y-56796791D01*
X76394924Y-57825894D01*
X76332340Y-57873376D01*
X76265404Y-57914495D01*
X76194759Y-57948855D01*
X76121087Y-57976125D01*
X76045097Y-57996043D01*
X75967520Y-58008417D01*
X75889104Y-58013127D01*
X75810604Y-58010129D01*
X75732776Y-57999450D01*
X75656369Y-57981195D01*
X75582119Y-57955538D01*
X75510742Y-57922727D01*
X75442925Y-57883078D01*
X75379320Y-57836973D01*
X75320541Y-57784855D01*
X75267153Y-57727227D01*
X74238050Y-56500790D01*
X74190568Y-56438206D01*
X74149449Y-56371270D01*
X74115089Y-56300625D01*
X74087819Y-56226953D01*
X74067901Y-56150963D01*
X74055527Y-56073386D01*
X74050817Y-55994970D01*
X74053815Y-55916470D01*
X74064494Y-55838642D01*
X74082749Y-55762235D01*
X74108406Y-55687985D01*
X74141217Y-55616608D01*
X74180866Y-55548791D01*
X74226971Y-55485186D01*
X74279089Y-55426407D01*
X74336717Y-55373019D01*
X75563154Y-54343916D01*
X75625738Y-54296434D01*
X75692674Y-54255315D01*
X75763319Y-54220955D01*
X75836991Y-54193685D01*
X75912981Y-54173767D01*
X75990558Y-54161393D01*
X76068974Y-54156683D01*
X76147474Y-54159681D01*
X76147474Y-54159681D01*
G37*
D19*
X75979039Y-56084905D03*
D18*
G36*
X82440738Y-55732393D02*
G01*
X82518566Y-55743072D01*
X82594973Y-55761327D01*
X82669223Y-55786984D01*
X82740600Y-55819795D01*
X82808417Y-55859444D01*
X82872022Y-55905549D01*
X82930801Y-55957667D01*
X82984189Y-56015295D01*
X84013292Y-57241732D01*
X84060774Y-57304316D01*
X84101893Y-57371252D01*
X84136253Y-57441897D01*
X84163523Y-57515569D01*
X84183441Y-57591559D01*
X84195815Y-57669136D01*
X84200525Y-57747552D01*
X84197527Y-57826052D01*
X84186848Y-57903880D01*
X84168593Y-57980287D01*
X84142936Y-58054537D01*
X84110125Y-58125914D01*
X84070476Y-58193731D01*
X84024371Y-58257336D01*
X83972253Y-58316115D01*
X83914625Y-58369503D01*
X82688188Y-59398606D01*
X82625604Y-59446088D01*
X82558668Y-59487207D01*
X82488023Y-59521567D01*
X82414351Y-59548837D01*
X82338361Y-59568755D01*
X82260784Y-59581129D01*
X82182368Y-59585839D01*
X82103868Y-59582841D01*
X82026040Y-59572162D01*
X81949633Y-59553907D01*
X81875383Y-59528250D01*
X81804006Y-59495439D01*
X81736189Y-59455790D01*
X81672584Y-59409685D01*
X81613805Y-59357567D01*
X81560417Y-59299939D01*
X80531314Y-58073502D01*
X80483832Y-58010918D01*
X80442713Y-57943982D01*
X80408353Y-57873337D01*
X80381083Y-57799665D01*
X80361165Y-57723675D01*
X80348791Y-57646098D01*
X80344081Y-57567682D01*
X80347079Y-57489182D01*
X80357758Y-57411354D01*
X80376013Y-57334947D01*
X80401670Y-57260697D01*
X80434481Y-57189320D01*
X80474130Y-57121503D01*
X80520235Y-57057898D01*
X80572353Y-56999119D01*
X80629981Y-56945731D01*
X81856418Y-55916628D01*
X81919002Y-55869146D01*
X81985938Y-55828027D01*
X82056583Y-55793667D01*
X82130255Y-55766397D01*
X82206245Y-55746479D01*
X82283822Y-55734105D01*
X82362238Y-55729395D01*
X82440738Y-55732393D01*
X82440738Y-55732393D01*
G37*
D19*
X82272303Y-57657617D03*
D18*
G36*
X86612429Y-60704022D02*
G01*
X86690257Y-60714701D01*
X86766664Y-60732956D01*
X86840914Y-60758613D01*
X86912291Y-60791424D01*
X86980108Y-60831073D01*
X87043713Y-60877178D01*
X87102492Y-60929296D01*
X87155880Y-60986924D01*
X88184983Y-62213361D01*
X88232465Y-62275945D01*
X88273584Y-62342881D01*
X88307944Y-62413526D01*
X88335214Y-62487198D01*
X88355132Y-62563188D01*
X88367506Y-62640765D01*
X88372216Y-62719181D01*
X88369218Y-62797681D01*
X88358539Y-62875509D01*
X88340284Y-62951916D01*
X88314627Y-63026166D01*
X88281816Y-63097543D01*
X88242167Y-63165360D01*
X88196062Y-63228965D01*
X88143944Y-63287744D01*
X88086316Y-63341132D01*
X86859879Y-64370235D01*
X86797295Y-64417717D01*
X86730359Y-64458836D01*
X86659714Y-64493196D01*
X86586042Y-64520466D01*
X86510052Y-64540384D01*
X86432475Y-64552758D01*
X86354059Y-64557468D01*
X86275559Y-64554470D01*
X86197731Y-64543791D01*
X86121324Y-64525536D01*
X86047074Y-64499879D01*
X85975697Y-64467068D01*
X85907880Y-64427419D01*
X85844275Y-64381314D01*
X85785496Y-64329196D01*
X85732108Y-64271568D01*
X84703005Y-63045131D01*
X84655523Y-62982547D01*
X84614404Y-62915611D01*
X84580044Y-62844966D01*
X84552774Y-62771294D01*
X84532856Y-62695304D01*
X84520482Y-62617727D01*
X84515772Y-62539311D01*
X84518770Y-62460811D01*
X84529449Y-62382983D01*
X84547704Y-62306576D01*
X84573361Y-62232326D01*
X84606172Y-62160949D01*
X84645821Y-62093132D01*
X84691926Y-62029527D01*
X84744044Y-61970748D01*
X84801672Y-61917360D01*
X86028109Y-60888257D01*
X86090693Y-60840775D01*
X86157629Y-60799656D01*
X86228274Y-60765296D01*
X86301946Y-60738026D01*
X86377936Y-60718108D01*
X86455513Y-60705734D01*
X86533929Y-60701024D01*
X86612429Y-60704022D01*
X86612429Y-60704022D01*
G37*
D19*
X86443994Y-62629246D03*
X86900000Y-69100000D03*
D18*
G36*
X87097334Y-66844460D02*
G01*
X89155540Y-69297334D01*
X86702666Y-71355540D01*
X84644460Y-68902666D01*
X87097334Y-66844460D01*
X87097334Y-66844460D01*
G37*
G36*
X44015447Y-75106775D02*
G01*
X44093275Y-75117454D01*
X44169682Y-75135709D01*
X44243932Y-75161366D01*
X44315309Y-75194177D01*
X44383126Y-75233826D01*
X44446731Y-75279931D01*
X44505510Y-75332049D01*
X44558898Y-75389677D01*
X45588001Y-76616114D01*
X45635483Y-76678698D01*
X45676602Y-76745634D01*
X45710962Y-76816279D01*
X45738232Y-76889951D01*
X45758150Y-76965941D01*
X45770524Y-77043518D01*
X45775234Y-77121934D01*
X45772236Y-77200434D01*
X45761557Y-77278262D01*
X45743302Y-77354669D01*
X45717645Y-77428919D01*
X45684834Y-77500296D01*
X45645185Y-77568113D01*
X45599080Y-77631718D01*
X45546962Y-77690497D01*
X45489334Y-77743885D01*
X44262897Y-78772988D01*
X44200313Y-78820470D01*
X44133377Y-78861589D01*
X44062732Y-78895949D01*
X43989060Y-78923219D01*
X43913070Y-78943137D01*
X43835493Y-78955511D01*
X43757077Y-78960221D01*
X43678577Y-78957223D01*
X43600749Y-78946544D01*
X43524342Y-78928289D01*
X43450092Y-78902632D01*
X43378715Y-78869821D01*
X43310898Y-78830172D01*
X43247293Y-78784067D01*
X43188514Y-78731949D01*
X43135126Y-78674321D01*
X42106023Y-77447884D01*
X42058541Y-77385300D01*
X42017422Y-77318364D01*
X41983062Y-77247719D01*
X41955792Y-77174047D01*
X41935874Y-77098057D01*
X41923500Y-77020480D01*
X41918790Y-76942064D01*
X41921788Y-76863564D01*
X41932467Y-76785736D01*
X41950722Y-76709329D01*
X41976379Y-76635079D01*
X42009190Y-76563702D01*
X42048839Y-76495885D01*
X42094944Y-76432280D01*
X42147062Y-76373501D01*
X42204690Y-76320113D01*
X43431127Y-75291010D01*
X43493711Y-75243528D01*
X43560647Y-75202409D01*
X43631292Y-75168049D01*
X43704964Y-75140779D01*
X43780954Y-75120861D01*
X43858531Y-75108487D01*
X43936947Y-75103777D01*
X44015447Y-75106775D01*
X44015447Y-75106775D01*
G37*
D19*
X43847012Y-77031999D03*
D18*
G36*
X37714522Y-73540490D02*
G01*
X37792350Y-73551169D01*
X37868757Y-73569424D01*
X37943007Y-73595081D01*
X38014384Y-73627892D01*
X38082201Y-73667541D01*
X38145806Y-73713646D01*
X38204585Y-73765764D01*
X38257973Y-73823392D01*
X39287076Y-75049829D01*
X39334558Y-75112413D01*
X39375677Y-75179349D01*
X39410037Y-75249994D01*
X39437307Y-75323666D01*
X39457225Y-75399656D01*
X39469599Y-75477233D01*
X39474309Y-75555649D01*
X39471311Y-75634149D01*
X39460632Y-75711977D01*
X39442377Y-75788384D01*
X39416720Y-75862634D01*
X39383909Y-75934011D01*
X39344260Y-76001828D01*
X39298155Y-76065433D01*
X39246037Y-76124212D01*
X39188409Y-76177600D01*
X37961972Y-77206703D01*
X37899388Y-77254185D01*
X37832452Y-77295304D01*
X37761807Y-77329664D01*
X37688135Y-77356934D01*
X37612145Y-77376852D01*
X37534568Y-77389226D01*
X37456152Y-77393936D01*
X37377652Y-77390938D01*
X37299824Y-77380259D01*
X37223417Y-77362004D01*
X37149167Y-77336347D01*
X37077790Y-77303536D01*
X37009973Y-77263887D01*
X36946368Y-77217782D01*
X36887589Y-77165664D01*
X36834201Y-77108036D01*
X35805098Y-75881599D01*
X35757616Y-75819015D01*
X35716497Y-75752079D01*
X35682137Y-75681434D01*
X35654867Y-75607762D01*
X35634949Y-75531772D01*
X35622575Y-75454195D01*
X35617865Y-75375779D01*
X35620863Y-75297279D01*
X35631542Y-75219451D01*
X35649797Y-75143044D01*
X35675454Y-75068794D01*
X35708265Y-74997417D01*
X35747914Y-74929600D01*
X35794019Y-74865995D01*
X35846137Y-74807216D01*
X35903765Y-74753828D01*
X37130202Y-73724725D01*
X37192786Y-73677243D01*
X37259722Y-73636124D01*
X37330367Y-73601764D01*
X37404039Y-73574494D01*
X37480029Y-73554576D01*
X37557606Y-73542202D01*
X37636022Y-73537492D01*
X37714522Y-73540490D01*
X37714522Y-73540490D01*
G37*
D19*
X37546087Y-75465714D03*
D18*
G36*
X33542830Y-68568862D02*
G01*
X33620658Y-68579541D01*
X33697065Y-68597796D01*
X33771315Y-68623453D01*
X33842692Y-68656264D01*
X33910509Y-68695913D01*
X33974114Y-68742018D01*
X34032893Y-68794136D01*
X34086281Y-68851764D01*
X35115384Y-70078201D01*
X35162866Y-70140785D01*
X35203985Y-70207721D01*
X35238345Y-70278366D01*
X35265615Y-70352038D01*
X35285533Y-70428028D01*
X35297907Y-70505605D01*
X35302617Y-70584021D01*
X35299619Y-70662521D01*
X35288940Y-70740349D01*
X35270685Y-70816756D01*
X35245028Y-70891006D01*
X35212217Y-70962383D01*
X35172568Y-71030200D01*
X35126463Y-71093805D01*
X35074345Y-71152584D01*
X35016717Y-71205972D01*
X33790280Y-72235075D01*
X33727696Y-72282557D01*
X33660760Y-72323676D01*
X33590115Y-72358036D01*
X33516443Y-72385306D01*
X33440453Y-72405224D01*
X33362876Y-72417598D01*
X33284460Y-72422308D01*
X33205960Y-72419310D01*
X33128132Y-72408631D01*
X33051725Y-72390376D01*
X32977475Y-72364719D01*
X32906098Y-72331908D01*
X32838281Y-72292259D01*
X32774676Y-72246154D01*
X32715897Y-72194036D01*
X32662509Y-72136408D01*
X31633406Y-70909971D01*
X31585924Y-70847387D01*
X31544805Y-70780451D01*
X31510445Y-70709806D01*
X31483175Y-70636134D01*
X31463257Y-70560144D01*
X31450883Y-70482567D01*
X31446173Y-70404151D01*
X31449171Y-70325651D01*
X31459850Y-70247823D01*
X31478105Y-70171416D01*
X31503762Y-70097166D01*
X31536573Y-70025789D01*
X31576222Y-69957972D01*
X31622327Y-69894367D01*
X31674445Y-69835588D01*
X31732073Y-69782200D01*
X32958510Y-68753097D01*
X33021094Y-68705615D01*
X33088030Y-68664496D01*
X33158675Y-68630136D01*
X33232347Y-68602866D01*
X33308337Y-68582948D01*
X33385914Y-68570574D01*
X33464330Y-68565864D01*
X33542830Y-68568862D01*
X33542830Y-68568862D01*
G37*
D19*
X33374395Y-70494086D03*
D18*
G36*
X33094485Y-62091680D02*
G01*
X33172313Y-62102359D01*
X33248720Y-62120614D01*
X33322970Y-62146271D01*
X33394347Y-62179082D01*
X33462164Y-62218731D01*
X33525769Y-62264836D01*
X33584548Y-62316954D01*
X33637936Y-62374582D01*
X34667039Y-63601019D01*
X34714521Y-63663603D01*
X34755640Y-63730539D01*
X34790000Y-63801184D01*
X34817270Y-63874856D01*
X34837188Y-63950846D01*
X34849562Y-64028423D01*
X34854272Y-64106839D01*
X34851274Y-64185339D01*
X34840595Y-64263167D01*
X34822340Y-64339574D01*
X34796683Y-64413824D01*
X34763872Y-64485201D01*
X34724223Y-64553018D01*
X34678118Y-64616623D01*
X34626000Y-64675402D01*
X34568372Y-64728790D01*
X33341935Y-65757893D01*
X33279351Y-65805375D01*
X33212415Y-65846494D01*
X33141770Y-65880854D01*
X33068098Y-65908124D01*
X32992108Y-65928042D01*
X32914531Y-65940416D01*
X32836115Y-65945126D01*
X32757615Y-65942128D01*
X32679787Y-65931449D01*
X32603380Y-65913194D01*
X32529130Y-65887537D01*
X32457753Y-65854726D01*
X32389936Y-65815077D01*
X32326331Y-65768972D01*
X32267552Y-65716854D01*
X32214164Y-65659226D01*
X31185061Y-64432789D01*
X31137579Y-64370205D01*
X31096460Y-64303269D01*
X31062100Y-64232624D01*
X31034830Y-64158952D01*
X31014912Y-64082962D01*
X31002538Y-64005385D01*
X30997828Y-63926969D01*
X31000826Y-63848469D01*
X31011505Y-63770641D01*
X31029760Y-63694234D01*
X31055417Y-63619984D01*
X31088228Y-63548607D01*
X31127877Y-63480790D01*
X31173982Y-63417185D01*
X31226100Y-63358406D01*
X31283728Y-63305018D01*
X32510165Y-62275915D01*
X32572749Y-62228433D01*
X32639685Y-62187314D01*
X32710330Y-62152954D01*
X32784002Y-62125684D01*
X32859992Y-62105766D01*
X32937569Y-62093392D01*
X33015985Y-62088682D01*
X33094485Y-62091680D01*
X33094485Y-62091680D01*
G37*
D19*
X32926050Y-64016904D03*
D18*
G36*
X36535404Y-56593592D02*
G01*
X36613232Y-56604271D01*
X36689639Y-56622526D01*
X36763889Y-56648183D01*
X36835266Y-56680994D01*
X36903083Y-56720643D01*
X36966688Y-56766748D01*
X37025467Y-56818866D01*
X37078855Y-56876494D01*
X38107958Y-58102931D01*
X38155440Y-58165515D01*
X38196559Y-58232451D01*
X38230919Y-58303096D01*
X38258189Y-58376768D01*
X38278107Y-58452758D01*
X38290481Y-58530335D01*
X38295191Y-58608751D01*
X38292193Y-58687251D01*
X38281514Y-58765079D01*
X38263259Y-58841486D01*
X38237602Y-58915736D01*
X38204791Y-58987113D01*
X38165142Y-59054930D01*
X38119037Y-59118535D01*
X38066919Y-59177314D01*
X38009291Y-59230702D01*
X36782854Y-60259805D01*
X36720270Y-60307287D01*
X36653334Y-60348406D01*
X36582689Y-60382766D01*
X36509017Y-60410036D01*
X36433027Y-60429954D01*
X36355450Y-60442328D01*
X36277034Y-60447038D01*
X36198534Y-60444040D01*
X36120706Y-60433361D01*
X36044299Y-60415106D01*
X35970049Y-60389449D01*
X35898672Y-60356638D01*
X35830855Y-60316989D01*
X35767250Y-60270884D01*
X35708471Y-60218766D01*
X35655083Y-60161138D01*
X34625980Y-58934701D01*
X34578498Y-58872117D01*
X34537379Y-58805181D01*
X34503019Y-58734536D01*
X34475749Y-58660864D01*
X34455831Y-58584874D01*
X34443457Y-58507297D01*
X34438747Y-58428881D01*
X34441745Y-58350381D01*
X34452424Y-58272553D01*
X34470679Y-58196146D01*
X34496336Y-58121896D01*
X34529147Y-58050519D01*
X34568796Y-57982702D01*
X34614901Y-57919097D01*
X34667019Y-57860318D01*
X34724647Y-57806930D01*
X35951084Y-56777827D01*
X36013668Y-56730345D01*
X36080604Y-56689226D01*
X36151249Y-56654866D01*
X36224921Y-56627596D01*
X36300911Y-56607678D01*
X36378488Y-56595304D01*
X36456904Y-56590594D01*
X36535404Y-56593592D01*
X36535404Y-56593592D01*
G37*
D19*
X36366969Y-58518816D03*
D18*
G36*
X42547474Y-54159681D02*
G01*
X42625302Y-54170360D01*
X42701709Y-54188615D01*
X42775959Y-54214272D01*
X42847336Y-54247083D01*
X42915153Y-54286732D01*
X42978758Y-54332837D01*
X43037537Y-54384955D01*
X43090925Y-54442583D01*
X44120028Y-55669020D01*
X44167510Y-55731604D01*
X44208629Y-55798540D01*
X44242989Y-55869185D01*
X44270259Y-55942857D01*
X44290177Y-56018847D01*
X44302551Y-56096424D01*
X44307261Y-56174840D01*
X44304263Y-56253340D01*
X44293584Y-56331168D01*
X44275329Y-56407575D01*
X44249672Y-56481825D01*
X44216861Y-56553202D01*
X44177212Y-56621019D01*
X44131107Y-56684624D01*
X44078989Y-56743403D01*
X44021361Y-56796791D01*
X42794924Y-57825894D01*
X42732340Y-57873376D01*
X42665404Y-57914495D01*
X42594759Y-57948855D01*
X42521087Y-57976125D01*
X42445097Y-57996043D01*
X42367520Y-58008417D01*
X42289104Y-58013127D01*
X42210604Y-58010129D01*
X42132776Y-57999450D01*
X42056369Y-57981195D01*
X41982119Y-57955538D01*
X41910742Y-57922727D01*
X41842925Y-57883078D01*
X41779320Y-57836973D01*
X41720541Y-57784855D01*
X41667153Y-57727227D01*
X40638050Y-56500790D01*
X40590568Y-56438206D01*
X40549449Y-56371270D01*
X40515089Y-56300625D01*
X40487819Y-56226953D01*
X40467901Y-56150963D01*
X40455527Y-56073386D01*
X40450817Y-55994970D01*
X40453815Y-55916470D01*
X40464494Y-55838642D01*
X40482749Y-55762235D01*
X40508406Y-55687985D01*
X40541217Y-55616608D01*
X40580866Y-55548791D01*
X40626971Y-55485186D01*
X40679089Y-55426407D01*
X40736717Y-55373019D01*
X41963154Y-54343916D01*
X42025738Y-54296434D01*
X42092674Y-54255315D01*
X42163319Y-54220955D01*
X42236991Y-54193685D01*
X42312981Y-54173767D01*
X42390558Y-54161393D01*
X42468974Y-54156683D01*
X42547474Y-54159681D01*
X42547474Y-54159681D01*
G37*
D19*
X42379039Y-56084905D03*
D18*
G36*
X48840738Y-55732393D02*
G01*
X48918566Y-55743072D01*
X48994973Y-55761327D01*
X49069223Y-55786984D01*
X49140600Y-55819795D01*
X49208417Y-55859444D01*
X49272022Y-55905549D01*
X49330801Y-55957667D01*
X49384189Y-56015295D01*
X50413292Y-57241732D01*
X50460774Y-57304316D01*
X50501893Y-57371252D01*
X50536253Y-57441897D01*
X50563523Y-57515569D01*
X50583441Y-57591559D01*
X50595815Y-57669136D01*
X50600525Y-57747552D01*
X50597527Y-57826052D01*
X50586848Y-57903880D01*
X50568593Y-57980287D01*
X50542936Y-58054537D01*
X50510125Y-58125914D01*
X50470476Y-58193731D01*
X50424371Y-58257336D01*
X50372253Y-58316115D01*
X50314625Y-58369503D01*
X49088188Y-59398606D01*
X49025604Y-59446088D01*
X48958668Y-59487207D01*
X48888023Y-59521567D01*
X48814351Y-59548837D01*
X48738361Y-59568755D01*
X48660784Y-59581129D01*
X48582368Y-59585839D01*
X48503868Y-59582841D01*
X48426040Y-59572162D01*
X48349633Y-59553907D01*
X48275383Y-59528250D01*
X48204006Y-59495439D01*
X48136189Y-59455790D01*
X48072584Y-59409685D01*
X48013805Y-59357567D01*
X47960417Y-59299939D01*
X46931314Y-58073502D01*
X46883832Y-58010918D01*
X46842713Y-57943982D01*
X46808353Y-57873337D01*
X46781083Y-57799665D01*
X46761165Y-57723675D01*
X46748791Y-57646098D01*
X46744081Y-57567682D01*
X46747079Y-57489182D01*
X46757758Y-57411354D01*
X46776013Y-57334947D01*
X46801670Y-57260697D01*
X46834481Y-57189320D01*
X46874130Y-57121503D01*
X46920235Y-57057898D01*
X46972353Y-56999119D01*
X47029981Y-56945731D01*
X48256418Y-55916628D01*
X48319002Y-55869146D01*
X48385938Y-55828027D01*
X48456583Y-55793667D01*
X48530255Y-55766397D01*
X48606245Y-55746479D01*
X48683822Y-55734105D01*
X48762238Y-55729395D01*
X48840738Y-55732393D01*
X48840738Y-55732393D01*
G37*
D19*
X48672303Y-57657617D03*
D18*
G36*
X53012429Y-60704022D02*
G01*
X53090257Y-60714701D01*
X53166664Y-60732956D01*
X53240914Y-60758613D01*
X53312291Y-60791424D01*
X53380108Y-60831073D01*
X53443713Y-60877178D01*
X53502492Y-60929296D01*
X53555880Y-60986924D01*
X54584983Y-62213361D01*
X54632465Y-62275945D01*
X54673584Y-62342881D01*
X54707944Y-62413526D01*
X54735214Y-62487198D01*
X54755132Y-62563188D01*
X54767506Y-62640765D01*
X54772216Y-62719181D01*
X54769218Y-62797681D01*
X54758539Y-62875509D01*
X54740284Y-62951916D01*
X54714627Y-63026166D01*
X54681816Y-63097543D01*
X54642167Y-63165360D01*
X54596062Y-63228965D01*
X54543944Y-63287744D01*
X54486316Y-63341132D01*
X53259879Y-64370235D01*
X53197295Y-64417717D01*
X53130359Y-64458836D01*
X53059714Y-64493196D01*
X52986042Y-64520466D01*
X52910052Y-64540384D01*
X52832475Y-64552758D01*
X52754059Y-64557468D01*
X52675559Y-64554470D01*
X52597731Y-64543791D01*
X52521324Y-64525536D01*
X52447074Y-64499879D01*
X52375697Y-64467068D01*
X52307880Y-64427419D01*
X52244275Y-64381314D01*
X52185496Y-64329196D01*
X52132108Y-64271568D01*
X51103005Y-63045131D01*
X51055523Y-62982547D01*
X51014404Y-62915611D01*
X50980044Y-62844966D01*
X50952774Y-62771294D01*
X50932856Y-62695304D01*
X50920482Y-62617727D01*
X50915772Y-62539311D01*
X50918770Y-62460811D01*
X50929449Y-62382983D01*
X50947704Y-62306576D01*
X50973361Y-62232326D01*
X51006172Y-62160949D01*
X51045821Y-62093132D01*
X51091926Y-62029527D01*
X51144044Y-61970748D01*
X51201672Y-61917360D01*
X52428109Y-60888257D01*
X52490693Y-60840775D01*
X52557629Y-60799656D01*
X52628274Y-60765296D01*
X52701946Y-60738026D01*
X52777936Y-60718108D01*
X52855513Y-60705734D01*
X52933929Y-60701024D01*
X53012429Y-60704022D01*
X53012429Y-60704022D01*
G37*
D19*
X52843994Y-62629246D03*
X53300000Y-69100000D03*
D18*
G36*
X53497334Y-66844460D02*
G01*
X55555540Y-69297334D01*
X53102666Y-71355540D01*
X51044460Y-68902666D01*
X53497334Y-66844460D01*
X53497334Y-66844460D01*
G37*
D20*
X99200000Y-62400000D03*
D21*
X99200000Y-57400000D03*
D15*
X72500000Y-93800000D03*
D22*
X72500000Y-91300000D03*
D21*
X31500000Y-81600000D03*
X39000000Y-81600000D03*
D15*
X91400000Y-62400000D03*
D14*
X91400000Y-70020000D03*
X60880000Y-54500000D03*
D15*
X68500000Y-54500000D03*
X95800000Y-67500000D03*
D14*
X95800000Y-75120000D03*
X78520000Y-84400000D03*
D15*
X70900000Y-84400000D03*
X93400000Y-54500000D03*
D14*
X85780000Y-54500000D03*
D15*
X99300000Y-75100000D03*
D14*
X99300000Y-67480000D03*
X57700000Y-71320000D03*
D15*
X57700000Y-63700000D03*
X57700000Y-81100000D03*
D14*
X57700000Y-73480000D03*
X54120000Y-81000000D03*
D15*
X46500000Y-81000000D03*
X56300000Y-84000000D03*
D14*
X63920000Y-84000000D03*
X54120000Y-84100000D03*
D15*
X46500000Y-84100000D03*
D14*
X102580000Y-75100000D03*
D15*
X110200000Y-75100000D03*
D22*
X57600000Y-56400000D03*
D15*
X55100000Y-56400000D03*
D23*
X34500000Y-97200000D03*
D24*
X34500000Y-92120000D03*
X34500000Y-87040000D03*
D13*
X85500000Y-83980000D03*
D12*
X88040000Y-84000000D03*
X90580000Y-84000000D03*
X93120000Y-84000000D03*
X95660000Y-84000000D03*
X98200000Y-84000000D03*
D21*
X61500000Y-63400000D03*
X61500000Y-70900000D03*
X67400000Y-79900000D03*
X67400000Y-87400000D03*
X56345000Y-92400000D03*
X63845000Y-92400000D03*
M02*
