M48
; DRILL file {KiCad (5.1.0)-1} date 23/04/2019 00:00:34
; FORMAT={-:-/ absolute / metric / decimal}
; #@! TF.CreationDate,2019-04-23T00:00:34+02:00
; #@! TF.GenerationSoftware,Kicad,Pcbnew,(5.1.0)-1
FMAT,2
METRIC
T1C0.400
T2C0.800
T3C0.960
T4C1.000
T5C1.100
T6C1.200
T7C1.300
T8C1.500
T9C2.000
%
G90
G05
T1
X138.4Y-130.1
T2
X110.4Y-128.18
X110.4Y-135.8
X118.6Y-114.8
X118.6Y-119.8
X121.3Y-147.6
X128.92Y-147.6
X111.5Y-112.18
X111.5Y-119.8
X219.14Y-152.0
X229.3Y-152.0
X100.0Y-147.98
X100.0Y-155.6
X82.4Y-124.6
X82.4Y-129.6
X89.7Y-108.5
X97.32Y-108.5
X214.1Y-130.2
X214.1Y-137.82
X236.0Y-130.2
X236.0Y-137.82
X111.4Y-104.7
X111.4Y-109.7
X187.5Y-130.2
X187.5Y-137.82
X159.6Y-109.58
X159.6Y-117.2
X89.58Y-116.2
X97.2Y-116.2
X114.9Y-114.8
X114.9Y-119.8
X121.3Y-150.9
X128.92Y-150.9
X92.0Y-120.3
X97.0Y-120.3
X91.0Y-112.6
X93.54Y-112.6
X96.08Y-112.6
X112.54Y-145.41
X112.54Y-147.91
X100.2Y-114.7
X100.2Y-117.24
X100.2Y-119.78
X100.2Y-122.32
X107.82Y-114.7
X107.82Y-117.24
X107.82Y-119.78
X107.82Y-122.32
X108.6Y-125.2
X116.22Y-125.2
T4
X82.0Y-110.92
X82.0Y-113.46
X82.0Y-116.0
X82.0Y-118.54
X82.0Y-121.08
X162.3Y-136.5
X162.3Y-144.0
X178.0Y-106.92
X178.0Y-109.46
X178.0Y-112.0
X90.6Y-131.66
X90.6Y-136.66
X147.02Y-156.5
X149.56Y-156.5
X152.1Y-156.5
X154.64Y-156.5
X157.18Y-156.5
X159.72Y-156.5
X212.0Y-106.92
X212.0Y-109.46
X212.0Y-112.0
X121.36Y-155.8
X128.86Y-155.8
X118.5Y-104.8
X118.5Y-109.8
X90.6Y-131.66
X90.6Y-134.2
X115.1Y-129.67
X115.1Y-132.21
X115.1Y-134.75
X82.0Y-139.3
X82.0Y-141.84
X82.0Y-144.38
X82.0Y-146.92
X82.0Y-149.46
X82.0Y-152.0
X178.0Y-151.92
X178.0Y-154.46
X178.0Y-157.0
X212.0Y-151.92
X212.0Y-154.46
X212.0Y-157.0
X137.5Y-136.5
X137.5Y-144.0
T5
X126.08Y-118.9
X133.7Y-118.9
X90.5Y-105.4
X93.04Y-105.4
X95.58Y-105.4
T6
X86.3Y-111.84
X86.3Y-122.0
X102.0Y-105.0
X102.0Y-110.0
X106.0Y-105.0
X106.0Y-110.0
T7
X195.0Y-144.2
X200.0Y-144.2
X205.0Y-144.2
X95.0Y-144.2
X100.0Y-144.2
X105.0Y-144.2
X220.0Y-144.2
X225.0Y-144.2
X230.0Y-144.2
X145.0Y-144.2
X150.0Y-144.2
X155.0Y-144.2
X170.0Y-144.2
X175.0Y-144.2
X180.0Y-144.2
X120.0Y-144.2
X125.0Y-144.2
X130.0Y-144.2
T8
X138.5Y-106.0
X138.5Y-118.7
X154.73Y-106.0
X154.73Y-118.7
X182.0Y-106.0
X182.0Y-118.7
X198.23Y-106.0
X198.23Y-118.7
X231.2Y-157.7
X224.5Y-106.0
X224.5Y-112.35
X224.5Y-118.7
X240.73Y-106.0
X240.73Y-112.35
X240.73Y-118.7
X217.6Y-157.7
X236.28Y-157.7
X222.6Y-157.7
X241.36Y-157.7
T9
X214.0Y-141.5
X214.0Y-147.85
T3
G00X186.085Y-148.5
M15
G01X184.055Y-148.5
M16
G05
G00X186.085Y-153.2
M15
G01X184.055Y-153.2
M16
G05
G00X186.085Y-157.9
M15
G01X184.055Y-157.9
M16
G05
G00X190.915Y-148.5
M15
G01X188.885Y-148.5
M16
G05
G00X190.915Y-153.2
M15
G01X188.885Y-153.2
M16
G05
G00X190.915Y-157.9
M15
G01X188.885Y-157.9
M16
G05
G00X136.085Y-148.5
M15
G01X134.055Y-148.5
M16
G05
G00X136.085Y-153.2
M15
G01X134.055Y-153.2
M16
G05
G00X136.085Y-157.9
M15
G01X134.055Y-157.9
M16
G05
G00X140.915Y-148.5
M15
G01X138.885Y-148.5
M16
G05
G00X140.915Y-153.2
M15
G01X138.885Y-153.2
M16
G05
G00X140.915Y-157.9
M15
G01X138.885Y-157.9
M16
G05
T4
G00X125.7Y-109.6
M15
G01X125.7Y-111.6
M16
G05
G00X131.4Y-107.6
M15
G01X129.4Y-107.6
M16
G05
G00X131.4Y-113.6
M15
G01X129.4Y-113.6
M16
G05
T0
M30
